G04 #@! TF.GenerationSoftware,KiCad,Pcbnew,8.0.6*
G04 #@! TF.CreationDate,2024-12-17T01:06:02+01:00*
G04 #@! TF.ProjectId,wxKeyboard,77784b65-7962-46f6-9172-642e6b696361,rev?*
G04 #@! TF.SameCoordinates,Original*
G04 #@! TF.FileFunction,Soldermask,Bot*
G04 #@! TF.FilePolarity,Negative*
%FSLAX46Y46*%
G04 Gerber Fmt 4.6, Leading zero omitted, Abs format (unit mm)*
G04 Created by KiCad (PCBNEW 8.0.6) date 2024-12-17 01:06:02*
%MOMM*%
%LPD*%
G01*
G04 APERTURE LIST*
G04 Aperture macros list*
%AMRoundRect*
0 Rectangle with rounded corners*
0 $1 Rounding radius*
0 $2 $3 $4 $5 $6 $7 $8 $9 X,Y pos of 4 corners*
0 Add a 4 corners polygon primitive as box body*
4,1,4,$2,$3,$4,$5,$6,$7,$8,$9,$2,$3,0*
0 Add four circle primitives for the rounded corners*
1,1,$1+$1,$2,$3*
1,1,$1+$1,$4,$5*
1,1,$1+$1,$6,$7*
1,1,$1+$1,$8,$9*
0 Add four rect primitives between the rounded corners*
20,1,$1+$1,$2,$3,$4,$5,0*
20,1,$1+$1,$4,$5,$6,$7,0*
20,1,$1+$1,$6,$7,$8,$9,0*
20,1,$1+$1,$8,$9,$2,$3,0*%
G04 Aperture macros list end*
%ADD10C,2.200000*%
%ADD11C,3.048000*%
%ADD12C,3.987800*%
%ADD13C,1.750000*%
%ADD14C,3.050000*%
%ADD15C,4.000000*%
%ADD16RoundRect,0.250000X-1.025000X-1.000000X1.025000X-1.000000X1.025000X1.000000X-1.025000X1.000000X0*%
%ADD17C,1.524000*%
%ADD18RoundRect,0.250001X0.462499X0.624999X-0.462499X0.624999X-0.462499X-0.624999X0.462499X-0.624999X0*%
G04 APERTURE END LIST*
D10*
X357200000Y-377200000D03*
X433400000Y-378100000D03*
X290500000Y-426600000D03*
X271200000Y-357500000D03*
X506700000Y-338100000D03*
X440700000Y-327000000D03*
X511300000Y-407900000D03*
X197500000Y-327600000D03*
X207900000Y-391800000D03*
D11*
X443071250Y-390556750D03*
D12*
X458281250Y-390556750D03*
D11*
X443071250Y-366680750D03*
D12*
X458281250Y-366680750D03*
D13*
X421163750Y-426243750D03*
D14*
X422433750Y-423703750D03*
D15*
X426243750Y-426243750D03*
D14*
X428783750Y-421163750D03*
D13*
X431323750Y-426243750D03*
D16*
X419158750Y-423703750D03*
X432085750Y-421163750D03*
D13*
X509270000Y-369093750D03*
D14*
X510540000Y-366553750D03*
D15*
X514350000Y-369093750D03*
D14*
X516890000Y-364013750D03*
D13*
X519430000Y-369093750D03*
D16*
X507265000Y-366553750D03*
X520192000Y-364013750D03*
D13*
X375887500Y-407193750D03*
D14*
X377157500Y-404653750D03*
D15*
X380967500Y-407193750D03*
D14*
X383507500Y-402113750D03*
D13*
X386047500Y-407193750D03*
D16*
X373882500Y-404653750D03*
X386809500Y-402113750D03*
D13*
X471170000Y-326231250D03*
D14*
X472440000Y-323691250D03*
D15*
X476250000Y-326231250D03*
D14*
X478790000Y-321151250D03*
D13*
X481330000Y-326231250D03*
D16*
X469165000Y-323691250D03*
X482092000Y-321151250D03*
D13*
X366395000Y-388143750D03*
D14*
X367665000Y-385603750D03*
D15*
X371475000Y-388143750D03*
D14*
X374015000Y-383063750D03*
D13*
X376555000Y-388143750D03*
D16*
X364390000Y-385603750D03*
X377317000Y-383063750D03*
D13*
X285432500Y-326231250D03*
D14*
X286702500Y-323691250D03*
D15*
X290512500Y-326231250D03*
D14*
X293052500Y-321151250D03*
D13*
X295592500Y-326231250D03*
D16*
X283427500Y-323691250D03*
X296354500Y-321151250D03*
D13*
X423545000Y-326231250D03*
D14*
X424815000Y-323691250D03*
D15*
X428625000Y-326231250D03*
D14*
X431165000Y-321151250D03*
D13*
X433705000Y-326231250D03*
D16*
X421540000Y-323691250D03*
X434467000Y-321151250D03*
D11*
X257181250Y-419258750D03*
D12*
X257181250Y-434468750D03*
D11*
X357181250Y-419258750D03*
D12*
X357181250Y-434468750D03*
D13*
X509270000Y-326231250D03*
D14*
X510540000Y-323691250D03*
D15*
X514350000Y-326231250D03*
D14*
X516890000Y-321151250D03*
D13*
X519430000Y-326231250D03*
D16*
X507265000Y-323691250D03*
X520192000Y-321151250D03*
D13*
X404495000Y-388143750D03*
D14*
X405765000Y-385603750D03*
D15*
X409575000Y-388143750D03*
D14*
X412115000Y-383063750D03*
D13*
X414655000Y-388143750D03*
D16*
X402490000Y-385603750D03*
X415417000Y-383063750D03*
D13*
X187801250Y-388143750D03*
D14*
X189071250Y-385603750D03*
D15*
X192881250Y-388143750D03*
D14*
X195421250Y-383063750D03*
D13*
X197961250Y-388143750D03*
D16*
X185796250Y-385603750D03*
X198723250Y-383063750D03*
D13*
X261620000Y-407193750D03*
D14*
X262890000Y-404653750D03*
D15*
X266700000Y-407193750D03*
D14*
X269240000Y-402113750D03*
D13*
X271780000Y-407193750D03*
D16*
X259615000Y-404653750D03*
X272542000Y-402113750D03*
D13*
X261620000Y-326231250D03*
D14*
X262890000Y-323691250D03*
D15*
X266700000Y-326231250D03*
D14*
X269240000Y-321151250D03*
D13*
X271780000Y-326231250D03*
D16*
X259615000Y-323691250D03*
X272542000Y-321151250D03*
D13*
X280670000Y-407193750D03*
D14*
X281940000Y-404653750D03*
D15*
X285750000Y-407193750D03*
D14*
X288290000Y-402113750D03*
D13*
X290830000Y-407193750D03*
D16*
X278665000Y-404653750D03*
X291592000Y-402113750D03*
D13*
X223520000Y-407193750D03*
D14*
X224790000Y-404653750D03*
D15*
X228600000Y-407193750D03*
D14*
X231140000Y-402113750D03*
D13*
X233680000Y-407193750D03*
D16*
X221515000Y-404653750D03*
X234442000Y-402113750D03*
D13*
X237807500Y-350043750D03*
D14*
X239077500Y-347503750D03*
D15*
X242887500Y-350043750D03*
D14*
X245427500Y-344963750D03*
D13*
X247967500Y-350043750D03*
D16*
X235802500Y-347503750D03*
X248729500Y-344963750D03*
D13*
X290195000Y-388143750D03*
D14*
X291465000Y-385603750D03*
D15*
X295275000Y-388143750D03*
D14*
X297815000Y-383063750D03*
D13*
X300355000Y-388143750D03*
D16*
X288190000Y-385603750D03*
X301117000Y-383063750D03*
D13*
X447357500Y-326231250D03*
D14*
X448627500Y-323691250D03*
D15*
X452437500Y-326231250D03*
D14*
X454977500Y-321151250D03*
D13*
X457517500Y-326231250D03*
D16*
X445352500Y-323691250D03*
X458279500Y-321151250D03*
D13*
X323532500Y-326231250D03*
D14*
X324802500Y-323691250D03*
D15*
X328612500Y-326231250D03*
D14*
X331152500Y-321151250D03*
D13*
X333692500Y-326231250D03*
D16*
X321527500Y-323691250D03*
X334454500Y-321151250D03*
D13*
X230663750Y-426243750D03*
D14*
X231933750Y-423703750D03*
D15*
X235743750Y-426243750D03*
D14*
X238283750Y-421163750D03*
D13*
X240823750Y-426243750D03*
D16*
X228658750Y-423703750D03*
X241585750Y-421163750D03*
D13*
X342582500Y-326231250D03*
D14*
X343852500Y-323691250D03*
D15*
X347662500Y-326231250D03*
D14*
X350202500Y-321151250D03*
D13*
X352742500Y-326231250D03*
D16*
X340577500Y-323691250D03*
X353504500Y-321151250D03*
D13*
X373538750Y-426243750D03*
D14*
X374808750Y-423703750D03*
D15*
X378618750Y-426243750D03*
D14*
X381158750Y-421163750D03*
D13*
X383698750Y-426243750D03*
D16*
X371533750Y-423703750D03*
X384460750Y-421163750D03*
D13*
X342582500Y-369093750D03*
D14*
X343852500Y-366553750D03*
D15*
X347662500Y-369093750D03*
D14*
X350202500Y-364013750D03*
D13*
X352742500Y-369093750D03*
D16*
X340577500Y-366553750D03*
X353504500Y-364013750D03*
D13*
X204470000Y-407193750D03*
D14*
X205740000Y-404653750D03*
D15*
X209550000Y-407193750D03*
D14*
X212090000Y-402113750D03*
D13*
X214630000Y-407193750D03*
D16*
X202465000Y-404653750D03*
X215392000Y-402113750D03*
D13*
X490220000Y-326231250D03*
D14*
X491490000Y-323691250D03*
D15*
X495300000Y-326231250D03*
D14*
X497840000Y-321151250D03*
D13*
X500380000Y-326231250D03*
D16*
X488215000Y-323691250D03*
X501142000Y-321151250D03*
D13*
X285432500Y-369093750D03*
D14*
X286702500Y-366553750D03*
D15*
X290512500Y-369093750D03*
D14*
X293052500Y-364013750D03*
D13*
X295592500Y-369093750D03*
D16*
X283427500Y-366553750D03*
X296354500Y-364013750D03*
D13*
X266382500Y-369093750D03*
D14*
X267652500Y-366553750D03*
D15*
X271462500Y-369093750D03*
D14*
X274002500Y-364013750D03*
D13*
X276542500Y-369093750D03*
D16*
X264377500Y-366553750D03*
X277304500Y-364013750D03*
D13*
X213995000Y-388143750D03*
D14*
X215265000Y-385603750D03*
D15*
X219075000Y-388143750D03*
D14*
X221615000Y-383063750D03*
D13*
X224155000Y-388143750D03*
D16*
X211990000Y-385603750D03*
X224917000Y-383063750D03*
D13*
X180657500Y-326231250D03*
D14*
X181927500Y-323691250D03*
D15*
X185737500Y-326231250D03*
D14*
X188277500Y-321151250D03*
D13*
X190817500Y-326231250D03*
D16*
X178652500Y-323691250D03*
X191579500Y-321151250D03*
D13*
X385445000Y-326231250D03*
D14*
X386715000Y-323691250D03*
D15*
X390525000Y-326231250D03*
D14*
X393065000Y-321151250D03*
D13*
X395605000Y-326231250D03*
D16*
X383440000Y-323691250D03*
X396367000Y-321151250D03*
D11*
X430974500Y-343058750D03*
D12*
X430974500Y-358268750D03*
D11*
X454850500Y-343058750D03*
D12*
X454850500Y-358268750D03*
D13*
X204470000Y-326231250D03*
D14*
X205740000Y-323691250D03*
D15*
X209550000Y-326231250D03*
D14*
X212090000Y-321151250D03*
D13*
X214630000Y-326231250D03*
D16*
X202465000Y-323691250D03*
X215392000Y-321151250D03*
D13*
X328295000Y-388143750D03*
D14*
X329565000Y-385603750D03*
D15*
X333375000Y-388143750D03*
D14*
X335915000Y-383063750D03*
D13*
X338455000Y-388143750D03*
D16*
X326290000Y-385603750D03*
X339217000Y-383063750D03*
D13*
X314007500Y-350043750D03*
D14*
X315277500Y-347503750D03*
D15*
X319087500Y-350043750D03*
D14*
X321627500Y-344963750D03*
D13*
X324167500Y-350043750D03*
D16*
X312002500Y-347503750D03*
X324929500Y-344963750D03*
D13*
X356870000Y-407193750D03*
D14*
X358140000Y-404653750D03*
D15*
X361950000Y-407193750D03*
D14*
X364490000Y-402113750D03*
D13*
X367030000Y-407193750D03*
D16*
X354865000Y-404653750D03*
X367792000Y-402113750D03*
D13*
X490220000Y-426243750D03*
D14*
X491490000Y-423703750D03*
D15*
X495300000Y-426243750D03*
D14*
X497840000Y-421163750D03*
D13*
X500380000Y-426243750D03*
D16*
X488215000Y-423703750D03*
X501142000Y-421163750D03*
D13*
X183038750Y-407193750D03*
D14*
X184308750Y-404653750D03*
D15*
X188118750Y-407193750D03*
D14*
X190658750Y-402113750D03*
D13*
X193198750Y-407193750D03*
D16*
X181033750Y-404653750D03*
X193960750Y-402113750D03*
D13*
X242570000Y-326231250D03*
D14*
X243840000Y-323691250D03*
D15*
X247650000Y-326231250D03*
D14*
X250190000Y-321151250D03*
D13*
X252730000Y-326231250D03*
D16*
X240565000Y-323691250D03*
X253492000Y-321151250D03*
D13*
X304482500Y-369093750D03*
D14*
X305752500Y-366553750D03*
D15*
X309562500Y-369093750D03*
D14*
X312102500Y-364013750D03*
D13*
X314642500Y-369093750D03*
D16*
X302477500Y-366553750D03*
X315404500Y-364013750D03*
D13*
X304482500Y-326231250D03*
D14*
X305752500Y-323691250D03*
D15*
X309562500Y-326231250D03*
D14*
X312102500Y-321151250D03*
D13*
X314642500Y-326231250D03*
D16*
X302477500Y-323691250D03*
X315404500Y-321151250D03*
D13*
X333057500Y-350043750D03*
D14*
X334327500Y-347503750D03*
D15*
X338137500Y-350043750D03*
D14*
X340677500Y-344963750D03*
D13*
X343217500Y-350043750D03*
D16*
X331052500Y-347503750D03*
X343979500Y-344963750D03*
D13*
X399732500Y-369093750D03*
D14*
X401002500Y-366553750D03*
D15*
X404812500Y-369093750D03*
D14*
X407352500Y-364013750D03*
D13*
X409892500Y-369093750D03*
D16*
X397727500Y-366553750D03*
X410654500Y-364013750D03*
D13*
X242570000Y-407193750D03*
D14*
X243840000Y-404653750D03*
D15*
X247650000Y-407193750D03*
D14*
X250190000Y-402113750D03*
D13*
X252730000Y-407193750D03*
D16*
X240565000Y-404653750D03*
X253492000Y-402113750D03*
D13*
X228282500Y-369093750D03*
D14*
X229552500Y-366553750D03*
D15*
X233362500Y-369093750D03*
D14*
X235902500Y-364013750D03*
D13*
X238442500Y-369093750D03*
D16*
X226277500Y-366553750D03*
X239204500Y-364013750D03*
D13*
X256857500Y-350043750D03*
D14*
X258127500Y-347503750D03*
D15*
X261937500Y-350043750D03*
D14*
X264477500Y-344963750D03*
D13*
X267017500Y-350043750D03*
D16*
X254852500Y-347503750D03*
X267779500Y-344963750D03*
D13*
X185420000Y-369093750D03*
D14*
X186690000Y-366553750D03*
D15*
X190500000Y-369093750D03*
D14*
X193040000Y-364013750D03*
D13*
X195580000Y-369093750D03*
D16*
X183415000Y-366553750D03*
X196342000Y-364013750D03*
D13*
X437832500Y-350043750D03*
D14*
X439102500Y-347503750D03*
D15*
X442912500Y-350043750D03*
D14*
X445452500Y-344963750D03*
D13*
X447992500Y-350043750D03*
D16*
X435827500Y-347503750D03*
X448754500Y-344963750D03*
D13*
X183038750Y-426243750D03*
D14*
X184308750Y-423703750D03*
D15*
X188118750Y-426243750D03*
D14*
X190658750Y-421163750D03*
D13*
X193198750Y-426243750D03*
D16*
X181033750Y-423703750D03*
X193960750Y-421163750D03*
D13*
X444976250Y-378618750D03*
D14*
X446246250Y-376078750D03*
D15*
X450056250Y-378618750D03*
D14*
X452596250Y-373538750D03*
D13*
X455136250Y-378618750D03*
D16*
X442971250Y-376078750D03*
X455898250Y-373538750D03*
D13*
X294957500Y-350043750D03*
D14*
X296227500Y-347503750D03*
D15*
X300037500Y-350043750D03*
D14*
X302577500Y-344963750D03*
D13*
X305117500Y-350043750D03*
D16*
X292952500Y-347503750D03*
X305879500Y-344963750D03*
D13*
X471170000Y-350043750D03*
D14*
X472440000Y-347503750D03*
D15*
X476250000Y-350043750D03*
D14*
X478790000Y-344963750D03*
D13*
X481330000Y-350043750D03*
D16*
X469165000Y-347503750D03*
X482092000Y-344963750D03*
D13*
X318770000Y-407193750D03*
D14*
X320040000Y-404653750D03*
D15*
X323850000Y-407193750D03*
D14*
X326390000Y-402113750D03*
D13*
X328930000Y-407193750D03*
D16*
X316765000Y-404653750D03*
X329692000Y-402113750D03*
D13*
X247332500Y-369093750D03*
D14*
X248602500Y-366553750D03*
D15*
X252412500Y-369093750D03*
D14*
X254952500Y-364013750D03*
D13*
X257492500Y-369093750D03*
D16*
X245327500Y-366553750D03*
X258254500Y-364013750D03*
D13*
X409257500Y-350043750D03*
D14*
X410527500Y-347503750D03*
D15*
X414337500Y-350043750D03*
D14*
X416877500Y-344963750D03*
D13*
X419417500Y-350043750D03*
D16*
X407252500Y-347503750D03*
X420179500Y-344963750D03*
D13*
X275907500Y-350043750D03*
D14*
X277177500Y-347503750D03*
D15*
X280987500Y-350043750D03*
D14*
X283527500Y-344963750D03*
D13*
X286067500Y-350043750D03*
D16*
X273902500Y-347503750D03*
X286829500Y-344963750D03*
D13*
X206851250Y-426243750D03*
D14*
X208121250Y-423703750D03*
D15*
X211931250Y-426243750D03*
D14*
X214471250Y-421163750D03*
D13*
X217011250Y-426243750D03*
D16*
X204846250Y-423703750D03*
X217773250Y-421163750D03*
D13*
X509270000Y-350043750D03*
D14*
X510540000Y-347503750D03*
D15*
X514350000Y-350043750D03*
D14*
X516890000Y-344963750D03*
D13*
X519430000Y-350043750D03*
D16*
X507265000Y-347503750D03*
X520192000Y-344963750D03*
D13*
X371157500Y-350043750D03*
D14*
X372427500Y-347503750D03*
D15*
X376237500Y-350043750D03*
D14*
X378777500Y-344963750D03*
D13*
X381317500Y-350043750D03*
D16*
X369152500Y-347503750D03*
X382079500Y-344963750D03*
D13*
X218757500Y-350043750D03*
D14*
X220027500Y-347503750D03*
D15*
X223837500Y-350043750D03*
D14*
X226377500Y-344963750D03*
D13*
X228917500Y-350043750D03*
D16*
X216752500Y-347503750D03*
X229679500Y-344963750D03*
D13*
X385445000Y-388143750D03*
D14*
X386715000Y-385603750D03*
D15*
X390525000Y-388143750D03*
D14*
X393065000Y-383063750D03*
D13*
X395605000Y-388143750D03*
D16*
X383440000Y-385603750D03*
X396367000Y-383063750D03*
D13*
X444976250Y-426243750D03*
D14*
X446246250Y-423703750D03*
D15*
X450056250Y-426243750D03*
D14*
X452596250Y-421163750D03*
D13*
X455136250Y-426243750D03*
D16*
X442971250Y-423703750D03*
X455898250Y-421163750D03*
D13*
X430688750Y-407193750D03*
D14*
X431958750Y-404653750D03*
D15*
X435768750Y-407193750D03*
D14*
X438308750Y-402113750D03*
D13*
X440848750Y-407193750D03*
D16*
X428683750Y-404653750D03*
X441610750Y-402113750D03*
D13*
X490220000Y-407193750D03*
D14*
X491490000Y-404653750D03*
D15*
X495300000Y-407193750D03*
D14*
X497840000Y-402113750D03*
D13*
X500380000Y-407193750D03*
D16*
X488215000Y-404653750D03*
X501142000Y-402113750D03*
D13*
X337820000Y-407193750D03*
D14*
X339090000Y-404653750D03*
D15*
X342900000Y-407193750D03*
D14*
X345440000Y-402113750D03*
D13*
X347980000Y-407193750D03*
D16*
X335815000Y-404653750D03*
X348742000Y-402113750D03*
D13*
X423545000Y-388143750D03*
D14*
X424815000Y-385603750D03*
D15*
X428625000Y-388143750D03*
D14*
X431165000Y-383063750D03*
D13*
X433705000Y-388143750D03*
D16*
X421540000Y-385603750D03*
X434467000Y-383063750D03*
D13*
X471170000Y-369093750D03*
D14*
X472440000Y-366553750D03*
D15*
X476250000Y-369093750D03*
D14*
X478790000Y-364013750D03*
D13*
X481330000Y-369093750D03*
D16*
X469165000Y-366553750D03*
X482092000Y-364013750D03*
D13*
X490220000Y-369093750D03*
D14*
X491490000Y-366553750D03*
D15*
X495300000Y-369093750D03*
D14*
X497840000Y-364013750D03*
D13*
X500380000Y-369093750D03*
D16*
X488215000Y-366553750D03*
X501142000Y-364013750D03*
D13*
X361637500Y-369093750D03*
D14*
X362907500Y-366553750D03*
D15*
X366717500Y-369093750D03*
D14*
X369257500Y-364013750D03*
D13*
X371797500Y-369093750D03*
D16*
X359632500Y-366553750D03*
X372559500Y-364013750D03*
D13*
X309245000Y-388143750D03*
D14*
X310515000Y-385603750D03*
D15*
X314325000Y-388143750D03*
D14*
X316865000Y-383063750D03*
D13*
X319405000Y-388143750D03*
D16*
X307240000Y-385603750D03*
X320167000Y-383063750D03*
D13*
X394970000Y-407193750D03*
D14*
X396240000Y-404653750D03*
D15*
X400050000Y-407193750D03*
D14*
X402590000Y-402113750D03*
D13*
X405130000Y-407193750D03*
D16*
X392965000Y-404653750D03*
X405892000Y-402113750D03*
D13*
X252095000Y-388143750D03*
D14*
X253365000Y-385603750D03*
D15*
X257175000Y-388143750D03*
D14*
X259715000Y-383063750D03*
D13*
X262255000Y-388143750D03*
D16*
X250090000Y-385603750D03*
X263017000Y-383063750D03*
D13*
X302101250Y-426243750D03*
D14*
X303371250Y-423703750D03*
D15*
X307181250Y-426243750D03*
D14*
X309721250Y-421163750D03*
D13*
X312261250Y-426243750D03*
D16*
X300096250Y-423703750D03*
X313023250Y-421163750D03*
D13*
X347345000Y-388143750D03*
D14*
X348615000Y-385603750D03*
D15*
X352425000Y-388143750D03*
D14*
X354965000Y-383063750D03*
D13*
X357505000Y-388143750D03*
D16*
X345340000Y-385603750D03*
X358267000Y-383063750D03*
D13*
X271145000Y-388143750D03*
D14*
X272415000Y-385603750D03*
D15*
X276225000Y-388143750D03*
D14*
X278765000Y-383063750D03*
D13*
X281305000Y-388143750D03*
D16*
X269140000Y-385603750D03*
X282067000Y-383063750D03*
D13*
X471170000Y-426243750D03*
D14*
X472440000Y-423703750D03*
D15*
X476250000Y-426243750D03*
D14*
X478790000Y-421163750D03*
D13*
X481330000Y-426243750D03*
D16*
X469165000Y-423703750D03*
X482092000Y-421163750D03*
D13*
X418782500Y-369093750D03*
D14*
X420052500Y-366553750D03*
D15*
X423862500Y-369093750D03*
D14*
X426402500Y-364013750D03*
D13*
X428942500Y-369093750D03*
D16*
X416777500Y-366553750D03*
X429704500Y-364013750D03*
D13*
X404495000Y-326231250D03*
D14*
X405765000Y-323691250D03*
D15*
X409575000Y-326231250D03*
D14*
X412115000Y-321151250D03*
D13*
X414655000Y-326231250D03*
D16*
X402490000Y-323691250D03*
X415417000Y-321151250D03*
D13*
X323532500Y-369093750D03*
D14*
X324802500Y-366553750D03*
D15*
X328612500Y-369093750D03*
D14*
X331152500Y-364013750D03*
D13*
X333692500Y-369093750D03*
D16*
X321527500Y-366553750D03*
X334454500Y-364013750D03*
D17*
X359500000Y-321500000D03*
X359500000Y-324040000D03*
X359500000Y-326580000D03*
X359500000Y-329120000D03*
D13*
X199707500Y-350043750D03*
D14*
X200977500Y-347503750D03*
D15*
X204787500Y-350043750D03*
D14*
X207327500Y-344963750D03*
D13*
X209867500Y-350043750D03*
D16*
X197702500Y-347503750D03*
X210629500Y-344963750D03*
D13*
X180657500Y-350043750D03*
D14*
X181927500Y-347503750D03*
D15*
X185737500Y-350043750D03*
D14*
X188277500Y-344963750D03*
D13*
X190817500Y-350043750D03*
D16*
X178652500Y-347503750D03*
X191579500Y-344963750D03*
D13*
X209232500Y-369093750D03*
D14*
X210502500Y-366553750D03*
D15*
X214312500Y-369093750D03*
D14*
X216852500Y-364013750D03*
D13*
X219392500Y-369093750D03*
D16*
X207227500Y-366553750D03*
X220154500Y-364013750D03*
D11*
X423830750Y-400208750D03*
D12*
X423830750Y-415418750D03*
D11*
X447706750Y-400208750D03*
D12*
X447706750Y-415418750D03*
D13*
X223520000Y-326231250D03*
D14*
X224790000Y-323691250D03*
D15*
X228600000Y-326231250D03*
D14*
X231140000Y-321151250D03*
D13*
X233680000Y-326231250D03*
D16*
X221515000Y-323691250D03*
X234442000Y-321151250D03*
D13*
X380682500Y-369093750D03*
D14*
X381952500Y-366553750D03*
D15*
X385762500Y-369093750D03*
D14*
X388302500Y-364013750D03*
D13*
X390842500Y-369093750D03*
D16*
X378677500Y-366553750D03*
X391604500Y-364013750D03*
D13*
X390207500Y-350043750D03*
D14*
X391477500Y-347503750D03*
D15*
X395287500Y-350043750D03*
D14*
X397827500Y-344963750D03*
D13*
X400367500Y-350043750D03*
D16*
X388202500Y-347503750D03*
X401129500Y-344963750D03*
D13*
X490220000Y-350043750D03*
D14*
X491490000Y-347503750D03*
D15*
X495300000Y-350043750D03*
D14*
X497840000Y-344963750D03*
D13*
X500380000Y-350043750D03*
D16*
X488215000Y-347503750D03*
X501142000Y-344963750D03*
D13*
X299720000Y-407193750D03*
D14*
X300990000Y-404653750D03*
D15*
X304800000Y-407193750D03*
D14*
X307340000Y-402113750D03*
D13*
X309880000Y-407193750D03*
D16*
X297715000Y-404653750D03*
X310642000Y-402113750D03*
D13*
X366395000Y-326231250D03*
D14*
X367665000Y-323691250D03*
D15*
X371475000Y-326231250D03*
D14*
X374015000Y-321151250D03*
D13*
X376555000Y-326231250D03*
D16*
X364390000Y-323691250D03*
X377317000Y-321151250D03*
D13*
X509270000Y-426243750D03*
D14*
X510540000Y-423703750D03*
D15*
X514350000Y-426243750D03*
D14*
X516890000Y-421163750D03*
D13*
X519430000Y-426243750D03*
D16*
X507265000Y-423703750D03*
X520192000Y-421163750D03*
D13*
X397351250Y-426243750D03*
D14*
X398621250Y-423703750D03*
D15*
X402431250Y-426243750D03*
D14*
X404971250Y-421163750D03*
D13*
X407511250Y-426243750D03*
D16*
X395346250Y-423703750D03*
X408273250Y-421163750D03*
D13*
X352107500Y-350043750D03*
D14*
X353377500Y-347503750D03*
D15*
X357187500Y-350043750D03*
D14*
X359727500Y-344963750D03*
D13*
X362267500Y-350043750D03*
D16*
X350102500Y-347503750D03*
X363029500Y-344963750D03*
D13*
X233045000Y-388143750D03*
D14*
X234315000Y-385603750D03*
D15*
X238125000Y-388143750D03*
D14*
X240665000Y-383063750D03*
D13*
X243205000Y-388143750D03*
D16*
X231040000Y-385603750D03*
X243967000Y-383063750D03*
D18*
X239620000Y-392906250D03*
X236645000Y-392906250D03*
X230087500Y-330993750D03*
X227112500Y-330993750D03*
X249137500Y-411956250D03*
X246162500Y-411956250D03*
X387250000Y-373856250D03*
X384275000Y-373856250D03*
X430157500Y-330993750D03*
X427182500Y-330993750D03*
X320700000Y-354806250D03*
X317725000Y-354806250D03*
X515837500Y-431006250D03*
X512862500Y-431006250D03*
X401537500Y-411956250D03*
X398562500Y-411956250D03*
X187225000Y-354806250D03*
X184250000Y-354806250D03*
X380106250Y-431006250D03*
X377131250Y-431006250D03*
X368207500Y-373856250D03*
X365232500Y-373856250D03*
X213390000Y-431090000D03*
X210415000Y-431090000D03*
X415825000Y-354806250D03*
X412850000Y-354806250D03*
X496847500Y-411956250D03*
X493872500Y-411956250D03*
X237231250Y-431006250D03*
X234256250Y-431006250D03*
X325580000Y-411956250D03*
X322605000Y-411956250D03*
X230087500Y-411956250D03*
X227112500Y-411956250D03*
X211160000Y-411956250D03*
X208185000Y-411956250D03*
X477737500Y-373856250D03*
X474762500Y-373856250D03*
X496787500Y-330993750D03*
X493812500Y-330993750D03*
X268350000Y-411956250D03*
X265375000Y-411956250D03*
X189606250Y-411956250D03*
X186631250Y-411956250D03*
X330100000Y-330993750D03*
X327125000Y-330993750D03*
X277750000Y-392906250D03*
X274775000Y-392906250D03*
X330100000Y-373856250D03*
X327125000Y-373856250D03*
X373015000Y-392906250D03*
X370040000Y-392906250D03*
X315910000Y-392906250D03*
X312935000Y-392906250D03*
X515837500Y-330990000D03*
X512862500Y-330990000D03*
X335090000Y-392906250D03*
X332115000Y-392906250D03*
X211037500Y-330993750D03*
X208062500Y-330993750D03*
X268187500Y-330993750D03*
X265212500Y-330993750D03*
X477790000Y-431000000D03*
X474815000Y-431000000D03*
X403970000Y-431006250D03*
X400995000Y-431006250D03*
X496787500Y-373856250D03*
X493812500Y-373856250D03*
X306400000Y-411956250D03*
X303425000Y-411956250D03*
X244450000Y-354806250D03*
X241475000Y-354806250D03*
X194368750Y-392860000D03*
X191393750Y-392860000D03*
X353912500Y-392906250D03*
X350937500Y-392906250D03*
X515905000Y-373856250D03*
X512930000Y-373856250D03*
X344387500Y-411956250D03*
X341412500Y-411956250D03*
X215800000Y-373856250D03*
X212825000Y-373856250D03*
X258662500Y-392906250D03*
X255687500Y-392906250D03*
X272950000Y-373856250D03*
X269975000Y-373856250D03*
X496830000Y-431006250D03*
X493855000Y-431006250D03*
X287420000Y-411956250D03*
X284445000Y-411956250D03*
X430275000Y-392906250D03*
X427300000Y-392906250D03*
X349240000Y-373856250D03*
X346265000Y-373856250D03*
X189606250Y-431006250D03*
X186631250Y-431006250D03*
X392085000Y-330993750D03*
X389110000Y-330993750D03*
X225325000Y-354806250D03*
X222350000Y-354806250D03*
X406337500Y-373856250D03*
X403362500Y-373856250D03*
X308770000Y-431006250D03*
X305795000Y-431006250D03*
X411177500Y-392906250D03*
X408202500Y-392906250D03*
X296762500Y-392906250D03*
X293787500Y-392906250D03*
X311050000Y-330993750D03*
X308075000Y-330993750D03*
X515837500Y-354806250D03*
X512862500Y-354806250D03*
X311050000Y-373856250D03*
X308075000Y-373856250D03*
X282450000Y-354806250D03*
X279475000Y-354806250D03*
X392085000Y-392906250D03*
X389110000Y-392906250D03*
X292000000Y-330993750D03*
X289025000Y-330993750D03*
X363437500Y-411956250D03*
X360462500Y-411956250D03*
X358785000Y-354806250D03*
X355810000Y-354806250D03*
X396785000Y-354806250D03*
X393810000Y-354806250D03*
X377737500Y-354806250D03*
X374762500Y-354806250D03*
X339625000Y-354806250D03*
X336650000Y-354806250D03*
X427731250Y-431006250D03*
X424756250Y-431006250D03*
X477737500Y-354806250D03*
X474762500Y-354806250D03*
X382545000Y-411956250D03*
X379570000Y-411956250D03*
X292000000Y-373856250D03*
X289025000Y-373856250D03*
X220562500Y-392906250D03*
X217587500Y-392906250D03*
X453925000Y-330993750D03*
X450950000Y-330993750D03*
X206275000Y-354806250D03*
X203300000Y-354806250D03*
X425350000Y-373856250D03*
X422375000Y-373856250D03*
X444400000Y-354806250D03*
X441425000Y-354806250D03*
X249137500Y-330993750D03*
X246162500Y-330993750D03*
X187267500Y-330910000D03*
X184292500Y-330910000D03*
X411155000Y-330993750D03*
X408180000Y-330993750D03*
X191987500Y-373820000D03*
X189012500Y-373820000D03*
X253900000Y-373856250D03*
X250925000Y-373856250D03*
X349150000Y-330993750D03*
X346175000Y-330993750D03*
X477825000Y-330993750D03*
X474850000Y-330993750D03*
D17*
X519880000Y-396240000D03*
X517340000Y-396240000D03*
X514800000Y-396240000D03*
X512260000Y-396240000D03*
X509720000Y-396240000D03*
X507180000Y-396240000D03*
X504640000Y-396240000D03*
X502100000Y-396240000D03*
X499560000Y-396240000D03*
X497020000Y-396240000D03*
X494480000Y-396240000D03*
X491940000Y-396240000D03*
X489400000Y-396240000D03*
X486860000Y-396240000D03*
X484320000Y-396240000D03*
X481780000Y-396240000D03*
X479240000Y-396240000D03*
X476700000Y-396240000D03*
X474160000Y-396240000D03*
X471620000Y-396240000D03*
X519880000Y-381000000D03*
X517340000Y-381000000D03*
X514800000Y-381000000D03*
X512260000Y-381000000D03*
X509720000Y-381000000D03*
X507180000Y-381000000D03*
X504640000Y-381000000D03*
X502100000Y-381000000D03*
X499560000Y-381000000D03*
X497020000Y-381000000D03*
X494480000Y-381000000D03*
X491940000Y-381000000D03*
X489400000Y-381000000D03*
X486860000Y-381000000D03*
X484320000Y-381000000D03*
X481780000Y-381000000D03*
X479240000Y-381000000D03*
X476700000Y-381000000D03*
X474160000Y-381000000D03*
X471620000Y-381000000D03*
D18*
X451543750Y-383381250D03*
X448568750Y-383381250D03*
X301525000Y-354806250D03*
X298550000Y-354806250D03*
X372962500Y-330993750D03*
X369987500Y-330993750D03*
X451570000Y-431006250D03*
X448595000Y-431006250D03*
X234850000Y-373856250D03*
X231875000Y-373856250D03*
X496787500Y-354806250D03*
X493812500Y-354806250D03*
X437277500Y-411956250D03*
X434302500Y-411956250D03*
X263520000Y-354806250D03*
X260545000Y-354806250D03*
M02*
