G04 #@! TF.GenerationSoftware,KiCad,Pcbnew,8.0.6*
G04 #@! TF.CreationDate,2024-12-17T01:06:02+01:00*
G04 #@! TF.ProjectId,wxKeyboard,77784b65-7962-46f6-9172-642e6b696361,rev?*
G04 #@! TF.SameCoordinates,Original*
G04 #@! TF.FileFunction,Paste,Bot*
G04 #@! TF.FilePolarity,Positive*
%FSLAX46Y46*%
G04 Gerber Fmt 4.6, Leading zero omitted, Abs format (unit mm)*
G04 Created by KiCad (PCBNEW 8.0.6) date 2024-12-17 01:06:02*
%MOMM*%
%LPD*%
G01*
G04 APERTURE LIST*
G04 Aperture macros list*
%AMRoundRect*
0 Rectangle with rounded corners*
0 $1 Rounding radius*
0 $2 $3 $4 $5 $6 $7 $8 $9 X,Y pos of 4 corners*
0 Add a 4 corners polygon primitive as box body*
4,1,4,$2,$3,$4,$5,$6,$7,$8,$9,$2,$3,0*
0 Add four circle primitives for the rounded corners*
1,1,$1+$1,$2,$3*
1,1,$1+$1,$4,$5*
1,1,$1+$1,$6,$7*
1,1,$1+$1,$8,$9*
0 Add four rect primitives between the rounded corners*
20,1,$1+$1,$2,$3,$4,$5,0*
20,1,$1+$1,$4,$5,$6,$7,0*
20,1,$1+$1,$6,$7,$8,$9,0*
20,1,$1+$1,$8,$9,$2,$3,0*%
G04 Aperture macros list end*
%ADD10RoundRect,0.250000X-1.025000X-1.000000X1.025000X-1.000000X1.025000X1.000000X-1.025000X1.000000X0*%
%ADD11RoundRect,0.250001X0.462499X0.624999X-0.462499X0.624999X-0.462499X-0.624999X0.462499X-0.624999X0*%
G04 APERTURE END LIST*
D10*
X419158750Y-423703750D03*
X432085750Y-421163750D03*
X507265000Y-366553750D03*
X520192000Y-364013750D03*
X373882500Y-404653750D03*
X386809500Y-402113750D03*
X469165000Y-323691250D03*
X482092000Y-321151250D03*
X364390000Y-385603750D03*
X377317000Y-383063750D03*
X283427500Y-323691250D03*
X296354500Y-321151250D03*
X421540000Y-323691250D03*
X434467000Y-321151250D03*
X507265000Y-323691250D03*
X520192000Y-321151250D03*
X402490000Y-385603750D03*
X415417000Y-383063750D03*
X185796250Y-385603750D03*
X198723250Y-383063750D03*
X259615000Y-404653750D03*
X272542000Y-402113750D03*
X259615000Y-323691250D03*
X272542000Y-321151250D03*
X278665000Y-404653750D03*
X291592000Y-402113750D03*
X221515000Y-404653750D03*
X234442000Y-402113750D03*
X235802500Y-347503750D03*
X248729500Y-344963750D03*
X288190000Y-385603750D03*
X301117000Y-383063750D03*
X445352500Y-323691250D03*
X458279500Y-321151250D03*
X321527500Y-323691250D03*
X334454500Y-321151250D03*
X228658750Y-423703750D03*
X241585750Y-421163750D03*
X340577500Y-323691250D03*
X353504500Y-321151250D03*
X371533750Y-423703750D03*
X384460750Y-421163750D03*
X340577500Y-366553750D03*
X353504500Y-364013750D03*
X202465000Y-404653750D03*
X215392000Y-402113750D03*
X488215000Y-323691250D03*
X501142000Y-321151250D03*
X283427500Y-366553750D03*
X296354500Y-364013750D03*
X264377500Y-366553750D03*
X277304500Y-364013750D03*
X211990000Y-385603750D03*
X224917000Y-383063750D03*
X178652500Y-323691250D03*
X191579500Y-321151250D03*
X383440000Y-323691250D03*
X396367000Y-321151250D03*
X202465000Y-323691250D03*
X215392000Y-321151250D03*
X326290000Y-385603750D03*
X339217000Y-383063750D03*
X312002500Y-347503750D03*
X324929500Y-344963750D03*
X354865000Y-404653750D03*
X367792000Y-402113750D03*
X488215000Y-423703750D03*
X501142000Y-421163750D03*
X181033750Y-404653750D03*
X193960750Y-402113750D03*
X240565000Y-323691250D03*
X253492000Y-321151250D03*
X302477500Y-366553750D03*
X315404500Y-364013750D03*
X302477500Y-323691250D03*
X315404500Y-321151250D03*
X331052500Y-347503750D03*
X343979500Y-344963750D03*
X397727500Y-366553750D03*
X410654500Y-364013750D03*
X240565000Y-404653750D03*
X253492000Y-402113750D03*
X226277500Y-366553750D03*
X239204500Y-364013750D03*
X254852500Y-347503750D03*
X267779500Y-344963750D03*
X183415000Y-366553750D03*
X196342000Y-364013750D03*
X435827500Y-347503750D03*
X448754500Y-344963750D03*
X181033750Y-423703750D03*
X193960750Y-421163750D03*
X442971250Y-376078750D03*
X455898250Y-373538750D03*
X292952500Y-347503750D03*
X305879500Y-344963750D03*
X469165000Y-347503750D03*
X482092000Y-344963750D03*
X316765000Y-404653750D03*
X329692000Y-402113750D03*
X245327500Y-366553750D03*
X258254500Y-364013750D03*
X407252500Y-347503750D03*
X420179500Y-344963750D03*
X273902500Y-347503750D03*
X286829500Y-344963750D03*
X204846250Y-423703750D03*
X217773250Y-421163750D03*
X507265000Y-347503750D03*
X520192000Y-344963750D03*
X369152500Y-347503750D03*
X382079500Y-344963750D03*
X216752500Y-347503750D03*
X229679500Y-344963750D03*
X383440000Y-385603750D03*
X396367000Y-383063750D03*
X442971250Y-423703750D03*
X455898250Y-421163750D03*
X428683750Y-404653750D03*
X441610750Y-402113750D03*
X488215000Y-404653750D03*
X501142000Y-402113750D03*
X335815000Y-404653750D03*
X348742000Y-402113750D03*
X421540000Y-385603750D03*
X434467000Y-383063750D03*
X469165000Y-366553750D03*
X482092000Y-364013750D03*
X488215000Y-366553750D03*
X501142000Y-364013750D03*
X359632500Y-366553750D03*
X372559500Y-364013750D03*
X307240000Y-385603750D03*
X320167000Y-383063750D03*
X392965000Y-404653750D03*
X405892000Y-402113750D03*
X250090000Y-385603750D03*
X263017000Y-383063750D03*
X300096250Y-423703750D03*
X313023250Y-421163750D03*
X345340000Y-385603750D03*
X358267000Y-383063750D03*
X269140000Y-385603750D03*
X282067000Y-383063750D03*
X469165000Y-423703750D03*
X482092000Y-421163750D03*
X416777500Y-366553750D03*
X429704500Y-364013750D03*
X402490000Y-323691250D03*
X415417000Y-321151250D03*
X321527500Y-366553750D03*
X334454500Y-364013750D03*
X197702500Y-347503750D03*
X210629500Y-344963750D03*
X178652500Y-347503750D03*
X191579500Y-344963750D03*
X207227500Y-366553750D03*
X220154500Y-364013750D03*
X221515000Y-323691250D03*
X234442000Y-321151250D03*
X378677500Y-366553750D03*
X391604500Y-364013750D03*
X388202500Y-347503750D03*
X401129500Y-344963750D03*
X488215000Y-347503750D03*
X501142000Y-344963750D03*
X297715000Y-404653750D03*
X310642000Y-402113750D03*
X364390000Y-323691250D03*
X377317000Y-321151250D03*
X507265000Y-423703750D03*
X520192000Y-421163750D03*
X395346250Y-423703750D03*
X408273250Y-421163750D03*
X350102500Y-347503750D03*
X363029500Y-344963750D03*
X231040000Y-385603750D03*
X243967000Y-383063750D03*
D11*
X239620000Y-392906250D03*
X236645000Y-392906250D03*
X230087500Y-330993750D03*
X227112500Y-330993750D03*
X249137500Y-411956250D03*
X246162500Y-411956250D03*
X387250000Y-373856250D03*
X384275000Y-373856250D03*
X430157500Y-330993750D03*
X427182500Y-330993750D03*
X320700000Y-354806250D03*
X317725000Y-354806250D03*
X515837500Y-431006250D03*
X512862500Y-431006250D03*
X401537500Y-411956250D03*
X398562500Y-411956250D03*
X187225000Y-354806250D03*
X184250000Y-354806250D03*
X380106250Y-431006250D03*
X377131250Y-431006250D03*
X368207500Y-373856250D03*
X365232500Y-373856250D03*
X213390000Y-431090000D03*
X210415000Y-431090000D03*
X415825000Y-354806250D03*
X412850000Y-354806250D03*
X496847500Y-411956250D03*
X493872500Y-411956250D03*
X237231250Y-431006250D03*
X234256250Y-431006250D03*
X325580000Y-411956250D03*
X322605000Y-411956250D03*
X230087500Y-411956250D03*
X227112500Y-411956250D03*
X211160000Y-411956250D03*
X208185000Y-411956250D03*
X477737500Y-373856250D03*
X474762500Y-373856250D03*
X496787500Y-330993750D03*
X493812500Y-330993750D03*
X268350000Y-411956250D03*
X265375000Y-411956250D03*
X189606250Y-411956250D03*
X186631250Y-411956250D03*
X330100000Y-330993750D03*
X327125000Y-330993750D03*
X277750000Y-392906250D03*
X274775000Y-392906250D03*
X330100000Y-373856250D03*
X327125000Y-373856250D03*
X373015000Y-392906250D03*
X370040000Y-392906250D03*
X315910000Y-392906250D03*
X312935000Y-392906250D03*
X515837500Y-330990000D03*
X512862500Y-330990000D03*
X335090000Y-392906250D03*
X332115000Y-392906250D03*
X211037500Y-330993750D03*
X208062500Y-330993750D03*
X268187500Y-330993750D03*
X265212500Y-330993750D03*
X477790000Y-431000000D03*
X474815000Y-431000000D03*
X403970000Y-431006250D03*
X400995000Y-431006250D03*
X496787500Y-373856250D03*
X493812500Y-373856250D03*
X306400000Y-411956250D03*
X303425000Y-411956250D03*
X244450000Y-354806250D03*
X241475000Y-354806250D03*
X194368750Y-392860000D03*
X191393750Y-392860000D03*
X353912500Y-392906250D03*
X350937500Y-392906250D03*
X515905000Y-373856250D03*
X512930000Y-373856250D03*
X344387500Y-411956250D03*
X341412500Y-411956250D03*
X215800000Y-373856250D03*
X212825000Y-373856250D03*
X258662500Y-392906250D03*
X255687500Y-392906250D03*
X272950000Y-373856250D03*
X269975000Y-373856250D03*
X496830000Y-431006250D03*
X493855000Y-431006250D03*
X287420000Y-411956250D03*
X284445000Y-411956250D03*
X430275000Y-392906250D03*
X427300000Y-392906250D03*
X349240000Y-373856250D03*
X346265000Y-373856250D03*
X189606250Y-431006250D03*
X186631250Y-431006250D03*
X392085000Y-330993750D03*
X389110000Y-330993750D03*
X225325000Y-354806250D03*
X222350000Y-354806250D03*
X406337500Y-373856250D03*
X403362500Y-373856250D03*
X308770000Y-431006250D03*
X305795000Y-431006250D03*
X411177500Y-392906250D03*
X408202500Y-392906250D03*
X296762500Y-392906250D03*
X293787500Y-392906250D03*
X311050000Y-330993750D03*
X308075000Y-330993750D03*
X515837500Y-354806250D03*
X512862500Y-354806250D03*
X311050000Y-373856250D03*
X308075000Y-373856250D03*
X282450000Y-354806250D03*
X279475000Y-354806250D03*
X392085000Y-392906250D03*
X389110000Y-392906250D03*
X292000000Y-330993750D03*
X289025000Y-330993750D03*
X363437500Y-411956250D03*
X360462500Y-411956250D03*
X358785000Y-354806250D03*
X355810000Y-354806250D03*
X396785000Y-354806250D03*
X393810000Y-354806250D03*
X377737500Y-354806250D03*
X374762500Y-354806250D03*
X339625000Y-354806250D03*
X336650000Y-354806250D03*
X427731250Y-431006250D03*
X424756250Y-431006250D03*
X477737500Y-354806250D03*
X474762500Y-354806250D03*
X382545000Y-411956250D03*
X379570000Y-411956250D03*
X292000000Y-373856250D03*
X289025000Y-373856250D03*
X220562500Y-392906250D03*
X217587500Y-392906250D03*
X453925000Y-330993750D03*
X450950000Y-330993750D03*
X206275000Y-354806250D03*
X203300000Y-354806250D03*
X425350000Y-373856250D03*
X422375000Y-373856250D03*
X444400000Y-354806250D03*
X441425000Y-354806250D03*
X249137500Y-330993750D03*
X246162500Y-330993750D03*
X187267500Y-330910000D03*
X184292500Y-330910000D03*
X411155000Y-330993750D03*
X408180000Y-330993750D03*
X191987500Y-373820000D03*
X189012500Y-373820000D03*
X253900000Y-373856250D03*
X250925000Y-373856250D03*
X349150000Y-330993750D03*
X346175000Y-330993750D03*
X477825000Y-330993750D03*
X474850000Y-330993750D03*
X451543750Y-383381250D03*
X448568750Y-383381250D03*
X301525000Y-354806250D03*
X298550000Y-354806250D03*
X372962500Y-330993750D03*
X369987500Y-330993750D03*
X451570000Y-431006250D03*
X448595000Y-431006250D03*
X234850000Y-373856250D03*
X231875000Y-373856250D03*
X496787500Y-354806250D03*
X493812500Y-354806250D03*
X437277500Y-411956250D03*
X434302500Y-411956250D03*
X263520000Y-354806250D03*
X260545000Y-354806250D03*
M02*
