%TF.GenerationSoftware,KiCad,Pcbnew,8.0.6*%
%TF.CreationDate,2024-12-17T01:07:59+01:00*%
%TF.ProjectId,wxKeyboard,77784b65-7962-46f6-9172-642e6b696361,rev?*%
%TF.SameCoordinates,Original*%
%TF.FileFunction,Drillmap*%
%TF.FilePolarity,Positive*%
%FSLAX45Y45*%
G04 Gerber Fmt 4.5, Leading zero omitted, Abs format (unit mm)*
G04 Created by KiCad (PCBNEW 8.0.6) date 2024-12-17 01:07:59*
%MOMM*%
%LPD*%
G01*
G04 APERTURE LIST*
%ADD10C,0.050000*%
%ADD11C,0.200000*%
%ADD12C,0.175000*%
%ADD13C,0.220000*%
%ADD14C,0.304800*%
%ADD15C,0.305000*%
%ADD16C,0.398780*%
%ADD17C,0.400000*%
G04 APERTURE END LIST*
D10*
X17300000Y-31350000D02*
X52710000Y-31350000D01*
X52710000Y-43900000D01*
X17300000Y-43900000D01*
X17300000Y-31350000D01*
D11*
D12*
X17978250Y-32535625D02*
X18153250Y-32710625D01*
X18153250Y-32535625D02*
X17978250Y-32710625D01*
X17978250Y-34916875D02*
X18153250Y-35091875D01*
X18153250Y-34916875D02*
X17978250Y-35091875D01*
X18216375Y-40631875D02*
X18391375Y-40806875D01*
X18391375Y-40631875D02*
X18216375Y-40806875D01*
X18216375Y-42536875D02*
X18391375Y-42711875D01*
X18391375Y-42536875D02*
X18216375Y-42711875D01*
X18454500Y-36821875D02*
X18629500Y-36996875D01*
X18629500Y-36821875D02*
X18454500Y-36996875D01*
X18692625Y-38726875D02*
X18867625Y-38901875D01*
X18867625Y-38726875D02*
X18692625Y-38901875D01*
X18994250Y-32535625D02*
X19169250Y-32710625D01*
X19169250Y-32535625D02*
X18994250Y-32710625D01*
X18994250Y-34916875D02*
X19169250Y-35091875D01*
X19169250Y-34916875D02*
X18994250Y-35091875D01*
X19232375Y-40631875D02*
X19407375Y-40806875D01*
X19407375Y-40631875D02*
X19232375Y-40806875D01*
X19232375Y-42536875D02*
X19407375Y-42711875D01*
X19407375Y-42536875D02*
X19232375Y-42711875D01*
X19470500Y-36821875D02*
X19645500Y-36996875D01*
X19645500Y-36821875D02*
X19470500Y-36996875D01*
X19708625Y-38726875D02*
X19883625Y-38901875D01*
X19883625Y-38726875D02*
X19708625Y-38901875D01*
X19883250Y-34916875D02*
X20058250Y-35091875D01*
X20058250Y-34916875D02*
X19883250Y-35091875D01*
X20359500Y-32535625D02*
X20534500Y-32710625D01*
X20534500Y-32535625D02*
X20359500Y-32710625D01*
X20359500Y-40631875D02*
X20534500Y-40806875D01*
X20534500Y-40631875D02*
X20359500Y-40806875D01*
X20597625Y-42536875D02*
X20772625Y-42711875D01*
X20772625Y-42536875D02*
X20597625Y-42711875D01*
X20835750Y-36821875D02*
X21010750Y-36996875D01*
X21010750Y-36821875D02*
X20835750Y-36996875D01*
X20899250Y-34916875D02*
X21074250Y-35091875D01*
X21074250Y-34916875D02*
X20899250Y-35091875D01*
X21312000Y-38726875D02*
X21487000Y-38901875D01*
X21487000Y-38726875D02*
X21312000Y-38901875D01*
X21375500Y-32535625D02*
X21550500Y-32710625D01*
X21550500Y-32535625D02*
X21375500Y-32710625D01*
X21375500Y-40631875D02*
X21550500Y-40806875D01*
X21550500Y-40631875D02*
X21375500Y-40806875D01*
X21613625Y-42536875D02*
X21788625Y-42711875D01*
X21788625Y-42536875D02*
X21613625Y-42711875D01*
X21788250Y-34916875D02*
X21963250Y-35091875D01*
X21963250Y-34916875D02*
X21788250Y-35091875D01*
X21851750Y-36821875D02*
X22026750Y-36996875D01*
X22026750Y-36821875D02*
X21851750Y-36996875D01*
X22264500Y-32535625D02*
X22439500Y-32710625D01*
X22439500Y-32535625D02*
X22264500Y-32710625D01*
X22264500Y-40631875D02*
X22439500Y-40806875D01*
X22439500Y-40631875D02*
X22264500Y-40806875D01*
X22328000Y-38726875D02*
X22503000Y-38901875D01*
X22503000Y-38726875D02*
X22328000Y-38901875D01*
X22740750Y-36821875D02*
X22915750Y-36996875D01*
X22915750Y-36821875D02*
X22740750Y-36996875D01*
X22804250Y-34916875D02*
X22979250Y-35091875D01*
X22979250Y-34916875D02*
X22804250Y-35091875D01*
X22978875Y-42536875D02*
X23153875Y-42711875D01*
X23153875Y-42536875D02*
X22978875Y-42711875D01*
X23217000Y-38726875D02*
X23392000Y-38901875D01*
X23392000Y-38726875D02*
X23217000Y-38901875D01*
X23280500Y-32535625D02*
X23455500Y-32710625D01*
X23455500Y-32535625D02*
X23280500Y-32710625D01*
X23280500Y-40631875D02*
X23455500Y-40806875D01*
X23455500Y-40631875D02*
X23280500Y-40806875D01*
X23693250Y-34916875D02*
X23868250Y-35091875D01*
X23868250Y-34916875D02*
X23693250Y-35091875D01*
X23756750Y-36821875D02*
X23931750Y-36996875D01*
X23931750Y-36821875D02*
X23756750Y-36996875D01*
X23994875Y-42536875D02*
X24169875Y-42711875D01*
X24169875Y-42536875D02*
X23994875Y-42711875D01*
X24169500Y-32535625D02*
X24344500Y-32710625D01*
X24344500Y-32535625D02*
X24169500Y-32710625D01*
X24169500Y-40631875D02*
X24344500Y-40806875D01*
X24344500Y-40631875D02*
X24169500Y-40806875D01*
X24233000Y-38726875D02*
X24408000Y-38901875D01*
X24408000Y-38726875D02*
X24233000Y-38901875D01*
X24645750Y-36821875D02*
X24820750Y-36996875D01*
X24820750Y-36821875D02*
X24645750Y-36996875D01*
X24709250Y-34916875D02*
X24884250Y-35091875D01*
X24884250Y-34916875D02*
X24709250Y-35091875D01*
X25122000Y-38726875D02*
X25297000Y-38901875D01*
X25297000Y-38726875D02*
X25122000Y-38901875D01*
X25185500Y-32535625D02*
X25360500Y-32710625D01*
X25360500Y-32535625D02*
X25185500Y-32710625D01*
X25185500Y-40631875D02*
X25360500Y-40806875D01*
X25360500Y-40631875D02*
X25185500Y-40806875D01*
X25598250Y-34916875D02*
X25773250Y-35091875D01*
X25773250Y-34916875D02*
X25598250Y-35091875D01*
X25661750Y-36821875D02*
X25836750Y-36996875D01*
X25836750Y-36821875D02*
X25661750Y-36996875D01*
X26074500Y-32535625D02*
X26249500Y-32710625D01*
X26249500Y-32535625D02*
X26074500Y-32710625D01*
X26074500Y-40631875D02*
X26249500Y-40806875D01*
X26249500Y-40631875D02*
X26074500Y-40806875D01*
X26138000Y-38726875D02*
X26313000Y-38901875D01*
X26313000Y-38726875D02*
X26138000Y-38901875D01*
X26550750Y-36821875D02*
X26725750Y-36996875D01*
X26725750Y-36821875D02*
X26550750Y-36996875D01*
X26614250Y-34916875D02*
X26789250Y-35091875D01*
X26789250Y-34916875D02*
X26614250Y-35091875D01*
X27027000Y-38726875D02*
X27202000Y-38901875D01*
X27202000Y-38726875D02*
X27027000Y-38901875D01*
X27090500Y-32535625D02*
X27265500Y-32710625D01*
X27265500Y-32535625D02*
X27090500Y-32710625D01*
X27090500Y-40631875D02*
X27265500Y-40806875D01*
X27265500Y-40631875D02*
X27090500Y-40806875D01*
X27503250Y-34916875D02*
X27678250Y-35091875D01*
X27678250Y-34916875D02*
X27503250Y-35091875D01*
X27566750Y-36821875D02*
X27741750Y-36996875D01*
X27741750Y-36821875D02*
X27566750Y-36996875D01*
X27979500Y-40631875D02*
X28154500Y-40806875D01*
X28154500Y-40631875D02*
X27979500Y-40806875D01*
X28043000Y-38726875D02*
X28218000Y-38901875D01*
X28218000Y-38726875D02*
X28043000Y-38901875D01*
X28455750Y-32535625D02*
X28630750Y-32710625D01*
X28630750Y-32535625D02*
X28455750Y-32710625D01*
X28455750Y-36821875D02*
X28630750Y-36996875D01*
X28630750Y-36821875D02*
X28455750Y-36996875D01*
X28519250Y-34916875D02*
X28694250Y-35091875D01*
X28694250Y-34916875D02*
X28519250Y-35091875D01*
X28932000Y-38726875D02*
X29107000Y-38901875D01*
X29107000Y-38726875D02*
X28932000Y-38901875D01*
X28995500Y-40631875D02*
X29170500Y-40806875D01*
X29170500Y-40631875D02*
X28995500Y-40806875D01*
X29408250Y-34916875D02*
X29583250Y-35091875D01*
X29583250Y-34916875D02*
X29408250Y-35091875D01*
X29471750Y-32535625D02*
X29646750Y-32710625D01*
X29646750Y-32535625D02*
X29471750Y-32710625D01*
X29471750Y-36821875D02*
X29646750Y-36996875D01*
X29646750Y-36821875D02*
X29471750Y-36996875D01*
X29884500Y-40631875D02*
X30059500Y-40806875D01*
X30059500Y-40631875D02*
X29884500Y-40806875D01*
X29948000Y-38726875D02*
X30123000Y-38901875D01*
X30123000Y-38726875D02*
X29948000Y-38901875D01*
X30122625Y-42536875D02*
X30297625Y-42711875D01*
X30297625Y-42536875D02*
X30122625Y-42711875D01*
X30360750Y-32535625D02*
X30535750Y-32710625D01*
X30535750Y-32535625D02*
X30360750Y-32710625D01*
X30360750Y-36821875D02*
X30535750Y-36996875D01*
X30535750Y-36821875D02*
X30360750Y-36996875D01*
X30424250Y-34916875D02*
X30599250Y-35091875D01*
X30599250Y-34916875D02*
X30424250Y-35091875D01*
X30837000Y-38726875D02*
X31012000Y-38901875D01*
X31012000Y-38726875D02*
X30837000Y-38901875D01*
X30900500Y-40631875D02*
X31075500Y-40806875D01*
X31075500Y-40631875D02*
X30900500Y-40806875D01*
X31138625Y-42536875D02*
X31313625Y-42711875D01*
X31313625Y-42536875D02*
X31138625Y-42711875D01*
X31313250Y-34916875D02*
X31488250Y-35091875D01*
X31488250Y-34916875D02*
X31313250Y-35091875D01*
X31376750Y-32535625D02*
X31551750Y-32710625D01*
X31551750Y-32535625D02*
X31376750Y-32710625D01*
X31376750Y-36821875D02*
X31551750Y-36996875D01*
X31551750Y-36821875D02*
X31376750Y-36996875D01*
X31789500Y-40631875D02*
X31964500Y-40806875D01*
X31964500Y-40631875D02*
X31789500Y-40806875D01*
X31853000Y-38726875D02*
X32028000Y-38901875D01*
X32028000Y-38726875D02*
X31853000Y-38901875D01*
X32265750Y-32535625D02*
X32440750Y-32710625D01*
X32440750Y-32535625D02*
X32265750Y-32710625D01*
X32265750Y-36821875D02*
X32440750Y-36996875D01*
X32440750Y-36821875D02*
X32265750Y-36996875D01*
X32329250Y-34916875D02*
X32504250Y-35091875D01*
X32504250Y-34916875D02*
X32329250Y-35091875D01*
X32742000Y-38726875D02*
X32917000Y-38901875D01*
X32917000Y-38726875D02*
X32742000Y-38901875D01*
X32805500Y-40631875D02*
X32980500Y-40806875D01*
X32980500Y-40631875D02*
X32805500Y-40806875D01*
X33218250Y-34916875D02*
X33393250Y-35091875D01*
X33393250Y-34916875D02*
X33218250Y-35091875D01*
X33281750Y-32535625D02*
X33456750Y-32710625D01*
X33456750Y-32535625D02*
X33281750Y-32710625D01*
X33281750Y-36821875D02*
X33456750Y-36996875D01*
X33456750Y-36821875D02*
X33281750Y-36996875D01*
X33694500Y-40631875D02*
X33869500Y-40806875D01*
X33869500Y-40631875D02*
X33694500Y-40806875D01*
X33758000Y-38726875D02*
X33933000Y-38901875D01*
X33933000Y-38726875D02*
X33758000Y-38901875D01*
X34170750Y-32535625D02*
X34345750Y-32710625D01*
X34345750Y-32535625D02*
X34170750Y-32710625D01*
X34170750Y-36821875D02*
X34345750Y-36996875D01*
X34345750Y-36821875D02*
X34170750Y-36996875D01*
X34234250Y-34916875D02*
X34409250Y-35091875D01*
X34409250Y-34916875D02*
X34234250Y-35091875D01*
X34647000Y-38726875D02*
X34822000Y-38901875D01*
X34822000Y-38726875D02*
X34647000Y-38901875D01*
X34710500Y-40631875D02*
X34885500Y-40806875D01*
X34885500Y-40631875D02*
X34710500Y-40806875D01*
X35123250Y-34916875D02*
X35298250Y-35091875D01*
X35298250Y-34916875D02*
X35123250Y-35091875D01*
X35186750Y-32535625D02*
X35361750Y-32710625D01*
X35361750Y-32535625D02*
X35186750Y-32710625D01*
X35186750Y-36821875D02*
X35361750Y-36996875D01*
X35361750Y-36821875D02*
X35186750Y-36996875D01*
X35599500Y-40631875D02*
X35774500Y-40806875D01*
X35774500Y-40631875D02*
X35599500Y-40806875D01*
X35663000Y-38726875D02*
X35838000Y-38901875D01*
X35838000Y-38726875D02*
X35663000Y-38901875D01*
X36076250Y-36821875D02*
X36251250Y-36996875D01*
X36251250Y-36821875D02*
X36076250Y-36996875D01*
X36139250Y-34916875D02*
X36314250Y-35091875D01*
X36314250Y-34916875D02*
X36139250Y-35091875D01*
X36552000Y-32535625D02*
X36727000Y-32710625D01*
X36727000Y-32535625D02*
X36552000Y-32710625D01*
X36552000Y-38726875D02*
X36727000Y-38901875D01*
X36727000Y-38726875D02*
X36552000Y-38901875D01*
X36615500Y-40631875D02*
X36790500Y-40806875D01*
X36790500Y-40631875D02*
X36615500Y-40806875D01*
X37028250Y-34916875D02*
X37203250Y-35091875D01*
X37203250Y-34916875D02*
X37028250Y-35091875D01*
X37092250Y-36821875D02*
X37267250Y-36996875D01*
X37267250Y-36821875D02*
X37092250Y-36996875D01*
X37266375Y-42536875D02*
X37441375Y-42711875D01*
X37441375Y-42536875D02*
X37266375Y-42711875D01*
X37501250Y-40631875D02*
X37676250Y-40806875D01*
X37676250Y-40631875D02*
X37501250Y-40806875D01*
X37568000Y-32535625D02*
X37743000Y-32710625D01*
X37743000Y-32535625D02*
X37568000Y-32710625D01*
X37568000Y-38726875D02*
X37743000Y-38901875D01*
X37743000Y-38726875D02*
X37568000Y-38901875D01*
X37980750Y-36821875D02*
X38155750Y-36996875D01*
X38155750Y-36821875D02*
X37980750Y-36996875D01*
X38044250Y-34916875D02*
X38219250Y-35091875D01*
X38219250Y-34916875D02*
X38044250Y-35091875D01*
X38282375Y-42536875D02*
X38457375Y-42711875D01*
X38457375Y-42536875D02*
X38282375Y-42711875D01*
X38457000Y-32535625D02*
X38632000Y-32710625D01*
X38632000Y-32535625D02*
X38457000Y-32710625D01*
X38457000Y-38726875D02*
X38632000Y-38901875D01*
X38632000Y-38726875D02*
X38457000Y-38901875D01*
X38517250Y-40631875D02*
X38692250Y-40806875D01*
X38692250Y-40631875D02*
X38517250Y-40806875D01*
X38933250Y-34916875D02*
X39108250Y-35091875D01*
X39108250Y-34916875D02*
X38933250Y-35091875D01*
X38996750Y-36821875D02*
X39171750Y-36996875D01*
X39171750Y-36821875D02*
X38996750Y-36996875D01*
X39409500Y-40631875D02*
X39584500Y-40806875D01*
X39584500Y-40631875D02*
X39409500Y-40806875D01*
X39473000Y-32535625D02*
X39648000Y-32710625D01*
X39648000Y-32535625D02*
X39473000Y-32710625D01*
X39473000Y-38726875D02*
X39648000Y-38901875D01*
X39648000Y-38726875D02*
X39473000Y-38901875D01*
X39647625Y-42536875D02*
X39822625Y-42711875D01*
X39822625Y-42536875D02*
X39647625Y-42711875D01*
X39885750Y-36821875D02*
X40060750Y-36996875D01*
X40060750Y-36821875D02*
X39885750Y-36996875D01*
X39949250Y-34916875D02*
X40124250Y-35091875D01*
X40124250Y-34916875D02*
X39949250Y-35091875D01*
X40362000Y-32535625D02*
X40537000Y-32710625D01*
X40537000Y-32535625D02*
X40362000Y-32710625D01*
X40362000Y-38726875D02*
X40537000Y-38901875D01*
X40537000Y-38726875D02*
X40362000Y-38901875D01*
X40425500Y-40631875D02*
X40600500Y-40806875D01*
X40600500Y-40631875D02*
X40425500Y-40806875D01*
X40663625Y-42536875D02*
X40838625Y-42711875D01*
X40838625Y-42536875D02*
X40663625Y-42711875D01*
X40838250Y-34916875D02*
X41013250Y-35091875D01*
X41013250Y-34916875D02*
X40838250Y-35091875D01*
X40901750Y-36821875D02*
X41076750Y-36996875D01*
X41076750Y-36821875D02*
X40901750Y-36996875D01*
X41378000Y-32535625D02*
X41553000Y-32710625D01*
X41553000Y-32535625D02*
X41378000Y-32710625D01*
X41378000Y-38726875D02*
X41553000Y-38901875D01*
X41553000Y-38726875D02*
X41378000Y-38901875D01*
X41790750Y-36821875D02*
X41965750Y-36996875D01*
X41965750Y-36821875D02*
X41790750Y-36996875D01*
X41854250Y-34916875D02*
X42029250Y-35091875D01*
X42029250Y-34916875D02*
X41854250Y-35091875D01*
X42028875Y-42536875D02*
X42203875Y-42711875D01*
X42203875Y-42536875D02*
X42028875Y-42711875D01*
X42267000Y-32535625D02*
X42442000Y-32710625D01*
X42442000Y-32535625D02*
X42267000Y-32710625D01*
X42267000Y-38726875D02*
X42442000Y-38901875D01*
X42442000Y-38726875D02*
X42267000Y-38901875D01*
X42806750Y-36821875D02*
X42981750Y-36996875D01*
X42981750Y-36821875D02*
X42806750Y-36996875D01*
X42981375Y-40631875D02*
X43156375Y-40806875D01*
X43156375Y-40631875D02*
X42981375Y-40806875D01*
X43044875Y-42536875D02*
X43219875Y-42711875D01*
X43219875Y-42536875D02*
X43044875Y-42711875D01*
X43283000Y-32535625D02*
X43458000Y-32710625D01*
X43458000Y-32535625D02*
X43283000Y-32710625D01*
X43283000Y-38726875D02*
X43458000Y-38901875D01*
X43458000Y-38726875D02*
X43283000Y-38901875D01*
X43695750Y-34916875D02*
X43870750Y-35091875D01*
X43870750Y-34916875D02*
X43695750Y-35091875D01*
X43997375Y-40631875D02*
X44172375Y-40806875D01*
X44172375Y-40631875D02*
X43997375Y-40806875D01*
X44410125Y-37774375D02*
X44585125Y-37949375D01*
X44585125Y-37774375D02*
X44410125Y-37949375D01*
X44410125Y-42536875D02*
X44585125Y-42711875D01*
X44585125Y-42536875D02*
X44410125Y-42711875D01*
X44648250Y-32535625D02*
X44823250Y-32710625D01*
X44823250Y-32535625D02*
X44648250Y-32710625D01*
X44711750Y-34916875D02*
X44886750Y-35091875D01*
X44886750Y-34916875D02*
X44711750Y-35091875D01*
X45426125Y-37774375D02*
X45601125Y-37949375D01*
X45601125Y-37774375D02*
X45426125Y-37949375D01*
X45426125Y-42536875D02*
X45601125Y-42711875D01*
X45601125Y-42536875D02*
X45426125Y-42711875D01*
X45664250Y-32535625D02*
X45839250Y-32710625D01*
X45839250Y-32535625D02*
X45664250Y-32710625D01*
X47029500Y-32535625D02*
X47204500Y-32710625D01*
X47204500Y-32535625D02*
X47029500Y-32710625D01*
X47029500Y-34916875D02*
X47204500Y-35091875D01*
X47204500Y-34916875D02*
X47029500Y-35091875D01*
X47029500Y-36821875D02*
X47204500Y-36996875D01*
X47204500Y-36821875D02*
X47029500Y-36996875D01*
X47029500Y-42536875D02*
X47204500Y-42711875D01*
X47204500Y-42536875D02*
X47029500Y-42711875D01*
X48045500Y-32535625D02*
X48220500Y-32710625D01*
X48220500Y-32535625D02*
X48045500Y-32710625D01*
X48045500Y-34916875D02*
X48220500Y-35091875D01*
X48220500Y-34916875D02*
X48045500Y-35091875D01*
X48045500Y-36821875D02*
X48220500Y-36996875D01*
X48220500Y-36821875D02*
X48045500Y-36996875D01*
X48045500Y-42536875D02*
X48220500Y-42711875D01*
X48220500Y-42536875D02*
X48045500Y-42711875D01*
X48934500Y-32535625D02*
X49109500Y-32710625D01*
X49109500Y-32535625D02*
X48934500Y-32710625D01*
X48934500Y-34916875D02*
X49109500Y-35091875D01*
X49109500Y-34916875D02*
X48934500Y-35091875D01*
X48934500Y-36821875D02*
X49109500Y-36996875D01*
X49109500Y-36821875D02*
X48934500Y-36996875D01*
X48934500Y-40631875D02*
X49109500Y-40806875D01*
X49109500Y-40631875D02*
X48934500Y-40806875D01*
X48934500Y-42536875D02*
X49109500Y-42711875D01*
X49109500Y-42536875D02*
X48934500Y-42711875D01*
X49950500Y-32535625D02*
X50125500Y-32710625D01*
X50125500Y-32535625D02*
X49950500Y-32710625D01*
X49950500Y-34916875D02*
X50125500Y-35091875D01*
X50125500Y-34916875D02*
X49950500Y-35091875D01*
X49950500Y-36821875D02*
X50125500Y-36996875D01*
X50125500Y-36821875D02*
X49950500Y-36996875D01*
X49950500Y-40631875D02*
X50125500Y-40806875D01*
X50125500Y-40631875D02*
X49950500Y-40806875D01*
X49950500Y-42536875D02*
X50125500Y-42711875D01*
X50125500Y-42536875D02*
X49950500Y-42711875D01*
X50839500Y-32535625D02*
X51014500Y-32710625D01*
X51014500Y-32535625D02*
X50839500Y-32710625D01*
X50839500Y-34916875D02*
X51014500Y-35091875D01*
X51014500Y-34916875D02*
X50839500Y-35091875D01*
X50839500Y-36821875D02*
X51014500Y-36996875D01*
X51014500Y-36821875D02*
X50839500Y-36996875D01*
X50839500Y-42536875D02*
X51014500Y-42711875D01*
X51014500Y-42536875D02*
X50839500Y-42711875D01*
X51855500Y-32535625D02*
X52030500Y-32710625D01*
X52030500Y-32535625D02*
X51855500Y-32710625D01*
X51855500Y-34916875D02*
X52030500Y-35091875D01*
X52030500Y-34916875D02*
X51855500Y-35091875D01*
X51855500Y-36821875D02*
X52030500Y-36996875D01*
X52030500Y-36821875D02*
X51855500Y-36996875D01*
X51855500Y-42536875D02*
X52030500Y-42711875D01*
X52030500Y-42536875D02*
X51855500Y-42711875D01*
D13*
X19860000Y-32760000D02*
G75*
G02*
X19640000Y-32760000I-110000J0D01*
G01*
X19640000Y-32760000D02*
G75*
G02*
X19860000Y-32760000I110000J0D01*
G01*
X20900000Y-39180000D02*
G75*
G02*
X20680000Y-39180000I-110000J0D01*
G01*
X20680000Y-39180000D02*
G75*
G02*
X20900000Y-39180000I110000J0D01*
G01*
X27230000Y-35750000D02*
G75*
G02*
X27010000Y-35750000I-110000J0D01*
G01*
X27010000Y-35750000D02*
G75*
G02*
X27230000Y-35750000I110000J0D01*
G01*
X29160000Y-42660000D02*
G75*
G02*
X28940000Y-42660000I-110000J0D01*
G01*
X28940000Y-42660000D02*
G75*
G02*
X29160000Y-42660000I110000J0D01*
G01*
X35830000Y-37720000D02*
G75*
G02*
X35610000Y-37720000I-110000J0D01*
G01*
X35610000Y-37720000D02*
G75*
G02*
X35830000Y-37720000I110000J0D01*
G01*
X43450000Y-37810000D02*
G75*
G02*
X43230000Y-37810000I-110000J0D01*
G01*
X43230000Y-37810000D02*
G75*
G02*
X43450000Y-37810000I110000J0D01*
G01*
X44180000Y-32700000D02*
G75*
G02*
X43960000Y-32700000I-110000J0D01*
G01*
X43960000Y-32700000D02*
G75*
G02*
X44180000Y-32700000I110000J0D01*
G01*
X50780000Y-33810000D02*
G75*
G02*
X50560000Y-33810000I-110000J0D01*
G01*
X50560000Y-33810000D02*
G75*
G02*
X50780000Y-33810000I110000J0D01*
G01*
X51240000Y-40790000D02*
G75*
G02*
X51020000Y-40790000I-110000J0D01*
G01*
X51020000Y-40790000D02*
G75*
G02*
X51240000Y-40790000I110000J0D01*
G01*
D14*
X25718125Y-41773475D02*
X25718125Y-42078275D01*
X25565725Y-41925875D02*
X25870525Y-41925875D01*
X35718125Y-41773475D02*
X35718125Y-42078275D01*
X35565725Y-41925875D02*
X35870525Y-41925875D01*
X42383075Y-39868475D02*
X42383075Y-40173275D01*
X42230675Y-40020875D02*
X42535475Y-40020875D01*
X43097450Y-34153475D02*
X43097450Y-34458275D01*
X42945050Y-34305875D02*
X43249850Y-34305875D01*
X44307125Y-36515675D02*
X44307125Y-36820475D01*
X44154725Y-36668075D02*
X44459525Y-36668075D01*
X44307125Y-38903275D02*
X44307125Y-39208075D01*
X44154725Y-39055675D02*
X44459525Y-39055675D01*
X44770675Y-39868475D02*
X44770675Y-40173275D01*
X44618275Y-40020875D02*
X44923075Y-40020875D01*
X45485050Y-34153475D02*
X45485050Y-34458275D01*
X45332650Y-34305875D02*
X45637450Y-34305875D01*
D15*
X18300585Y-32476960D02*
X18300585Y-32261290D01*
X18084915Y-32261290D01*
X18084915Y-32476960D01*
X18300585Y-32476960D01*
X18300585Y-34858210D02*
X18300585Y-34642540D01*
X18084915Y-34642540D01*
X18084915Y-34858210D01*
X18300585Y-34858210D01*
X18538710Y-40573210D02*
X18538710Y-40357540D01*
X18323040Y-40357540D01*
X18323040Y-40573210D01*
X18538710Y-40573210D01*
X18538710Y-42478210D02*
X18538710Y-42262540D01*
X18323040Y-42262540D01*
X18323040Y-42478210D01*
X18538710Y-42478210D01*
X18776835Y-36763210D02*
X18776835Y-36547540D01*
X18561165Y-36547540D01*
X18561165Y-36763210D01*
X18776835Y-36763210D01*
X18935585Y-32222960D02*
X18935585Y-32007290D01*
X18719915Y-32007290D01*
X18719915Y-32222960D01*
X18935585Y-32222960D01*
X18935585Y-34604210D02*
X18935585Y-34388540D01*
X18719915Y-34388540D01*
X18719915Y-34604210D01*
X18935585Y-34604210D01*
X19014960Y-38668210D02*
X19014960Y-38452540D01*
X18799290Y-38452540D01*
X18799290Y-38668210D01*
X19014960Y-38668210D01*
X19173710Y-40319210D02*
X19173710Y-40103540D01*
X18958040Y-40103540D01*
X18958040Y-40319210D01*
X19173710Y-40319210D01*
X19173710Y-42224210D02*
X19173710Y-42008540D01*
X18958040Y-42008540D01*
X18958040Y-42224210D01*
X19173710Y-42224210D01*
X19411835Y-36509210D02*
X19411835Y-36293540D01*
X19196165Y-36293540D01*
X19196165Y-36509210D01*
X19411835Y-36509210D01*
X19649960Y-38414210D02*
X19649960Y-38198540D01*
X19434290Y-38198540D01*
X19434290Y-38414210D01*
X19649960Y-38414210D01*
X20205585Y-34858210D02*
X20205585Y-34642540D01*
X19989915Y-34642540D01*
X19989915Y-34858210D01*
X20205585Y-34858210D01*
X20681835Y-32476960D02*
X20681835Y-32261290D01*
X20466165Y-32261290D01*
X20466165Y-32476960D01*
X20681835Y-32476960D01*
X20681835Y-40573210D02*
X20681835Y-40357540D01*
X20466165Y-40357540D01*
X20466165Y-40573210D01*
X20681835Y-40573210D01*
X20840585Y-34604210D02*
X20840585Y-34388540D01*
X20624915Y-34388540D01*
X20624915Y-34604210D01*
X20840585Y-34604210D01*
X20919960Y-42478210D02*
X20919960Y-42262540D01*
X20704290Y-42262540D01*
X20704290Y-42478210D01*
X20919960Y-42478210D01*
X21158085Y-36763210D02*
X21158085Y-36547540D01*
X20942415Y-36547540D01*
X20942415Y-36763210D01*
X21158085Y-36763210D01*
X21316835Y-32222960D02*
X21316835Y-32007290D01*
X21101165Y-32007290D01*
X21101165Y-32222960D01*
X21316835Y-32222960D01*
X21316835Y-40319210D02*
X21316835Y-40103540D01*
X21101165Y-40103540D01*
X21101165Y-40319210D01*
X21316835Y-40319210D01*
X21554960Y-42224210D02*
X21554960Y-42008540D01*
X21339290Y-42008540D01*
X21339290Y-42224210D01*
X21554960Y-42224210D01*
X21634335Y-38668210D02*
X21634335Y-38452540D01*
X21418665Y-38452540D01*
X21418665Y-38668210D01*
X21634335Y-38668210D01*
X21793085Y-36509210D02*
X21793085Y-36293540D01*
X21577415Y-36293540D01*
X21577415Y-36509210D01*
X21793085Y-36509210D01*
X22110585Y-34858210D02*
X22110585Y-34642540D01*
X21894915Y-34642540D01*
X21894915Y-34858210D01*
X22110585Y-34858210D01*
X22269335Y-38414210D02*
X22269335Y-38198540D01*
X22053665Y-38198540D01*
X22053665Y-38414210D01*
X22269335Y-38414210D01*
X22586835Y-32476960D02*
X22586835Y-32261290D01*
X22371165Y-32261290D01*
X22371165Y-32476960D01*
X22586835Y-32476960D01*
X22586835Y-40573210D02*
X22586835Y-40357540D01*
X22371165Y-40357540D01*
X22371165Y-40573210D01*
X22586835Y-40573210D01*
X22745585Y-34604210D02*
X22745585Y-34388540D01*
X22529915Y-34388540D01*
X22529915Y-34604210D01*
X22745585Y-34604210D01*
X23063085Y-36763210D02*
X23063085Y-36547540D01*
X22847415Y-36547540D01*
X22847415Y-36763210D01*
X23063085Y-36763210D01*
X23221835Y-32222960D02*
X23221835Y-32007290D01*
X23006165Y-32007290D01*
X23006165Y-32222960D01*
X23221835Y-32222960D01*
X23221835Y-40319210D02*
X23221835Y-40103540D01*
X23006165Y-40103540D01*
X23006165Y-40319210D01*
X23221835Y-40319210D01*
X23301210Y-42478210D02*
X23301210Y-42262540D01*
X23085540Y-42262540D01*
X23085540Y-42478210D01*
X23301210Y-42478210D01*
X23539335Y-38668210D02*
X23539335Y-38452540D01*
X23323665Y-38452540D01*
X23323665Y-38668210D01*
X23539335Y-38668210D01*
X23698085Y-36509210D02*
X23698085Y-36293540D01*
X23482415Y-36293540D01*
X23482415Y-36509210D01*
X23698085Y-36509210D01*
X23936210Y-42224210D02*
X23936210Y-42008540D01*
X23720540Y-42008540D01*
X23720540Y-42224210D01*
X23936210Y-42224210D01*
X24015585Y-34858210D02*
X24015585Y-34642540D01*
X23799915Y-34642540D01*
X23799915Y-34858210D01*
X24015585Y-34858210D01*
X24174335Y-38414210D02*
X24174335Y-38198540D01*
X23958665Y-38198540D01*
X23958665Y-38414210D01*
X24174335Y-38414210D01*
X24491835Y-32476960D02*
X24491835Y-32261290D01*
X24276165Y-32261290D01*
X24276165Y-32476960D01*
X24491835Y-32476960D01*
X24491835Y-40573210D02*
X24491835Y-40357540D01*
X24276165Y-40357540D01*
X24276165Y-40573210D01*
X24491835Y-40573210D01*
X24650585Y-34604210D02*
X24650585Y-34388540D01*
X24434915Y-34388540D01*
X24434915Y-34604210D01*
X24650585Y-34604210D01*
X24968085Y-36763210D02*
X24968085Y-36547540D01*
X24752415Y-36547540D01*
X24752415Y-36763210D01*
X24968085Y-36763210D01*
X25126835Y-32222960D02*
X25126835Y-32007290D01*
X24911165Y-32007290D01*
X24911165Y-32222960D01*
X25126835Y-32222960D01*
X25126835Y-40319210D02*
X25126835Y-40103540D01*
X24911165Y-40103540D01*
X24911165Y-40319210D01*
X25126835Y-40319210D01*
X25444335Y-38668210D02*
X25444335Y-38452540D01*
X25228665Y-38452540D01*
X25228665Y-38668210D01*
X25444335Y-38668210D01*
X25603085Y-36509210D02*
X25603085Y-36293540D01*
X25387415Y-36293540D01*
X25387415Y-36509210D01*
X25603085Y-36509210D01*
X25920585Y-34858210D02*
X25920585Y-34642540D01*
X25704915Y-34642540D01*
X25704915Y-34858210D01*
X25920585Y-34858210D01*
X26079335Y-38414210D02*
X26079335Y-38198540D01*
X25863665Y-38198540D01*
X25863665Y-38414210D01*
X26079335Y-38414210D01*
X26396835Y-32476960D02*
X26396835Y-32261290D01*
X26181165Y-32261290D01*
X26181165Y-32476960D01*
X26396835Y-32476960D01*
X26396835Y-40573210D02*
X26396835Y-40357540D01*
X26181165Y-40357540D01*
X26181165Y-40573210D01*
X26396835Y-40573210D01*
X26555585Y-34604210D02*
X26555585Y-34388540D01*
X26339915Y-34388540D01*
X26339915Y-34604210D01*
X26555585Y-34604210D01*
X26873085Y-36763210D02*
X26873085Y-36547540D01*
X26657415Y-36547540D01*
X26657415Y-36763210D01*
X26873085Y-36763210D01*
X27031835Y-32222960D02*
X27031835Y-32007290D01*
X26816165Y-32007290D01*
X26816165Y-32222960D01*
X27031835Y-32222960D01*
X27031835Y-40319210D02*
X27031835Y-40103540D01*
X26816165Y-40103540D01*
X26816165Y-40319210D01*
X27031835Y-40319210D01*
X27349335Y-38668210D02*
X27349335Y-38452540D01*
X27133665Y-38452540D01*
X27133665Y-38668210D01*
X27349335Y-38668210D01*
X27508085Y-36509210D02*
X27508085Y-36293540D01*
X27292415Y-36293540D01*
X27292415Y-36509210D01*
X27508085Y-36509210D01*
X27825585Y-34858210D02*
X27825585Y-34642540D01*
X27609915Y-34642540D01*
X27609915Y-34858210D01*
X27825585Y-34858210D01*
X27984335Y-38414210D02*
X27984335Y-38198540D01*
X27768665Y-38198540D01*
X27768665Y-38414210D01*
X27984335Y-38414210D01*
X28301835Y-40573210D02*
X28301835Y-40357540D01*
X28086165Y-40357540D01*
X28086165Y-40573210D01*
X28301835Y-40573210D01*
X28460585Y-34604210D02*
X28460585Y-34388540D01*
X28244915Y-34388540D01*
X28244915Y-34604210D01*
X28460585Y-34604210D01*
X28778085Y-32476960D02*
X28778085Y-32261290D01*
X28562415Y-32261290D01*
X28562415Y-32476960D01*
X28778085Y-32476960D01*
X28778085Y-36763210D02*
X28778085Y-36547540D01*
X28562415Y-36547540D01*
X28562415Y-36763210D01*
X28778085Y-36763210D01*
X28936835Y-40319210D02*
X28936835Y-40103540D01*
X28721165Y-40103540D01*
X28721165Y-40319210D01*
X28936835Y-40319210D01*
X29254335Y-38668210D02*
X29254335Y-38452540D01*
X29038665Y-38452540D01*
X29038665Y-38668210D01*
X29254335Y-38668210D01*
X29413085Y-32222960D02*
X29413085Y-32007290D01*
X29197415Y-32007290D01*
X29197415Y-32222960D01*
X29413085Y-32222960D01*
X29413085Y-36509210D02*
X29413085Y-36293540D01*
X29197415Y-36293540D01*
X29197415Y-36509210D01*
X29413085Y-36509210D01*
X29730585Y-34858210D02*
X29730585Y-34642540D01*
X29514915Y-34642540D01*
X29514915Y-34858210D01*
X29730585Y-34858210D01*
X29889335Y-38414210D02*
X29889335Y-38198540D01*
X29673665Y-38198540D01*
X29673665Y-38414210D01*
X29889335Y-38414210D01*
X30206835Y-40573210D02*
X30206835Y-40357540D01*
X29991165Y-40357540D01*
X29991165Y-40573210D01*
X30206835Y-40573210D01*
X30365585Y-34604210D02*
X30365585Y-34388540D01*
X30149915Y-34388540D01*
X30149915Y-34604210D01*
X30365585Y-34604210D01*
X30444960Y-42478210D02*
X30444960Y-42262540D01*
X30229290Y-42262540D01*
X30229290Y-42478210D01*
X30444960Y-42478210D01*
X30683085Y-32476960D02*
X30683085Y-32261290D01*
X30467415Y-32261290D01*
X30467415Y-32476960D01*
X30683085Y-32476960D01*
X30683085Y-36763210D02*
X30683085Y-36547540D01*
X30467415Y-36547540D01*
X30467415Y-36763210D01*
X30683085Y-36763210D01*
X30841835Y-40319210D02*
X30841835Y-40103540D01*
X30626165Y-40103540D01*
X30626165Y-40319210D01*
X30841835Y-40319210D01*
X31079960Y-42224210D02*
X31079960Y-42008540D01*
X30864290Y-42008540D01*
X30864290Y-42224210D01*
X31079960Y-42224210D01*
X31159335Y-38668210D02*
X31159335Y-38452540D01*
X30943665Y-38452540D01*
X30943665Y-38668210D01*
X31159335Y-38668210D01*
X31318085Y-32222960D02*
X31318085Y-32007290D01*
X31102415Y-32007290D01*
X31102415Y-32222960D01*
X31318085Y-32222960D01*
X31318085Y-36509210D02*
X31318085Y-36293540D01*
X31102415Y-36293540D01*
X31102415Y-36509210D01*
X31318085Y-36509210D01*
X31635585Y-34858210D02*
X31635585Y-34642540D01*
X31419915Y-34642540D01*
X31419915Y-34858210D01*
X31635585Y-34858210D01*
X31794335Y-38414210D02*
X31794335Y-38198540D01*
X31578665Y-38198540D01*
X31578665Y-38414210D01*
X31794335Y-38414210D01*
X32111835Y-40573210D02*
X32111835Y-40357540D01*
X31896165Y-40357540D01*
X31896165Y-40573210D01*
X32111835Y-40573210D01*
X32270585Y-34604210D02*
X32270585Y-34388540D01*
X32054915Y-34388540D01*
X32054915Y-34604210D01*
X32270585Y-34604210D01*
X32588085Y-32476960D02*
X32588085Y-32261290D01*
X32372415Y-32261290D01*
X32372415Y-32476960D01*
X32588085Y-32476960D01*
X32588085Y-36763210D02*
X32588085Y-36547540D01*
X32372415Y-36547540D01*
X32372415Y-36763210D01*
X32588085Y-36763210D01*
X32746835Y-40319210D02*
X32746835Y-40103540D01*
X32531165Y-40103540D01*
X32531165Y-40319210D01*
X32746835Y-40319210D01*
X33064335Y-38668210D02*
X33064335Y-38452540D01*
X32848665Y-38452540D01*
X32848665Y-38668210D01*
X33064335Y-38668210D01*
X33223085Y-32222960D02*
X33223085Y-32007290D01*
X33007415Y-32007290D01*
X33007415Y-32222960D01*
X33223085Y-32222960D01*
X33223085Y-36509210D02*
X33223085Y-36293540D01*
X33007415Y-36293540D01*
X33007415Y-36509210D01*
X33223085Y-36509210D01*
X33540585Y-34858210D02*
X33540585Y-34642540D01*
X33324915Y-34642540D01*
X33324915Y-34858210D01*
X33540585Y-34858210D01*
X33699335Y-38414210D02*
X33699335Y-38198540D01*
X33483665Y-38198540D01*
X33483665Y-38414210D01*
X33699335Y-38414210D01*
X34016835Y-40573210D02*
X34016835Y-40357540D01*
X33801165Y-40357540D01*
X33801165Y-40573210D01*
X34016835Y-40573210D01*
X34175585Y-34604210D02*
X34175585Y-34388540D01*
X33959915Y-34388540D01*
X33959915Y-34604210D01*
X34175585Y-34604210D01*
X34493085Y-32476960D02*
X34493085Y-32261290D01*
X34277415Y-32261290D01*
X34277415Y-32476960D01*
X34493085Y-32476960D01*
X34493085Y-36763210D02*
X34493085Y-36547540D01*
X34277415Y-36547540D01*
X34277415Y-36763210D01*
X34493085Y-36763210D01*
X34651835Y-40319210D02*
X34651835Y-40103540D01*
X34436165Y-40103540D01*
X34436165Y-40319210D01*
X34651835Y-40319210D01*
X34969335Y-38668210D02*
X34969335Y-38452540D01*
X34753665Y-38452540D01*
X34753665Y-38668210D01*
X34969335Y-38668210D01*
X35128085Y-32222960D02*
X35128085Y-32007290D01*
X34912415Y-32007290D01*
X34912415Y-32222960D01*
X35128085Y-32222960D01*
X35128085Y-36509210D02*
X35128085Y-36293540D01*
X34912415Y-36293540D01*
X34912415Y-36509210D01*
X35128085Y-36509210D01*
X35445585Y-34858210D02*
X35445585Y-34642540D01*
X35229915Y-34642540D01*
X35229915Y-34858210D01*
X35445585Y-34858210D01*
X35604335Y-38414210D02*
X35604335Y-38198540D01*
X35388665Y-38198540D01*
X35388665Y-38414210D01*
X35604335Y-38414210D01*
X35921835Y-40573210D02*
X35921835Y-40357540D01*
X35706165Y-40357540D01*
X35706165Y-40573210D01*
X35921835Y-40573210D01*
X36080585Y-34604210D02*
X36080585Y-34388540D01*
X35864915Y-34388540D01*
X35864915Y-34604210D01*
X36080585Y-34604210D01*
X36398585Y-36763210D02*
X36398585Y-36547540D01*
X36182915Y-36547540D01*
X36182915Y-36763210D01*
X36398585Y-36763210D01*
X36556835Y-40319210D02*
X36556835Y-40103540D01*
X36341165Y-40103540D01*
X36341165Y-40319210D01*
X36556835Y-40319210D01*
X36874335Y-32476960D02*
X36874335Y-32261290D01*
X36658665Y-32261290D01*
X36658665Y-32476960D01*
X36874335Y-32476960D01*
X36874335Y-38668210D02*
X36874335Y-38452540D01*
X36658665Y-38452540D01*
X36658665Y-38668210D01*
X36874335Y-38668210D01*
X37033585Y-36509210D02*
X37033585Y-36293540D01*
X36817915Y-36293540D01*
X36817915Y-36509210D01*
X37033585Y-36509210D01*
X37350585Y-34858210D02*
X37350585Y-34642540D01*
X37134915Y-34642540D01*
X37134915Y-34858210D01*
X37350585Y-34858210D01*
X37509335Y-32222960D02*
X37509335Y-32007290D01*
X37293665Y-32007290D01*
X37293665Y-32222960D01*
X37509335Y-32222960D01*
X37509335Y-38414210D02*
X37509335Y-38198540D01*
X37293665Y-38198540D01*
X37293665Y-38414210D01*
X37509335Y-38414210D01*
X37588710Y-42478210D02*
X37588710Y-42262540D01*
X37373040Y-42262540D01*
X37373040Y-42478210D01*
X37588710Y-42478210D01*
X37823585Y-40573210D02*
X37823585Y-40357540D01*
X37607915Y-40357540D01*
X37607915Y-40573210D01*
X37823585Y-40573210D01*
X37985585Y-34604210D02*
X37985585Y-34388540D01*
X37769915Y-34388540D01*
X37769915Y-34604210D01*
X37985585Y-34604210D01*
X38223710Y-42224210D02*
X38223710Y-42008540D01*
X38008040Y-42008540D01*
X38008040Y-42224210D01*
X38223710Y-42224210D01*
X38303085Y-36763210D02*
X38303085Y-36547540D01*
X38087415Y-36547540D01*
X38087415Y-36763210D01*
X38303085Y-36763210D01*
X38458585Y-40319210D02*
X38458585Y-40103540D01*
X38242915Y-40103540D01*
X38242915Y-40319210D01*
X38458585Y-40319210D01*
X38779335Y-32476960D02*
X38779335Y-32261290D01*
X38563665Y-32261290D01*
X38563665Y-32476960D01*
X38779335Y-32476960D01*
X38779335Y-38668210D02*
X38779335Y-38452540D01*
X38563665Y-38452540D01*
X38563665Y-38668210D01*
X38779335Y-38668210D01*
X38938085Y-36509210D02*
X38938085Y-36293540D01*
X38722415Y-36293540D01*
X38722415Y-36509210D01*
X38938085Y-36509210D01*
X39255585Y-34858210D02*
X39255585Y-34642540D01*
X39039915Y-34642540D01*
X39039915Y-34858210D01*
X39255585Y-34858210D01*
X39414335Y-32222960D02*
X39414335Y-32007290D01*
X39198665Y-32007290D01*
X39198665Y-32222960D01*
X39414335Y-32222960D01*
X39414335Y-38414210D02*
X39414335Y-38198540D01*
X39198665Y-38198540D01*
X39198665Y-38414210D01*
X39414335Y-38414210D01*
X39731835Y-40573210D02*
X39731835Y-40357540D01*
X39516165Y-40357540D01*
X39516165Y-40573210D01*
X39731835Y-40573210D01*
X39890585Y-34604210D02*
X39890585Y-34388540D01*
X39674915Y-34388540D01*
X39674915Y-34604210D01*
X39890585Y-34604210D01*
X39969960Y-42478210D02*
X39969960Y-42262540D01*
X39754290Y-42262540D01*
X39754290Y-42478210D01*
X39969960Y-42478210D01*
X40208085Y-36763210D02*
X40208085Y-36547540D01*
X39992415Y-36547540D01*
X39992415Y-36763210D01*
X40208085Y-36763210D01*
X40366835Y-40319210D02*
X40366835Y-40103540D01*
X40151165Y-40103540D01*
X40151165Y-40319210D01*
X40366835Y-40319210D01*
X40604960Y-42224210D02*
X40604960Y-42008540D01*
X40389290Y-42008540D01*
X40389290Y-42224210D01*
X40604960Y-42224210D01*
X40684335Y-32476960D02*
X40684335Y-32261290D01*
X40468665Y-32261290D01*
X40468665Y-32476960D01*
X40684335Y-32476960D01*
X40684335Y-38668210D02*
X40684335Y-38452540D01*
X40468665Y-38452540D01*
X40468665Y-38668210D01*
X40684335Y-38668210D01*
X40843085Y-36509210D02*
X40843085Y-36293540D01*
X40627415Y-36293540D01*
X40627415Y-36509210D01*
X40843085Y-36509210D01*
X41160585Y-34858210D02*
X41160585Y-34642540D01*
X40944915Y-34642540D01*
X40944915Y-34858210D01*
X41160585Y-34858210D01*
X41319335Y-32222960D02*
X41319335Y-32007290D01*
X41103665Y-32007290D01*
X41103665Y-32222960D01*
X41319335Y-32222960D01*
X41319335Y-38414210D02*
X41319335Y-38198540D01*
X41103665Y-38198540D01*
X41103665Y-38414210D01*
X41319335Y-38414210D01*
X41795585Y-34604210D02*
X41795585Y-34388540D01*
X41579915Y-34388540D01*
X41579915Y-34604210D01*
X41795585Y-34604210D01*
X42113085Y-36763210D02*
X42113085Y-36547540D01*
X41897415Y-36547540D01*
X41897415Y-36763210D01*
X42113085Y-36763210D01*
X42351210Y-42478210D02*
X42351210Y-42262540D01*
X42135540Y-42262540D01*
X42135540Y-42478210D01*
X42351210Y-42478210D01*
X42589335Y-32476960D02*
X42589335Y-32261290D01*
X42373665Y-32261290D01*
X42373665Y-32476960D01*
X42589335Y-32476960D01*
X42589335Y-38668210D02*
X42589335Y-38452540D01*
X42373665Y-38452540D01*
X42373665Y-38668210D01*
X42589335Y-38668210D01*
X42748085Y-36509210D02*
X42748085Y-36293540D01*
X42532415Y-36293540D01*
X42532415Y-36509210D01*
X42748085Y-36509210D01*
X42986210Y-42224210D02*
X42986210Y-42008540D01*
X42770540Y-42008540D01*
X42770540Y-42224210D01*
X42986210Y-42224210D01*
X43224335Y-32222960D02*
X43224335Y-32007290D01*
X43008665Y-32007290D01*
X43008665Y-32222960D01*
X43224335Y-32222960D01*
X43224335Y-38414210D02*
X43224335Y-38198540D01*
X43008665Y-38198540D01*
X43008665Y-38414210D01*
X43224335Y-38414210D01*
X43303710Y-40573210D02*
X43303710Y-40357540D01*
X43088040Y-40357540D01*
X43088040Y-40573210D01*
X43303710Y-40573210D01*
X43938710Y-40319210D02*
X43938710Y-40103540D01*
X43723040Y-40103540D01*
X43723040Y-40319210D01*
X43938710Y-40319210D01*
X44018085Y-34858210D02*
X44018085Y-34642540D01*
X43802415Y-34642540D01*
X43802415Y-34858210D01*
X44018085Y-34858210D01*
X44653085Y-34604210D02*
X44653085Y-34388540D01*
X44437415Y-34388540D01*
X44437415Y-34604210D01*
X44653085Y-34604210D01*
X44732460Y-37715710D02*
X44732460Y-37500040D01*
X44516790Y-37500040D01*
X44516790Y-37715710D01*
X44732460Y-37715710D01*
X44732460Y-42478210D02*
X44732460Y-42262540D01*
X44516790Y-42262540D01*
X44516790Y-42478210D01*
X44732460Y-42478210D01*
X44970585Y-32476960D02*
X44970585Y-32261290D01*
X44754915Y-32261290D01*
X44754915Y-32476960D01*
X44970585Y-32476960D01*
X45367460Y-37461710D02*
X45367460Y-37246040D01*
X45151790Y-37246040D01*
X45151790Y-37461710D01*
X45367460Y-37461710D01*
X45367460Y-42224210D02*
X45367460Y-42008540D01*
X45151790Y-42008540D01*
X45151790Y-42224210D01*
X45367460Y-42224210D01*
X45605585Y-32222960D02*
X45605585Y-32007290D01*
X45389915Y-32007290D01*
X45389915Y-32222960D01*
X45605585Y-32222960D01*
X47351835Y-32476960D02*
X47351835Y-32261290D01*
X47136165Y-32261290D01*
X47136165Y-32476960D01*
X47351835Y-32476960D01*
X47351835Y-34858210D02*
X47351835Y-34642540D01*
X47136165Y-34642540D01*
X47136165Y-34858210D01*
X47351835Y-34858210D01*
X47351835Y-36763210D02*
X47351835Y-36547540D01*
X47136165Y-36547540D01*
X47136165Y-36763210D01*
X47351835Y-36763210D01*
X47351835Y-42478210D02*
X47351835Y-42262540D01*
X47136165Y-42262540D01*
X47136165Y-42478210D01*
X47351835Y-42478210D01*
X47986835Y-32222960D02*
X47986835Y-32007290D01*
X47771165Y-32007290D01*
X47771165Y-32222960D01*
X47986835Y-32222960D01*
X47986835Y-34604210D02*
X47986835Y-34388540D01*
X47771165Y-34388540D01*
X47771165Y-34604210D01*
X47986835Y-34604210D01*
X47986835Y-36509210D02*
X47986835Y-36293540D01*
X47771165Y-36293540D01*
X47771165Y-36509210D01*
X47986835Y-36509210D01*
X47986835Y-42224210D02*
X47986835Y-42008540D01*
X47771165Y-42008540D01*
X47771165Y-42224210D01*
X47986835Y-42224210D01*
X49256835Y-32476960D02*
X49256835Y-32261290D01*
X49041165Y-32261290D01*
X49041165Y-32476960D01*
X49256835Y-32476960D01*
X49256835Y-34858210D02*
X49256835Y-34642540D01*
X49041165Y-34642540D01*
X49041165Y-34858210D01*
X49256835Y-34858210D01*
X49256835Y-36763210D02*
X49256835Y-36547540D01*
X49041165Y-36547540D01*
X49041165Y-36763210D01*
X49256835Y-36763210D01*
X49256835Y-40573210D02*
X49256835Y-40357540D01*
X49041165Y-40357540D01*
X49041165Y-40573210D01*
X49256835Y-40573210D01*
X49256835Y-42478210D02*
X49256835Y-42262540D01*
X49041165Y-42262540D01*
X49041165Y-42478210D01*
X49256835Y-42478210D01*
X49891835Y-32222960D02*
X49891835Y-32007290D01*
X49676165Y-32007290D01*
X49676165Y-32222960D01*
X49891835Y-32222960D01*
X49891835Y-34604210D02*
X49891835Y-34388540D01*
X49676165Y-34388540D01*
X49676165Y-34604210D01*
X49891835Y-34604210D01*
X49891835Y-36509210D02*
X49891835Y-36293540D01*
X49676165Y-36293540D01*
X49676165Y-36509210D01*
X49891835Y-36509210D01*
X49891835Y-40319210D02*
X49891835Y-40103540D01*
X49676165Y-40103540D01*
X49676165Y-40319210D01*
X49891835Y-40319210D01*
X49891835Y-42224210D02*
X49891835Y-42008540D01*
X49676165Y-42008540D01*
X49676165Y-42224210D01*
X49891835Y-42224210D01*
X51161835Y-32476960D02*
X51161835Y-32261290D01*
X50946165Y-32261290D01*
X50946165Y-32476960D01*
X51161835Y-32476960D01*
X51161835Y-34858210D02*
X51161835Y-34642540D01*
X50946165Y-34642540D01*
X50946165Y-34858210D01*
X51161835Y-34858210D01*
X51161835Y-36763210D02*
X51161835Y-36547540D01*
X50946165Y-36547540D01*
X50946165Y-36763210D01*
X51161835Y-36763210D01*
X51161835Y-42478210D02*
X51161835Y-42262540D01*
X50946165Y-42262540D01*
X50946165Y-42478210D01*
X51161835Y-42478210D01*
X51796835Y-32222960D02*
X51796835Y-32007290D01*
X51581165Y-32007290D01*
X51581165Y-32222960D01*
X51796835Y-32222960D01*
X51796835Y-34604210D02*
X51796835Y-34388540D01*
X51581165Y-34388540D01*
X51581165Y-34604210D01*
X51796835Y-34604210D01*
X51796835Y-36509210D02*
X51796835Y-36293540D01*
X51581165Y-36293540D01*
X51581165Y-36509210D01*
X51796835Y-36509210D01*
X51796835Y-42224210D02*
X51796835Y-42008540D01*
X51581165Y-42008540D01*
X51581165Y-42224210D01*
X51796835Y-42224210D01*
D16*
X25718125Y-43646265D02*
X25917515Y-43446875D01*
X25718125Y-43247485D01*
X25518735Y-43446875D01*
X25718125Y-43646265D01*
X35718125Y-43646265D02*
X35917515Y-43446875D01*
X35718125Y-43247485D01*
X35518735Y-43446875D01*
X35718125Y-43646265D01*
X42383075Y-41741265D02*
X42582465Y-41541875D01*
X42383075Y-41342485D01*
X42183685Y-41541875D01*
X42383075Y-41741265D01*
X43097450Y-36026265D02*
X43296840Y-35826875D01*
X43097450Y-35627485D01*
X42898060Y-35826875D01*
X43097450Y-36026265D01*
X44770675Y-41741265D02*
X44970065Y-41541875D01*
X44770675Y-41342485D01*
X44571285Y-41541875D01*
X44770675Y-41741265D01*
X45485050Y-36026265D02*
X45684440Y-35826875D01*
X45485050Y-35627485D01*
X45285660Y-35826875D01*
X45485050Y-36026265D01*
X45828125Y-36867465D02*
X46027515Y-36668075D01*
X45828125Y-36468685D01*
X45628735Y-36668075D01*
X45828125Y-36867465D01*
X45828125Y-39255065D02*
X46027515Y-39055675D01*
X45828125Y-38856285D01*
X45628735Y-39055675D01*
X45828125Y-39255065D01*
D17*
X18373750Y-32423125D02*
X18773750Y-32823125D01*
X18773750Y-32423125D02*
X18373750Y-32823125D01*
X18773750Y-32623125D02*
G75*
G02*
X18373750Y-32623125I-200000J0D01*
G01*
X18373750Y-32623125D02*
G75*
G02*
X18773750Y-32623125I200000J0D01*
G01*
X18373750Y-34804375D02*
X18773750Y-35204375D01*
X18773750Y-34804375D02*
X18373750Y-35204375D01*
X18773750Y-35004375D02*
G75*
G02*
X18373750Y-35004375I-200000J0D01*
G01*
X18373750Y-35004375D02*
G75*
G02*
X18773750Y-35004375I200000J0D01*
G01*
X18611875Y-40519375D02*
X19011875Y-40919375D01*
X19011875Y-40519375D02*
X18611875Y-40919375D01*
X19011875Y-40719375D02*
G75*
G02*
X18611875Y-40719375I-200000J0D01*
G01*
X18611875Y-40719375D02*
G75*
G02*
X19011875Y-40719375I200000J0D01*
G01*
X18611875Y-42424375D02*
X19011875Y-42824375D01*
X19011875Y-42424375D02*
X18611875Y-42824375D01*
X19011875Y-42624375D02*
G75*
G02*
X18611875Y-42624375I-200000J0D01*
G01*
X18611875Y-42624375D02*
G75*
G02*
X19011875Y-42624375I200000J0D01*
G01*
X18850000Y-36709375D02*
X19250000Y-37109375D01*
X19250000Y-36709375D02*
X18850000Y-37109375D01*
X19250000Y-36909375D02*
G75*
G02*
X18850000Y-36909375I-200000J0D01*
G01*
X18850000Y-36909375D02*
G75*
G02*
X19250000Y-36909375I200000J0D01*
G01*
X19088125Y-38614375D02*
X19488125Y-39014375D01*
X19488125Y-38614375D02*
X19088125Y-39014375D01*
X19488125Y-38814375D02*
G75*
G02*
X19088125Y-38814375I-200000J0D01*
G01*
X19088125Y-38814375D02*
G75*
G02*
X19488125Y-38814375I200000J0D01*
G01*
X20278750Y-34804375D02*
X20678750Y-35204375D01*
X20678750Y-34804375D02*
X20278750Y-35204375D01*
X20678750Y-35004375D02*
G75*
G02*
X20278750Y-35004375I-200000J0D01*
G01*
X20278750Y-35004375D02*
G75*
G02*
X20678750Y-35004375I200000J0D01*
G01*
X20755000Y-32423125D02*
X21155000Y-32823125D01*
X21155000Y-32423125D02*
X20755000Y-32823125D01*
X21155000Y-32623125D02*
G75*
G02*
X20755000Y-32623125I-200000J0D01*
G01*
X20755000Y-32623125D02*
G75*
G02*
X21155000Y-32623125I200000J0D01*
G01*
X20755000Y-40519375D02*
X21155000Y-40919375D01*
X21155000Y-40519375D02*
X20755000Y-40919375D01*
X21155000Y-40719375D02*
G75*
G02*
X20755000Y-40719375I-200000J0D01*
G01*
X20755000Y-40719375D02*
G75*
G02*
X21155000Y-40719375I200000J0D01*
G01*
X20993125Y-42424375D02*
X21393125Y-42824375D01*
X21393125Y-42424375D02*
X20993125Y-42824375D01*
X21393125Y-42624375D02*
G75*
G02*
X20993125Y-42624375I-200000J0D01*
G01*
X20993125Y-42624375D02*
G75*
G02*
X21393125Y-42624375I200000J0D01*
G01*
X21231250Y-36709375D02*
X21631250Y-37109375D01*
X21631250Y-36709375D02*
X21231250Y-37109375D01*
X21631250Y-36909375D02*
G75*
G02*
X21231250Y-36909375I-200000J0D01*
G01*
X21231250Y-36909375D02*
G75*
G02*
X21631250Y-36909375I200000J0D01*
G01*
X21707500Y-38614375D02*
X22107500Y-39014375D01*
X22107500Y-38614375D02*
X21707500Y-39014375D01*
X22107500Y-38814375D02*
G75*
G02*
X21707500Y-38814375I-200000J0D01*
G01*
X21707500Y-38814375D02*
G75*
G02*
X22107500Y-38814375I200000J0D01*
G01*
X22183750Y-34804375D02*
X22583750Y-35204375D01*
X22583750Y-34804375D02*
X22183750Y-35204375D01*
X22583750Y-35004375D02*
G75*
G02*
X22183750Y-35004375I-200000J0D01*
G01*
X22183750Y-35004375D02*
G75*
G02*
X22583750Y-35004375I200000J0D01*
G01*
X22660000Y-32423125D02*
X23060000Y-32823125D01*
X23060000Y-32423125D02*
X22660000Y-32823125D01*
X23060000Y-32623125D02*
G75*
G02*
X22660000Y-32623125I-200000J0D01*
G01*
X22660000Y-32623125D02*
G75*
G02*
X23060000Y-32623125I200000J0D01*
G01*
X22660000Y-40519375D02*
X23060000Y-40919375D01*
X23060000Y-40519375D02*
X22660000Y-40919375D01*
X23060000Y-40719375D02*
G75*
G02*
X22660000Y-40719375I-200000J0D01*
G01*
X22660000Y-40719375D02*
G75*
G02*
X23060000Y-40719375I200000J0D01*
G01*
X23136250Y-36709375D02*
X23536250Y-37109375D01*
X23536250Y-36709375D02*
X23136250Y-37109375D01*
X23536250Y-36909375D02*
G75*
G02*
X23136250Y-36909375I-200000J0D01*
G01*
X23136250Y-36909375D02*
G75*
G02*
X23536250Y-36909375I200000J0D01*
G01*
X23374375Y-42424375D02*
X23774375Y-42824375D01*
X23774375Y-42424375D02*
X23374375Y-42824375D01*
X23774375Y-42624375D02*
G75*
G02*
X23374375Y-42624375I-200000J0D01*
G01*
X23374375Y-42624375D02*
G75*
G02*
X23774375Y-42624375I200000J0D01*
G01*
X23612500Y-38614375D02*
X24012500Y-39014375D01*
X24012500Y-38614375D02*
X23612500Y-39014375D01*
X24012500Y-38814375D02*
G75*
G02*
X23612500Y-38814375I-200000J0D01*
G01*
X23612500Y-38814375D02*
G75*
G02*
X24012500Y-38814375I200000J0D01*
G01*
X24088750Y-34804375D02*
X24488750Y-35204375D01*
X24488750Y-34804375D02*
X24088750Y-35204375D01*
X24488750Y-35004375D02*
G75*
G02*
X24088750Y-35004375I-200000J0D01*
G01*
X24088750Y-35004375D02*
G75*
G02*
X24488750Y-35004375I200000J0D01*
G01*
X24565000Y-32423125D02*
X24965000Y-32823125D01*
X24965000Y-32423125D02*
X24565000Y-32823125D01*
X24965000Y-32623125D02*
G75*
G02*
X24565000Y-32623125I-200000J0D01*
G01*
X24565000Y-32623125D02*
G75*
G02*
X24965000Y-32623125I200000J0D01*
G01*
X24565000Y-40519375D02*
X24965000Y-40919375D01*
X24965000Y-40519375D02*
X24565000Y-40919375D01*
X24965000Y-40719375D02*
G75*
G02*
X24565000Y-40719375I-200000J0D01*
G01*
X24565000Y-40719375D02*
G75*
G02*
X24965000Y-40719375I200000J0D01*
G01*
X25041250Y-36709375D02*
X25441250Y-37109375D01*
X25441250Y-36709375D02*
X25041250Y-37109375D01*
X25441250Y-36909375D02*
G75*
G02*
X25041250Y-36909375I-200000J0D01*
G01*
X25041250Y-36909375D02*
G75*
G02*
X25441250Y-36909375I200000J0D01*
G01*
X25517500Y-38614375D02*
X25917500Y-39014375D01*
X25917500Y-38614375D02*
X25517500Y-39014375D01*
X25917500Y-38814375D02*
G75*
G02*
X25517500Y-38814375I-200000J0D01*
G01*
X25517500Y-38814375D02*
G75*
G02*
X25917500Y-38814375I200000J0D01*
G01*
X25993750Y-34804375D02*
X26393750Y-35204375D01*
X26393750Y-34804375D02*
X25993750Y-35204375D01*
X26393750Y-35004375D02*
G75*
G02*
X25993750Y-35004375I-200000J0D01*
G01*
X25993750Y-35004375D02*
G75*
G02*
X26393750Y-35004375I200000J0D01*
G01*
X26470000Y-32423125D02*
X26870000Y-32823125D01*
X26870000Y-32423125D02*
X26470000Y-32823125D01*
X26870000Y-32623125D02*
G75*
G02*
X26470000Y-32623125I-200000J0D01*
G01*
X26470000Y-32623125D02*
G75*
G02*
X26870000Y-32623125I200000J0D01*
G01*
X26470000Y-40519375D02*
X26870000Y-40919375D01*
X26870000Y-40519375D02*
X26470000Y-40919375D01*
X26870000Y-40719375D02*
G75*
G02*
X26470000Y-40719375I-200000J0D01*
G01*
X26470000Y-40719375D02*
G75*
G02*
X26870000Y-40719375I200000J0D01*
G01*
X26946250Y-36709375D02*
X27346250Y-37109375D01*
X27346250Y-36709375D02*
X26946250Y-37109375D01*
X27346250Y-36909375D02*
G75*
G02*
X26946250Y-36909375I-200000J0D01*
G01*
X26946250Y-36909375D02*
G75*
G02*
X27346250Y-36909375I200000J0D01*
G01*
X27422500Y-38614375D02*
X27822500Y-39014375D01*
X27822500Y-38614375D02*
X27422500Y-39014375D01*
X27822500Y-38814375D02*
G75*
G02*
X27422500Y-38814375I-200000J0D01*
G01*
X27422500Y-38814375D02*
G75*
G02*
X27822500Y-38814375I200000J0D01*
G01*
X27898750Y-34804375D02*
X28298750Y-35204375D01*
X28298750Y-34804375D02*
X27898750Y-35204375D01*
X28298750Y-35004375D02*
G75*
G02*
X27898750Y-35004375I-200000J0D01*
G01*
X27898750Y-35004375D02*
G75*
G02*
X28298750Y-35004375I200000J0D01*
G01*
X28375000Y-40519375D02*
X28775000Y-40919375D01*
X28775000Y-40519375D02*
X28375000Y-40919375D01*
X28775000Y-40719375D02*
G75*
G02*
X28375000Y-40719375I-200000J0D01*
G01*
X28375000Y-40719375D02*
G75*
G02*
X28775000Y-40719375I200000J0D01*
G01*
X28851250Y-32423125D02*
X29251250Y-32823125D01*
X29251250Y-32423125D02*
X28851250Y-32823125D01*
X29251250Y-32623125D02*
G75*
G02*
X28851250Y-32623125I-200000J0D01*
G01*
X28851250Y-32623125D02*
G75*
G02*
X29251250Y-32623125I200000J0D01*
G01*
X28851250Y-36709375D02*
X29251250Y-37109375D01*
X29251250Y-36709375D02*
X28851250Y-37109375D01*
X29251250Y-36909375D02*
G75*
G02*
X28851250Y-36909375I-200000J0D01*
G01*
X28851250Y-36909375D02*
G75*
G02*
X29251250Y-36909375I200000J0D01*
G01*
X29327500Y-38614375D02*
X29727500Y-39014375D01*
X29727500Y-38614375D02*
X29327500Y-39014375D01*
X29727500Y-38814375D02*
G75*
G02*
X29327500Y-38814375I-200000J0D01*
G01*
X29327500Y-38814375D02*
G75*
G02*
X29727500Y-38814375I200000J0D01*
G01*
X29803750Y-34804375D02*
X30203750Y-35204375D01*
X30203750Y-34804375D02*
X29803750Y-35204375D01*
X30203750Y-35004375D02*
G75*
G02*
X29803750Y-35004375I-200000J0D01*
G01*
X29803750Y-35004375D02*
G75*
G02*
X30203750Y-35004375I200000J0D01*
G01*
X30280000Y-40519375D02*
X30680000Y-40919375D01*
X30680000Y-40519375D02*
X30280000Y-40919375D01*
X30680000Y-40719375D02*
G75*
G02*
X30280000Y-40719375I-200000J0D01*
G01*
X30280000Y-40719375D02*
G75*
G02*
X30680000Y-40719375I200000J0D01*
G01*
X30518125Y-42424375D02*
X30918125Y-42824375D01*
X30918125Y-42424375D02*
X30518125Y-42824375D01*
X30918125Y-42624375D02*
G75*
G02*
X30518125Y-42624375I-200000J0D01*
G01*
X30518125Y-42624375D02*
G75*
G02*
X30918125Y-42624375I200000J0D01*
G01*
X30756250Y-32423125D02*
X31156250Y-32823125D01*
X31156250Y-32423125D02*
X30756250Y-32823125D01*
X31156250Y-32623125D02*
G75*
G02*
X30756250Y-32623125I-200000J0D01*
G01*
X30756250Y-32623125D02*
G75*
G02*
X31156250Y-32623125I200000J0D01*
G01*
X30756250Y-36709375D02*
X31156250Y-37109375D01*
X31156250Y-36709375D02*
X30756250Y-37109375D01*
X31156250Y-36909375D02*
G75*
G02*
X30756250Y-36909375I-200000J0D01*
G01*
X30756250Y-36909375D02*
G75*
G02*
X31156250Y-36909375I200000J0D01*
G01*
X31232500Y-38614375D02*
X31632500Y-39014375D01*
X31632500Y-38614375D02*
X31232500Y-39014375D01*
X31632500Y-38814375D02*
G75*
G02*
X31232500Y-38814375I-200000J0D01*
G01*
X31232500Y-38814375D02*
G75*
G02*
X31632500Y-38814375I200000J0D01*
G01*
X31708750Y-34804375D02*
X32108750Y-35204375D01*
X32108750Y-34804375D02*
X31708750Y-35204375D01*
X32108750Y-35004375D02*
G75*
G02*
X31708750Y-35004375I-200000J0D01*
G01*
X31708750Y-35004375D02*
G75*
G02*
X32108750Y-35004375I200000J0D01*
G01*
X32185000Y-40519375D02*
X32585000Y-40919375D01*
X32585000Y-40519375D02*
X32185000Y-40919375D01*
X32585000Y-40719375D02*
G75*
G02*
X32185000Y-40719375I-200000J0D01*
G01*
X32185000Y-40719375D02*
G75*
G02*
X32585000Y-40719375I200000J0D01*
G01*
X32661250Y-32423125D02*
X33061250Y-32823125D01*
X33061250Y-32423125D02*
X32661250Y-32823125D01*
X33061250Y-32623125D02*
G75*
G02*
X32661250Y-32623125I-200000J0D01*
G01*
X32661250Y-32623125D02*
G75*
G02*
X33061250Y-32623125I200000J0D01*
G01*
X32661250Y-36709375D02*
X33061250Y-37109375D01*
X33061250Y-36709375D02*
X32661250Y-37109375D01*
X33061250Y-36909375D02*
G75*
G02*
X32661250Y-36909375I-200000J0D01*
G01*
X32661250Y-36909375D02*
G75*
G02*
X33061250Y-36909375I200000J0D01*
G01*
X33137500Y-38614375D02*
X33537500Y-39014375D01*
X33537500Y-38614375D02*
X33137500Y-39014375D01*
X33537500Y-38814375D02*
G75*
G02*
X33137500Y-38814375I-200000J0D01*
G01*
X33137500Y-38814375D02*
G75*
G02*
X33537500Y-38814375I200000J0D01*
G01*
X33613750Y-34804375D02*
X34013750Y-35204375D01*
X34013750Y-34804375D02*
X33613750Y-35204375D01*
X34013750Y-35004375D02*
G75*
G02*
X33613750Y-35004375I-200000J0D01*
G01*
X33613750Y-35004375D02*
G75*
G02*
X34013750Y-35004375I200000J0D01*
G01*
X34090000Y-40519375D02*
X34490000Y-40919375D01*
X34490000Y-40519375D02*
X34090000Y-40919375D01*
X34490000Y-40719375D02*
G75*
G02*
X34090000Y-40719375I-200000J0D01*
G01*
X34090000Y-40719375D02*
G75*
G02*
X34490000Y-40719375I200000J0D01*
G01*
X34566250Y-32423125D02*
X34966250Y-32823125D01*
X34966250Y-32423125D02*
X34566250Y-32823125D01*
X34966250Y-32623125D02*
G75*
G02*
X34566250Y-32623125I-200000J0D01*
G01*
X34566250Y-32623125D02*
G75*
G02*
X34966250Y-32623125I200000J0D01*
G01*
X34566250Y-36709375D02*
X34966250Y-37109375D01*
X34966250Y-36709375D02*
X34566250Y-37109375D01*
X34966250Y-36909375D02*
G75*
G02*
X34566250Y-36909375I-200000J0D01*
G01*
X34566250Y-36909375D02*
G75*
G02*
X34966250Y-36909375I200000J0D01*
G01*
X35042500Y-38614375D02*
X35442500Y-39014375D01*
X35442500Y-38614375D02*
X35042500Y-39014375D01*
X35442500Y-38814375D02*
G75*
G02*
X35042500Y-38814375I-200000J0D01*
G01*
X35042500Y-38814375D02*
G75*
G02*
X35442500Y-38814375I200000J0D01*
G01*
X35518750Y-34804375D02*
X35918750Y-35204375D01*
X35918750Y-34804375D02*
X35518750Y-35204375D01*
X35918750Y-35004375D02*
G75*
G02*
X35518750Y-35004375I-200000J0D01*
G01*
X35518750Y-35004375D02*
G75*
G02*
X35918750Y-35004375I200000J0D01*
G01*
X35995000Y-40519375D02*
X36395000Y-40919375D01*
X36395000Y-40519375D02*
X35995000Y-40919375D01*
X36395000Y-40719375D02*
G75*
G02*
X35995000Y-40719375I-200000J0D01*
G01*
X35995000Y-40719375D02*
G75*
G02*
X36395000Y-40719375I200000J0D01*
G01*
X36471750Y-36709375D02*
X36871750Y-37109375D01*
X36871750Y-36709375D02*
X36471750Y-37109375D01*
X36871750Y-36909375D02*
G75*
G02*
X36471750Y-36909375I-200000J0D01*
G01*
X36471750Y-36909375D02*
G75*
G02*
X36871750Y-36909375I200000J0D01*
G01*
X36947500Y-32423125D02*
X37347500Y-32823125D01*
X37347500Y-32423125D02*
X36947500Y-32823125D01*
X37347500Y-32623125D02*
G75*
G02*
X36947500Y-32623125I-200000J0D01*
G01*
X36947500Y-32623125D02*
G75*
G02*
X37347500Y-32623125I200000J0D01*
G01*
X36947500Y-38614375D02*
X37347500Y-39014375D01*
X37347500Y-38614375D02*
X36947500Y-39014375D01*
X37347500Y-38814375D02*
G75*
G02*
X36947500Y-38814375I-200000J0D01*
G01*
X36947500Y-38814375D02*
G75*
G02*
X37347500Y-38814375I200000J0D01*
G01*
X37423750Y-34804375D02*
X37823750Y-35204375D01*
X37823750Y-34804375D02*
X37423750Y-35204375D01*
X37823750Y-35004375D02*
G75*
G02*
X37423750Y-35004375I-200000J0D01*
G01*
X37423750Y-35004375D02*
G75*
G02*
X37823750Y-35004375I200000J0D01*
G01*
X37661875Y-42424375D02*
X38061875Y-42824375D01*
X38061875Y-42424375D02*
X37661875Y-42824375D01*
X38061875Y-42624375D02*
G75*
G02*
X37661875Y-42624375I-200000J0D01*
G01*
X37661875Y-42624375D02*
G75*
G02*
X38061875Y-42624375I200000J0D01*
G01*
X37896750Y-40519375D02*
X38296750Y-40919375D01*
X38296750Y-40519375D02*
X37896750Y-40919375D01*
X38296750Y-40719375D02*
G75*
G02*
X37896750Y-40719375I-200000J0D01*
G01*
X37896750Y-40719375D02*
G75*
G02*
X38296750Y-40719375I200000J0D01*
G01*
X38376250Y-36709375D02*
X38776250Y-37109375D01*
X38776250Y-36709375D02*
X38376250Y-37109375D01*
X38776250Y-36909375D02*
G75*
G02*
X38376250Y-36909375I-200000J0D01*
G01*
X38376250Y-36909375D02*
G75*
G02*
X38776250Y-36909375I200000J0D01*
G01*
X38852500Y-32423125D02*
X39252500Y-32823125D01*
X39252500Y-32423125D02*
X38852500Y-32823125D01*
X39252500Y-32623125D02*
G75*
G02*
X38852500Y-32623125I-200000J0D01*
G01*
X38852500Y-32623125D02*
G75*
G02*
X39252500Y-32623125I200000J0D01*
G01*
X38852500Y-38614375D02*
X39252500Y-39014375D01*
X39252500Y-38614375D02*
X38852500Y-39014375D01*
X39252500Y-38814375D02*
G75*
G02*
X38852500Y-38814375I-200000J0D01*
G01*
X38852500Y-38814375D02*
G75*
G02*
X39252500Y-38814375I200000J0D01*
G01*
X39328750Y-34804375D02*
X39728750Y-35204375D01*
X39728750Y-34804375D02*
X39328750Y-35204375D01*
X39728750Y-35004375D02*
G75*
G02*
X39328750Y-35004375I-200000J0D01*
G01*
X39328750Y-35004375D02*
G75*
G02*
X39728750Y-35004375I200000J0D01*
G01*
X39805000Y-40519375D02*
X40205000Y-40919375D01*
X40205000Y-40519375D02*
X39805000Y-40919375D01*
X40205000Y-40719375D02*
G75*
G02*
X39805000Y-40719375I-200000J0D01*
G01*
X39805000Y-40719375D02*
G75*
G02*
X40205000Y-40719375I200000J0D01*
G01*
X40043125Y-42424375D02*
X40443125Y-42824375D01*
X40443125Y-42424375D02*
X40043125Y-42824375D01*
X40443125Y-42624375D02*
G75*
G02*
X40043125Y-42624375I-200000J0D01*
G01*
X40043125Y-42624375D02*
G75*
G02*
X40443125Y-42624375I200000J0D01*
G01*
X40281250Y-36709375D02*
X40681250Y-37109375D01*
X40681250Y-36709375D02*
X40281250Y-37109375D01*
X40681250Y-36909375D02*
G75*
G02*
X40281250Y-36909375I-200000J0D01*
G01*
X40281250Y-36909375D02*
G75*
G02*
X40681250Y-36909375I200000J0D01*
G01*
X40757500Y-32423125D02*
X41157500Y-32823125D01*
X41157500Y-32423125D02*
X40757500Y-32823125D01*
X41157500Y-32623125D02*
G75*
G02*
X40757500Y-32623125I-200000J0D01*
G01*
X40757500Y-32623125D02*
G75*
G02*
X41157500Y-32623125I200000J0D01*
G01*
X40757500Y-38614375D02*
X41157500Y-39014375D01*
X41157500Y-38614375D02*
X40757500Y-39014375D01*
X41157500Y-38814375D02*
G75*
G02*
X40757500Y-38814375I-200000J0D01*
G01*
X40757500Y-38814375D02*
G75*
G02*
X41157500Y-38814375I200000J0D01*
G01*
X41233750Y-34804375D02*
X41633750Y-35204375D01*
X41633750Y-34804375D02*
X41233750Y-35204375D01*
X41633750Y-35004375D02*
G75*
G02*
X41233750Y-35004375I-200000J0D01*
G01*
X41233750Y-35004375D02*
G75*
G02*
X41633750Y-35004375I200000J0D01*
G01*
X42186250Y-36709375D02*
X42586250Y-37109375D01*
X42586250Y-36709375D02*
X42186250Y-37109375D01*
X42586250Y-36909375D02*
G75*
G02*
X42186250Y-36909375I-200000J0D01*
G01*
X42186250Y-36909375D02*
G75*
G02*
X42586250Y-36909375I200000J0D01*
G01*
X42424375Y-42424375D02*
X42824375Y-42824375D01*
X42824375Y-42424375D02*
X42424375Y-42824375D01*
X42824375Y-42624375D02*
G75*
G02*
X42424375Y-42624375I-200000J0D01*
G01*
X42424375Y-42624375D02*
G75*
G02*
X42824375Y-42624375I200000J0D01*
G01*
X42662500Y-32423125D02*
X43062500Y-32823125D01*
X43062500Y-32423125D02*
X42662500Y-32823125D01*
X43062500Y-32623125D02*
G75*
G02*
X42662500Y-32623125I-200000J0D01*
G01*
X42662500Y-32623125D02*
G75*
G02*
X43062500Y-32623125I200000J0D01*
G01*
X42662500Y-38614375D02*
X43062500Y-39014375D01*
X43062500Y-38614375D02*
X42662500Y-39014375D01*
X43062500Y-38814375D02*
G75*
G02*
X42662500Y-38814375I-200000J0D01*
G01*
X42662500Y-38814375D02*
G75*
G02*
X43062500Y-38814375I200000J0D01*
G01*
X43376875Y-40519375D02*
X43776875Y-40919375D01*
X43776875Y-40519375D02*
X43376875Y-40919375D01*
X43776875Y-40719375D02*
G75*
G02*
X43376875Y-40719375I-200000J0D01*
G01*
X43376875Y-40719375D02*
G75*
G02*
X43776875Y-40719375I200000J0D01*
G01*
X44091250Y-34804375D02*
X44491250Y-35204375D01*
X44491250Y-34804375D02*
X44091250Y-35204375D01*
X44491250Y-35004375D02*
G75*
G02*
X44091250Y-35004375I-200000J0D01*
G01*
X44091250Y-35004375D02*
G75*
G02*
X44491250Y-35004375I200000J0D01*
G01*
X44805625Y-37661875D02*
X45205625Y-38061875D01*
X45205625Y-37661875D02*
X44805625Y-38061875D01*
X45205625Y-37861875D02*
G75*
G02*
X44805625Y-37861875I-200000J0D01*
G01*
X44805625Y-37861875D02*
G75*
G02*
X45205625Y-37861875I200000J0D01*
G01*
X44805625Y-42424375D02*
X45205625Y-42824375D01*
X45205625Y-42424375D02*
X44805625Y-42824375D01*
X45205625Y-42624375D02*
G75*
G02*
X44805625Y-42624375I-200000J0D01*
G01*
X44805625Y-42624375D02*
G75*
G02*
X45205625Y-42624375I200000J0D01*
G01*
X45043750Y-32423125D02*
X45443750Y-32823125D01*
X45443750Y-32423125D02*
X45043750Y-32823125D01*
X45443750Y-32623125D02*
G75*
G02*
X45043750Y-32623125I-200000J0D01*
G01*
X45043750Y-32623125D02*
G75*
G02*
X45443750Y-32623125I200000J0D01*
G01*
X47425000Y-32423125D02*
X47825000Y-32823125D01*
X47825000Y-32423125D02*
X47425000Y-32823125D01*
X47825000Y-32623125D02*
G75*
G02*
X47425000Y-32623125I-200000J0D01*
G01*
X47425000Y-32623125D02*
G75*
G02*
X47825000Y-32623125I200000J0D01*
G01*
X47425000Y-34804375D02*
X47825000Y-35204375D01*
X47825000Y-34804375D02*
X47425000Y-35204375D01*
X47825000Y-35004375D02*
G75*
G02*
X47425000Y-35004375I-200000J0D01*
G01*
X47425000Y-35004375D02*
G75*
G02*
X47825000Y-35004375I200000J0D01*
G01*
X47425000Y-36709375D02*
X47825000Y-37109375D01*
X47825000Y-36709375D02*
X47425000Y-37109375D01*
X47825000Y-36909375D02*
G75*
G02*
X47425000Y-36909375I-200000J0D01*
G01*
X47425000Y-36909375D02*
G75*
G02*
X47825000Y-36909375I200000J0D01*
G01*
X47425000Y-42424375D02*
X47825000Y-42824375D01*
X47825000Y-42424375D02*
X47425000Y-42824375D01*
X47825000Y-42624375D02*
G75*
G02*
X47425000Y-42624375I-200000J0D01*
G01*
X47425000Y-42624375D02*
G75*
G02*
X47825000Y-42624375I200000J0D01*
G01*
X49330000Y-32423125D02*
X49730000Y-32823125D01*
X49730000Y-32423125D02*
X49330000Y-32823125D01*
X49730000Y-32623125D02*
G75*
G02*
X49330000Y-32623125I-200000J0D01*
G01*
X49330000Y-32623125D02*
G75*
G02*
X49730000Y-32623125I200000J0D01*
G01*
X49330000Y-34804375D02*
X49730000Y-35204375D01*
X49730000Y-34804375D02*
X49330000Y-35204375D01*
X49730000Y-35004375D02*
G75*
G02*
X49330000Y-35004375I-200000J0D01*
G01*
X49330000Y-35004375D02*
G75*
G02*
X49730000Y-35004375I200000J0D01*
G01*
X49330000Y-36709375D02*
X49730000Y-37109375D01*
X49730000Y-36709375D02*
X49330000Y-37109375D01*
X49730000Y-36909375D02*
G75*
G02*
X49330000Y-36909375I-200000J0D01*
G01*
X49330000Y-36909375D02*
G75*
G02*
X49730000Y-36909375I200000J0D01*
G01*
X49330000Y-40519375D02*
X49730000Y-40919375D01*
X49730000Y-40519375D02*
X49330000Y-40919375D01*
X49730000Y-40719375D02*
G75*
G02*
X49330000Y-40719375I-200000J0D01*
G01*
X49330000Y-40719375D02*
G75*
G02*
X49730000Y-40719375I200000J0D01*
G01*
X49330000Y-42424375D02*
X49730000Y-42824375D01*
X49730000Y-42424375D02*
X49330000Y-42824375D01*
X49730000Y-42624375D02*
G75*
G02*
X49330000Y-42624375I-200000J0D01*
G01*
X49330000Y-42624375D02*
G75*
G02*
X49730000Y-42624375I200000J0D01*
G01*
X51235000Y-32423125D02*
X51635000Y-32823125D01*
X51635000Y-32423125D02*
X51235000Y-32823125D01*
X51635000Y-32623125D02*
G75*
G02*
X51235000Y-32623125I-200000J0D01*
G01*
X51235000Y-32623125D02*
G75*
G02*
X51635000Y-32623125I200000J0D01*
G01*
X51235000Y-34804375D02*
X51635000Y-35204375D01*
X51635000Y-34804375D02*
X51235000Y-35204375D01*
X51635000Y-35004375D02*
G75*
G02*
X51235000Y-35004375I-200000J0D01*
G01*
X51235000Y-35004375D02*
G75*
G02*
X51635000Y-35004375I200000J0D01*
G01*
X51235000Y-36709375D02*
X51635000Y-37109375D01*
X51635000Y-36709375D02*
X51235000Y-37109375D01*
X51635000Y-36909375D02*
G75*
G02*
X51235000Y-36909375I-200000J0D01*
G01*
X51235000Y-36909375D02*
G75*
G02*
X51635000Y-36909375I200000J0D01*
G01*
X51235000Y-42424375D02*
X51635000Y-42824375D01*
X51635000Y-42424375D02*
X51235000Y-42824375D01*
X51635000Y-42624375D02*
G75*
G02*
X51235000Y-42624375I-200000J0D01*
G01*
X51235000Y-42624375D02*
G75*
G02*
X51635000Y-42624375I200000J0D01*
G01*
D11*
X17558277Y-44213984D02*
X17558277Y-44013984D01*
X17558277Y-44013984D02*
X17605896Y-44013984D01*
X17605896Y-44013984D02*
X17634467Y-44023508D01*
X17634467Y-44023508D02*
X17653515Y-44042555D01*
X17653515Y-44042555D02*
X17663039Y-44061603D01*
X17663039Y-44061603D02*
X17672563Y-44099698D01*
X17672563Y-44099698D02*
X17672563Y-44128270D01*
X17672563Y-44128270D02*
X17663039Y-44166365D01*
X17663039Y-44166365D02*
X17653515Y-44185412D01*
X17653515Y-44185412D02*
X17634467Y-44204460D01*
X17634467Y-44204460D02*
X17605896Y-44213984D01*
X17605896Y-44213984D02*
X17558277Y-44213984D01*
X17758277Y-44213984D02*
X17758277Y-44080650D01*
X17758277Y-44118746D02*
X17767801Y-44099698D01*
X17767801Y-44099698D02*
X17777324Y-44090174D01*
X17777324Y-44090174D02*
X17796372Y-44080650D01*
X17796372Y-44080650D02*
X17815420Y-44080650D01*
X17882086Y-44213984D02*
X17882086Y-44080650D01*
X17882086Y-44013984D02*
X17872563Y-44023508D01*
X17872563Y-44023508D02*
X17882086Y-44033031D01*
X17882086Y-44033031D02*
X17891610Y-44023508D01*
X17891610Y-44023508D02*
X17882086Y-44013984D01*
X17882086Y-44013984D02*
X17882086Y-44033031D01*
X18005896Y-44213984D02*
X17986848Y-44204460D01*
X17986848Y-44204460D02*
X17977324Y-44185412D01*
X17977324Y-44185412D02*
X17977324Y-44013984D01*
X18110658Y-44213984D02*
X18091610Y-44204460D01*
X18091610Y-44204460D02*
X18082086Y-44185412D01*
X18082086Y-44185412D02*
X18082086Y-44013984D01*
X18339229Y-44213984D02*
X18339229Y-44013984D01*
X18339229Y-44013984D02*
X18405896Y-44156841D01*
X18405896Y-44156841D02*
X18472563Y-44013984D01*
X18472563Y-44013984D02*
X18472563Y-44213984D01*
X18653515Y-44213984D02*
X18653515Y-44109222D01*
X18653515Y-44109222D02*
X18643991Y-44090174D01*
X18643991Y-44090174D02*
X18624944Y-44080650D01*
X18624944Y-44080650D02*
X18586848Y-44080650D01*
X18586848Y-44080650D02*
X18567801Y-44090174D01*
X18653515Y-44204460D02*
X18634467Y-44213984D01*
X18634467Y-44213984D02*
X18586848Y-44213984D01*
X18586848Y-44213984D02*
X18567801Y-44204460D01*
X18567801Y-44204460D02*
X18558277Y-44185412D01*
X18558277Y-44185412D02*
X18558277Y-44166365D01*
X18558277Y-44166365D02*
X18567801Y-44147317D01*
X18567801Y-44147317D02*
X18586848Y-44137793D01*
X18586848Y-44137793D02*
X18634467Y-44137793D01*
X18634467Y-44137793D02*
X18653515Y-44128270D01*
X18748753Y-44080650D02*
X18748753Y-44280650D01*
X18748753Y-44090174D02*
X18767801Y-44080650D01*
X18767801Y-44080650D02*
X18805896Y-44080650D01*
X18805896Y-44080650D02*
X18824944Y-44090174D01*
X18824944Y-44090174D02*
X18834467Y-44099698D01*
X18834467Y-44099698D02*
X18843991Y-44118746D01*
X18843991Y-44118746D02*
X18843991Y-44175889D01*
X18843991Y-44175889D02*
X18834467Y-44194936D01*
X18834467Y-44194936D02*
X18824944Y-44204460D01*
X18824944Y-44204460D02*
X18805896Y-44213984D01*
X18805896Y-44213984D02*
X18767801Y-44213984D01*
X18767801Y-44213984D02*
X18748753Y-44204460D01*
X18929705Y-44194936D02*
X18939229Y-44204460D01*
X18939229Y-44204460D02*
X18929705Y-44213984D01*
X18929705Y-44213984D02*
X18920182Y-44204460D01*
X18920182Y-44204460D02*
X18929705Y-44194936D01*
X18929705Y-44194936D02*
X18929705Y-44213984D01*
X18929705Y-44090174D02*
X18939229Y-44099698D01*
X18939229Y-44099698D02*
X18929705Y-44109222D01*
X18929705Y-44109222D02*
X18920182Y-44099698D01*
X18920182Y-44099698D02*
X18929705Y-44090174D01*
X18929705Y-44090174D02*
X18929705Y-44109222D01*
D12*
X17122500Y-44455000D02*
X17297500Y-44630000D01*
X17297500Y-44455000D02*
X17122500Y-44630000D01*
D11*
X17663039Y-44633984D02*
X17548753Y-44633984D01*
X17605896Y-44633984D02*
X17605896Y-44433984D01*
X17605896Y-44433984D02*
X17586848Y-44462555D01*
X17586848Y-44462555D02*
X17567801Y-44481603D01*
X17567801Y-44481603D02*
X17548753Y-44491127D01*
X17748753Y-44614936D02*
X17758277Y-44624460D01*
X17758277Y-44624460D02*
X17748753Y-44633984D01*
X17748753Y-44633984D02*
X17739229Y-44624460D01*
X17739229Y-44624460D02*
X17748753Y-44614936D01*
X17748753Y-44614936D02*
X17748753Y-44633984D01*
X17824944Y-44433984D02*
X17958277Y-44433984D01*
X17958277Y-44433984D02*
X17872563Y-44633984D01*
X18129705Y-44433984D02*
X18034467Y-44433984D01*
X18034467Y-44433984D02*
X18024944Y-44529222D01*
X18024944Y-44529222D02*
X18034467Y-44519698D01*
X18034467Y-44519698D02*
X18053515Y-44510174D01*
X18053515Y-44510174D02*
X18101134Y-44510174D01*
X18101134Y-44510174D02*
X18120182Y-44519698D01*
X18120182Y-44519698D02*
X18129705Y-44529222D01*
X18129705Y-44529222D02*
X18139229Y-44548270D01*
X18139229Y-44548270D02*
X18139229Y-44595889D01*
X18139229Y-44595889D02*
X18129705Y-44614936D01*
X18129705Y-44614936D02*
X18120182Y-44624460D01*
X18120182Y-44624460D02*
X18101134Y-44633984D01*
X18101134Y-44633984D02*
X18053515Y-44633984D01*
X18053515Y-44633984D02*
X18034467Y-44624460D01*
X18034467Y-44624460D02*
X18024944Y-44614936D01*
X18263039Y-44433984D02*
X18282086Y-44433984D01*
X18282086Y-44433984D02*
X18301134Y-44443508D01*
X18301134Y-44443508D02*
X18310658Y-44453031D01*
X18310658Y-44453031D02*
X18320182Y-44472079D01*
X18320182Y-44472079D02*
X18329705Y-44510174D01*
X18329705Y-44510174D02*
X18329705Y-44557793D01*
X18329705Y-44557793D02*
X18320182Y-44595889D01*
X18320182Y-44595889D02*
X18310658Y-44614936D01*
X18310658Y-44614936D02*
X18301134Y-44624460D01*
X18301134Y-44624460D02*
X18282086Y-44633984D01*
X18282086Y-44633984D02*
X18263039Y-44633984D01*
X18263039Y-44633984D02*
X18243991Y-44624460D01*
X18243991Y-44624460D02*
X18234467Y-44614936D01*
X18234467Y-44614936D02*
X18224944Y-44595889D01*
X18224944Y-44595889D02*
X18215420Y-44557793D01*
X18215420Y-44557793D02*
X18215420Y-44510174D01*
X18215420Y-44510174D02*
X18224944Y-44472079D01*
X18224944Y-44472079D02*
X18234467Y-44453031D01*
X18234467Y-44453031D02*
X18243991Y-44443508D01*
X18243991Y-44443508D02*
X18263039Y-44433984D01*
X18415420Y-44633984D02*
X18415420Y-44500650D01*
X18415420Y-44519698D02*
X18424944Y-44510174D01*
X18424944Y-44510174D02*
X18443991Y-44500650D01*
X18443991Y-44500650D02*
X18472563Y-44500650D01*
X18472563Y-44500650D02*
X18491610Y-44510174D01*
X18491610Y-44510174D02*
X18501134Y-44529222D01*
X18501134Y-44529222D02*
X18501134Y-44633984D01*
X18501134Y-44529222D02*
X18510658Y-44510174D01*
X18510658Y-44510174D02*
X18529705Y-44500650D01*
X18529705Y-44500650D02*
X18558277Y-44500650D01*
X18558277Y-44500650D02*
X18577325Y-44510174D01*
X18577325Y-44510174D02*
X18586848Y-44529222D01*
X18586848Y-44529222D02*
X18586848Y-44633984D01*
X18682086Y-44633984D02*
X18682086Y-44500650D01*
X18682086Y-44519698D02*
X18691610Y-44510174D01*
X18691610Y-44510174D02*
X18710658Y-44500650D01*
X18710658Y-44500650D02*
X18739229Y-44500650D01*
X18739229Y-44500650D02*
X18758277Y-44510174D01*
X18758277Y-44510174D02*
X18767801Y-44529222D01*
X18767801Y-44529222D02*
X18767801Y-44633984D01*
X18767801Y-44529222D02*
X18777325Y-44510174D01*
X18777325Y-44510174D02*
X18796372Y-44500650D01*
X18796372Y-44500650D02*
X18824944Y-44500650D01*
X18824944Y-44500650D02*
X18843991Y-44510174D01*
X18843991Y-44510174D02*
X18853515Y-44529222D01*
X18853515Y-44529222D02*
X18853515Y-44633984D01*
X19243991Y-44424460D02*
X19072563Y-44681603D01*
X19501134Y-44433984D02*
X19520182Y-44433984D01*
X19520182Y-44433984D02*
X19539229Y-44443508D01*
X19539229Y-44443508D02*
X19548753Y-44453031D01*
X19548753Y-44453031D02*
X19558277Y-44472079D01*
X19558277Y-44472079D02*
X19567801Y-44510174D01*
X19567801Y-44510174D02*
X19567801Y-44557793D01*
X19567801Y-44557793D02*
X19558277Y-44595889D01*
X19558277Y-44595889D02*
X19548753Y-44614936D01*
X19548753Y-44614936D02*
X19539229Y-44624460D01*
X19539229Y-44624460D02*
X19520182Y-44633984D01*
X19520182Y-44633984D02*
X19501134Y-44633984D01*
X19501134Y-44633984D02*
X19482087Y-44624460D01*
X19482087Y-44624460D02*
X19472563Y-44614936D01*
X19472563Y-44614936D02*
X19463039Y-44595889D01*
X19463039Y-44595889D02*
X19453515Y-44557793D01*
X19453515Y-44557793D02*
X19453515Y-44510174D01*
X19453515Y-44510174D02*
X19463039Y-44472079D01*
X19463039Y-44472079D02*
X19472563Y-44453031D01*
X19472563Y-44453031D02*
X19482087Y-44443508D01*
X19482087Y-44443508D02*
X19501134Y-44433984D01*
X19653515Y-44614936D02*
X19663039Y-44624460D01*
X19663039Y-44624460D02*
X19653515Y-44633984D01*
X19653515Y-44633984D02*
X19643991Y-44624460D01*
X19643991Y-44624460D02*
X19653515Y-44614936D01*
X19653515Y-44614936D02*
X19653515Y-44633984D01*
X19786848Y-44433984D02*
X19805896Y-44433984D01*
X19805896Y-44433984D02*
X19824944Y-44443508D01*
X19824944Y-44443508D02*
X19834468Y-44453031D01*
X19834468Y-44453031D02*
X19843991Y-44472079D01*
X19843991Y-44472079D02*
X19853515Y-44510174D01*
X19853515Y-44510174D02*
X19853515Y-44557793D01*
X19853515Y-44557793D02*
X19843991Y-44595889D01*
X19843991Y-44595889D02*
X19834468Y-44614936D01*
X19834468Y-44614936D02*
X19824944Y-44624460D01*
X19824944Y-44624460D02*
X19805896Y-44633984D01*
X19805896Y-44633984D02*
X19786848Y-44633984D01*
X19786848Y-44633984D02*
X19767801Y-44624460D01*
X19767801Y-44624460D02*
X19758277Y-44614936D01*
X19758277Y-44614936D02*
X19748753Y-44595889D01*
X19748753Y-44595889D02*
X19739229Y-44557793D01*
X19739229Y-44557793D02*
X19739229Y-44510174D01*
X19739229Y-44510174D02*
X19748753Y-44472079D01*
X19748753Y-44472079D02*
X19758277Y-44453031D01*
X19758277Y-44453031D02*
X19767801Y-44443508D01*
X19767801Y-44443508D02*
X19786848Y-44433984D01*
X20024944Y-44433984D02*
X19986848Y-44433984D01*
X19986848Y-44433984D02*
X19967801Y-44443508D01*
X19967801Y-44443508D02*
X19958277Y-44453031D01*
X19958277Y-44453031D02*
X19939229Y-44481603D01*
X19939229Y-44481603D02*
X19929706Y-44519698D01*
X19929706Y-44519698D02*
X19929706Y-44595889D01*
X19929706Y-44595889D02*
X19939229Y-44614936D01*
X19939229Y-44614936D02*
X19948753Y-44624460D01*
X19948753Y-44624460D02*
X19967801Y-44633984D01*
X19967801Y-44633984D02*
X20005896Y-44633984D01*
X20005896Y-44633984D02*
X20024944Y-44624460D01*
X20024944Y-44624460D02*
X20034468Y-44614936D01*
X20034468Y-44614936D02*
X20043991Y-44595889D01*
X20043991Y-44595889D02*
X20043991Y-44548270D01*
X20043991Y-44548270D02*
X20034468Y-44529222D01*
X20034468Y-44529222D02*
X20024944Y-44519698D01*
X20024944Y-44519698D02*
X20005896Y-44510174D01*
X20005896Y-44510174D02*
X19967801Y-44510174D01*
X19967801Y-44510174D02*
X19948753Y-44519698D01*
X19948753Y-44519698D02*
X19939229Y-44529222D01*
X19939229Y-44529222D02*
X19929706Y-44548270D01*
X20158277Y-44519698D02*
X20139229Y-44510174D01*
X20139229Y-44510174D02*
X20129706Y-44500650D01*
X20129706Y-44500650D02*
X20120182Y-44481603D01*
X20120182Y-44481603D02*
X20120182Y-44472079D01*
X20120182Y-44472079D02*
X20129706Y-44453031D01*
X20129706Y-44453031D02*
X20139229Y-44443508D01*
X20139229Y-44443508D02*
X20158277Y-44433984D01*
X20158277Y-44433984D02*
X20196372Y-44433984D01*
X20196372Y-44433984D02*
X20215420Y-44443508D01*
X20215420Y-44443508D02*
X20224944Y-44453031D01*
X20224944Y-44453031D02*
X20234468Y-44472079D01*
X20234468Y-44472079D02*
X20234468Y-44481603D01*
X20234468Y-44481603D02*
X20224944Y-44500650D01*
X20224944Y-44500650D02*
X20215420Y-44510174D01*
X20215420Y-44510174D02*
X20196372Y-44519698D01*
X20196372Y-44519698D02*
X20158277Y-44519698D01*
X20158277Y-44519698D02*
X20139229Y-44529222D01*
X20139229Y-44529222D02*
X20129706Y-44538746D01*
X20129706Y-44538746D02*
X20120182Y-44557793D01*
X20120182Y-44557793D02*
X20120182Y-44595889D01*
X20120182Y-44595889D02*
X20129706Y-44614936D01*
X20129706Y-44614936D02*
X20139229Y-44624460D01*
X20139229Y-44624460D02*
X20158277Y-44633984D01*
X20158277Y-44633984D02*
X20196372Y-44633984D01*
X20196372Y-44633984D02*
X20215420Y-44624460D01*
X20215420Y-44624460D02*
X20224944Y-44614936D01*
X20224944Y-44614936D02*
X20234468Y-44595889D01*
X20234468Y-44595889D02*
X20234468Y-44557793D01*
X20234468Y-44557793D02*
X20224944Y-44538746D01*
X20224944Y-44538746D02*
X20215420Y-44529222D01*
X20215420Y-44529222D02*
X20196372Y-44519698D01*
X20329706Y-44633984D02*
X20367801Y-44633984D01*
X20367801Y-44633984D02*
X20386849Y-44624460D01*
X20386849Y-44624460D02*
X20396372Y-44614936D01*
X20396372Y-44614936D02*
X20415420Y-44586365D01*
X20415420Y-44586365D02*
X20424944Y-44548270D01*
X20424944Y-44548270D02*
X20424944Y-44472079D01*
X20424944Y-44472079D02*
X20415420Y-44453031D01*
X20415420Y-44453031D02*
X20405896Y-44443508D01*
X20405896Y-44443508D02*
X20386849Y-44433984D01*
X20386849Y-44433984D02*
X20348753Y-44433984D01*
X20348753Y-44433984D02*
X20329706Y-44443508D01*
X20329706Y-44443508D02*
X20320182Y-44453031D01*
X20320182Y-44453031D02*
X20310658Y-44472079D01*
X20310658Y-44472079D02*
X20310658Y-44519698D01*
X20310658Y-44519698D02*
X20320182Y-44538746D01*
X20320182Y-44538746D02*
X20329706Y-44548270D01*
X20329706Y-44548270D02*
X20348753Y-44557793D01*
X20348753Y-44557793D02*
X20386849Y-44557793D01*
X20386849Y-44557793D02*
X20405896Y-44548270D01*
X20405896Y-44548270D02*
X20415420Y-44538746D01*
X20415420Y-44538746D02*
X20424944Y-44519698D01*
X20501134Y-44433984D02*
X20501134Y-44472079D01*
X20577325Y-44433984D02*
X20577325Y-44472079D01*
X20872563Y-44710174D02*
X20863039Y-44700650D01*
X20863039Y-44700650D02*
X20843991Y-44672079D01*
X20843991Y-44672079D02*
X20834468Y-44653031D01*
X20834468Y-44653031D02*
X20824944Y-44624460D01*
X20824944Y-44624460D02*
X20815420Y-44576841D01*
X20815420Y-44576841D02*
X20815420Y-44538746D01*
X20815420Y-44538746D02*
X20824944Y-44491127D01*
X20824944Y-44491127D02*
X20834468Y-44462555D01*
X20834468Y-44462555D02*
X20843991Y-44443508D01*
X20843991Y-44443508D02*
X20863039Y-44414936D01*
X20863039Y-44414936D02*
X20872563Y-44405412D01*
X21053515Y-44633984D02*
X20939230Y-44633984D01*
X20996372Y-44633984D02*
X20996372Y-44433984D01*
X20996372Y-44433984D02*
X20977325Y-44462555D01*
X20977325Y-44462555D02*
X20958277Y-44481603D01*
X20958277Y-44481603D02*
X20939230Y-44491127D01*
X21120182Y-44433984D02*
X21253515Y-44433984D01*
X21253515Y-44433984D02*
X21167801Y-44633984D01*
X21358277Y-44519698D02*
X21339230Y-44510174D01*
X21339230Y-44510174D02*
X21329706Y-44500650D01*
X21329706Y-44500650D02*
X21320182Y-44481603D01*
X21320182Y-44481603D02*
X21320182Y-44472079D01*
X21320182Y-44472079D02*
X21329706Y-44453031D01*
X21329706Y-44453031D02*
X21339230Y-44443508D01*
X21339230Y-44443508D02*
X21358277Y-44433984D01*
X21358277Y-44433984D02*
X21396372Y-44433984D01*
X21396372Y-44433984D02*
X21415420Y-44443508D01*
X21415420Y-44443508D02*
X21424944Y-44453031D01*
X21424944Y-44453031D02*
X21434468Y-44472079D01*
X21434468Y-44472079D02*
X21434468Y-44481603D01*
X21434468Y-44481603D02*
X21424944Y-44500650D01*
X21424944Y-44500650D02*
X21415420Y-44510174D01*
X21415420Y-44510174D02*
X21396372Y-44519698D01*
X21396372Y-44519698D02*
X21358277Y-44519698D01*
X21358277Y-44519698D02*
X21339230Y-44529222D01*
X21339230Y-44529222D02*
X21329706Y-44538746D01*
X21329706Y-44538746D02*
X21320182Y-44557793D01*
X21320182Y-44557793D02*
X21320182Y-44595889D01*
X21320182Y-44595889D02*
X21329706Y-44614936D01*
X21329706Y-44614936D02*
X21339230Y-44624460D01*
X21339230Y-44624460D02*
X21358277Y-44633984D01*
X21358277Y-44633984D02*
X21396372Y-44633984D01*
X21396372Y-44633984D02*
X21415420Y-44624460D01*
X21415420Y-44624460D02*
X21424944Y-44614936D01*
X21424944Y-44614936D02*
X21434468Y-44595889D01*
X21434468Y-44595889D02*
X21434468Y-44557793D01*
X21434468Y-44557793D02*
X21424944Y-44538746D01*
X21424944Y-44538746D02*
X21415420Y-44529222D01*
X21415420Y-44529222D02*
X21396372Y-44519698D01*
X21672563Y-44633984D02*
X21672563Y-44433984D01*
X21758277Y-44633984D02*
X21758277Y-44529222D01*
X21758277Y-44529222D02*
X21748753Y-44510174D01*
X21748753Y-44510174D02*
X21729706Y-44500650D01*
X21729706Y-44500650D02*
X21701134Y-44500650D01*
X21701134Y-44500650D02*
X21682087Y-44510174D01*
X21682087Y-44510174D02*
X21672563Y-44519698D01*
X21882087Y-44633984D02*
X21863039Y-44624460D01*
X21863039Y-44624460D02*
X21853515Y-44614936D01*
X21853515Y-44614936D02*
X21843992Y-44595889D01*
X21843992Y-44595889D02*
X21843992Y-44538746D01*
X21843992Y-44538746D02*
X21853515Y-44519698D01*
X21853515Y-44519698D02*
X21863039Y-44510174D01*
X21863039Y-44510174D02*
X21882087Y-44500650D01*
X21882087Y-44500650D02*
X21910658Y-44500650D01*
X21910658Y-44500650D02*
X21929706Y-44510174D01*
X21929706Y-44510174D02*
X21939230Y-44519698D01*
X21939230Y-44519698D02*
X21948753Y-44538746D01*
X21948753Y-44538746D02*
X21948753Y-44595889D01*
X21948753Y-44595889D02*
X21939230Y-44614936D01*
X21939230Y-44614936D02*
X21929706Y-44624460D01*
X21929706Y-44624460D02*
X21910658Y-44633984D01*
X21910658Y-44633984D02*
X21882087Y-44633984D01*
X22063039Y-44633984D02*
X22043992Y-44624460D01*
X22043992Y-44624460D02*
X22034468Y-44605412D01*
X22034468Y-44605412D02*
X22034468Y-44433984D01*
X22215420Y-44624460D02*
X22196373Y-44633984D01*
X22196373Y-44633984D02*
X22158277Y-44633984D01*
X22158277Y-44633984D02*
X22139230Y-44624460D01*
X22139230Y-44624460D02*
X22129706Y-44605412D01*
X22129706Y-44605412D02*
X22129706Y-44529222D01*
X22129706Y-44529222D02*
X22139230Y-44510174D01*
X22139230Y-44510174D02*
X22158277Y-44500650D01*
X22158277Y-44500650D02*
X22196373Y-44500650D01*
X22196373Y-44500650D02*
X22215420Y-44510174D01*
X22215420Y-44510174D02*
X22224944Y-44529222D01*
X22224944Y-44529222D02*
X22224944Y-44548270D01*
X22224944Y-44548270D02*
X22129706Y-44567317D01*
X22301134Y-44624460D02*
X22320182Y-44633984D01*
X22320182Y-44633984D02*
X22358277Y-44633984D01*
X22358277Y-44633984D02*
X22377325Y-44624460D01*
X22377325Y-44624460D02*
X22386849Y-44605412D01*
X22386849Y-44605412D02*
X22386849Y-44595889D01*
X22386849Y-44595889D02*
X22377325Y-44576841D01*
X22377325Y-44576841D02*
X22358277Y-44567317D01*
X22358277Y-44567317D02*
X22329706Y-44567317D01*
X22329706Y-44567317D02*
X22310658Y-44557793D01*
X22310658Y-44557793D02*
X22301134Y-44538746D01*
X22301134Y-44538746D02*
X22301134Y-44529222D01*
X22301134Y-44529222D02*
X22310658Y-44510174D01*
X22310658Y-44510174D02*
X22329706Y-44500650D01*
X22329706Y-44500650D02*
X22358277Y-44500650D01*
X22358277Y-44500650D02*
X22377325Y-44510174D01*
X22453515Y-44710174D02*
X22463039Y-44700650D01*
X22463039Y-44700650D02*
X22482087Y-44672079D01*
X22482087Y-44672079D02*
X22491611Y-44653031D01*
X22491611Y-44653031D02*
X22501134Y-44624460D01*
X22501134Y-44624460D02*
X22510658Y-44576841D01*
X22510658Y-44576841D02*
X22510658Y-44538746D01*
X22510658Y-44538746D02*
X22501134Y-44491127D01*
X22501134Y-44491127D02*
X22491611Y-44462555D01*
X22491611Y-44462555D02*
X22482087Y-44443508D01*
X22482087Y-44443508D02*
X22463039Y-44414936D01*
X22463039Y-44414936D02*
X22453515Y-44405412D01*
X22815420Y-44710174D02*
X22805896Y-44700650D01*
X22805896Y-44700650D02*
X22786849Y-44672079D01*
X22786849Y-44672079D02*
X22777325Y-44653031D01*
X22777325Y-44653031D02*
X22767801Y-44624460D01*
X22767801Y-44624460D02*
X22758277Y-44576841D01*
X22758277Y-44576841D02*
X22758277Y-44538746D01*
X22758277Y-44538746D02*
X22767801Y-44491127D01*
X22767801Y-44491127D02*
X22777325Y-44462555D01*
X22777325Y-44462555D02*
X22786849Y-44443508D01*
X22786849Y-44443508D02*
X22805896Y-44414936D01*
X22805896Y-44414936D02*
X22815420Y-44405412D01*
X22891611Y-44500650D02*
X22891611Y-44633984D01*
X22891611Y-44519698D02*
X22901134Y-44510174D01*
X22901134Y-44510174D02*
X22920182Y-44500650D01*
X22920182Y-44500650D02*
X22948753Y-44500650D01*
X22948753Y-44500650D02*
X22967801Y-44510174D01*
X22967801Y-44510174D02*
X22977325Y-44529222D01*
X22977325Y-44529222D02*
X22977325Y-44633984D01*
X23101134Y-44633984D02*
X23082087Y-44624460D01*
X23082087Y-44624460D02*
X23072563Y-44614936D01*
X23072563Y-44614936D02*
X23063039Y-44595889D01*
X23063039Y-44595889D02*
X23063039Y-44538746D01*
X23063039Y-44538746D02*
X23072563Y-44519698D01*
X23072563Y-44519698D02*
X23082087Y-44510174D01*
X23082087Y-44510174D02*
X23101134Y-44500650D01*
X23101134Y-44500650D02*
X23129706Y-44500650D01*
X23129706Y-44500650D02*
X23148753Y-44510174D01*
X23148753Y-44510174D02*
X23158277Y-44519698D01*
X23158277Y-44519698D02*
X23167801Y-44538746D01*
X23167801Y-44538746D02*
X23167801Y-44595889D01*
X23167801Y-44595889D02*
X23158277Y-44614936D01*
X23158277Y-44614936D02*
X23148753Y-44624460D01*
X23148753Y-44624460D02*
X23129706Y-44633984D01*
X23129706Y-44633984D02*
X23101134Y-44633984D01*
X23224944Y-44500650D02*
X23301134Y-44500650D01*
X23253515Y-44433984D02*
X23253515Y-44605412D01*
X23253515Y-44605412D02*
X23263039Y-44624460D01*
X23263039Y-44624460D02*
X23282087Y-44633984D01*
X23282087Y-44633984D02*
X23301134Y-44633984D01*
X23520182Y-44500650D02*
X23520182Y-44700650D01*
X23520182Y-44510174D02*
X23539230Y-44500650D01*
X23539230Y-44500650D02*
X23577325Y-44500650D01*
X23577325Y-44500650D02*
X23596373Y-44510174D01*
X23596373Y-44510174D02*
X23605896Y-44519698D01*
X23605896Y-44519698D02*
X23615420Y-44538746D01*
X23615420Y-44538746D02*
X23615420Y-44595889D01*
X23615420Y-44595889D02*
X23605896Y-44614936D01*
X23605896Y-44614936D02*
X23596373Y-44624460D01*
X23596373Y-44624460D02*
X23577325Y-44633984D01*
X23577325Y-44633984D02*
X23539230Y-44633984D01*
X23539230Y-44633984D02*
X23520182Y-44624460D01*
X23729706Y-44633984D02*
X23710658Y-44624460D01*
X23710658Y-44624460D02*
X23701134Y-44605412D01*
X23701134Y-44605412D02*
X23701134Y-44433984D01*
X23891611Y-44633984D02*
X23891611Y-44529222D01*
X23891611Y-44529222D02*
X23882087Y-44510174D01*
X23882087Y-44510174D02*
X23863039Y-44500650D01*
X23863039Y-44500650D02*
X23824944Y-44500650D01*
X23824944Y-44500650D02*
X23805896Y-44510174D01*
X23891611Y-44624460D02*
X23872563Y-44633984D01*
X23872563Y-44633984D02*
X23824944Y-44633984D01*
X23824944Y-44633984D02*
X23805896Y-44624460D01*
X23805896Y-44624460D02*
X23796373Y-44605412D01*
X23796373Y-44605412D02*
X23796373Y-44586365D01*
X23796373Y-44586365D02*
X23805896Y-44567317D01*
X23805896Y-44567317D02*
X23824944Y-44557793D01*
X23824944Y-44557793D02*
X23872563Y-44557793D01*
X23872563Y-44557793D02*
X23891611Y-44548270D01*
X23958277Y-44500650D02*
X24034468Y-44500650D01*
X23986849Y-44433984D02*
X23986849Y-44605412D01*
X23986849Y-44605412D02*
X23996373Y-44624460D01*
X23996373Y-44624460D02*
X24015420Y-44633984D01*
X24015420Y-44633984D02*
X24034468Y-44633984D01*
X24177325Y-44624460D02*
X24158277Y-44633984D01*
X24158277Y-44633984D02*
X24120182Y-44633984D01*
X24120182Y-44633984D02*
X24101134Y-44624460D01*
X24101134Y-44624460D02*
X24091611Y-44605412D01*
X24091611Y-44605412D02*
X24091611Y-44529222D01*
X24091611Y-44529222D02*
X24101134Y-44510174D01*
X24101134Y-44510174D02*
X24120182Y-44500650D01*
X24120182Y-44500650D02*
X24158277Y-44500650D01*
X24158277Y-44500650D02*
X24177325Y-44510174D01*
X24177325Y-44510174D02*
X24186849Y-44529222D01*
X24186849Y-44529222D02*
X24186849Y-44548270D01*
X24186849Y-44548270D02*
X24091611Y-44567317D01*
X24358277Y-44633984D02*
X24358277Y-44433984D01*
X24358277Y-44624460D02*
X24339230Y-44633984D01*
X24339230Y-44633984D02*
X24301134Y-44633984D01*
X24301134Y-44633984D02*
X24282087Y-44624460D01*
X24282087Y-44624460D02*
X24272563Y-44614936D01*
X24272563Y-44614936D02*
X24263039Y-44595889D01*
X24263039Y-44595889D02*
X24263039Y-44538746D01*
X24263039Y-44538746D02*
X24272563Y-44519698D01*
X24272563Y-44519698D02*
X24282087Y-44510174D01*
X24282087Y-44510174D02*
X24301134Y-44500650D01*
X24301134Y-44500650D02*
X24339230Y-44500650D01*
X24339230Y-44500650D02*
X24358277Y-44510174D01*
X24434468Y-44710174D02*
X24443992Y-44700650D01*
X24443992Y-44700650D02*
X24463039Y-44672079D01*
X24463039Y-44672079D02*
X24472563Y-44653031D01*
X24472563Y-44653031D02*
X24482087Y-44624460D01*
X24482087Y-44624460D02*
X24491611Y-44576841D01*
X24491611Y-44576841D02*
X24491611Y-44538746D01*
X24491611Y-44538746D02*
X24482087Y-44491127D01*
X24482087Y-44491127D02*
X24472563Y-44462555D01*
X24472563Y-44462555D02*
X24463039Y-44443508D01*
X24463039Y-44443508D02*
X24443992Y-44414936D01*
X24443992Y-44414936D02*
X24434468Y-44405412D01*
X17297500Y-44837500D02*
G75*
G02*
X17097500Y-44837500I-100000J0D01*
G01*
X17097500Y-44837500D02*
G75*
G02*
X17297500Y-44837500I100000J0D01*
G01*
X17548753Y-44748031D02*
X17558277Y-44738508D01*
X17558277Y-44738508D02*
X17577324Y-44728984D01*
X17577324Y-44728984D02*
X17624944Y-44728984D01*
X17624944Y-44728984D02*
X17643991Y-44738508D01*
X17643991Y-44738508D02*
X17653515Y-44748031D01*
X17653515Y-44748031D02*
X17663039Y-44767079D01*
X17663039Y-44767079D02*
X17663039Y-44786127D01*
X17663039Y-44786127D02*
X17653515Y-44814698D01*
X17653515Y-44814698D02*
X17539229Y-44928984D01*
X17539229Y-44928984D02*
X17663039Y-44928984D01*
X17748753Y-44909936D02*
X17758277Y-44919460D01*
X17758277Y-44919460D02*
X17748753Y-44928984D01*
X17748753Y-44928984D02*
X17739229Y-44919460D01*
X17739229Y-44919460D02*
X17748753Y-44909936D01*
X17748753Y-44909936D02*
X17748753Y-44928984D01*
X17834467Y-44748031D02*
X17843991Y-44738508D01*
X17843991Y-44738508D02*
X17863039Y-44728984D01*
X17863039Y-44728984D02*
X17910658Y-44728984D01*
X17910658Y-44728984D02*
X17929705Y-44738508D01*
X17929705Y-44738508D02*
X17939229Y-44748031D01*
X17939229Y-44748031D02*
X17948753Y-44767079D01*
X17948753Y-44767079D02*
X17948753Y-44786127D01*
X17948753Y-44786127D02*
X17939229Y-44814698D01*
X17939229Y-44814698D02*
X17824944Y-44928984D01*
X17824944Y-44928984D02*
X17948753Y-44928984D01*
X18072563Y-44728984D02*
X18091610Y-44728984D01*
X18091610Y-44728984D02*
X18110658Y-44738508D01*
X18110658Y-44738508D02*
X18120182Y-44748031D01*
X18120182Y-44748031D02*
X18129705Y-44767079D01*
X18129705Y-44767079D02*
X18139229Y-44805174D01*
X18139229Y-44805174D02*
X18139229Y-44852793D01*
X18139229Y-44852793D02*
X18129705Y-44890888D01*
X18129705Y-44890888D02*
X18120182Y-44909936D01*
X18120182Y-44909936D02*
X18110658Y-44919460D01*
X18110658Y-44919460D02*
X18091610Y-44928984D01*
X18091610Y-44928984D02*
X18072563Y-44928984D01*
X18072563Y-44928984D02*
X18053515Y-44919460D01*
X18053515Y-44919460D02*
X18043991Y-44909936D01*
X18043991Y-44909936D02*
X18034467Y-44890888D01*
X18034467Y-44890888D02*
X18024944Y-44852793D01*
X18024944Y-44852793D02*
X18024944Y-44805174D01*
X18024944Y-44805174D02*
X18034467Y-44767079D01*
X18034467Y-44767079D02*
X18043991Y-44748031D01*
X18043991Y-44748031D02*
X18053515Y-44738508D01*
X18053515Y-44738508D02*
X18072563Y-44728984D01*
X18263039Y-44728984D02*
X18282086Y-44728984D01*
X18282086Y-44728984D02*
X18301134Y-44738508D01*
X18301134Y-44738508D02*
X18310658Y-44748031D01*
X18310658Y-44748031D02*
X18320182Y-44767079D01*
X18320182Y-44767079D02*
X18329705Y-44805174D01*
X18329705Y-44805174D02*
X18329705Y-44852793D01*
X18329705Y-44852793D02*
X18320182Y-44890888D01*
X18320182Y-44890888D02*
X18310658Y-44909936D01*
X18310658Y-44909936D02*
X18301134Y-44919460D01*
X18301134Y-44919460D02*
X18282086Y-44928984D01*
X18282086Y-44928984D02*
X18263039Y-44928984D01*
X18263039Y-44928984D02*
X18243991Y-44919460D01*
X18243991Y-44919460D02*
X18234467Y-44909936D01*
X18234467Y-44909936D02*
X18224944Y-44890888D01*
X18224944Y-44890888D02*
X18215420Y-44852793D01*
X18215420Y-44852793D02*
X18215420Y-44805174D01*
X18215420Y-44805174D02*
X18224944Y-44767079D01*
X18224944Y-44767079D02*
X18234467Y-44748031D01*
X18234467Y-44748031D02*
X18243991Y-44738508D01*
X18243991Y-44738508D02*
X18263039Y-44728984D01*
X18415420Y-44928984D02*
X18415420Y-44795650D01*
X18415420Y-44814698D02*
X18424944Y-44805174D01*
X18424944Y-44805174D02*
X18443991Y-44795650D01*
X18443991Y-44795650D02*
X18472563Y-44795650D01*
X18472563Y-44795650D02*
X18491610Y-44805174D01*
X18491610Y-44805174D02*
X18501134Y-44824222D01*
X18501134Y-44824222D02*
X18501134Y-44928984D01*
X18501134Y-44824222D02*
X18510658Y-44805174D01*
X18510658Y-44805174D02*
X18529705Y-44795650D01*
X18529705Y-44795650D02*
X18558277Y-44795650D01*
X18558277Y-44795650D02*
X18577325Y-44805174D01*
X18577325Y-44805174D02*
X18586848Y-44824222D01*
X18586848Y-44824222D02*
X18586848Y-44928984D01*
X18682086Y-44928984D02*
X18682086Y-44795650D01*
X18682086Y-44814698D02*
X18691610Y-44805174D01*
X18691610Y-44805174D02*
X18710658Y-44795650D01*
X18710658Y-44795650D02*
X18739229Y-44795650D01*
X18739229Y-44795650D02*
X18758277Y-44805174D01*
X18758277Y-44805174D02*
X18767801Y-44824222D01*
X18767801Y-44824222D02*
X18767801Y-44928984D01*
X18767801Y-44824222D02*
X18777325Y-44805174D01*
X18777325Y-44805174D02*
X18796372Y-44795650D01*
X18796372Y-44795650D02*
X18824944Y-44795650D01*
X18824944Y-44795650D02*
X18843991Y-44805174D01*
X18843991Y-44805174D02*
X18853515Y-44824222D01*
X18853515Y-44824222D02*
X18853515Y-44928984D01*
X19243991Y-44719460D02*
X19072563Y-44976603D01*
X19501134Y-44728984D02*
X19520182Y-44728984D01*
X19520182Y-44728984D02*
X19539229Y-44738508D01*
X19539229Y-44738508D02*
X19548753Y-44748031D01*
X19548753Y-44748031D02*
X19558277Y-44767079D01*
X19558277Y-44767079D02*
X19567801Y-44805174D01*
X19567801Y-44805174D02*
X19567801Y-44852793D01*
X19567801Y-44852793D02*
X19558277Y-44890888D01*
X19558277Y-44890888D02*
X19548753Y-44909936D01*
X19548753Y-44909936D02*
X19539229Y-44919460D01*
X19539229Y-44919460D02*
X19520182Y-44928984D01*
X19520182Y-44928984D02*
X19501134Y-44928984D01*
X19501134Y-44928984D02*
X19482087Y-44919460D01*
X19482087Y-44919460D02*
X19472563Y-44909936D01*
X19472563Y-44909936D02*
X19463039Y-44890888D01*
X19463039Y-44890888D02*
X19453515Y-44852793D01*
X19453515Y-44852793D02*
X19453515Y-44805174D01*
X19453515Y-44805174D02*
X19463039Y-44767079D01*
X19463039Y-44767079D02*
X19472563Y-44748031D01*
X19472563Y-44748031D02*
X19482087Y-44738508D01*
X19482087Y-44738508D02*
X19501134Y-44728984D01*
X19653515Y-44909936D02*
X19663039Y-44919460D01*
X19663039Y-44919460D02*
X19653515Y-44928984D01*
X19653515Y-44928984D02*
X19643991Y-44919460D01*
X19643991Y-44919460D02*
X19653515Y-44909936D01*
X19653515Y-44909936D02*
X19653515Y-44928984D01*
X19786848Y-44728984D02*
X19805896Y-44728984D01*
X19805896Y-44728984D02*
X19824944Y-44738508D01*
X19824944Y-44738508D02*
X19834468Y-44748031D01*
X19834468Y-44748031D02*
X19843991Y-44767079D01*
X19843991Y-44767079D02*
X19853515Y-44805174D01*
X19853515Y-44805174D02*
X19853515Y-44852793D01*
X19853515Y-44852793D02*
X19843991Y-44890888D01*
X19843991Y-44890888D02*
X19834468Y-44909936D01*
X19834468Y-44909936D02*
X19824944Y-44919460D01*
X19824944Y-44919460D02*
X19805896Y-44928984D01*
X19805896Y-44928984D02*
X19786848Y-44928984D01*
X19786848Y-44928984D02*
X19767801Y-44919460D01*
X19767801Y-44919460D02*
X19758277Y-44909936D01*
X19758277Y-44909936D02*
X19748753Y-44890888D01*
X19748753Y-44890888D02*
X19739229Y-44852793D01*
X19739229Y-44852793D02*
X19739229Y-44805174D01*
X19739229Y-44805174D02*
X19748753Y-44767079D01*
X19748753Y-44767079D02*
X19758277Y-44748031D01*
X19758277Y-44748031D02*
X19767801Y-44738508D01*
X19767801Y-44738508D02*
X19786848Y-44728984D01*
X19967801Y-44814698D02*
X19948753Y-44805174D01*
X19948753Y-44805174D02*
X19939229Y-44795650D01*
X19939229Y-44795650D02*
X19929706Y-44776603D01*
X19929706Y-44776603D02*
X19929706Y-44767079D01*
X19929706Y-44767079D02*
X19939229Y-44748031D01*
X19939229Y-44748031D02*
X19948753Y-44738508D01*
X19948753Y-44738508D02*
X19967801Y-44728984D01*
X19967801Y-44728984D02*
X20005896Y-44728984D01*
X20005896Y-44728984D02*
X20024944Y-44738508D01*
X20024944Y-44738508D02*
X20034468Y-44748031D01*
X20034468Y-44748031D02*
X20043991Y-44767079D01*
X20043991Y-44767079D02*
X20043991Y-44776603D01*
X20043991Y-44776603D02*
X20034468Y-44795650D01*
X20034468Y-44795650D02*
X20024944Y-44805174D01*
X20024944Y-44805174D02*
X20005896Y-44814698D01*
X20005896Y-44814698D02*
X19967801Y-44814698D01*
X19967801Y-44814698D02*
X19948753Y-44824222D01*
X19948753Y-44824222D02*
X19939229Y-44833746D01*
X19939229Y-44833746D02*
X19929706Y-44852793D01*
X19929706Y-44852793D02*
X19929706Y-44890888D01*
X19929706Y-44890888D02*
X19939229Y-44909936D01*
X19939229Y-44909936D02*
X19948753Y-44919460D01*
X19948753Y-44919460D02*
X19967801Y-44928984D01*
X19967801Y-44928984D02*
X20005896Y-44928984D01*
X20005896Y-44928984D02*
X20024944Y-44919460D01*
X20024944Y-44919460D02*
X20034468Y-44909936D01*
X20034468Y-44909936D02*
X20043991Y-44890888D01*
X20043991Y-44890888D02*
X20043991Y-44852793D01*
X20043991Y-44852793D02*
X20034468Y-44833746D01*
X20034468Y-44833746D02*
X20024944Y-44824222D01*
X20024944Y-44824222D02*
X20005896Y-44814698D01*
X20215420Y-44728984D02*
X20177325Y-44728984D01*
X20177325Y-44728984D02*
X20158277Y-44738508D01*
X20158277Y-44738508D02*
X20148753Y-44748031D01*
X20148753Y-44748031D02*
X20129706Y-44776603D01*
X20129706Y-44776603D02*
X20120182Y-44814698D01*
X20120182Y-44814698D02*
X20120182Y-44890888D01*
X20120182Y-44890888D02*
X20129706Y-44909936D01*
X20129706Y-44909936D02*
X20139229Y-44919460D01*
X20139229Y-44919460D02*
X20158277Y-44928984D01*
X20158277Y-44928984D02*
X20196372Y-44928984D01*
X20196372Y-44928984D02*
X20215420Y-44919460D01*
X20215420Y-44919460D02*
X20224944Y-44909936D01*
X20224944Y-44909936D02*
X20234468Y-44890888D01*
X20234468Y-44890888D02*
X20234468Y-44843269D01*
X20234468Y-44843269D02*
X20224944Y-44824222D01*
X20224944Y-44824222D02*
X20215420Y-44814698D01*
X20215420Y-44814698D02*
X20196372Y-44805174D01*
X20196372Y-44805174D02*
X20158277Y-44805174D01*
X20158277Y-44805174D02*
X20139229Y-44814698D01*
X20139229Y-44814698D02*
X20129706Y-44824222D01*
X20129706Y-44824222D02*
X20120182Y-44843269D01*
X20405896Y-44728984D02*
X20367801Y-44728984D01*
X20367801Y-44728984D02*
X20348753Y-44738508D01*
X20348753Y-44738508D02*
X20339229Y-44748031D01*
X20339229Y-44748031D02*
X20320182Y-44776603D01*
X20320182Y-44776603D02*
X20310658Y-44814698D01*
X20310658Y-44814698D02*
X20310658Y-44890888D01*
X20310658Y-44890888D02*
X20320182Y-44909936D01*
X20320182Y-44909936D02*
X20329706Y-44919460D01*
X20329706Y-44919460D02*
X20348753Y-44928984D01*
X20348753Y-44928984D02*
X20386849Y-44928984D01*
X20386849Y-44928984D02*
X20405896Y-44919460D01*
X20405896Y-44919460D02*
X20415420Y-44909936D01*
X20415420Y-44909936D02*
X20424944Y-44890888D01*
X20424944Y-44890888D02*
X20424944Y-44843269D01*
X20424944Y-44843269D02*
X20415420Y-44824222D01*
X20415420Y-44824222D02*
X20405896Y-44814698D01*
X20405896Y-44814698D02*
X20386849Y-44805174D01*
X20386849Y-44805174D02*
X20348753Y-44805174D01*
X20348753Y-44805174D02*
X20329706Y-44814698D01*
X20329706Y-44814698D02*
X20320182Y-44824222D01*
X20320182Y-44824222D02*
X20310658Y-44843269D01*
X20501134Y-44728984D02*
X20501134Y-44767079D01*
X20577325Y-44728984D02*
X20577325Y-44767079D01*
X20872563Y-45005174D02*
X20863039Y-44995650D01*
X20863039Y-44995650D02*
X20843991Y-44967079D01*
X20843991Y-44967079D02*
X20834468Y-44948031D01*
X20834468Y-44948031D02*
X20824944Y-44919460D01*
X20824944Y-44919460D02*
X20815420Y-44871841D01*
X20815420Y-44871841D02*
X20815420Y-44833746D01*
X20815420Y-44833746D02*
X20824944Y-44786127D01*
X20824944Y-44786127D02*
X20834468Y-44757555D01*
X20834468Y-44757555D02*
X20843991Y-44738508D01*
X20843991Y-44738508D02*
X20863039Y-44709936D01*
X20863039Y-44709936D02*
X20872563Y-44700412D01*
X20958277Y-44928984D02*
X20996372Y-44928984D01*
X20996372Y-44928984D02*
X21015420Y-44919460D01*
X21015420Y-44919460D02*
X21024944Y-44909936D01*
X21024944Y-44909936D02*
X21043991Y-44881365D01*
X21043991Y-44881365D02*
X21053515Y-44843269D01*
X21053515Y-44843269D02*
X21053515Y-44767079D01*
X21053515Y-44767079D02*
X21043991Y-44748031D01*
X21043991Y-44748031D02*
X21034468Y-44738508D01*
X21034468Y-44738508D02*
X21015420Y-44728984D01*
X21015420Y-44728984D02*
X20977325Y-44728984D01*
X20977325Y-44728984D02*
X20958277Y-44738508D01*
X20958277Y-44738508D02*
X20948753Y-44748031D01*
X20948753Y-44748031D02*
X20939230Y-44767079D01*
X20939230Y-44767079D02*
X20939230Y-44814698D01*
X20939230Y-44814698D02*
X20948753Y-44833746D01*
X20948753Y-44833746D02*
X20958277Y-44843269D01*
X20958277Y-44843269D02*
X20977325Y-44852793D01*
X20977325Y-44852793D02*
X21015420Y-44852793D01*
X21015420Y-44852793D02*
X21034468Y-44843269D01*
X21034468Y-44843269D02*
X21043991Y-44833746D01*
X21043991Y-44833746D02*
X21053515Y-44814698D01*
X21291611Y-44928984D02*
X21291611Y-44728984D01*
X21377325Y-44928984D02*
X21377325Y-44824222D01*
X21377325Y-44824222D02*
X21367801Y-44805174D01*
X21367801Y-44805174D02*
X21348753Y-44795650D01*
X21348753Y-44795650D02*
X21320182Y-44795650D01*
X21320182Y-44795650D02*
X21301134Y-44805174D01*
X21301134Y-44805174D02*
X21291611Y-44814698D01*
X21501134Y-44928984D02*
X21482087Y-44919460D01*
X21482087Y-44919460D02*
X21472563Y-44909936D01*
X21472563Y-44909936D02*
X21463039Y-44890888D01*
X21463039Y-44890888D02*
X21463039Y-44833746D01*
X21463039Y-44833746D02*
X21472563Y-44814698D01*
X21472563Y-44814698D02*
X21482087Y-44805174D01*
X21482087Y-44805174D02*
X21501134Y-44795650D01*
X21501134Y-44795650D02*
X21529706Y-44795650D01*
X21529706Y-44795650D02*
X21548753Y-44805174D01*
X21548753Y-44805174D02*
X21558277Y-44814698D01*
X21558277Y-44814698D02*
X21567801Y-44833746D01*
X21567801Y-44833746D02*
X21567801Y-44890888D01*
X21567801Y-44890888D02*
X21558277Y-44909936D01*
X21558277Y-44909936D02*
X21548753Y-44919460D01*
X21548753Y-44919460D02*
X21529706Y-44928984D01*
X21529706Y-44928984D02*
X21501134Y-44928984D01*
X21682087Y-44928984D02*
X21663039Y-44919460D01*
X21663039Y-44919460D02*
X21653515Y-44900412D01*
X21653515Y-44900412D02*
X21653515Y-44728984D01*
X21834468Y-44919460D02*
X21815420Y-44928984D01*
X21815420Y-44928984D02*
X21777325Y-44928984D01*
X21777325Y-44928984D02*
X21758277Y-44919460D01*
X21758277Y-44919460D02*
X21748753Y-44900412D01*
X21748753Y-44900412D02*
X21748753Y-44824222D01*
X21748753Y-44824222D02*
X21758277Y-44805174D01*
X21758277Y-44805174D02*
X21777325Y-44795650D01*
X21777325Y-44795650D02*
X21815420Y-44795650D01*
X21815420Y-44795650D02*
X21834468Y-44805174D01*
X21834468Y-44805174D02*
X21843992Y-44824222D01*
X21843992Y-44824222D02*
X21843992Y-44843269D01*
X21843992Y-44843269D02*
X21748753Y-44862317D01*
X21920182Y-44919460D02*
X21939230Y-44928984D01*
X21939230Y-44928984D02*
X21977325Y-44928984D01*
X21977325Y-44928984D02*
X21996373Y-44919460D01*
X21996373Y-44919460D02*
X22005896Y-44900412D01*
X22005896Y-44900412D02*
X22005896Y-44890888D01*
X22005896Y-44890888D02*
X21996373Y-44871841D01*
X21996373Y-44871841D02*
X21977325Y-44862317D01*
X21977325Y-44862317D02*
X21948753Y-44862317D01*
X21948753Y-44862317D02*
X21929706Y-44852793D01*
X21929706Y-44852793D02*
X21920182Y-44833746D01*
X21920182Y-44833746D02*
X21920182Y-44824222D01*
X21920182Y-44824222D02*
X21929706Y-44805174D01*
X21929706Y-44805174D02*
X21948753Y-44795650D01*
X21948753Y-44795650D02*
X21977325Y-44795650D01*
X21977325Y-44795650D02*
X21996373Y-44805174D01*
X22072563Y-45005174D02*
X22082087Y-44995650D01*
X22082087Y-44995650D02*
X22101134Y-44967079D01*
X22101134Y-44967079D02*
X22110658Y-44948031D01*
X22110658Y-44948031D02*
X22120182Y-44919460D01*
X22120182Y-44919460D02*
X22129706Y-44871841D01*
X22129706Y-44871841D02*
X22129706Y-44833746D01*
X22129706Y-44833746D02*
X22120182Y-44786127D01*
X22120182Y-44786127D02*
X22110658Y-44757555D01*
X22110658Y-44757555D02*
X22101134Y-44738508D01*
X22101134Y-44738508D02*
X22082087Y-44709936D01*
X22082087Y-44709936D02*
X22072563Y-44700412D01*
X22434468Y-45005174D02*
X22424944Y-44995650D01*
X22424944Y-44995650D02*
X22405896Y-44967079D01*
X22405896Y-44967079D02*
X22396372Y-44948031D01*
X22396372Y-44948031D02*
X22386849Y-44919460D01*
X22386849Y-44919460D02*
X22377325Y-44871841D01*
X22377325Y-44871841D02*
X22377325Y-44833746D01*
X22377325Y-44833746D02*
X22386849Y-44786127D01*
X22386849Y-44786127D02*
X22396372Y-44757555D01*
X22396372Y-44757555D02*
X22405896Y-44738508D01*
X22405896Y-44738508D02*
X22424944Y-44709936D01*
X22424944Y-44709936D02*
X22434468Y-44700412D01*
X22510658Y-44795650D02*
X22510658Y-44928984D01*
X22510658Y-44814698D02*
X22520182Y-44805174D01*
X22520182Y-44805174D02*
X22539230Y-44795650D01*
X22539230Y-44795650D02*
X22567801Y-44795650D01*
X22567801Y-44795650D02*
X22586849Y-44805174D01*
X22586849Y-44805174D02*
X22596372Y-44824222D01*
X22596372Y-44824222D02*
X22596372Y-44928984D01*
X22720182Y-44928984D02*
X22701134Y-44919460D01*
X22701134Y-44919460D02*
X22691611Y-44909936D01*
X22691611Y-44909936D02*
X22682087Y-44890888D01*
X22682087Y-44890888D02*
X22682087Y-44833746D01*
X22682087Y-44833746D02*
X22691611Y-44814698D01*
X22691611Y-44814698D02*
X22701134Y-44805174D01*
X22701134Y-44805174D02*
X22720182Y-44795650D01*
X22720182Y-44795650D02*
X22748753Y-44795650D01*
X22748753Y-44795650D02*
X22767801Y-44805174D01*
X22767801Y-44805174D02*
X22777325Y-44814698D01*
X22777325Y-44814698D02*
X22786849Y-44833746D01*
X22786849Y-44833746D02*
X22786849Y-44890888D01*
X22786849Y-44890888D02*
X22777325Y-44909936D01*
X22777325Y-44909936D02*
X22767801Y-44919460D01*
X22767801Y-44919460D02*
X22748753Y-44928984D01*
X22748753Y-44928984D02*
X22720182Y-44928984D01*
X22843992Y-44795650D02*
X22920182Y-44795650D01*
X22872563Y-44728984D02*
X22872563Y-44900412D01*
X22872563Y-44900412D02*
X22882087Y-44919460D01*
X22882087Y-44919460D02*
X22901134Y-44928984D01*
X22901134Y-44928984D02*
X22920182Y-44928984D01*
X23139230Y-44795650D02*
X23139230Y-44995650D01*
X23139230Y-44805174D02*
X23158277Y-44795650D01*
X23158277Y-44795650D02*
X23196373Y-44795650D01*
X23196373Y-44795650D02*
X23215420Y-44805174D01*
X23215420Y-44805174D02*
X23224944Y-44814698D01*
X23224944Y-44814698D02*
X23234468Y-44833746D01*
X23234468Y-44833746D02*
X23234468Y-44890888D01*
X23234468Y-44890888D02*
X23224944Y-44909936D01*
X23224944Y-44909936D02*
X23215420Y-44919460D01*
X23215420Y-44919460D02*
X23196373Y-44928984D01*
X23196373Y-44928984D02*
X23158277Y-44928984D01*
X23158277Y-44928984D02*
X23139230Y-44919460D01*
X23348753Y-44928984D02*
X23329706Y-44919460D01*
X23329706Y-44919460D02*
X23320182Y-44900412D01*
X23320182Y-44900412D02*
X23320182Y-44728984D01*
X23510658Y-44928984D02*
X23510658Y-44824222D01*
X23510658Y-44824222D02*
X23501134Y-44805174D01*
X23501134Y-44805174D02*
X23482087Y-44795650D01*
X23482087Y-44795650D02*
X23443992Y-44795650D01*
X23443992Y-44795650D02*
X23424944Y-44805174D01*
X23510658Y-44919460D02*
X23491611Y-44928984D01*
X23491611Y-44928984D02*
X23443992Y-44928984D01*
X23443992Y-44928984D02*
X23424944Y-44919460D01*
X23424944Y-44919460D02*
X23415420Y-44900412D01*
X23415420Y-44900412D02*
X23415420Y-44881365D01*
X23415420Y-44881365D02*
X23424944Y-44862317D01*
X23424944Y-44862317D02*
X23443992Y-44852793D01*
X23443992Y-44852793D02*
X23491611Y-44852793D01*
X23491611Y-44852793D02*
X23510658Y-44843269D01*
X23577325Y-44795650D02*
X23653515Y-44795650D01*
X23605896Y-44728984D02*
X23605896Y-44900412D01*
X23605896Y-44900412D02*
X23615420Y-44919460D01*
X23615420Y-44919460D02*
X23634468Y-44928984D01*
X23634468Y-44928984D02*
X23653515Y-44928984D01*
X23796373Y-44919460D02*
X23777325Y-44928984D01*
X23777325Y-44928984D02*
X23739230Y-44928984D01*
X23739230Y-44928984D02*
X23720182Y-44919460D01*
X23720182Y-44919460D02*
X23710658Y-44900412D01*
X23710658Y-44900412D02*
X23710658Y-44824222D01*
X23710658Y-44824222D02*
X23720182Y-44805174D01*
X23720182Y-44805174D02*
X23739230Y-44795650D01*
X23739230Y-44795650D02*
X23777325Y-44795650D01*
X23777325Y-44795650D02*
X23796373Y-44805174D01*
X23796373Y-44805174D02*
X23805896Y-44824222D01*
X23805896Y-44824222D02*
X23805896Y-44843269D01*
X23805896Y-44843269D02*
X23710658Y-44862317D01*
X23977325Y-44928984D02*
X23977325Y-44728984D01*
X23977325Y-44919460D02*
X23958277Y-44928984D01*
X23958277Y-44928984D02*
X23920182Y-44928984D01*
X23920182Y-44928984D02*
X23901134Y-44919460D01*
X23901134Y-44919460D02*
X23891611Y-44909936D01*
X23891611Y-44909936D02*
X23882087Y-44890888D01*
X23882087Y-44890888D02*
X23882087Y-44833746D01*
X23882087Y-44833746D02*
X23891611Y-44814698D01*
X23891611Y-44814698D02*
X23901134Y-44805174D01*
X23901134Y-44805174D02*
X23920182Y-44795650D01*
X23920182Y-44795650D02*
X23958277Y-44795650D01*
X23958277Y-44795650D02*
X23977325Y-44805174D01*
X24053515Y-45005174D02*
X24063039Y-44995650D01*
X24063039Y-44995650D02*
X24082087Y-44967079D01*
X24082087Y-44967079D02*
X24091611Y-44948031D01*
X24091611Y-44948031D02*
X24101134Y-44919460D01*
X24101134Y-44919460D02*
X24110658Y-44871841D01*
X24110658Y-44871841D02*
X24110658Y-44833746D01*
X24110658Y-44833746D02*
X24101134Y-44786127D01*
X24101134Y-44786127D02*
X24091611Y-44757555D01*
X24091611Y-44757555D02*
X24082087Y-44738508D01*
X24082087Y-44738508D02*
X24063039Y-44709936D01*
X24063039Y-44709936D02*
X24053515Y-44700412D01*
X17197500Y-45057500D02*
X17197500Y-45257500D01*
X17097500Y-45157500D02*
X17297500Y-45157500D01*
X17539229Y-45048984D02*
X17663039Y-45048984D01*
X17663039Y-45048984D02*
X17596372Y-45125174D01*
X17596372Y-45125174D02*
X17624944Y-45125174D01*
X17624944Y-45125174D02*
X17643991Y-45134698D01*
X17643991Y-45134698D02*
X17653515Y-45144222D01*
X17653515Y-45144222D02*
X17663039Y-45163269D01*
X17663039Y-45163269D02*
X17663039Y-45210888D01*
X17663039Y-45210888D02*
X17653515Y-45229936D01*
X17653515Y-45229936D02*
X17643991Y-45239460D01*
X17643991Y-45239460D02*
X17624944Y-45248984D01*
X17624944Y-45248984D02*
X17567801Y-45248984D01*
X17567801Y-45248984D02*
X17548753Y-45239460D01*
X17548753Y-45239460D02*
X17539229Y-45229936D01*
X17748753Y-45229936D02*
X17758277Y-45239460D01*
X17758277Y-45239460D02*
X17748753Y-45248984D01*
X17748753Y-45248984D02*
X17739229Y-45239460D01*
X17739229Y-45239460D02*
X17748753Y-45229936D01*
X17748753Y-45229936D02*
X17748753Y-45248984D01*
X17882086Y-45048984D02*
X17901134Y-45048984D01*
X17901134Y-45048984D02*
X17920182Y-45058508D01*
X17920182Y-45058508D02*
X17929705Y-45068031D01*
X17929705Y-45068031D02*
X17939229Y-45087079D01*
X17939229Y-45087079D02*
X17948753Y-45125174D01*
X17948753Y-45125174D02*
X17948753Y-45172793D01*
X17948753Y-45172793D02*
X17939229Y-45210888D01*
X17939229Y-45210888D02*
X17929705Y-45229936D01*
X17929705Y-45229936D02*
X17920182Y-45239460D01*
X17920182Y-45239460D02*
X17901134Y-45248984D01*
X17901134Y-45248984D02*
X17882086Y-45248984D01*
X17882086Y-45248984D02*
X17863039Y-45239460D01*
X17863039Y-45239460D02*
X17853515Y-45229936D01*
X17853515Y-45229936D02*
X17843991Y-45210888D01*
X17843991Y-45210888D02*
X17834467Y-45172793D01*
X17834467Y-45172793D02*
X17834467Y-45125174D01*
X17834467Y-45125174D02*
X17843991Y-45087079D01*
X17843991Y-45087079D02*
X17853515Y-45068031D01*
X17853515Y-45068031D02*
X17863039Y-45058508D01*
X17863039Y-45058508D02*
X17882086Y-45048984D01*
X18120182Y-45115650D02*
X18120182Y-45248984D01*
X18072563Y-45039460D02*
X18024944Y-45182317D01*
X18024944Y-45182317D02*
X18148753Y-45182317D01*
X18253515Y-45134698D02*
X18234467Y-45125174D01*
X18234467Y-45125174D02*
X18224944Y-45115650D01*
X18224944Y-45115650D02*
X18215420Y-45096603D01*
X18215420Y-45096603D02*
X18215420Y-45087079D01*
X18215420Y-45087079D02*
X18224944Y-45068031D01*
X18224944Y-45068031D02*
X18234467Y-45058508D01*
X18234467Y-45058508D02*
X18253515Y-45048984D01*
X18253515Y-45048984D02*
X18291610Y-45048984D01*
X18291610Y-45048984D02*
X18310658Y-45058508D01*
X18310658Y-45058508D02*
X18320182Y-45068031D01*
X18320182Y-45068031D02*
X18329705Y-45087079D01*
X18329705Y-45087079D02*
X18329705Y-45096603D01*
X18329705Y-45096603D02*
X18320182Y-45115650D01*
X18320182Y-45115650D02*
X18310658Y-45125174D01*
X18310658Y-45125174D02*
X18291610Y-45134698D01*
X18291610Y-45134698D02*
X18253515Y-45134698D01*
X18253515Y-45134698D02*
X18234467Y-45144222D01*
X18234467Y-45144222D02*
X18224944Y-45153746D01*
X18224944Y-45153746D02*
X18215420Y-45172793D01*
X18215420Y-45172793D02*
X18215420Y-45210888D01*
X18215420Y-45210888D02*
X18224944Y-45229936D01*
X18224944Y-45229936D02*
X18234467Y-45239460D01*
X18234467Y-45239460D02*
X18253515Y-45248984D01*
X18253515Y-45248984D02*
X18291610Y-45248984D01*
X18291610Y-45248984D02*
X18310658Y-45239460D01*
X18310658Y-45239460D02*
X18320182Y-45229936D01*
X18320182Y-45229936D02*
X18329705Y-45210888D01*
X18329705Y-45210888D02*
X18329705Y-45172793D01*
X18329705Y-45172793D02*
X18320182Y-45153746D01*
X18320182Y-45153746D02*
X18310658Y-45144222D01*
X18310658Y-45144222D02*
X18291610Y-45134698D01*
X18415420Y-45248984D02*
X18415420Y-45115650D01*
X18415420Y-45134698D02*
X18424944Y-45125174D01*
X18424944Y-45125174D02*
X18443991Y-45115650D01*
X18443991Y-45115650D02*
X18472563Y-45115650D01*
X18472563Y-45115650D02*
X18491610Y-45125174D01*
X18491610Y-45125174D02*
X18501134Y-45144222D01*
X18501134Y-45144222D02*
X18501134Y-45248984D01*
X18501134Y-45144222D02*
X18510658Y-45125174D01*
X18510658Y-45125174D02*
X18529705Y-45115650D01*
X18529705Y-45115650D02*
X18558277Y-45115650D01*
X18558277Y-45115650D02*
X18577325Y-45125174D01*
X18577325Y-45125174D02*
X18586848Y-45144222D01*
X18586848Y-45144222D02*
X18586848Y-45248984D01*
X18682086Y-45248984D02*
X18682086Y-45115650D01*
X18682086Y-45134698D02*
X18691610Y-45125174D01*
X18691610Y-45125174D02*
X18710658Y-45115650D01*
X18710658Y-45115650D02*
X18739229Y-45115650D01*
X18739229Y-45115650D02*
X18758277Y-45125174D01*
X18758277Y-45125174D02*
X18767801Y-45144222D01*
X18767801Y-45144222D02*
X18767801Y-45248984D01*
X18767801Y-45144222D02*
X18777325Y-45125174D01*
X18777325Y-45125174D02*
X18796372Y-45115650D01*
X18796372Y-45115650D02*
X18824944Y-45115650D01*
X18824944Y-45115650D02*
X18843991Y-45125174D01*
X18843991Y-45125174D02*
X18853515Y-45144222D01*
X18853515Y-45144222D02*
X18853515Y-45248984D01*
X19243991Y-45039460D02*
X19072563Y-45296603D01*
X19501134Y-45048984D02*
X19520182Y-45048984D01*
X19520182Y-45048984D02*
X19539229Y-45058508D01*
X19539229Y-45058508D02*
X19548753Y-45068031D01*
X19548753Y-45068031D02*
X19558277Y-45087079D01*
X19558277Y-45087079D02*
X19567801Y-45125174D01*
X19567801Y-45125174D02*
X19567801Y-45172793D01*
X19567801Y-45172793D02*
X19558277Y-45210888D01*
X19558277Y-45210888D02*
X19548753Y-45229936D01*
X19548753Y-45229936D02*
X19539229Y-45239460D01*
X19539229Y-45239460D02*
X19520182Y-45248984D01*
X19520182Y-45248984D02*
X19501134Y-45248984D01*
X19501134Y-45248984D02*
X19482087Y-45239460D01*
X19482087Y-45239460D02*
X19472563Y-45229936D01*
X19472563Y-45229936D02*
X19463039Y-45210888D01*
X19463039Y-45210888D02*
X19453515Y-45172793D01*
X19453515Y-45172793D02*
X19453515Y-45125174D01*
X19453515Y-45125174D02*
X19463039Y-45087079D01*
X19463039Y-45087079D02*
X19472563Y-45068031D01*
X19472563Y-45068031D02*
X19482087Y-45058508D01*
X19482087Y-45058508D02*
X19501134Y-45048984D01*
X19653515Y-45229936D02*
X19663039Y-45239460D01*
X19663039Y-45239460D02*
X19653515Y-45248984D01*
X19653515Y-45248984D02*
X19643991Y-45239460D01*
X19643991Y-45239460D02*
X19653515Y-45229936D01*
X19653515Y-45229936D02*
X19653515Y-45248984D01*
X19853515Y-45248984D02*
X19739229Y-45248984D01*
X19796372Y-45248984D02*
X19796372Y-45048984D01*
X19796372Y-45048984D02*
X19777325Y-45077555D01*
X19777325Y-45077555D02*
X19758277Y-45096603D01*
X19758277Y-45096603D02*
X19739229Y-45106127D01*
X19929706Y-45068031D02*
X19939229Y-45058508D01*
X19939229Y-45058508D02*
X19958277Y-45048984D01*
X19958277Y-45048984D02*
X20005896Y-45048984D01*
X20005896Y-45048984D02*
X20024944Y-45058508D01*
X20024944Y-45058508D02*
X20034468Y-45068031D01*
X20034468Y-45068031D02*
X20043991Y-45087079D01*
X20043991Y-45087079D02*
X20043991Y-45106127D01*
X20043991Y-45106127D02*
X20034468Y-45134698D01*
X20034468Y-45134698D02*
X19920182Y-45248984D01*
X19920182Y-45248984D02*
X20043991Y-45248984D01*
X20167801Y-45048984D02*
X20186849Y-45048984D01*
X20186849Y-45048984D02*
X20205896Y-45058508D01*
X20205896Y-45058508D02*
X20215420Y-45068031D01*
X20215420Y-45068031D02*
X20224944Y-45087079D01*
X20224944Y-45087079D02*
X20234468Y-45125174D01*
X20234468Y-45125174D02*
X20234468Y-45172793D01*
X20234468Y-45172793D02*
X20224944Y-45210888D01*
X20224944Y-45210888D02*
X20215420Y-45229936D01*
X20215420Y-45229936D02*
X20205896Y-45239460D01*
X20205896Y-45239460D02*
X20186849Y-45248984D01*
X20186849Y-45248984D02*
X20167801Y-45248984D01*
X20167801Y-45248984D02*
X20148753Y-45239460D01*
X20148753Y-45239460D02*
X20139229Y-45229936D01*
X20139229Y-45229936D02*
X20129706Y-45210888D01*
X20129706Y-45210888D02*
X20120182Y-45172793D01*
X20120182Y-45172793D02*
X20120182Y-45125174D01*
X20120182Y-45125174D02*
X20129706Y-45087079D01*
X20129706Y-45087079D02*
X20139229Y-45068031D01*
X20139229Y-45068031D02*
X20148753Y-45058508D01*
X20148753Y-45058508D02*
X20167801Y-45048984D01*
X20358277Y-45048984D02*
X20377325Y-45048984D01*
X20377325Y-45048984D02*
X20396372Y-45058508D01*
X20396372Y-45058508D02*
X20405896Y-45068031D01*
X20405896Y-45068031D02*
X20415420Y-45087079D01*
X20415420Y-45087079D02*
X20424944Y-45125174D01*
X20424944Y-45125174D02*
X20424944Y-45172793D01*
X20424944Y-45172793D02*
X20415420Y-45210888D01*
X20415420Y-45210888D02*
X20405896Y-45229936D01*
X20405896Y-45229936D02*
X20396372Y-45239460D01*
X20396372Y-45239460D02*
X20377325Y-45248984D01*
X20377325Y-45248984D02*
X20358277Y-45248984D01*
X20358277Y-45248984D02*
X20339229Y-45239460D01*
X20339229Y-45239460D02*
X20329706Y-45229936D01*
X20329706Y-45229936D02*
X20320182Y-45210888D01*
X20320182Y-45210888D02*
X20310658Y-45172793D01*
X20310658Y-45172793D02*
X20310658Y-45125174D01*
X20310658Y-45125174D02*
X20320182Y-45087079D01*
X20320182Y-45087079D02*
X20329706Y-45068031D01*
X20329706Y-45068031D02*
X20339229Y-45058508D01*
X20339229Y-45058508D02*
X20358277Y-45048984D01*
X20501134Y-45048984D02*
X20501134Y-45087079D01*
X20577325Y-45048984D02*
X20577325Y-45087079D01*
X20872563Y-45325174D02*
X20863039Y-45315650D01*
X20863039Y-45315650D02*
X20843991Y-45287079D01*
X20843991Y-45287079D02*
X20834468Y-45268031D01*
X20834468Y-45268031D02*
X20824944Y-45239460D01*
X20824944Y-45239460D02*
X20815420Y-45191841D01*
X20815420Y-45191841D02*
X20815420Y-45153746D01*
X20815420Y-45153746D02*
X20824944Y-45106127D01*
X20824944Y-45106127D02*
X20834468Y-45077555D01*
X20834468Y-45077555D02*
X20843991Y-45058508D01*
X20843991Y-45058508D02*
X20863039Y-45029936D01*
X20863039Y-45029936D02*
X20872563Y-45020412D01*
X20977325Y-45134698D02*
X20958277Y-45125174D01*
X20958277Y-45125174D02*
X20948753Y-45115650D01*
X20948753Y-45115650D02*
X20939230Y-45096603D01*
X20939230Y-45096603D02*
X20939230Y-45087079D01*
X20939230Y-45087079D02*
X20948753Y-45068031D01*
X20948753Y-45068031D02*
X20958277Y-45058508D01*
X20958277Y-45058508D02*
X20977325Y-45048984D01*
X20977325Y-45048984D02*
X21015420Y-45048984D01*
X21015420Y-45048984D02*
X21034468Y-45058508D01*
X21034468Y-45058508D02*
X21043991Y-45068031D01*
X21043991Y-45068031D02*
X21053515Y-45087079D01*
X21053515Y-45087079D02*
X21053515Y-45096603D01*
X21053515Y-45096603D02*
X21043991Y-45115650D01*
X21043991Y-45115650D02*
X21034468Y-45125174D01*
X21034468Y-45125174D02*
X21015420Y-45134698D01*
X21015420Y-45134698D02*
X20977325Y-45134698D01*
X20977325Y-45134698D02*
X20958277Y-45144222D01*
X20958277Y-45144222D02*
X20948753Y-45153746D01*
X20948753Y-45153746D02*
X20939230Y-45172793D01*
X20939230Y-45172793D02*
X20939230Y-45210888D01*
X20939230Y-45210888D02*
X20948753Y-45229936D01*
X20948753Y-45229936D02*
X20958277Y-45239460D01*
X20958277Y-45239460D02*
X20977325Y-45248984D01*
X20977325Y-45248984D02*
X21015420Y-45248984D01*
X21015420Y-45248984D02*
X21034468Y-45239460D01*
X21034468Y-45239460D02*
X21043991Y-45229936D01*
X21043991Y-45229936D02*
X21053515Y-45210888D01*
X21053515Y-45210888D02*
X21053515Y-45172793D01*
X21053515Y-45172793D02*
X21043991Y-45153746D01*
X21043991Y-45153746D02*
X21034468Y-45144222D01*
X21034468Y-45144222D02*
X21015420Y-45134698D01*
X21291611Y-45248984D02*
X21291611Y-45048984D01*
X21377325Y-45248984D02*
X21377325Y-45144222D01*
X21377325Y-45144222D02*
X21367801Y-45125174D01*
X21367801Y-45125174D02*
X21348753Y-45115650D01*
X21348753Y-45115650D02*
X21320182Y-45115650D01*
X21320182Y-45115650D02*
X21301134Y-45125174D01*
X21301134Y-45125174D02*
X21291611Y-45134698D01*
X21501134Y-45248984D02*
X21482087Y-45239460D01*
X21482087Y-45239460D02*
X21472563Y-45229936D01*
X21472563Y-45229936D02*
X21463039Y-45210888D01*
X21463039Y-45210888D02*
X21463039Y-45153746D01*
X21463039Y-45153746D02*
X21472563Y-45134698D01*
X21472563Y-45134698D02*
X21482087Y-45125174D01*
X21482087Y-45125174D02*
X21501134Y-45115650D01*
X21501134Y-45115650D02*
X21529706Y-45115650D01*
X21529706Y-45115650D02*
X21548753Y-45125174D01*
X21548753Y-45125174D02*
X21558277Y-45134698D01*
X21558277Y-45134698D02*
X21567801Y-45153746D01*
X21567801Y-45153746D02*
X21567801Y-45210888D01*
X21567801Y-45210888D02*
X21558277Y-45229936D01*
X21558277Y-45229936D02*
X21548753Y-45239460D01*
X21548753Y-45239460D02*
X21529706Y-45248984D01*
X21529706Y-45248984D02*
X21501134Y-45248984D01*
X21682087Y-45248984D02*
X21663039Y-45239460D01*
X21663039Y-45239460D02*
X21653515Y-45220412D01*
X21653515Y-45220412D02*
X21653515Y-45048984D01*
X21834468Y-45239460D02*
X21815420Y-45248984D01*
X21815420Y-45248984D02*
X21777325Y-45248984D01*
X21777325Y-45248984D02*
X21758277Y-45239460D01*
X21758277Y-45239460D02*
X21748753Y-45220412D01*
X21748753Y-45220412D02*
X21748753Y-45144222D01*
X21748753Y-45144222D02*
X21758277Y-45125174D01*
X21758277Y-45125174D02*
X21777325Y-45115650D01*
X21777325Y-45115650D02*
X21815420Y-45115650D01*
X21815420Y-45115650D02*
X21834468Y-45125174D01*
X21834468Y-45125174D02*
X21843992Y-45144222D01*
X21843992Y-45144222D02*
X21843992Y-45163269D01*
X21843992Y-45163269D02*
X21748753Y-45182317D01*
X21920182Y-45239460D02*
X21939230Y-45248984D01*
X21939230Y-45248984D02*
X21977325Y-45248984D01*
X21977325Y-45248984D02*
X21996373Y-45239460D01*
X21996373Y-45239460D02*
X22005896Y-45220412D01*
X22005896Y-45220412D02*
X22005896Y-45210888D01*
X22005896Y-45210888D02*
X21996373Y-45191841D01*
X21996373Y-45191841D02*
X21977325Y-45182317D01*
X21977325Y-45182317D02*
X21948753Y-45182317D01*
X21948753Y-45182317D02*
X21929706Y-45172793D01*
X21929706Y-45172793D02*
X21920182Y-45153746D01*
X21920182Y-45153746D02*
X21920182Y-45144222D01*
X21920182Y-45144222D02*
X21929706Y-45125174D01*
X21929706Y-45125174D02*
X21948753Y-45115650D01*
X21948753Y-45115650D02*
X21977325Y-45115650D01*
X21977325Y-45115650D02*
X21996373Y-45125174D01*
X22072563Y-45325174D02*
X22082087Y-45315650D01*
X22082087Y-45315650D02*
X22101134Y-45287079D01*
X22101134Y-45287079D02*
X22110658Y-45268031D01*
X22110658Y-45268031D02*
X22120182Y-45239460D01*
X22120182Y-45239460D02*
X22129706Y-45191841D01*
X22129706Y-45191841D02*
X22129706Y-45153746D01*
X22129706Y-45153746D02*
X22120182Y-45106127D01*
X22120182Y-45106127D02*
X22110658Y-45077555D01*
X22110658Y-45077555D02*
X22101134Y-45058508D01*
X22101134Y-45058508D02*
X22082087Y-45029936D01*
X22082087Y-45029936D02*
X22072563Y-45020412D01*
X22434468Y-45325174D02*
X22424944Y-45315650D01*
X22424944Y-45315650D02*
X22405896Y-45287079D01*
X22405896Y-45287079D02*
X22396372Y-45268031D01*
X22396372Y-45268031D02*
X22386849Y-45239460D01*
X22386849Y-45239460D02*
X22377325Y-45191841D01*
X22377325Y-45191841D02*
X22377325Y-45153746D01*
X22377325Y-45153746D02*
X22386849Y-45106127D01*
X22386849Y-45106127D02*
X22396372Y-45077555D01*
X22396372Y-45077555D02*
X22405896Y-45058508D01*
X22405896Y-45058508D02*
X22424944Y-45029936D01*
X22424944Y-45029936D02*
X22434468Y-45020412D01*
X22510658Y-45115650D02*
X22510658Y-45248984D01*
X22510658Y-45134698D02*
X22520182Y-45125174D01*
X22520182Y-45125174D02*
X22539230Y-45115650D01*
X22539230Y-45115650D02*
X22567801Y-45115650D01*
X22567801Y-45115650D02*
X22586849Y-45125174D01*
X22586849Y-45125174D02*
X22596372Y-45144222D01*
X22596372Y-45144222D02*
X22596372Y-45248984D01*
X22720182Y-45248984D02*
X22701134Y-45239460D01*
X22701134Y-45239460D02*
X22691611Y-45229936D01*
X22691611Y-45229936D02*
X22682087Y-45210888D01*
X22682087Y-45210888D02*
X22682087Y-45153746D01*
X22682087Y-45153746D02*
X22691611Y-45134698D01*
X22691611Y-45134698D02*
X22701134Y-45125174D01*
X22701134Y-45125174D02*
X22720182Y-45115650D01*
X22720182Y-45115650D02*
X22748753Y-45115650D01*
X22748753Y-45115650D02*
X22767801Y-45125174D01*
X22767801Y-45125174D02*
X22777325Y-45134698D01*
X22777325Y-45134698D02*
X22786849Y-45153746D01*
X22786849Y-45153746D02*
X22786849Y-45210888D01*
X22786849Y-45210888D02*
X22777325Y-45229936D01*
X22777325Y-45229936D02*
X22767801Y-45239460D01*
X22767801Y-45239460D02*
X22748753Y-45248984D01*
X22748753Y-45248984D02*
X22720182Y-45248984D01*
X22843992Y-45115650D02*
X22920182Y-45115650D01*
X22872563Y-45048984D02*
X22872563Y-45220412D01*
X22872563Y-45220412D02*
X22882087Y-45239460D01*
X22882087Y-45239460D02*
X22901134Y-45248984D01*
X22901134Y-45248984D02*
X22920182Y-45248984D01*
X23139230Y-45115650D02*
X23139230Y-45315650D01*
X23139230Y-45125174D02*
X23158277Y-45115650D01*
X23158277Y-45115650D02*
X23196373Y-45115650D01*
X23196373Y-45115650D02*
X23215420Y-45125174D01*
X23215420Y-45125174D02*
X23224944Y-45134698D01*
X23224944Y-45134698D02*
X23234468Y-45153746D01*
X23234468Y-45153746D02*
X23234468Y-45210888D01*
X23234468Y-45210888D02*
X23224944Y-45229936D01*
X23224944Y-45229936D02*
X23215420Y-45239460D01*
X23215420Y-45239460D02*
X23196373Y-45248984D01*
X23196373Y-45248984D02*
X23158277Y-45248984D01*
X23158277Y-45248984D02*
X23139230Y-45239460D01*
X23348753Y-45248984D02*
X23329706Y-45239460D01*
X23329706Y-45239460D02*
X23320182Y-45220412D01*
X23320182Y-45220412D02*
X23320182Y-45048984D01*
X23510658Y-45248984D02*
X23510658Y-45144222D01*
X23510658Y-45144222D02*
X23501134Y-45125174D01*
X23501134Y-45125174D02*
X23482087Y-45115650D01*
X23482087Y-45115650D02*
X23443992Y-45115650D01*
X23443992Y-45115650D02*
X23424944Y-45125174D01*
X23510658Y-45239460D02*
X23491611Y-45248984D01*
X23491611Y-45248984D02*
X23443992Y-45248984D01*
X23443992Y-45248984D02*
X23424944Y-45239460D01*
X23424944Y-45239460D02*
X23415420Y-45220412D01*
X23415420Y-45220412D02*
X23415420Y-45201365D01*
X23415420Y-45201365D02*
X23424944Y-45182317D01*
X23424944Y-45182317D02*
X23443992Y-45172793D01*
X23443992Y-45172793D02*
X23491611Y-45172793D01*
X23491611Y-45172793D02*
X23510658Y-45163269D01*
X23577325Y-45115650D02*
X23653515Y-45115650D01*
X23605896Y-45048984D02*
X23605896Y-45220412D01*
X23605896Y-45220412D02*
X23615420Y-45239460D01*
X23615420Y-45239460D02*
X23634468Y-45248984D01*
X23634468Y-45248984D02*
X23653515Y-45248984D01*
X23796373Y-45239460D02*
X23777325Y-45248984D01*
X23777325Y-45248984D02*
X23739230Y-45248984D01*
X23739230Y-45248984D02*
X23720182Y-45239460D01*
X23720182Y-45239460D02*
X23710658Y-45220412D01*
X23710658Y-45220412D02*
X23710658Y-45144222D01*
X23710658Y-45144222D02*
X23720182Y-45125174D01*
X23720182Y-45125174D02*
X23739230Y-45115650D01*
X23739230Y-45115650D02*
X23777325Y-45115650D01*
X23777325Y-45115650D02*
X23796373Y-45125174D01*
X23796373Y-45125174D02*
X23805896Y-45144222D01*
X23805896Y-45144222D02*
X23805896Y-45163269D01*
X23805896Y-45163269D02*
X23710658Y-45182317D01*
X23977325Y-45248984D02*
X23977325Y-45048984D01*
X23977325Y-45239460D02*
X23958277Y-45248984D01*
X23958277Y-45248984D02*
X23920182Y-45248984D01*
X23920182Y-45248984D02*
X23901134Y-45239460D01*
X23901134Y-45239460D02*
X23891611Y-45229936D01*
X23891611Y-45229936D02*
X23882087Y-45210888D01*
X23882087Y-45210888D02*
X23882087Y-45153746D01*
X23882087Y-45153746D02*
X23891611Y-45134698D01*
X23891611Y-45134698D02*
X23901134Y-45125174D01*
X23901134Y-45125174D02*
X23920182Y-45115650D01*
X23920182Y-45115650D02*
X23958277Y-45115650D01*
X23958277Y-45115650D02*
X23977325Y-45125174D01*
X24053515Y-45325174D02*
X24063039Y-45315650D01*
X24063039Y-45315650D02*
X24082087Y-45287079D01*
X24082087Y-45287079D02*
X24091611Y-45268031D01*
X24091611Y-45268031D02*
X24101134Y-45239460D01*
X24101134Y-45239460D02*
X24110658Y-45191841D01*
X24110658Y-45191841D02*
X24110658Y-45153746D01*
X24110658Y-45153746D02*
X24101134Y-45106127D01*
X24101134Y-45106127D02*
X24091611Y-45077555D01*
X24091611Y-45077555D02*
X24082087Y-45058508D01*
X24082087Y-45058508D02*
X24063039Y-45029936D01*
X24063039Y-45029936D02*
X24053515Y-45020412D01*
X17268211Y-45548211D02*
X17268211Y-45406789D01*
X17126789Y-45406789D01*
X17126789Y-45548211D01*
X17268211Y-45548211D01*
X17539229Y-45368984D02*
X17663039Y-45368984D01*
X17663039Y-45368984D02*
X17596372Y-45445174D01*
X17596372Y-45445174D02*
X17624944Y-45445174D01*
X17624944Y-45445174D02*
X17643991Y-45454698D01*
X17643991Y-45454698D02*
X17653515Y-45464222D01*
X17653515Y-45464222D02*
X17663039Y-45483269D01*
X17663039Y-45483269D02*
X17663039Y-45530888D01*
X17663039Y-45530888D02*
X17653515Y-45549936D01*
X17653515Y-45549936D02*
X17643991Y-45559460D01*
X17643991Y-45559460D02*
X17624944Y-45568984D01*
X17624944Y-45568984D02*
X17567801Y-45568984D01*
X17567801Y-45568984D02*
X17548753Y-45559460D01*
X17548753Y-45559460D02*
X17539229Y-45549936D01*
X17748753Y-45549936D02*
X17758277Y-45559460D01*
X17758277Y-45559460D02*
X17748753Y-45568984D01*
X17748753Y-45568984D02*
X17739229Y-45559460D01*
X17739229Y-45559460D02*
X17748753Y-45549936D01*
X17748753Y-45549936D02*
X17748753Y-45568984D01*
X17882086Y-45368984D02*
X17901134Y-45368984D01*
X17901134Y-45368984D02*
X17920182Y-45378508D01*
X17920182Y-45378508D02*
X17929705Y-45388031D01*
X17929705Y-45388031D02*
X17939229Y-45407079D01*
X17939229Y-45407079D02*
X17948753Y-45445174D01*
X17948753Y-45445174D02*
X17948753Y-45492793D01*
X17948753Y-45492793D02*
X17939229Y-45530888D01*
X17939229Y-45530888D02*
X17929705Y-45549936D01*
X17929705Y-45549936D02*
X17920182Y-45559460D01*
X17920182Y-45559460D02*
X17901134Y-45568984D01*
X17901134Y-45568984D02*
X17882086Y-45568984D01*
X17882086Y-45568984D02*
X17863039Y-45559460D01*
X17863039Y-45559460D02*
X17853515Y-45549936D01*
X17853515Y-45549936D02*
X17843991Y-45530888D01*
X17843991Y-45530888D02*
X17834467Y-45492793D01*
X17834467Y-45492793D02*
X17834467Y-45445174D01*
X17834467Y-45445174D02*
X17843991Y-45407079D01*
X17843991Y-45407079D02*
X17853515Y-45388031D01*
X17853515Y-45388031D02*
X17863039Y-45378508D01*
X17863039Y-45378508D02*
X17882086Y-45368984D01*
X18129705Y-45368984D02*
X18034467Y-45368984D01*
X18034467Y-45368984D02*
X18024944Y-45464222D01*
X18024944Y-45464222D02*
X18034467Y-45454698D01*
X18034467Y-45454698D02*
X18053515Y-45445174D01*
X18053515Y-45445174D02*
X18101134Y-45445174D01*
X18101134Y-45445174D02*
X18120182Y-45454698D01*
X18120182Y-45454698D02*
X18129705Y-45464222D01*
X18129705Y-45464222D02*
X18139229Y-45483269D01*
X18139229Y-45483269D02*
X18139229Y-45530888D01*
X18139229Y-45530888D02*
X18129705Y-45549936D01*
X18129705Y-45549936D02*
X18120182Y-45559460D01*
X18120182Y-45559460D02*
X18101134Y-45568984D01*
X18101134Y-45568984D02*
X18053515Y-45568984D01*
X18053515Y-45568984D02*
X18034467Y-45559460D01*
X18034467Y-45559460D02*
X18024944Y-45549936D01*
X18263039Y-45368984D02*
X18282086Y-45368984D01*
X18282086Y-45368984D02*
X18301134Y-45378508D01*
X18301134Y-45378508D02*
X18310658Y-45388031D01*
X18310658Y-45388031D02*
X18320182Y-45407079D01*
X18320182Y-45407079D02*
X18329705Y-45445174D01*
X18329705Y-45445174D02*
X18329705Y-45492793D01*
X18329705Y-45492793D02*
X18320182Y-45530888D01*
X18320182Y-45530888D02*
X18310658Y-45549936D01*
X18310658Y-45549936D02*
X18301134Y-45559460D01*
X18301134Y-45559460D02*
X18282086Y-45568984D01*
X18282086Y-45568984D02*
X18263039Y-45568984D01*
X18263039Y-45568984D02*
X18243991Y-45559460D01*
X18243991Y-45559460D02*
X18234467Y-45549936D01*
X18234467Y-45549936D02*
X18224944Y-45530888D01*
X18224944Y-45530888D02*
X18215420Y-45492793D01*
X18215420Y-45492793D02*
X18215420Y-45445174D01*
X18215420Y-45445174D02*
X18224944Y-45407079D01*
X18224944Y-45407079D02*
X18234467Y-45388031D01*
X18234467Y-45388031D02*
X18243991Y-45378508D01*
X18243991Y-45378508D02*
X18263039Y-45368984D01*
X18415420Y-45568984D02*
X18415420Y-45435650D01*
X18415420Y-45454698D02*
X18424944Y-45445174D01*
X18424944Y-45445174D02*
X18443991Y-45435650D01*
X18443991Y-45435650D02*
X18472563Y-45435650D01*
X18472563Y-45435650D02*
X18491610Y-45445174D01*
X18491610Y-45445174D02*
X18501134Y-45464222D01*
X18501134Y-45464222D02*
X18501134Y-45568984D01*
X18501134Y-45464222D02*
X18510658Y-45445174D01*
X18510658Y-45445174D02*
X18529705Y-45435650D01*
X18529705Y-45435650D02*
X18558277Y-45435650D01*
X18558277Y-45435650D02*
X18577325Y-45445174D01*
X18577325Y-45445174D02*
X18586848Y-45464222D01*
X18586848Y-45464222D02*
X18586848Y-45568984D01*
X18682086Y-45568984D02*
X18682086Y-45435650D01*
X18682086Y-45454698D02*
X18691610Y-45445174D01*
X18691610Y-45445174D02*
X18710658Y-45435650D01*
X18710658Y-45435650D02*
X18739229Y-45435650D01*
X18739229Y-45435650D02*
X18758277Y-45445174D01*
X18758277Y-45445174D02*
X18767801Y-45464222D01*
X18767801Y-45464222D02*
X18767801Y-45568984D01*
X18767801Y-45464222D02*
X18777325Y-45445174D01*
X18777325Y-45445174D02*
X18796372Y-45435650D01*
X18796372Y-45435650D02*
X18824944Y-45435650D01*
X18824944Y-45435650D02*
X18843991Y-45445174D01*
X18843991Y-45445174D02*
X18853515Y-45464222D01*
X18853515Y-45464222D02*
X18853515Y-45568984D01*
X19243991Y-45359460D02*
X19072563Y-45616603D01*
X19501134Y-45368984D02*
X19520182Y-45368984D01*
X19520182Y-45368984D02*
X19539229Y-45378508D01*
X19539229Y-45378508D02*
X19548753Y-45388031D01*
X19548753Y-45388031D02*
X19558277Y-45407079D01*
X19558277Y-45407079D02*
X19567801Y-45445174D01*
X19567801Y-45445174D02*
X19567801Y-45492793D01*
X19567801Y-45492793D02*
X19558277Y-45530888D01*
X19558277Y-45530888D02*
X19548753Y-45549936D01*
X19548753Y-45549936D02*
X19539229Y-45559460D01*
X19539229Y-45559460D02*
X19520182Y-45568984D01*
X19520182Y-45568984D02*
X19501134Y-45568984D01*
X19501134Y-45568984D02*
X19482087Y-45559460D01*
X19482087Y-45559460D02*
X19472563Y-45549936D01*
X19472563Y-45549936D02*
X19463039Y-45530888D01*
X19463039Y-45530888D02*
X19453515Y-45492793D01*
X19453515Y-45492793D02*
X19453515Y-45445174D01*
X19453515Y-45445174D02*
X19463039Y-45407079D01*
X19463039Y-45407079D02*
X19472563Y-45388031D01*
X19472563Y-45388031D02*
X19482087Y-45378508D01*
X19482087Y-45378508D02*
X19501134Y-45368984D01*
X19653515Y-45549936D02*
X19663039Y-45559460D01*
X19663039Y-45559460D02*
X19653515Y-45568984D01*
X19653515Y-45568984D02*
X19643991Y-45559460D01*
X19643991Y-45559460D02*
X19653515Y-45549936D01*
X19653515Y-45549936D02*
X19653515Y-45568984D01*
X19853515Y-45568984D02*
X19739229Y-45568984D01*
X19796372Y-45568984D02*
X19796372Y-45368984D01*
X19796372Y-45368984D02*
X19777325Y-45397555D01*
X19777325Y-45397555D02*
X19758277Y-45416603D01*
X19758277Y-45416603D02*
X19739229Y-45426127D01*
X19929706Y-45388031D02*
X19939229Y-45378508D01*
X19939229Y-45378508D02*
X19958277Y-45368984D01*
X19958277Y-45368984D02*
X20005896Y-45368984D01*
X20005896Y-45368984D02*
X20024944Y-45378508D01*
X20024944Y-45378508D02*
X20034468Y-45388031D01*
X20034468Y-45388031D02*
X20043991Y-45407079D01*
X20043991Y-45407079D02*
X20043991Y-45426127D01*
X20043991Y-45426127D02*
X20034468Y-45454698D01*
X20034468Y-45454698D02*
X19920182Y-45568984D01*
X19920182Y-45568984D02*
X20043991Y-45568984D01*
X20167801Y-45368984D02*
X20186849Y-45368984D01*
X20186849Y-45368984D02*
X20205896Y-45378508D01*
X20205896Y-45378508D02*
X20215420Y-45388031D01*
X20215420Y-45388031D02*
X20224944Y-45407079D01*
X20224944Y-45407079D02*
X20234468Y-45445174D01*
X20234468Y-45445174D02*
X20234468Y-45492793D01*
X20234468Y-45492793D02*
X20224944Y-45530888D01*
X20224944Y-45530888D02*
X20215420Y-45549936D01*
X20215420Y-45549936D02*
X20205896Y-45559460D01*
X20205896Y-45559460D02*
X20186849Y-45568984D01*
X20186849Y-45568984D02*
X20167801Y-45568984D01*
X20167801Y-45568984D02*
X20148753Y-45559460D01*
X20148753Y-45559460D02*
X20139229Y-45549936D01*
X20139229Y-45549936D02*
X20129706Y-45530888D01*
X20129706Y-45530888D02*
X20120182Y-45492793D01*
X20120182Y-45492793D02*
X20120182Y-45445174D01*
X20120182Y-45445174D02*
X20129706Y-45407079D01*
X20129706Y-45407079D02*
X20139229Y-45388031D01*
X20139229Y-45388031D02*
X20148753Y-45378508D01*
X20148753Y-45378508D02*
X20167801Y-45368984D01*
X20424944Y-45568984D02*
X20310658Y-45568984D01*
X20367801Y-45568984D02*
X20367801Y-45368984D01*
X20367801Y-45368984D02*
X20348753Y-45397555D01*
X20348753Y-45397555D02*
X20329706Y-45416603D01*
X20329706Y-45416603D02*
X20310658Y-45426127D01*
X20501134Y-45368984D02*
X20501134Y-45407079D01*
X20577325Y-45368984D02*
X20577325Y-45407079D01*
X20872563Y-45645174D02*
X20863039Y-45635650D01*
X20863039Y-45635650D02*
X20843991Y-45607079D01*
X20843991Y-45607079D02*
X20834468Y-45588031D01*
X20834468Y-45588031D02*
X20824944Y-45559460D01*
X20824944Y-45559460D02*
X20815420Y-45511841D01*
X20815420Y-45511841D02*
X20815420Y-45473746D01*
X20815420Y-45473746D02*
X20824944Y-45426127D01*
X20824944Y-45426127D02*
X20834468Y-45397555D01*
X20834468Y-45397555D02*
X20843991Y-45378508D01*
X20843991Y-45378508D02*
X20863039Y-45349936D01*
X20863039Y-45349936D02*
X20872563Y-45340412D01*
X21053515Y-45568984D02*
X20939230Y-45568984D01*
X20996372Y-45568984D02*
X20996372Y-45368984D01*
X20996372Y-45368984D02*
X20977325Y-45397555D01*
X20977325Y-45397555D02*
X20958277Y-45416603D01*
X20958277Y-45416603D02*
X20939230Y-45426127D01*
X21120182Y-45368984D02*
X21253515Y-45368984D01*
X21253515Y-45368984D02*
X21167801Y-45568984D01*
X21358277Y-45454698D02*
X21339230Y-45445174D01*
X21339230Y-45445174D02*
X21329706Y-45435650D01*
X21329706Y-45435650D02*
X21320182Y-45416603D01*
X21320182Y-45416603D02*
X21320182Y-45407079D01*
X21320182Y-45407079D02*
X21329706Y-45388031D01*
X21329706Y-45388031D02*
X21339230Y-45378508D01*
X21339230Y-45378508D02*
X21358277Y-45368984D01*
X21358277Y-45368984D02*
X21396372Y-45368984D01*
X21396372Y-45368984D02*
X21415420Y-45378508D01*
X21415420Y-45378508D02*
X21424944Y-45388031D01*
X21424944Y-45388031D02*
X21434468Y-45407079D01*
X21434468Y-45407079D02*
X21434468Y-45416603D01*
X21434468Y-45416603D02*
X21424944Y-45435650D01*
X21424944Y-45435650D02*
X21415420Y-45445174D01*
X21415420Y-45445174D02*
X21396372Y-45454698D01*
X21396372Y-45454698D02*
X21358277Y-45454698D01*
X21358277Y-45454698D02*
X21339230Y-45464222D01*
X21339230Y-45464222D02*
X21329706Y-45473746D01*
X21329706Y-45473746D02*
X21320182Y-45492793D01*
X21320182Y-45492793D02*
X21320182Y-45530888D01*
X21320182Y-45530888D02*
X21329706Y-45549936D01*
X21329706Y-45549936D02*
X21339230Y-45559460D01*
X21339230Y-45559460D02*
X21358277Y-45568984D01*
X21358277Y-45568984D02*
X21396372Y-45568984D01*
X21396372Y-45568984D02*
X21415420Y-45559460D01*
X21415420Y-45559460D02*
X21424944Y-45549936D01*
X21424944Y-45549936D02*
X21434468Y-45530888D01*
X21434468Y-45530888D02*
X21434468Y-45492793D01*
X21434468Y-45492793D02*
X21424944Y-45473746D01*
X21424944Y-45473746D02*
X21415420Y-45464222D01*
X21415420Y-45464222D02*
X21396372Y-45454698D01*
X21672563Y-45568984D02*
X21672563Y-45368984D01*
X21758277Y-45568984D02*
X21758277Y-45464222D01*
X21758277Y-45464222D02*
X21748753Y-45445174D01*
X21748753Y-45445174D02*
X21729706Y-45435650D01*
X21729706Y-45435650D02*
X21701134Y-45435650D01*
X21701134Y-45435650D02*
X21682087Y-45445174D01*
X21682087Y-45445174D02*
X21672563Y-45454698D01*
X21882087Y-45568984D02*
X21863039Y-45559460D01*
X21863039Y-45559460D02*
X21853515Y-45549936D01*
X21853515Y-45549936D02*
X21843992Y-45530888D01*
X21843992Y-45530888D02*
X21843992Y-45473746D01*
X21843992Y-45473746D02*
X21853515Y-45454698D01*
X21853515Y-45454698D02*
X21863039Y-45445174D01*
X21863039Y-45445174D02*
X21882087Y-45435650D01*
X21882087Y-45435650D02*
X21910658Y-45435650D01*
X21910658Y-45435650D02*
X21929706Y-45445174D01*
X21929706Y-45445174D02*
X21939230Y-45454698D01*
X21939230Y-45454698D02*
X21948753Y-45473746D01*
X21948753Y-45473746D02*
X21948753Y-45530888D01*
X21948753Y-45530888D02*
X21939230Y-45549936D01*
X21939230Y-45549936D02*
X21929706Y-45559460D01*
X21929706Y-45559460D02*
X21910658Y-45568984D01*
X21910658Y-45568984D02*
X21882087Y-45568984D01*
X22063039Y-45568984D02*
X22043992Y-45559460D01*
X22043992Y-45559460D02*
X22034468Y-45540412D01*
X22034468Y-45540412D02*
X22034468Y-45368984D01*
X22215420Y-45559460D02*
X22196373Y-45568984D01*
X22196373Y-45568984D02*
X22158277Y-45568984D01*
X22158277Y-45568984D02*
X22139230Y-45559460D01*
X22139230Y-45559460D02*
X22129706Y-45540412D01*
X22129706Y-45540412D02*
X22129706Y-45464222D01*
X22129706Y-45464222D02*
X22139230Y-45445174D01*
X22139230Y-45445174D02*
X22158277Y-45435650D01*
X22158277Y-45435650D02*
X22196373Y-45435650D01*
X22196373Y-45435650D02*
X22215420Y-45445174D01*
X22215420Y-45445174D02*
X22224944Y-45464222D01*
X22224944Y-45464222D02*
X22224944Y-45483269D01*
X22224944Y-45483269D02*
X22129706Y-45502317D01*
X22301134Y-45559460D02*
X22320182Y-45568984D01*
X22320182Y-45568984D02*
X22358277Y-45568984D01*
X22358277Y-45568984D02*
X22377325Y-45559460D01*
X22377325Y-45559460D02*
X22386849Y-45540412D01*
X22386849Y-45540412D02*
X22386849Y-45530888D01*
X22386849Y-45530888D02*
X22377325Y-45511841D01*
X22377325Y-45511841D02*
X22358277Y-45502317D01*
X22358277Y-45502317D02*
X22329706Y-45502317D01*
X22329706Y-45502317D02*
X22310658Y-45492793D01*
X22310658Y-45492793D02*
X22301134Y-45473746D01*
X22301134Y-45473746D02*
X22301134Y-45464222D01*
X22301134Y-45464222D02*
X22310658Y-45445174D01*
X22310658Y-45445174D02*
X22329706Y-45435650D01*
X22329706Y-45435650D02*
X22358277Y-45435650D01*
X22358277Y-45435650D02*
X22377325Y-45445174D01*
X22453515Y-45645174D02*
X22463039Y-45635650D01*
X22463039Y-45635650D02*
X22482087Y-45607079D01*
X22482087Y-45607079D02*
X22491611Y-45588031D01*
X22491611Y-45588031D02*
X22501134Y-45559460D01*
X22501134Y-45559460D02*
X22510658Y-45511841D01*
X22510658Y-45511841D02*
X22510658Y-45473746D01*
X22510658Y-45473746D02*
X22501134Y-45426127D01*
X22501134Y-45426127D02*
X22491611Y-45397555D01*
X22491611Y-45397555D02*
X22482087Y-45378508D01*
X22482087Y-45378508D02*
X22463039Y-45349936D01*
X22463039Y-45349936D02*
X22453515Y-45340412D01*
X22815420Y-45645174D02*
X22805896Y-45635650D01*
X22805896Y-45635650D02*
X22786849Y-45607079D01*
X22786849Y-45607079D02*
X22777325Y-45588031D01*
X22777325Y-45588031D02*
X22767801Y-45559460D01*
X22767801Y-45559460D02*
X22758277Y-45511841D01*
X22758277Y-45511841D02*
X22758277Y-45473746D01*
X22758277Y-45473746D02*
X22767801Y-45426127D01*
X22767801Y-45426127D02*
X22777325Y-45397555D01*
X22777325Y-45397555D02*
X22786849Y-45378508D01*
X22786849Y-45378508D02*
X22805896Y-45349936D01*
X22805896Y-45349936D02*
X22815420Y-45340412D01*
X22891611Y-45435650D02*
X22891611Y-45568984D01*
X22891611Y-45454698D02*
X22901134Y-45445174D01*
X22901134Y-45445174D02*
X22920182Y-45435650D01*
X22920182Y-45435650D02*
X22948753Y-45435650D01*
X22948753Y-45435650D02*
X22967801Y-45445174D01*
X22967801Y-45445174D02*
X22977325Y-45464222D01*
X22977325Y-45464222D02*
X22977325Y-45568984D01*
X23101134Y-45568984D02*
X23082087Y-45559460D01*
X23082087Y-45559460D02*
X23072563Y-45549936D01*
X23072563Y-45549936D02*
X23063039Y-45530888D01*
X23063039Y-45530888D02*
X23063039Y-45473746D01*
X23063039Y-45473746D02*
X23072563Y-45454698D01*
X23072563Y-45454698D02*
X23082087Y-45445174D01*
X23082087Y-45445174D02*
X23101134Y-45435650D01*
X23101134Y-45435650D02*
X23129706Y-45435650D01*
X23129706Y-45435650D02*
X23148753Y-45445174D01*
X23148753Y-45445174D02*
X23158277Y-45454698D01*
X23158277Y-45454698D02*
X23167801Y-45473746D01*
X23167801Y-45473746D02*
X23167801Y-45530888D01*
X23167801Y-45530888D02*
X23158277Y-45549936D01*
X23158277Y-45549936D02*
X23148753Y-45559460D01*
X23148753Y-45559460D02*
X23129706Y-45568984D01*
X23129706Y-45568984D02*
X23101134Y-45568984D01*
X23224944Y-45435650D02*
X23301134Y-45435650D01*
X23253515Y-45368984D02*
X23253515Y-45540412D01*
X23253515Y-45540412D02*
X23263039Y-45559460D01*
X23263039Y-45559460D02*
X23282087Y-45568984D01*
X23282087Y-45568984D02*
X23301134Y-45568984D01*
X23520182Y-45435650D02*
X23520182Y-45635650D01*
X23520182Y-45445174D02*
X23539230Y-45435650D01*
X23539230Y-45435650D02*
X23577325Y-45435650D01*
X23577325Y-45435650D02*
X23596373Y-45445174D01*
X23596373Y-45445174D02*
X23605896Y-45454698D01*
X23605896Y-45454698D02*
X23615420Y-45473746D01*
X23615420Y-45473746D02*
X23615420Y-45530888D01*
X23615420Y-45530888D02*
X23605896Y-45549936D01*
X23605896Y-45549936D02*
X23596373Y-45559460D01*
X23596373Y-45559460D02*
X23577325Y-45568984D01*
X23577325Y-45568984D02*
X23539230Y-45568984D01*
X23539230Y-45568984D02*
X23520182Y-45559460D01*
X23729706Y-45568984D02*
X23710658Y-45559460D01*
X23710658Y-45559460D02*
X23701134Y-45540412D01*
X23701134Y-45540412D02*
X23701134Y-45368984D01*
X23891611Y-45568984D02*
X23891611Y-45464222D01*
X23891611Y-45464222D02*
X23882087Y-45445174D01*
X23882087Y-45445174D02*
X23863039Y-45435650D01*
X23863039Y-45435650D02*
X23824944Y-45435650D01*
X23824944Y-45435650D02*
X23805896Y-45445174D01*
X23891611Y-45559460D02*
X23872563Y-45568984D01*
X23872563Y-45568984D02*
X23824944Y-45568984D01*
X23824944Y-45568984D02*
X23805896Y-45559460D01*
X23805896Y-45559460D02*
X23796373Y-45540412D01*
X23796373Y-45540412D02*
X23796373Y-45521365D01*
X23796373Y-45521365D02*
X23805896Y-45502317D01*
X23805896Y-45502317D02*
X23824944Y-45492793D01*
X23824944Y-45492793D02*
X23872563Y-45492793D01*
X23872563Y-45492793D02*
X23891611Y-45483269D01*
X23958277Y-45435650D02*
X24034468Y-45435650D01*
X23986849Y-45368984D02*
X23986849Y-45540412D01*
X23986849Y-45540412D02*
X23996373Y-45559460D01*
X23996373Y-45559460D02*
X24015420Y-45568984D01*
X24015420Y-45568984D02*
X24034468Y-45568984D01*
X24177325Y-45559460D02*
X24158277Y-45568984D01*
X24158277Y-45568984D02*
X24120182Y-45568984D01*
X24120182Y-45568984D02*
X24101134Y-45559460D01*
X24101134Y-45559460D02*
X24091611Y-45540412D01*
X24091611Y-45540412D02*
X24091611Y-45464222D01*
X24091611Y-45464222D02*
X24101134Y-45445174D01*
X24101134Y-45445174D02*
X24120182Y-45435650D01*
X24120182Y-45435650D02*
X24158277Y-45435650D01*
X24158277Y-45435650D02*
X24177325Y-45445174D01*
X24177325Y-45445174D02*
X24186849Y-45464222D01*
X24186849Y-45464222D02*
X24186849Y-45483269D01*
X24186849Y-45483269D02*
X24091611Y-45502317D01*
X24358277Y-45568984D02*
X24358277Y-45368984D01*
X24358277Y-45559460D02*
X24339230Y-45568984D01*
X24339230Y-45568984D02*
X24301134Y-45568984D01*
X24301134Y-45568984D02*
X24282087Y-45559460D01*
X24282087Y-45559460D02*
X24272563Y-45549936D01*
X24272563Y-45549936D02*
X24263039Y-45530888D01*
X24263039Y-45530888D02*
X24263039Y-45473746D01*
X24263039Y-45473746D02*
X24272563Y-45454698D01*
X24272563Y-45454698D02*
X24282087Y-45445174D01*
X24282087Y-45445174D02*
X24301134Y-45435650D01*
X24301134Y-45435650D02*
X24339230Y-45435650D01*
X24339230Y-45435650D02*
X24358277Y-45445174D01*
X24434468Y-45645174D02*
X24443992Y-45635650D01*
X24443992Y-45635650D02*
X24463039Y-45607079D01*
X24463039Y-45607079D02*
X24472563Y-45588031D01*
X24472563Y-45588031D02*
X24482087Y-45559460D01*
X24482087Y-45559460D02*
X24491611Y-45511841D01*
X24491611Y-45511841D02*
X24491611Y-45473746D01*
X24491611Y-45473746D02*
X24482087Y-45426127D01*
X24482087Y-45426127D02*
X24472563Y-45397555D01*
X24472563Y-45397555D02*
X24463039Y-45378508D01*
X24463039Y-45378508D02*
X24443992Y-45349936D01*
X24443992Y-45349936D02*
X24434468Y-45340412D01*
X17197500Y-45897500D02*
X17297500Y-45797500D01*
X17197500Y-45697500D01*
X17097500Y-45797500D01*
X17197500Y-45897500D01*
X17539229Y-45688984D02*
X17663039Y-45688984D01*
X17663039Y-45688984D02*
X17596372Y-45765174D01*
X17596372Y-45765174D02*
X17624944Y-45765174D01*
X17624944Y-45765174D02*
X17643991Y-45774698D01*
X17643991Y-45774698D02*
X17653515Y-45784222D01*
X17653515Y-45784222D02*
X17663039Y-45803269D01*
X17663039Y-45803269D02*
X17663039Y-45850888D01*
X17663039Y-45850888D02*
X17653515Y-45869936D01*
X17653515Y-45869936D02*
X17643991Y-45879460D01*
X17643991Y-45879460D02*
X17624944Y-45888984D01*
X17624944Y-45888984D02*
X17567801Y-45888984D01*
X17567801Y-45888984D02*
X17548753Y-45879460D01*
X17548753Y-45879460D02*
X17539229Y-45869936D01*
X17748753Y-45869936D02*
X17758277Y-45879460D01*
X17758277Y-45879460D02*
X17748753Y-45888984D01*
X17748753Y-45888984D02*
X17739229Y-45879460D01*
X17739229Y-45879460D02*
X17748753Y-45869936D01*
X17748753Y-45869936D02*
X17748753Y-45888984D01*
X17853515Y-45888984D02*
X17891610Y-45888984D01*
X17891610Y-45888984D02*
X17910658Y-45879460D01*
X17910658Y-45879460D02*
X17920182Y-45869936D01*
X17920182Y-45869936D02*
X17939229Y-45841365D01*
X17939229Y-45841365D02*
X17948753Y-45803269D01*
X17948753Y-45803269D02*
X17948753Y-45727079D01*
X17948753Y-45727079D02*
X17939229Y-45708031D01*
X17939229Y-45708031D02*
X17929705Y-45698508D01*
X17929705Y-45698508D02*
X17910658Y-45688984D01*
X17910658Y-45688984D02*
X17872563Y-45688984D01*
X17872563Y-45688984D02*
X17853515Y-45698508D01*
X17853515Y-45698508D02*
X17843991Y-45708031D01*
X17843991Y-45708031D02*
X17834467Y-45727079D01*
X17834467Y-45727079D02*
X17834467Y-45774698D01*
X17834467Y-45774698D02*
X17843991Y-45793746D01*
X17843991Y-45793746D02*
X17853515Y-45803269D01*
X17853515Y-45803269D02*
X17872563Y-45812793D01*
X17872563Y-45812793D02*
X17910658Y-45812793D01*
X17910658Y-45812793D02*
X17929705Y-45803269D01*
X17929705Y-45803269D02*
X17939229Y-45793746D01*
X17939229Y-45793746D02*
X17948753Y-45774698D01*
X18063039Y-45774698D02*
X18043991Y-45765174D01*
X18043991Y-45765174D02*
X18034467Y-45755650D01*
X18034467Y-45755650D02*
X18024944Y-45736603D01*
X18024944Y-45736603D02*
X18024944Y-45727079D01*
X18024944Y-45727079D02*
X18034467Y-45708031D01*
X18034467Y-45708031D02*
X18043991Y-45698508D01*
X18043991Y-45698508D02*
X18063039Y-45688984D01*
X18063039Y-45688984D02*
X18101134Y-45688984D01*
X18101134Y-45688984D02*
X18120182Y-45698508D01*
X18120182Y-45698508D02*
X18129705Y-45708031D01*
X18129705Y-45708031D02*
X18139229Y-45727079D01*
X18139229Y-45727079D02*
X18139229Y-45736603D01*
X18139229Y-45736603D02*
X18129705Y-45755650D01*
X18129705Y-45755650D02*
X18120182Y-45765174D01*
X18120182Y-45765174D02*
X18101134Y-45774698D01*
X18101134Y-45774698D02*
X18063039Y-45774698D01*
X18063039Y-45774698D02*
X18043991Y-45784222D01*
X18043991Y-45784222D02*
X18034467Y-45793746D01*
X18034467Y-45793746D02*
X18024944Y-45812793D01*
X18024944Y-45812793D02*
X18024944Y-45850888D01*
X18024944Y-45850888D02*
X18034467Y-45869936D01*
X18034467Y-45869936D02*
X18043991Y-45879460D01*
X18043991Y-45879460D02*
X18063039Y-45888984D01*
X18063039Y-45888984D02*
X18101134Y-45888984D01*
X18101134Y-45888984D02*
X18120182Y-45879460D01*
X18120182Y-45879460D02*
X18129705Y-45869936D01*
X18129705Y-45869936D02*
X18139229Y-45850888D01*
X18139229Y-45850888D02*
X18139229Y-45812793D01*
X18139229Y-45812793D02*
X18129705Y-45793746D01*
X18129705Y-45793746D02*
X18120182Y-45784222D01*
X18120182Y-45784222D02*
X18101134Y-45774698D01*
X18253515Y-45774698D02*
X18234467Y-45765174D01*
X18234467Y-45765174D02*
X18224944Y-45755650D01*
X18224944Y-45755650D02*
X18215420Y-45736603D01*
X18215420Y-45736603D02*
X18215420Y-45727079D01*
X18215420Y-45727079D02*
X18224944Y-45708031D01*
X18224944Y-45708031D02*
X18234467Y-45698508D01*
X18234467Y-45698508D02*
X18253515Y-45688984D01*
X18253515Y-45688984D02*
X18291610Y-45688984D01*
X18291610Y-45688984D02*
X18310658Y-45698508D01*
X18310658Y-45698508D02*
X18320182Y-45708031D01*
X18320182Y-45708031D02*
X18329705Y-45727079D01*
X18329705Y-45727079D02*
X18329705Y-45736603D01*
X18329705Y-45736603D02*
X18320182Y-45755650D01*
X18320182Y-45755650D02*
X18310658Y-45765174D01*
X18310658Y-45765174D02*
X18291610Y-45774698D01*
X18291610Y-45774698D02*
X18253515Y-45774698D01*
X18253515Y-45774698D02*
X18234467Y-45784222D01*
X18234467Y-45784222D02*
X18224944Y-45793746D01*
X18224944Y-45793746D02*
X18215420Y-45812793D01*
X18215420Y-45812793D02*
X18215420Y-45850888D01*
X18215420Y-45850888D02*
X18224944Y-45869936D01*
X18224944Y-45869936D02*
X18234467Y-45879460D01*
X18234467Y-45879460D02*
X18253515Y-45888984D01*
X18253515Y-45888984D02*
X18291610Y-45888984D01*
X18291610Y-45888984D02*
X18310658Y-45879460D01*
X18310658Y-45879460D02*
X18320182Y-45869936D01*
X18320182Y-45869936D02*
X18329705Y-45850888D01*
X18329705Y-45850888D02*
X18329705Y-45812793D01*
X18329705Y-45812793D02*
X18320182Y-45793746D01*
X18320182Y-45793746D02*
X18310658Y-45784222D01*
X18310658Y-45784222D02*
X18291610Y-45774698D01*
X18415420Y-45888984D02*
X18415420Y-45755650D01*
X18415420Y-45774698D02*
X18424944Y-45765174D01*
X18424944Y-45765174D02*
X18443991Y-45755650D01*
X18443991Y-45755650D02*
X18472563Y-45755650D01*
X18472563Y-45755650D02*
X18491610Y-45765174D01*
X18491610Y-45765174D02*
X18501134Y-45784222D01*
X18501134Y-45784222D02*
X18501134Y-45888984D01*
X18501134Y-45784222D02*
X18510658Y-45765174D01*
X18510658Y-45765174D02*
X18529705Y-45755650D01*
X18529705Y-45755650D02*
X18558277Y-45755650D01*
X18558277Y-45755650D02*
X18577325Y-45765174D01*
X18577325Y-45765174D02*
X18586848Y-45784222D01*
X18586848Y-45784222D02*
X18586848Y-45888984D01*
X18682086Y-45888984D02*
X18682086Y-45755650D01*
X18682086Y-45774698D02*
X18691610Y-45765174D01*
X18691610Y-45765174D02*
X18710658Y-45755650D01*
X18710658Y-45755650D02*
X18739229Y-45755650D01*
X18739229Y-45755650D02*
X18758277Y-45765174D01*
X18758277Y-45765174D02*
X18767801Y-45784222D01*
X18767801Y-45784222D02*
X18767801Y-45888984D01*
X18767801Y-45784222D02*
X18777325Y-45765174D01*
X18777325Y-45765174D02*
X18796372Y-45755650D01*
X18796372Y-45755650D02*
X18824944Y-45755650D01*
X18824944Y-45755650D02*
X18843991Y-45765174D01*
X18843991Y-45765174D02*
X18853515Y-45784222D01*
X18853515Y-45784222D02*
X18853515Y-45888984D01*
X19243991Y-45679460D02*
X19072563Y-45936603D01*
X19501134Y-45688984D02*
X19520182Y-45688984D01*
X19520182Y-45688984D02*
X19539229Y-45698508D01*
X19539229Y-45698508D02*
X19548753Y-45708031D01*
X19548753Y-45708031D02*
X19558277Y-45727079D01*
X19558277Y-45727079D02*
X19567801Y-45765174D01*
X19567801Y-45765174D02*
X19567801Y-45812793D01*
X19567801Y-45812793D02*
X19558277Y-45850888D01*
X19558277Y-45850888D02*
X19548753Y-45869936D01*
X19548753Y-45869936D02*
X19539229Y-45879460D01*
X19539229Y-45879460D02*
X19520182Y-45888984D01*
X19520182Y-45888984D02*
X19501134Y-45888984D01*
X19501134Y-45888984D02*
X19482087Y-45879460D01*
X19482087Y-45879460D02*
X19472563Y-45869936D01*
X19472563Y-45869936D02*
X19463039Y-45850888D01*
X19463039Y-45850888D02*
X19453515Y-45812793D01*
X19453515Y-45812793D02*
X19453515Y-45765174D01*
X19453515Y-45765174D02*
X19463039Y-45727079D01*
X19463039Y-45727079D02*
X19472563Y-45708031D01*
X19472563Y-45708031D02*
X19482087Y-45698508D01*
X19482087Y-45698508D02*
X19501134Y-45688984D01*
X19653515Y-45869936D02*
X19663039Y-45879460D01*
X19663039Y-45879460D02*
X19653515Y-45888984D01*
X19653515Y-45888984D02*
X19643991Y-45879460D01*
X19643991Y-45879460D02*
X19653515Y-45869936D01*
X19653515Y-45869936D02*
X19653515Y-45888984D01*
X19853515Y-45888984D02*
X19739229Y-45888984D01*
X19796372Y-45888984D02*
X19796372Y-45688984D01*
X19796372Y-45688984D02*
X19777325Y-45717555D01*
X19777325Y-45717555D02*
X19758277Y-45736603D01*
X19758277Y-45736603D02*
X19739229Y-45746127D01*
X20034468Y-45688984D02*
X19939229Y-45688984D01*
X19939229Y-45688984D02*
X19929706Y-45784222D01*
X19929706Y-45784222D02*
X19939229Y-45774698D01*
X19939229Y-45774698D02*
X19958277Y-45765174D01*
X19958277Y-45765174D02*
X20005896Y-45765174D01*
X20005896Y-45765174D02*
X20024944Y-45774698D01*
X20024944Y-45774698D02*
X20034468Y-45784222D01*
X20034468Y-45784222D02*
X20043991Y-45803269D01*
X20043991Y-45803269D02*
X20043991Y-45850888D01*
X20043991Y-45850888D02*
X20034468Y-45869936D01*
X20034468Y-45869936D02*
X20024944Y-45879460D01*
X20024944Y-45879460D02*
X20005896Y-45888984D01*
X20005896Y-45888984D02*
X19958277Y-45888984D01*
X19958277Y-45888984D02*
X19939229Y-45879460D01*
X19939229Y-45879460D02*
X19929706Y-45869936D01*
X20110658Y-45688984D02*
X20243991Y-45688984D01*
X20243991Y-45688984D02*
X20158277Y-45888984D01*
X20358277Y-45688984D02*
X20377325Y-45688984D01*
X20377325Y-45688984D02*
X20396372Y-45698508D01*
X20396372Y-45698508D02*
X20405896Y-45708031D01*
X20405896Y-45708031D02*
X20415420Y-45727079D01*
X20415420Y-45727079D02*
X20424944Y-45765174D01*
X20424944Y-45765174D02*
X20424944Y-45812793D01*
X20424944Y-45812793D02*
X20415420Y-45850888D01*
X20415420Y-45850888D02*
X20405896Y-45869936D01*
X20405896Y-45869936D02*
X20396372Y-45879460D01*
X20396372Y-45879460D02*
X20377325Y-45888984D01*
X20377325Y-45888984D02*
X20358277Y-45888984D01*
X20358277Y-45888984D02*
X20339229Y-45879460D01*
X20339229Y-45879460D02*
X20329706Y-45869936D01*
X20329706Y-45869936D02*
X20320182Y-45850888D01*
X20320182Y-45850888D02*
X20310658Y-45812793D01*
X20310658Y-45812793D02*
X20310658Y-45765174D01*
X20310658Y-45765174D02*
X20320182Y-45727079D01*
X20320182Y-45727079D02*
X20329706Y-45708031D01*
X20329706Y-45708031D02*
X20339229Y-45698508D01*
X20339229Y-45698508D02*
X20358277Y-45688984D01*
X20501134Y-45688984D02*
X20501134Y-45727079D01*
X20577325Y-45688984D02*
X20577325Y-45727079D01*
X20872563Y-45965174D02*
X20863039Y-45955650D01*
X20863039Y-45955650D02*
X20843991Y-45927079D01*
X20843991Y-45927079D02*
X20834468Y-45908031D01*
X20834468Y-45908031D02*
X20824944Y-45879460D01*
X20824944Y-45879460D02*
X20815420Y-45831841D01*
X20815420Y-45831841D02*
X20815420Y-45793746D01*
X20815420Y-45793746D02*
X20824944Y-45746127D01*
X20824944Y-45746127D02*
X20834468Y-45717555D01*
X20834468Y-45717555D02*
X20843991Y-45698508D01*
X20843991Y-45698508D02*
X20863039Y-45669936D01*
X20863039Y-45669936D02*
X20872563Y-45660412D01*
X20977325Y-45774698D02*
X20958277Y-45765174D01*
X20958277Y-45765174D02*
X20948753Y-45755650D01*
X20948753Y-45755650D02*
X20939230Y-45736603D01*
X20939230Y-45736603D02*
X20939230Y-45727079D01*
X20939230Y-45727079D02*
X20948753Y-45708031D01*
X20948753Y-45708031D02*
X20958277Y-45698508D01*
X20958277Y-45698508D02*
X20977325Y-45688984D01*
X20977325Y-45688984D02*
X21015420Y-45688984D01*
X21015420Y-45688984D02*
X21034468Y-45698508D01*
X21034468Y-45698508D02*
X21043991Y-45708031D01*
X21043991Y-45708031D02*
X21053515Y-45727079D01*
X21053515Y-45727079D02*
X21053515Y-45736603D01*
X21053515Y-45736603D02*
X21043991Y-45755650D01*
X21043991Y-45755650D02*
X21034468Y-45765174D01*
X21034468Y-45765174D02*
X21015420Y-45774698D01*
X21015420Y-45774698D02*
X20977325Y-45774698D01*
X20977325Y-45774698D02*
X20958277Y-45784222D01*
X20958277Y-45784222D02*
X20948753Y-45793746D01*
X20948753Y-45793746D02*
X20939230Y-45812793D01*
X20939230Y-45812793D02*
X20939230Y-45850888D01*
X20939230Y-45850888D02*
X20948753Y-45869936D01*
X20948753Y-45869936D02*
X20958277Y-45879460D01*
X20958277Y-45879460D02*
X20977325Y-45888984D01*
X20977325Y-45888984D02*
X21015420Y-45888984D01*
X21015420Y-45888984D02*
X21034468Y-45879460D01*
X21034468Y-45879460D02*
X21043991Y-45869936D01*
X21043991Y-45869936D02*
X21053515Y-45850888D01*
X21053515Y-45850888D02*
X21053515Y-45812793D01*
X21053515Y-45812793D02*
X21043991Y-45793746D01*
X21043991Y-45793746D02*
X21034468Y-45784222D01*
X21034468Y-45784222D02*
X21015420Y-45774698D01*
X21291611Y-45888984D02*
X21291611Y-45688984D01*
X21377325Y-45888984D02*
X21377325Y-45784222D01*
X21377325Y-45784222D02*
X21367801Y-45765174D01*
X21367801Y-45765174D02*
X21348753Y-45755650D01*
X21348753Y-45755650D02*
X21320182Y-45755650D01*
X21320182Y-45755650D02*
X21301134Y-45765174D01*
X21301134Y-45765174D02*
X21291611Y-45774698D01*
X21501134Y-45888984D02*
X21482087Y-45879460D01*
X21482087Y-45879460D02*
X21472563Y-45869936D01*
X21472563Y-45869936D02*
X21463039Y-45850888D01*
X21463039Y-45850888D02*
X21463039Y-45793746D01*
X21463039Y-45793746D02*
X21472563Y-45774698D01*
X21472563Y-45774698D02*
X21482087Y-45765174D01*
X21482087Y-45765174D02*
X21501134Y-45755650D01*
X21501134Y-45755650D02*
X21529706Y-45755650D01*
X21529706Y-45755650D02*
X21548753Y-45765174D01*
X21548753Y-45765174D02*
X21558277Y-45774698D01*
X21558277Y-45774698D02*
X21567801Y-45793746D01*
X21567801Y-45793746D02*
X21567801Y-45850888D01*
X21567801Y-45850888D02*
X21558277Y-45869936D01*
X21558277Y-45869936D02*
X21548753Y-45879460D01*
X21548753Y-45879460D02*
X21529706Y-45888984D01*
X21529706Y-45888984D02*
X21501134Y-45888984D01*
X21682087Y-45888984D02*
X21663039Y-45879460D01*
X21663039Y-45879460D02*
X21653515Y-45860412D01*
X21653515Y-45860412D02*
X21653515Y-45688984D01*
X21834468Y-45879460D02*
X21815420Y-45888984D01*
X21815420Y-45888984D02*
X21777325Y-45888984D01*
X21777325Y-45888984D02*
X21758277Y-45879460D01*
X21758277Y-45879460D02*
X21748753Y-45860412D01*
X21748753Y-45860412D02*
X21748753Y-45784222D01*
X21748753Y-45784222D02*
X21758277Y-45765174D01*
X21758277Y-45765174D02*
X21777325Y-45755650D01*
X21777325Y-45755650D02*
X21815420Y-45755650D01*
X21815420Y-45755650D02*
X21834468Y-45765174D01*
X21834468Y-45765174D02*
X21843992Y-45784222D01*
X21843992Y-45784222D02*
X21843992Y-45803269D01*
X21843992Y-45803269D02*
X21748753Y-45822317D01*
X21920182Y-45879460D02*
X21939230Y-45888984D01*
X21939230Y-45888984D02*
X21977325Y-45888984D01*
X21977325Y-45888984D02*
X21996373Y-45879460D01*
X21996373Y-45879460D02*
X22005896Y-45860412D01*
X22005896Y-45860412D02*
X22005896Y-45850888D01*
X22005896Y-45850888D02*
X21996373Y-45831841D01*
X21996373Y-45831841D02*
X21977325Y-45822317D01*
X21977325Y-45822317D02*
X21948753Y-45822317D01*
X21948753Y-45822317D02*
X21929706Y-45812793D01*
X21929706Y-45812793D02*
X21920182Y-45793746D01*
X21920182Y-45793746D02*
X21920182Y-45784222D01*
X21920182Y-45784222D02*
X21929706Y-45765174D01*
X21929706Y-45765174D02*
X21948753Y-45755650D01*
X21948753Y-45755650D02*
X21977325Y-45755650D01*
X21977325Y-45755650D02*
X21996373Y-45765174D01*
X22072563Y-45965174D02*
X22082087Y-45955650D01*
X22082087Y-45955650D02*
X22101134Y-45927079D01*
X22101134Y-45927079D02*
X22110658Y-45908031D01*
X22110658Y-45908031D02*
X22120182Y-45879460D01*
X22120182Y-45879460D02*
X22129706Y-45831841D01*
X22129706Y-45831841D02*
X22129706Y-45793746D01*
X22129706Y-45793746D02*
X22120182Y-45746127D01*
X22120182Y-45746127D02*
X22110658Y-45717555D01*
X22110658Y-45717555D02*
X22101134Y-45698508D01*
X22101134Y-45698508D02*
X22082087Y-45669936D01*
X22082087Y-45669936D02*
X22072563Y-45660412D01*
X22434468Y-45965174D02*
X22424944Y-45955650D01*
X22424944Y-45955650D02*
X22405896Y-45927079D01*
X22405896Y-45927079D02*
X22396372Y-45908031D01*
X22396372Y-45908031D02*
X22386849Y-45879460D01*
X22386849Y-45879460D02*
X22377325Y-45831841D01*
X22377325Y-45831841D02*
X22377325Y-45793746D01*
X22377325Y-45793746D02*
X22386849Y-45746127D01*
X22386849Y-45746127D02*
X22396372Y-45717555D01*
X22396372Y-45717555D02*
X22405896Y-45698508D01*
X22405896Y-45698508D02*
X22424944Y-45669936D01*
X22424944Y-45669936D02*
X22434468Y-45660412D01*
X22510658Y-45755650D02*
X22510658Y-45888984D01*
X22510658Y-45774698D02*
X22520182Y-45765174D01*
X22520182Y-45765174D02*
X22539230Y-45755650D01*
X22539230Y-45755650D02*
X22567801Y-45755650D01*
X22567801Y-45755650D02*
X22586849Y-45765174D01*
X22586849Y-45765174D02*
X22596372Y-45784222D01*
X22596372Y-45784222D02*
X22596372Y-45888984D01*
X22720182Y-45888984D02*
X22701134Y-45879460D01*
X22701134Y-45879460D02*
X22691611Y-45869936D01*
X22691611Y-45869936D02*
X22682087Y-45850888D01*
X22682087Y-45850888D02*
X22682087Y-45793746D01*
X22682087Y-45793746D02*
X22691611Y-45774698D01*
X22691611Y-45774698D02*
X22701134Y-45765174D01*
X22701134Y-45765174D02*
X22720182Y-45755650D01*
X22720182Y-45755650D02*
X22748753Y-45755650D01*
X22748753Y-45755650D02*
X22767801Y-45765174D01*
X22767801Y-45765174D02*
X22777325Y-45774698D01*
X22777325Y-45774698D02*
X22786849Y-45793746D01*
X22786849Y-45793746D02*
X22786849Y-45850888D01*
X22786849Y-45850888D02*
X22777325Y-45869936D01*
X22777325Y-45869936D02*
X22767801Y-45879460D01*
X22767801Y-45879460D02*
X22748753Y-45888984D01*
X22748753Y-45888984D02*
X22720182Y-45888984D01*
X22843992Y-45755650D02*
X22920182Y-45755650D01*
X22872563Y-45688984D02*
X22872563Y-45860412D01*
X22872563Y-45860412D02*
X22882087Y-45879460D01*
X22882087Y-45879460D02*
X22901134Y-45888984D01*
X22901134Y-45888984D02*
X22920182Y-45888984D01*
X23139230Y-45755650D02*
X23139230Y-45955650D01*
X23139230Y-45765174D02*
X23158277Y-45755650D01*
X23158277Y-45755650D02*
X23196373Y-45755650D01*
X23196373Y-45755650D02*
X23215420Y-45765174D01*
X23215420Y-45765174D02*
X23224944Y-45774698D01*
X23224944Y-45774698D02*
X23234468Y-45793746D01*
X23234468Y-45793746D02*
X23234468Y-45850888D01*
X23234468Y-45850888D02*
X23224944Y-45869936D01*
X23224944Y-45869936D02*
X23215420Y-45879460D01*
X23215420Y-45879460D02*
X23196373Y-45888984D01*
X23196373Y-45888984D02*
X23158277Y-45888984D01*
X23158277Y-45888984D02*
X23139230Y-45879460D01*
X23348753Y-45888984D02*
X23329706Y-45879460D01*
X23329706Y-45879460D02*
X23320182Y-45860412D01*
X23320182Y-45860412D02*
X23320182Y-45688984D01*
X23510658Y-45888984D02*
X23510658Y-45784222D01*
X23510658Y-45784222D02*
X23501134Y-45765174D01*
X23501134Y-45765174D02*
X23482087Y-45755650D01*
X23482087Y-45755650D02*
X23443992Y-45755650D01*
X23443992Y-45755650D02*
X23424944Y-45765174D01*
X23510658Y-45879460D02*
X23491611Y-45888984D01*
X23491611Y-45888984D02*
X23443992Y-45888984D01*
X23443992Y-45888984D02*
X23424944Y-45879460D01*
X23424944Y-45879460D02*
X23415420Y-45860412D01*
X23415420Y-45860412D02*
X23415420Y-45841365D01*
X23415420Y-45841365D02*
X23424944Y-45822317D01*
X23424944Y-45822317D02*
X23443992Y-45812793D01*
X23443992Y-45812793D02*
X23491611Y-45812793D01*
X23491611Y-45812793D02*
X23510658Y-45803269D01*
X23577325Y-45755650D02*
X23653515Y-45755650D01*
X23605896Y-45688984D02*
X23605896Y-45860412D01*
X23605896Y-45860412D02*
X23615420Y-45879460D01*
X23615420Y-45879460D02*
X23634468Y-45888984D01*
X23634468Y-45888984D02*
X23653515Y-45888984D01*
X23796373Y-45879460D02*
X23777325Y-45888984D01*
X23777325Y-45888984D02*
X23739230Y-45888984D01*
X23739230Y-45888984D02*
X23720182Y-45879460D01*
X23720182Y-45879460D02*
X23710658Y-45860412D01*
X23710658Y-45860412D02*
X23710658Y-45784222D01*
X23710658Y-45784222D02*
X23720182Y-45765174D01*
X23720182Y-45765174D02*
X23739230Y-45755650D01*
X23739230Y-45755650D02*
X23777325Y-45755650D01*
X23777325Y-45755650D02*
X23796373Y-45765174D01*
X23796373Y-45765174D02*
X23805896Y-45784222D01*
X23805896Y-45784222D02*
X23805896Y-45803269D01*
X23805896Y-45803269D02*
X23710658Y-45822317D01*
X23977325Y-45888984D02*
X23977325Y-45688984D01*
X23977325Y-45879460D02*
X23958277Y-45888984D01*
X23958277Y-45888984D02*
X23920182Y-45888984D01*
X23920182Y-45888984D02*
X23901134Y-45879460D01*
X23901134Y-45879460D02*
X23891611Y-45869936D01*
X23891611Y-45869936D02*
X23882087Y-45850888D01*
X23882087Y-45850888D02*
X23882087Y-45793746D01*
X23882087Y-45793746D02*
X23891611Y-45774698D01*
X23891611Y-45774698D02*
X23901134Y-45765174D01*
X23901134Y-45765174D02*
X23920182Y-45755650D01*
X23920182Y-45755650D02*
X23958277Y-45755650D01*
X23958277Y-45755650D02*
X23977325Y-45765174D01*
X24053515Y-45965174D02*
X24063039Y-45955650D01*
X24063039Y-45955650D02*
X24082087Y-45927079D01*
X24082087Y-45927079D02*
X24091611Y-45908031D01*
X24091611Y-45908031D02*
X24101134Y-45879460D01*
X24101134Y-45879460D02*
X24110658Y-45831841D01*
X24110658Y-45831841D02*
X24110658Y-45793746D01*
X24110658Y-45793746D02*
X24101134Y-45746127D01*
X24101134Y-45746127D02*
X24091611Y-45717555D01*
X24091611Y-45717555D02*
X24082087Y-45698508D01*
X24082087Y-45698508D02*
X24063039Y-45669936D01*
X24063039Y-45669936D02*
X24053515Y-45660412D01*
X17097500Y-46017500D02*
X17297500Y-46217500D01*
X17297500Y-46017500D02*
X17097500Y-46217500D01*
X17297500Y-46117500D02*
G75*
G02*
X17097500Y-46117500I-100000J0D01*
G01*
X17097500Y-46117500D02*
G75*
G02*
X17297500Y-46117500I100000J0D01*
G01*
X17643991Y-46075650D02*
X17643991Y-46208984D01*
X17596372Y-45999460D02*
X17548753Y-46142317D01*
X17548753Y-46142317D02*
X17672563Y-46142317D01*
X17748753Y-46189936D02*
X17758277Y-46199460D01*
X17758277Y-46199460D02*
X17748753Y-46208984D01*
X17748753Y-46208984D02*
X17739229Y-46199460D01*
X17739229Y-46199460D02*
X17748753Y-46189936D01*
X17748753Y-46189936D02*
X17748753Y-46208984D01*
X17882086Y-46008984D02*
X17901134Y-46008984D01*
X17901134Y-46008984D02*
X17920182Y-46018508D01*
X17920182Y-46018508D02*
X17929705Y-46028031D01*
X17929705Y-46028031D02*
X17939229Y-46047079D01*
X17939229Y-46047079D02*
X17948753Y-46085174D01*
X17948753Y-46085174D02*
X17948753Y-46132793D01*
X17948753Y-46132793D02*
X17939229Y-46170888D01*
X17939229Y-46170888D02*
X17929705Y-46189936D01*
X17929705Y-46189936D02*
X17920182Y-46199460D01*
X17920182Y-46199460D02*
X17901134Y-46208984D01*
X17901134Y-46208984D02*
X17882086Y-46208984D01*
X17882086Y-46208984D02*
X17863039Y-46199460D01*
X17863039Y-46199460D02*
X17853515Y-46189936D01*
X17853515Y-46189936D02*
X17843991Y-46170888D01*
X17843991Y-46170888D02*
X17834467Y-46132793D01*
X17834467Y-46132793D02*
X17834467Y-46085174D01*
X17834467Y-46085174D02*
X17843991Y-46047079D01*
X17843991Y-46047079D02*
X17853515Y-46028031D01*
X17853515Y-46028031D02*
X17863039Y-46018508D01*
X17863039Y-46018508D02*
X17882086Y-46008984D01*
X18072563Y-46008984D02*
X18091610Y-46008984D01*
X18091610Y-46008984D02*
X18110658Y-46018508D01*
X18110658Y-46018508D02*
X18120182Y-46028031D01*
X18120182Y-46028031D02*
X18129705Y-46047079D01*
X18129705Y-46047079D02*
X18139229Y-46085174D01*
X18139229Y-46085174D02*
X18139229Y-46132793D01*
X18139229Y-46132793D02*
X18129705Y-46170888D01*
X18129705Y-46170888D02*
X18120182Y-46189936D01*
X18120182Y-46189936D02*
X18110658Y-46199460D01*
X18110658Y-46199460D02*
X18091610Y-46208984D01*
X18091610Y-46208984D02*
X18072563Y-46208984D01*
X18072563Y-46208984D02*
X18053515Y-46199460D01*
X18053515Y-46199460D02*
X18043991Y-46189936D01*
X18043991Y-46189936D02*
X18034467Y-46170888D01*
X18034467Y-46170888D02*
X18024944Y-46132793D01*
X18024944Y-46132793D02*
X18024944Y-46085174D01*
X18024944Y-46085174D02*
X18034467Y-46047079D01*
X18034467Y-46047079D02*
X18043991Y-46028031D01*
X18043991Y-46028031D02*
X18053515Y-46018508D01*
X18053515Y-46018508D02*
X18072563Y-46008984D01*
X18263039Y-46008984D02*
X18282086Y-46008984D01*
X18282086Y-46008984D02*
X18301134Y-46018508D01*
X18301134Y-46018508D02*
X18310658Y-46028031D01*
X18310658Y-46028031D02*
X18320182Y-46047079D01*
X18320182Y-46047079D02*
X18329705Y-46085174D01*
X18329705Y-46085174D02*
X18329705Y-46132793D01*
X18329705Y-46132793D02*
X18320182Y-46170888D01*
X18320182Y-46170888D02*
X18310658Y-46189936D01*
X18310658Y-46189936D02*
X18301134Y-46199460D01*
X18301134Y-46199460D02*
X18282086Y-46208984D01*
X18282086Y-46208984D02*
X18263039Y-46208984D01*
X18263039Y-46208984D02*
X18243991Y-46199460D01*
X18243991Y-46199460D02*
X18234467Y-46189936D01*
X18234467Y-46189936D02*
X18224944Y-46170888D01*
X18224944Y-46170888D02*
X18215420Y-46132793D01*
X18215420Y-46132793D02*
X18215420Y-46085174D01*
X18215420Y-46085174D02*
X18224944Y-46047079D01*
X18224944Y-46047079D02*
X18234467Y-46028031D01*
X18234467Y-46028031D02*
X18243991Y-46018508D01*
X18243991Y-46018508D02*
X18263039Y-46008984D01*
X18415420Y-46208984D02*
X18415420Y-46075650D01*
X18415420Y-46094698D02*
X18424944Y-46085174D01*
X18424944Y-46085174D02*
X18443991Y-46075650D01*
X18443991Y-46075650D02*
X18472563Y-46075650D01*
X18472563Y-46075650D02*
X18491610Y-46085174D01*
X18491610Y-46085174D02*
X18501134Y-46104222D01*
X18501134Y-46104222D02*
X18501134Y-46208984D01*
X18501134Y-46104222D02*
X18510658Y-46085174D01*
X18510658Y-46085174D02*
X18529705Y-46075650D01*
X18529705Y-46075650D02*
X18558277Y-46075650D01*
X18558277Y-46075650D02*
X18577325Y-46085174D01*
X18577325Y-46085174D02*
X18586848Y-46104222D01*
X18586848Y-46104222D02*
X18586848Y-46208984D01*
X18682086Y-46208984D02*
X18682086Y-46075650D01*
X18682086Y-46094698D02*
X18691610Y-46085174D01*
X18691610Y-46085174D02*
X18710658Y-46075650D01*
X18710658Y-46075650D02*
X18739229Y-46075650D01*
X18739229Y-46075650D02*
X18758277Y-46085174D01*
X18758277Y-46085174D02*
X18767801Y-46104222D01*
X18767801Y-46104222D02*
X18767801Y-46208984D01*
X18767801Y-46104222D02*
X18777325Y-46085174D01*
X18777325Y-46085174D02*
X18796372Y-46075650D01*
X18796372Y-46075650D02*
X18824944Y-46075650D01*
X18824944Y-46075650D02*
X18843991Y-46085174D01*
X18843991Y-46085174D02*
X18853515Y-46104222D01*
X18853515Y-46104222D02*
X18853515Y-46208984D01*
X19243991Y-45999460D02*
X19072563Y-46256603D01*
X19501134Y-46008984D02*
X19520182Y-46008984D01*
X19520182Y-46008984D02*
X19539229Y-46018508D01*
X19539229Y-46018508D02*
X19548753Y-46028031D01*
X19548753Y-46028031D02*
X19558277Y-46047079D01*
X19558277Y-46047079D02*
X19567801Y-46085174D01*
X19567801Y-46085174D02*
X19567801Y-46132793D01*
X19567801Y-46132793D02*
X19558277Y-46170888D01*
X19558277Y-46170888D02*
X19548753Y-46189936D01*
X19548753Y-46189936D02*
X19539229Y-46199460D01*
X19539229Y-46199460D02*
X19520182Y-46208984D01*
X19520182Y-46208984D02*
X19501134Y-46208984D01*
X19501134Y-46208984D02*
X19482087Y-46199460D01*
X19482087Y-46199460D02*
X19472563Y-46189936D01*
X19472563Y-46189936D02*
X19463039Y-46170888D01*
X19463039Y-46170888D02*
X19453515Y-46132793D01*
X19453515Y-46132793D02*
X19453515Y-46085174D01*
X19453515Y-46085174D02*
X19463039Y-46047079D01*
X19463039Y-46047079D02*
X19472563Y-46028031D01*
X19472563Y-46028031D02*
X19482087Y-46018508D01*
X19482087Y-46018508D02*
X19501134Y-46008984D01*
X19653515Y-46189936D02*
X19663039Y-46199460D01*
X19663039Y-46199460D02*
X19653515Y-46208984D01*
X19653515Y-46208984D02*
X19643991Y-46199460D01*
X19643991Y-46199460D02*
X19653515Y-46189936D01*
X19653515Y-46189936D02*
X19653515Y-46208984D01*
X19853515Y-46208984D02*
X19739229Y-46208984D01*
X19796372Y-46208984D02*
X19796372Y-46008984D01*
X19796372Y-46008984D02*
X19777325Y-46037555D01*
X19777325Y-46037555D02*
X19758277Y-46056603D01*
X19758277Y-46056603D02*
X19739229Y-46066127D01*
X20034468Y-46008984D02*
X19939229Y-46008984D01*
X19939229Y-46008984D02*
X19929706Y-46104222D01*
X19929706Y-46104222D02*
X19939229Y-46094698D01*
X19939229Y-46094698D02*
X19958277Y-46085174D01*
X19958277Y-46085174D02*
X20005896Y-46085174D01*
X20005896Y-46085174D02*
X20024944Y-46094698D01*
X20024944Y-46094698D02*
X20034468Y-46104222D01*
X20034468Y-46104222D02*
X20043991Y-46123269D01*
X20043991Y-46123269D02*
X20043991Y-46170888D01*
X20043991Y-46170888D02*
X20034468Y-46189936D01*
X20034468Y-46189936D02*
X20024944Y-46199460D01*
X20024944Y-46199460D02*
X20005896Y-46208984D01*
X20005896Y-46208984D02*
X19958277Y-46208984D01*
X19958277Y-46208984D02*
X19939229Y-46199460D01*
X19939229Y-46199460D02*
X19929706Y-46189936D01*
X20110658Y-46008984D02*
X20243991Y-46008984D01*
X20243991Y-46008984D02*
X20158277Y-46208984D01*
X20415420Y-46008984D02*
X20320182Y-46008984D01*
X20320182Y-46008984D02*
X20310658Y-46104222D01*
X20310658Y-46104222D02*
X20320182Y-46094698D01*
X20320182Y-46094698D02*
X20339229Y-46085174D01*
X20339229Y-46085174D02*
X20386849Y-46085174D01*
X20386849Y-46085174D02*
X20405896Y-46094698D01*
X20405896Y-46094698D02*
X20415420Y-46104222D01*
X20415420Y-46104222D02*
X20424944Y-46123269D01*
X20424944Y-46123269D02*
X20424944Y-46170888D01*
X20424944Y-46170888D02*
X20415420Y-46189936D01*
X20415420Y-46189936D02*
X20405896Y-46199460D01*
X20405896Y-46199460D02*
X20386849Y-46208984D01*
X20386849Y-46208984D02*
X20339229Y-46208984D01*
X20339229Y-46208984D02*
X20320182Y-46199460D01*
X20320182Y-46199460D02*
X20310658Y-46189936D01*
X20501134Y-46008984D02*
X20501134Y-46047079D01*
X20577325Y-46008984D02*
X20577325Y-46047079D01*
X20872563Y-46285174D02*
X20863039Y-46275650D01*
X20863039Y-46275650D02*
X20843991Y-46247079D01*
X20843991Y-46247079D02*
X20834468Y-46228031D01*
X20834468Y-46228031D02*
X20824944Y-46199460D01*
X20824944Y-46199460D02*
X20815420Y-46151841D01*
X20815420Y-46151841D02*
X20815420Y-46113746D01*
X20815420Y-46113746D02*
X20824944Y-46066127D01*
X20824944Y-46066127D02*
X20834468Y-46037555D01*
X20834468Y-46037555D02*
X20843991Y-46018508D01*
X20843991Y-46018508D02*
X20863039Y-45989936D01*
X20863039Y-45989936D02*
X20872563Y-45980412D01*
X20977325Y-46094698D02*
X20958277Y-46085174D01*
X20958277Y-46085174D02*
X20948753Y-46075650D01*
X20948753Y-46075650D02*
X20939230Y-46056603D01*
X20939230Y-46056603D02*
X20939230Y-46047079D01*
X20939230Y-46047079D02*
X20948753Y-46028031D01*
X20948753Y-46028031D02*
X20958277Y-46018508D01*
X20958277Y-46018508D02*
X20977325Y-46008984D01*
X20977325Y-46008984D02*
X21015420Y-46008984D01*
X21015420Y-46008984D02*
X21034468Y-46018508D01*
X21034468Y-46018508D02*
X21043991Y-46028031D01*
X21043991Y-46028031D02*
X21053515Y-46047079D01*
X21053515Y-46047079D02*
X21053515Y-46056603D01*
X21053515Y-46056603D02*
X21043991Y-46075650D01*
X21043991Y-46075650D02*
X21034468Y-46085174D01*
X21034468Y-46085174D02*
X21015420Y-46094698D01*
X21015420Y-46094698D02*
X20977325Y-46094698D01*
X20977325Y-46094698D02*
X20958277Y-46104222D01*
X20958277Y-46104222D02*
X20948753Y-46113746D01*
X20948753Y-46113746D02*
X20939230Y-46132793D01*
X20939230Y-46132793D02*
X20939230Y-46170888D01*
X20939230Y-46170888D02*
X20948753Y-46189936D01*
X20948753Y-46189936D02*
X20958277Y-46199460D01*
X20958277Y-46199460D02*
X20977325Y-46208984D01*
X20977325Y-46208984D02*
X21015420Y-46208984D01*
X21015420Y-46208984D02*
X21034468Y-46199460D01*
X21034468Y-46199460D02*
X21043991Y-46189936D01*
X21043991Y-46189936D02*
X21053515Y-46170888D01*
X21053515Y-46170888D02*
X21053515Y-46132793D01*
X21053515Y-46132793D02*
X21043991Y-46113746D01*
X21043991Y-46113746D02*
X21034468Y-46104222D01*
X21034468Y-46104222D02*
X21015420Y-46094698D01*
X21148753Y-46208984D02*
X21186849Y-46208984D01*
X21186849Y-46208984D02*
X21205896Y-46199460D01*
X21205896Y-46199460D02*
X21215420Y-46189936D01*
X21215420Y-46189936D02*
X21234468Y-46161365D01*
X21234468Y-46161365D02*
X21243991Y-46123269D01*
X21243991Y-46123269D02*
X21243991Y-46047079D01*
X21243991Y-46047079D02*
X21234468Y-46028031D01*
X21234468Y-46028031D02*
X21224944Y-46018508D01*
X21224944Y-46018508D02*
X21205896Y-46008984D01*
X21205896Y-46008984D02*
X21167801Y-46008984D01*
X21167801Y-46008984D02*
X21148753Y-46018508D01*
X21148753Y-46018508D02*
X21139230Y-46028031D01*
X21139230Y-46028031D02*
X21129706Y-46047079D01*
X21129706Y-46047079D02*
X21129706Y-46094698D01*
X21129706Y-46094698D02*
X21139230Y-46113746D01*
X21139230Y-46113746D02*
X21148753Y-46123269D01*
X21148753Y-46123269D02*
X21167801Y-46132793D01*
X21167801Y-46132793D02*
X21205896Y-46132793D01*
X21205896Y-46132793D02*
X21224944Y-46123269D01*
X21224944Y-46123269D02*
X21234468Y-46113746D01*
X21234468Y-46113746D02*
X21243991Y-46094698D01*
X21482087Y-46208984D02*
X21482087Y-46008984D01*
X21567801Y-46208984D02*
X21567801Y-46104222D01*
X21567801Y-46104222D02*
X21558277Y-46085174D01*
X21558277Y-46085174D02*
X21539230Y-46075650D01*
X21539230Y-46075650D02*
X21510658Y-46075650D01*
X21510658Y-46075650D02*
X21491611Y-46085174D01*
X21491611Y-46085174D02*
X21482087Y-46094698D01*
X21691611Y-46208984D02*
X21672563Y-46199460D01*
X21672563Y-46199460D02*
X21663039Y-46189936D01*
X21663039Y-46189936D02*
X21653515Y-46170888D01*
X21653515Y-46170888D02*
X21653515Y-46113746D01*
X21653515Y-46113746D02*
X21663039Y-46094698D01*
X21663039Y-46094698D02*
X21672563Y-46085174D01*
X21672563Y-46085174D02*
X21691611Y-46075650D01*
X21691611Y-46075650D02*
X21720182Y-46075650D01*
X21720182Y-46075650D02*
X21739230Y-46085174D01*
X21739230Y-46085174D02*
X21748753Y-46094698D01*
X21748753Y-46094698D02*
X21758277Y-46113746D01*
X21758277Y-46113746D02*
X21758277Y-46170888D01*
X21758277Y-46170888D02*
X21748753Y-46189936D01*
X21748753Y-46189936D02*
X21739230Y-46199460D01*
X21739230Y-46199460D02*
X21720182Y-46208984D01*
X21720182Y-46208984D02*
X21691611Y-46208984D01*
X21872563Y-46208984D02*
X21853515Y-46199460D01*
X21853515Y-46199460D02*
X21843992Y-46180412D01*
X21843992Y-46180412D02*
X21843992Y-46008984D01*
X22024944Y-46199460D02*
X22005896Y-46208984D01*
X22005896Y-46208984D02*
X21967801Y-46208984D01*
X21967801Y-46208984D02*
X21948753Y-46199460D01*
X21948753Y-46199460D02*
X21939230Y-46180412D01*
X21939230Y-46180412D02*
X21939230Y-46104222D01*
X21939230Y-46104222D02*
X21948753Y-46085174D01*
X21948753Y-46085174D02*
X21967801Y-46075650D01*
X21967801Y-46075650D02*
X22005896Y-46075650D01*
X22005896Y-46075650D02*
X22024944Y-46085174D01*
X22024944Y-46085174D02*
X22034468Y-46104222D01*
X22034468Y-46104222D02*
X22034468Y-46123269D01*
X22034468Y-46123269D02*
X21939230Y-46142317D01*
X22110658Y-46199460D02*
X22129706Y-46208984D01*
X22129706Y-46208984D02*
X22167801Y-46208984D01*
X22167801Y-46208984D02*
X22186849Y-46199460D01*
X22186849Y-46199460D02*
X22196373Y-46180412D01*
X22196373Y-46180412D02*
X22196373Y-46170888D01*
X22196373Y-46170888D02*
X22186849Y-46151841D01*
X22186849Y-46151841D02*
X22167801Y-46142317D01*
X22167801Y-46142317D02*
X22139230Y-46142317D01*
X22139230Y-46142317D02*
X22120182Y-46132793D01*
X22120182Y-46132793D02*
X22110658Y-46113746D01*
X22110658Y-46113746D02*
X22110658Y-46104222D01*
X22110658Y-46104222D02*
X22120182Y-46085174D01*
X22120182Y-46085174D02*
X22139230Y-46075650D01*
X22139230Y-46075650D02*
X22167801Y-46075650D01*
X22167801Y-46075650D02*
X22186849Y-46085174D01*
X22263039Y-46285174D02*
X22272563Y-46275650D01*
X22272563Y-46275650D02*
X22291611Y-46247079D01*
X22291611Y-46247079D02*
X22301134Y-46228031D01*
X22301134Y-46228031D02*
X22310658Y-46199460D01*
X22310658Y-46199460D02*
X22320182Y-46151841D01*
X22320182Y-46151841D02*
X22320182Y-46113746D01*
X22320182Y-46113746D02*
X22310658Y-46066127D01*
X22310658Y-46066127D02*
X22301134Y-46037555D01*
X22301134Y-46037555D02*
X22291611Y-46018508D01*
X22291611Y-46018508D02*
X22272563Y-45989936D01*
X22272563Y-45989936D02*
X22263039Y-45980412D01*
X22624944Y-46285174D02*
X22615420Y-46275650D01*
X22615420Y-46275650D02*
X22596372Y-46247079D01*
X22596372Y-46247079D02*
X22586849Y-46228031D01*
X22586849Y-46228031D02*
X22577325Y-46199460D01*
X22577325Y-46199460D02*
X22567801Y-46151841D01*
X22567801Y-46151841D02*
X22567801Y-46113746D01*
X22567801Y-46113746D02*
X22577325Y-46066127D01*
X22577325Y-46066127D02*
X22586849Y-46037555D01*
X22586849Y-46037555D02*
X22596372Y-46018508D01*
X22596372Y-46018508D02*
X22615420Y-45989936D01*
X22615420Y-45989936D02*
X22624944Y-45980412D01*
X22701134Y-46075650D02*
X22701134Y-46208984D01*
X22701134Y-46094698D02*
X22710658Y-46085174D01*
X22710658Y-46085174D02*
X22729706Y-46075650D01*
X22729706Y-46075650D02*
X22758277Y-46075650D01*
X22758277Y-46075650D02*
X22777325Y-46085174D01*
X22777325Y-46085174D02*
X22786849Y-46104222D01*
X22786849Y-46104222D02*
X22786849Y-46208984D01*
X22910658Y-46208984D02*
X22891611Y-46199460D01*
X22891611Y-46199460D02*
X22882087Y-46189936D01*
X22882087Y-46189936D02*
X22872563Y-46170888D01*
X22872563Y-46170888D02*
X22872563Y-46113746D01*
X22872563Y-46113746D02*
X22882087Y-46094698D01*
X22882087Y-46094698D02*
X22891611Y-46085174D01*
X22891611Y-46085174D02*
X22910658Y-46075650D01*
X22910658Y-46075650D02*
X22939230Y-46075650D01*
X22939230Y-46075650D02*
X22958277Y-46085174D01*
X22958277Y-46085174D02*
X22967801Y-46094698D01*
X22967801Y-46094698D02*
X22977325Y-46113746D01*
X22977325Y-46113746D02*
X22977325Y-46170888D01*
X22977325Y-46170888D02*
X22967801Y-46189936D01*
X22967801Y-46189936D02*
X22958277Y-46199460D01*
X22958277Y-46199460D02*
X22939230Y-46208984D01*
X22939230Y-46208984D02*
X22910658Y-46208984D01*
X23034468Y-46075650D02*
X23110658Y-46075650D01*
X23063039Y-46008984D02*
X23063039Y-46180412D01*
X23063039Y-46180412D02*
X23072563Y-46199460D01*
X23072563Y-46199460D02*
X23091611Y-46208984D01*
X23091611Y-46208984D02*
X23110658Y-46208984D01*
X23329706Y-46075650D02*
X23329706Y-46275650D01*
X23329706Y-46085174D02*
X23348753Y-46075650D01*
X23348753Y-46075650D02*
X23386849Y-46075650D01*
X23386849Y-46075650D02*
X23405896Y-46085174D01*
X23405896Y-46085174D02*
X23415420Y-46094698D01*
X23415420Y-46094698D02*
X23424944Y-46113746D01*
X23424944Y-46113746D02*
X23424944Y-46170888D01*
X23424944Y-46170888D02*
X23415420Y-46189936D01*
X23415420Y-46189936D02*
X23405896Y-46199460D01*
X23405896Y-46199460D02*
X23386849Y-46208984D01*
X23386849Y-46208984D02*
X23348753Y-46208984D01*
X23348753Y-46208984D02*
X23329706Y-46199460D01*
X23539230Y-46208984D02*
X23520182Y-46199460D01*
X23520182Y-46199460D02*
X23510658Y-46180412D01*
X23510658Y-46180412D02*
X23510658Y-46008984D01*
X23701134Y-46208984D02*
X23701134Y-46104222D01*
X23701134Y-46104222D02*
X23691611Y-46085174D01*
X23691611Y-46085174D02*
X23672563Y-46075650D01*
X23672563Y-46075650D02*
X23634468Y-46075650D01*
X23634468Y-46075650D02*
X23615420Y-46085174D01*
X23701134Y-46199460D02*
X23682087Y-46208984D01*
X23682087Y-46208984D02*
X23634468Y-46208984D01*
X23634468Y-46208984D02*
X23615420Y-46199460D01*
X23615420Y-46199460D02*
X23605896Y-46180412D01*
X23605896Y-46180412D02*
X23605896Y-46161365D01*
X23605896Y-46161365D02*
X23615420Y-46142317D01*
X23615420Y-46142317D02*
X23634468Y-46132793D01*
X23634468Y-46132793D02*
X23682087Y-46132793D01*
X23682087Y-46132793D02*
X23701134Y-46123269D01*
X23767801Y-46075650D02*
X23843992Y-46075650D01*
X23796373Y-46008984D02*
X23796373Y-46180412D01*
X23796373Y-46180412D02*
X23805896Y-46199460D01*
X23805896Y-46199460D02*
X23824944Y-46208984D01*
X23824944Y-46208984D02*
X23843992Y-46208984D01*
X23986849Y-46199460D02*
X23967801Y-46208984D01*
X23967801Y-46208984D02*
X23929706Y-46208984D01*
X23929706Y-46208984D02*
X23910658Y-46199460D01*
X23910658Y-46199460D02*
X23901134Y-46180412D01*
X23901134Y-46180412D02*
X23901134Y-46104222D01*
X23901134Y-46104222D02*
X23910658Y-46085174D01*
X23910658Y-46085174D02*
X23929706Y-46075650D01*
X23929706Y-46075650D02*
X23967801Y-46075650D01*
X23967801Y-46075650D02*
X23986849Y-46085174D01*
X23986849Y-46085174D02*
X23996373Y-46104222D01*
X23996373Y-46104222D02*
X23996373Y-46123269D01*
X23996373Y-46123269D02*
X23901134Y-46142317D01*
X24167801Y-46208984D02*
X24167801Y-46008984D01*
X24167801Y-46199460D02*
X24148754Y-46208984D01*
X24148754Y-46208984D02*
X24110658Y-46208984D01*
X24110658Y-46208984D02*
X24091611Y-46199460D01*
X24091611Y-46199460D02*
X24082087Y-46189936D01*
X24082087Y-46189936D02*
X24072563Y-46170888D01*
X24072563Y-46170888D02*
X24072563Y-46113746D01*
X24072563Y-46113746D02*
X24082087Y-46094698D01*
X24082087Y-46094698D02*
X24091611Y-46085174D01*
X24091611Y-46085174D02*
X24110658Y-46075650D01*
X24110658Y-46075650D02*
X24148754Y-46075650D01*
X24148754Y-46075650D02*
X24167801Y-46085174D01*
X24243992Y-46285174D02*
X24253515Y-46275650D01*
X24253515Y-46275650D02*
X24272563Y-46247079D01*
X24272563Y-46247079D02*
X24282087Y-46228031D01*
X24282087Y-46228031D02*
X24291611Y-46199460D01*
X24291611Y-46199460D02*
X24301134Y-46151841D01*
X24301134Y-46151841D02*
X24301134Y-46113746D01*
X24301134Y-46113746D02*
X24291611Y-46066127D01*
X24291611Y-46066127D02*
X24282087Y-46037555D01*
X24282087Y-46037555D02*
X24272563Y-46018508D01*
X24272563Y-46018508D02*
X24253515Y-45989936D01*
X24253515Y-45989936D02*
X24243992Y-45980412D01*
M02*
