M48
; DRILL file {KiCad 8.0.6} date 2024-12-17T01:07:57+0100
; FORMAT={-:-/ absolute / metric / decimal}
; #@! TF.CreationDate,2024-12-17T01:07:57+01:00
; #@! TF.GenerationSoftware,Kicad,Pcbnew,8.0.6
; #@! TF.FileFunction,Plated,1,2,PTH
FMAT,2
METRIC
; #@! TA.AperFunction,Plated,PTH,ViaDrill
T1C0.300
; #@! TA.AperFunction,Plated,PTH,ComponentDrill
T2C1.000
%
G90
G05
T1
X178.5Y-321.0
X178.5Y-345.0
X180.975Y-421.481
X181.0Y-402.25
X183.5Y-364.0
X185.75Y-383.25
X194.5Y-338.25
X197.5Y-345.0
X202.5Y-321.0
X202.5Y-402.25
X204.787Y-421.481
X207.25Y-363.75
X212.0Y-383.25
X213.5Y-338.44
X216.75Y-345.0
X221.5Y-321.0
X221.5Y-402.25
X226.25Y-363.75
X228.6Y-421.481
X231.0Y-383.25
X233.0Y-338.25
X235.75Y-345.0
X240.5Y-402.25
X240.75Y-321.0
X245.25Y-364.0
X250.0Y-383.25
X252.0Y-339.0
X254.75Y-345.0
X259.5Y-402.25
X259.75Y-321.25
X264.5Y-363.75
X269.0Y-383.25
X270.75Y-339.0
X274.0Y-345.0
X278.5Y-402.0
X283.5Y-321.25
X283.5Y-363.75
X288.25Y-383.25
X290.0Y-339.0
X293.0Y-345.0
X297.75Y-402.25
X300.037Y-421.481
X302.5Y-321.0
X302.5Y-363.75
X307.25Y-383.25
X309.0Y-339.5
X312.0Y-345.0
X316.75Y-402.25
X321.5Y-321.0
X321.5Y-363.75
X326.25Y-383.25
X328.5Y-339.5
X331.0Y-345.0
X335.75Y-402.25
X340.5Y-363.75
X340.75Y-321.0
X345.25Y-383.25
X349.15Y-339.0
X350.25Y-345.0
X354.7Y-316.6
X354.75Y-402.25
X356.2Y-316.6
X359.5Y-363.75
X360.9Y-316.6
X362.2Y-316.6
X364.25Y-383.25
X364.5Y-321.0
X368.375Y-339.625
X369.25Y-345.0
X371.475Y-421.481
X373.75Y-402.25
X378.75Y-363.75
X383.25Y-383.25
X383.5Y-321.0
X385.25Y-339.75
X388.25Y-345.0
X392.75Y-402.25
X395.287Y-421.481
X397.75Y-363.75
X402.5Y-321.0
X402.5Y-383.25
X406.125Y-339.875
X407.25Y-345.0
X416.75Y-363.75
X419.1Y-421.481
X421.5Y-321.0
X421.5Y-383.25
X428.5Y-402.25
X435.75Y-345.0
X442.912Y-421.481
X443.0Y-373.75
X445.5Y-320.75
X451.0Y-357.75
X455.25Y-338.5
X456.25Y-338.5
X457.25Y-338.5
X458.25Y-338.5
X459.25Y-338.5
X460.25Y-338.5
X461.25Y-338.5
X462.25Y-338.5
X463.25Y-338.514
X464.25Y-338.5
X465.25Y-338.5
X466.25Y-338.5
X469.106Y-364.331
X469.106Y-421.481
X469.25Y-321.5
X469.25Y-344.75
X474.75Y-357.75
X488.156Y-364.331
X488.156Y-402.431
X488.156Y-421.481
X488.25Y-321.5
X488.25Y-344.75
X507.206Y-364.331
X507.206Y-421.481
X507.25Y-321.25
X507.25Y-345.0
T2
X359.5Y-321.5
X359.5Y-324.04
X359.5Y-326.58
X359.5Y-329.12
X471.62Y-381.0
X471.62Y-396.24
X474.16Y-381.0
X474.16Y-396.24
X476.7Y-381.0
X476.7Y-396.24
X479.24Y-381.0
X479.24Y-396.24
X481.78Y-381.0
X481.78Y-396.24
X484.32Y-381.0
X484.32Y-396.24
X486.86Y-381.0
X486.86Y-396.24
X489.4Y-381.0
X489.4Y-396.24
X491.94Y-381.0
X491.94Y-396.24
X494.48Y-381.0
X494.48Y-396.24
X497.02Y-381.0
X497.02Y-396.24
X499.56Y-381.0
X499.56Y-396.24
X502.1Y-381.0
X502.1Y-396.24
X504.64Y-381.0
X504.64Y-396.24
X507.18Y-381.0
X507.18Y-396.24
X509.72Y-381.0
X509.72Y-396.24
X512.26Y-381.0
X512.26Y-396.24
X514.8Y-381.0
X514.8Y-396.24
X517.34Y-381.0
X517.34Y-396.24
X519.88Y-381.0
X519.88Y-396.24
M30
