M48
; DRILL file {KiCad 8.0.6} date 2024-12-17T01:07:57+0100
; FORMAT={-:-/ absolute / metric / decimal}
; #@! TF.CreationDate,2024-12-17T01:07:57+01:00
; #@! TF.GenerationSoftware,Kicad,Pcbnew,8.0.6
; #@! TF.FileFunction,NonPlated,1,2,NPTH
FMAT,2
METRIC
; #@! TA.AperFunction,NonPlated,NPTH,ComponentDrill
T1C1.750
; #@! TA.AperFunction,NonPlated,NPTH,ComponentDrill
T2C2.200
; #@! TA.AperFunction,NonPlated,NPTH,ComponentDrill
T3C3.048
; #@! TA.AperFunction,NonPlated,NPTH,ComponentDrill
T4C3.050
; #@! TA.AperFunction,NonPlated,NPTH,ComponentDrill
T5C3.988
; #@! TA.AperFunction,NonPlated,NPTH,ComponentDrill
T6C4.000
%
G90
G05
T1
X180.657Y-326.231
X180.657Y-350.044
X183.039Y-407.194
X183.039Y-426.244
X185.42Y-369.094
X187.801Y-388.144
X190.817Y-326.231
X190.817Y-350.044
X193.199Y-407.194
X193.199Y-426.244
X195.58Y-369.094
X197.961Y-388.144
X199.707Y-350.044
X204.47Y-326.231
X204.47Y-407.194
X206.851Y-426.244
X209.232Y-369.094
X209.867Y-350.044
X213.995Y-388.144
X214.63Y-326.231
X214.63Y-407.194
X217.011Y-426.244
X218.757Y-350.044
X219.392Y-369.094
X223.52Y-326.231
X223.52Y-407.194
X224.155Y-388.144
X228.282Y-369.094
X228.917Y-350.044
X230.664Y-426.244
X233.045Y-388.144
X233.68Y-326.231
X233.68Y-407.194
X237.807Y-350.044
X238.442Y-369.094
X240.824Y-426.244
X242.57Y-326.231
X242.57Y-407.194
X243.205Y-388.144
X247.332Y-369.094
X247.968Y-350.044
X252.095Y-388.144
X252.73Y-326.231
X252.73Y-407.194
X256.858Y-350.044
X257.493Y-369.094
X261.62Y-326.231
X261.62Y-407.194
X262.255Y-388.144
X266.382Y-369.094
X267.017Y-350.044
X271.145Y-388.144
X271.78Y-326.231
X271.78Y-407.194
X275.907Y-350.044
X276.542Y-369.094
X280.67Y-407.194
X281.305Y-388.144
X285.433Y-326.231
X285.433Y-369.094
X286.067Y-350.044
X290.195Y-388.144
X290.83Y-407.194
X294.957Y-350.044
X295.592Y-326.231
X295.592Y-369.094
X299.72Y-407.194
X300.355Y-388.144
X302.101Y-426.244
X304.482Y-326.231
X304.482Y-369.094
X305.118Y-350.044
X309.245Y-388.144
X309.88Y-407.194
X312.261Y-426.244
X314.007Y-350.044
X314.642Y-326.231
X314.642Y-369.094
X318.77Y-407.194
X319.405Y-388.144
X323.532Y-326.231
X323.532Y-369.094
X324.167Y-350.044
X328.295Y-388.144
X328.93Y-407.194
X333.058Y-350.044
X333.692Y-326.231
X333.692Y-369.094
X337.82Y-407.194
X338.455Y-388.144
X342.582Y-326.231
X342.582Y-369.094
X343.217Y-350.044
X347.345Y-388.144
X347.98Y-407.194
X352.107Y-350.044
X352.743Y-326.231
X352.743Y-369.094
X356.87Y-407.194
X357.505Y-388.144
X361.637Y-369.094
X362.267Y-350.044
X366.395Y-326.231
X366.395Y-388.144
X367.03Y-407.194
X371.157Y-350.044
X371.797Y-369.094
X373.539Y-426.244
X375.887Y-407.194
X376.555Y-326.231
X376.555Y-388.144
X380.683Y-369.094
X381.317Y-350.044
X383.699Y-426.244
X385.445Y-326.231
X385.445Y-388.144
X386.047Y-407.194
X390.207Y-350.044
X390.842Y-369.094
X394.97Y-407.194
X395.605Y-326.231
X395.605Y-388.144
X397.351Y-426.244
X399.732Y-369.094
X400.368Y-350.044
X404.495Y-326.231
X404.495Y-388.144
X405.13Y-407.194
X407.511Y-426.244
X409.257Y-350.044
X409.892Y-369.094
X414.655Y-326.231
X414.655Y-388.144
X418.782Y-369.094
X419.417Y-350.044
X421.164Y-426.244
X423.545Y-326.231
X423.545Y-388.144
X428.942Y-369.094
X430.689Y-407.194
X431.324Y-426.244
X433.705Y-326.231
X433.705Y-388.144
X437.832Y-350.044
X440.849Y-407.194
X444.976Y-378.619
X444.976Y-426.244
X447.357Y-326.231
X447.993Y-350.044
X455.136Y-378.619
X455.136Y-426.244
X457.517Y-326.231
X471.17Y-326.231
X471.17Y-350.044
X471.17Y-369.094
X471.17Y-426.244
X481.33Y-326.231
X481.33Y-350.044
X481.33Y-369.094
X481.33Y-426.244
X490.22Y-326.231
X490.22Y-350.044
X490.22Y-369.094
X490.22Y-407.194
X490.22Y-426.244
X500.38Y-326.231
X500.38Y-350.044
X500.38Y-369.094
X500.38Y-407.194
X500.38Y-426.244
X509.27Y-326.231
X509.27Y-350.044
X509.27Y-369.094
X509.27Y-426.244
X519.43Y-326.231
X519.43Y-350.044
X519.43Y-369.094
X519.43Y-426.244
T2
X197.5Y-327.6
X207.9Y-391.8
X271.2Y-357.5
X290.5Y-426.6
X357.2Y-377.2
X433.4Y-378.1
X440.7Y-327.0
X506.7Y-338.1
X511.3Y-407.9
T3
X257.181Y-419.259
X357.181Y-419.259
X423.831Y-400.209
X430.974Y-343.059
X443.071Y-366.681
X443.071Y-390.557
X447.707Y-400.209
X454.85Y-343.059
T4
X181.927Y-323.691
X181.927Y-347.504
X184.309Y-404.654
X184.309Y-423.704
X186.69Y-366.554
X188.278Y-321.151
X188.278Y-344.964
X189.071Y-385.604
X190.659Y-402.114
X190.659Y-421.164
X193.04Y-364.014
X195.421Y-383.064
X200.977Y-347.504
X205.74Y-323.691
X205.74Y-404.654
X207.327Y-344.964
X208.121Y-423.704
X210.502Y-366.554
X212.09Y-321.151
X212.09Y-402.114
X214.471Y-421.164
X215.265Y-385.604
X216.852Y-364.014
X220.028Y-347.504
X221.615Y-383.064
X224.79Y-323.691
X224.79Y-404.654
X226.377Y-344.964
X229.552Y-366.554
X231.14Y-321.151
X231.14Y-402.114
X231.934Y-423.704
X234.315Y-385.604
X235.903Y-364.014
X238.284Y-421.164
X239.077Y-347.504
X240.665Y-383.064
X243.84Y-323.691
X243.84Y-404.654
X245.427Y-344.964
X248.602Y-366.554
X250.19Y-321.151
X250.19Y-402.114
X253.365Y-385.604
X254.952Y-364.014
X258.127Y-347.504
X259.715Y-383.064
X262.89Y-323.691
X262.89Y-404.654
X264.477Y-344.964
X267.652Y-366.554
X269.24Y-321.151
X269.24Y-402.114
X272.415Y-385.604
X274.002Y-364.014
X277.178Y-347.504
X278.765Y-383.064
X281.94Y-404.654
X283.527Y-344.964
X286.702Y-323.691
X286.702Y-366.554
X288.29Y-402.114
X291.465Y-385.604
X293.053Y-321.151
X293.053Y-364.014
X296.227Y-347.504
X297.815Y-383.064
X300.99Y-404.654
X302.577Y-344.964
X303.371Y-423.704
X305.752Y-323.691
X305.752Y-366.554
X307.34Y-402.114
X309.721Y-421.164
X310.515Y-385.604
X312.102Y-321.151
X312.102Y-364.014
X315.277Y-347.504
X316.865Y-383.064
X320.04Y-404.654
X321.627Y-344.964
X324.803Y-323.691
X324.803Y-366.554
X326.39Y-402.114
X329.565Y-385.604
X331.152Y-321.151
X331.152Y-364.014
X334.327Y-347.504
X335.915Y-383.064
X339.09Y-404.654
X340.678Y-344.964
X343.852Y-323.691
X343.852Y-366.554
X345.44Y-402.114
X348.615Y-385.604
X350.202Y-321.151
X350.202Y-364.014
X353.377Y-347.504
X354.965Y-383.064
X358.14Y-404.654
X359.727Y-344.964
X362.907Y-366.554
X364.49Y-402.114
X367.665Y-323.691
X367.665Y-385.604
X369.257Y-364.014
X372.428Y-347.504
X374.015Y-321.151
X374.015Y-383.064
X374.809Y-423.704
X377.157Y-404.654
X378.777Y-344.964
X381.159Y-421.164
X381.952Y-366.554
X383.507Y-402.114
X386.715Y-323.691
X386.715Y-385.604
X388.303Y-364.014
X391.477Y-347.504
X393.065Y-321.151
X393.065Y-383.064
X396.24Y-404.654
X397.827Y-344.964
X398.621Y-423.704
X401.002Y-366.554
X402.59Y-402.114
X404.971Y-421.164
X405.765Y-323.691
X405.765Y-385.604
X407.352Y-364.014
X410.527Y-347.504
X412.115Y-321.151
X412.115Y-383.064
X416.877Y-344.964
X420.053Y-366.554
X422.434Y-423.704
X424.815Y-323.691
X424.815Y-385.604
X426.402Y-364.014
X428.784Y-421.164
X431.165Y-321.151
X431.165Y-383.064
X431.959Y-404.654
X438.309Y-402.114
X439.102Y-347.504
X445.452Y-344.964
X446.246Y-376.079
X446.246Y-423.704
X448.627Y-323.691
X452.596Y-373.539
X452.596Y-421.164
X454.977Y-321.151
X472.44Y-323.691
X472.44Y-347.504
X472.44Y-366.554
X472.44Y-423.704
X478.79Y-321.151
X478.79Y-344.964
X478.79Y-364.014
X478.79Y-421.164
X491.49Y-323.691
X491.49Y-347.504
X491.49Y-366.554
X491.49Y-404.654
X491.49Y-423.704
X497.84Y-321.151
X497.84Y-344.964
X497.84Y-364.014
X497.84Y-402.114
X497.84Y-421.164
X510.54Y-323.691
X510.54Y-347.504
X510.54Y-366.554
X510.54Y-423.704
X516.89Y-321.151
X516.89Y-344.964
X516.89Y-364.014
X516.89Y-421.164
T5
X257.181Y-434.469
X357.181Y-434.469
X423.831Y-415.419
X430.974Y-358.269
X447.707Y-415.419
X454.85Y-358.269
X458.281Y-366.681
X458.281Y-390.557
T6
X185.737Y-326.231
X185.737Y-350.044
X188.119Y-407.194
X188.119Y-426.244
X190.5Y-369.094
X192.881Y-388.144
X204.787Y-350.044
X209.55Y-326.231
X209.55Y-407.194
X211.931Y-426.244
X214.312Y-369.094
X219.075Y-388.144
X223.837Y-350.044
X228.6Y-326.231
X228.6Y-407.194
X233.362Y-369.094
X235.744Y-426.244
X238.125Y-388.144
X242.887Y-350.044
X247.65Y-326.231
X247.65Y-407.194
X252.412Y-369.094
X257.175Y-388.144
X261.938Y-350.044
X266.7Y-326.231
X266.7Y-407.194
X271.462Y-369.094
X276.225Y-388.144
X280.988Y-350.044
X285.75Y-407.194
X290.512Y-326.231
X290.512Y-369.094
X295.275Y-388.144
X300.037Y-350.044
X304.8Y-407.194
X307.181Y-426.244
X309.562Y-326.231
X309.562Y-369.094
X314.325Y-388.144
X319.087Y-350.044
X323.85Y-407.194
X328.613Y-326.231
X328.613Y-369.094
X333.375Y-388.144
X338.137Y-350.044
X342.9Y-407.194
X347.662Y-326.231
X347.662Y-369.094
X352.425Y-388.144
X357.188Y-350.044
X361.95Y-407.194
X366.717Y-369.094
X371.475Y-326.231
X371.475Y-388.144
X376.238Y-350.044
X378.619Y-426.244
X380.967Y-407.194
X385.762Y-369.094
X390.525Y-326.231
X390.525Y-388.144
X395.287Y-350.044
X400.05Y-407.194
X402.431Y-426.244
X404.812Y-369.094
X409.575Y-326.231
X409.575Y-388.144
X414.337Y-350.044
X423.862Y-369.094
X426.244Y-426.244
X428.625Y-326.231
X428.625Y-388.144
X435.769Y-407.194
X442.912Y-350.044
X450.056Y-378.619
X450.056Y-426.244
X452.438Y-326.231
X476.25Y-326.231
X476.25Y-350.044
X476.25Y-369.094
X476.25Y-426.244
X495.3Y-326.231
X495.3Y-350.044
X495.3Y-369.094
X495.3Y-407.194
X495.3Y-426.244
X514.35Y-326.231
X514.35Y-350.044
X514.35Y-369.094
X514.35Y-426.244
M30
