G04 #@! TF.GenerationSoftware,KiCad,Pcbnew,8.0.6*
G04 #@! TF.CreationDate,2024-12-17T01:06:02+01:00*
G04 #@! TF.ProjectId,wxKeyboard,77784b65-7962-46f6-9172-642e6b696361,rev?*
G04 #@! TF.SameCoordinates,Original*
G04 #@! TF.FileFunction,Copper,L1,Top*
G04 #@! TF.FilePolarity,Positive*
%FSLAX46Y46*%
G04 Gerber Fmt 4.6, Leading zero omitted, Abs format (unit mm)*
G04 Created by KiCad (PCBNEW 8.0.6) date 2024-12-17 01:06:02*
%MOMM*%
%LPD*%
G01*
G04 APERTURE LIST*
G04 #@! TA.AperFunction,ComponentPad*
%ADD10C,1.524000*%
G04 #@! TD*
G04 #@! TA.AperFunction,ViaPad*
%ADD11C,0.600000*%
G04 #@! TD*
G04 #@! TA.AperFunction,Conductor*
%ADD12C,0.200000*%
G04 #@! TD*
G04 APERTURE END LIST*
D10*
X359500000Y-321500000D03*
X359500000Y-324040000D03*
X359500000Y-326580000D03*
X359500000Y-329120000D03*
X519880000Y-396240000D03*
X517340000Y-396240000D03*
X514800000Y-396240000D03*
X512260000Y-396240000D03*
X509720000Y-396240000D03*
X507180000Y-396240000D03*
X504640000Y-396240000D03*
X502100000Y-396240000D03*
X499560000Y-396240000D03*
X497020000Y-396240000D03*
X494480000Y-396240000D03*
X491940000Y-396240000D03*
X489400000Y-396240000D03*
X486860000Y-396240000D03*
X484320000Y-396240000D03*
X481780000Y-396240000D03*
X479240000Y-396240000D03*
X476700000Y-396240000D03*
X474160000Y-396240000D03*
X471620000Y-396240000D03*
X519880000Y-381000000D03*
X517340000Y-381000000D03*
X514800000Y-381000000D03*
X512260000Y-381000000D03*
X509720000Y-381000000D03*
X507180000Y-381000000D03*
X504640000Y-381000000D03*
X502100000Y-381000000D03*
X499560000Y-381000000D03*
X497020000Y-381000000D03*
X494480000Y-381000000D03*
X491940000Y-381000000D03*
X489400000Y-381000000D03*
X486860000Y-381000000D03*
X484320000Y-381000000D03*
X481780000Y-381000000D03*
X479240000Y-381000000D03*
X476700000Y-381000000D03*
X474160000Y-381000000D03*
X471620000Y-381000000D03*
D11*
X194500000Y-338250000D03*
X466250000Y-338500000D03*
X465250000Y-338500000D03*
X213500000Y-338440000D03*
X233000000Y-338250000D03*
X464250000Y-338500000D03*
X252000000Y-339000000D03*
X463250000Y-338513952D03*
X462250000Y-338500000D03*
X270750000Y-339000000D03*
X290000000Y-339000000D03*
X461250000Y-338500002D03*
X460250000Y-338500000D03*
X309000000Y-339500000D03*
X328500000Y-339500000D03*
X459250002Y-338500000D03*
X458250000Y-338500000D03*
X349150000Y-339000000D03*
X368375000Y-339625000D03*
X457250000Y-338500000D03*
X456249998Y-338500000D03*
X385250000Y-339750000D03*
X406125000Y-339875000D03*
X455249998Y-338500000D03*
X474750000Y-357750000D03*
X451000000Y-357750000D03*
X507206250Y-364331250D03*
X507206250Y-421481250D03*
X469106250Y-421481250D03*
X395287500Y-421481250D03*
X488156250Y-402431250D03*
X469106250Y-364331250D03*
X300037500Y-421481250D03*
X228600000Y-421481250D03*
X204787500Y-421481250D03*
X419100000Y-421481250D03*
X442912500Y-421481250D03*
X488156250Y-421481250D03*
X488156250Y-364331250D03*
X180975000Y-421481250D03*
X371475000Y-421481250D03*
X297750000Y-402250000D03*
X335750000Y-402250000D03*
X316750000Y-402250000D03*
X488250000Y-321500000D03*
X202500000Y-402250000D03*
X278499998Y-402000000D03*
X373750000Y-402250000D03*
X469250000Y-321500000D03*
X428500000Y-402250000D03*
X392750000Y-402250000D03*
X259500000Y-402250000D03*
X181000000Y-402250000D03*
X221500000Y-402250000D03*
X240500000Y-402250000D03*
X354750000Y-402250000D03*
X402500000Y-383250000D03*
X345250000Y-383250000D03*
X307250000Y-383250000D03*
X212000000Y-383250000D03*
X326250000Y-383250000D03*
X288250000Y-383250000D03*
X364250000Y-383250000D03*
X421500000Y-383250000D03*
X443000000Y-373750000D03*
X269000000Y-383250000D03*
X250000000Y-383250000D03*
X231000000Y-383250000D03*
X383250000Y-383250000D03*
X185750000Y-383250000D03*
X183500000Y-364000000D03*
X488250000Y-344750000D03*
X469250000Y-344750000D03*
X245250000Y-364000000D03*
X359500000Y-363750000D03*
X283500000Y-363750000D03*
X264500000Y-363750000D03*
X207250000Y-363750000D03*
X340500000Y-363750000D03*
X302500000Y-363750000D03*
X378750000Y-363750000D03*
X397750000Y-363750000D03*
X321500000Y-363750000D03*
X416750000Y-363750000D03*
X226250000Y-363750000D03*
X197500000Y-345000000D03*
X235750000Y-345000000D03*
X293000000Y-345000000D03*
X388250000Y-345000000D03*
X331000000Y-345000000D03*
X274000000Y-345000000D03*
X369250000Y-345000000D03*
X312000000Y-345000000D03*
X350250000Y-345000000D03*
X407250000Y-345000000D03*
X178500000Y-345000000D03*
X216750000Y-345000000D03*
X254750000Y-345000000D03*
X507250000Y-345000000D03*
X435750000Y-345000000D03*
X178500000Y-321000000D03*
X383500000Y-321000000D03*
X340750000Y-321000000D03*
X421500000Y-321000000D03*
X402500000Y-321000000D03*
X283500000Y-321250000D03*
X259750000Y-321250000D03*
X507250000Y-321250000D03*
X321500000Y-321000000D03*
X364500000Y-321000000D03*
X221500000Y-321000000D03*
X445500000Y-320750000D03*
X240750000Y-321000000D03*
X302500000Y-321000000D03*
X202500000Y-321000000D03*
X354700000Y-316600000D03*
X362200000Y-316600000D03*
X360900000Y-316600000D03*
X356200000Y-316600000D03*
D12*
X194500000Y-338250000D02*
X199750000Y-333000000D01*
X199750000Y-333000000D02*
X460750000Y-333000000D01*
X460750000Y-333000000D02*
X466250000Y-338500000D01*
X460150000Y-333400000D02*
X465250000Y-338500000D01*
X213810000Y-338440000D02*
X218850000Y-333400000D01*
X213500000Y-338440000D02*
X213810000Y-338440000D01*
X218850000Y-333400000D02*
X460150000Y-333400000D01*
X237450000Y-333800000D02*
X459550000Y-333800000D01*
X233000000Y-338250000D02*
X237450000Y-333800000D01*
X459550000Y-333800000D02*
X464250000Y-338500000D01*
X458936048Y-334200000D02*
X463250000Y-338513952D01*
X256800000Y-334200000D02*
X458936048Y-334200000D01*
X252000000Y-339000000D02*
X256800000Y-334200000D01*
X458350000Y-334600000D02*
X462250000Y-338500000D01*
X270750000Y-339000000D02*
X275150000Y-334600000D01*
X275150000Y-334600000D02*
X458350000Y-334600000D01*
X294000000Y-335000000D02*
X457749998Y-335000000D01*
X457749998Y-335000000D02*
X461250000Y-338500002D01*
X290000000Y-339000000D02*
X294000000Y-335000000D01*
X457150000Y-335400000D02*
X460250000Y-338500000D01*
X309000000Y-339500000D02*
X313100000Y-335400000D01*
X313100000Y-335400000D02*
X457150000Y-335400000D01*
X332200000Y-335800000D02*
X456550002Y-335800000D01*
X456550002Y-335800000D02*
X459250002Y-338500000D01*
X328500000Y-339500000D02*
X332200000Y-335800000D01*
X455950000Y-336200000D02*
X458250000Y-338500000D01*
X349150000Y-339000000D02*
X351950000Y-336200000D01*
X351950000Y-336200000D02*
X455950000Y-336200000D01*
X371400000Y-336600000D02*
X455350000Y-336600000D01*
X368375000Y-339625000D02*
X371400000Y-336600000D01*
X455350000Y-336600000D02*
X457250000Y-338500000D01*
X385250000Y-339750000D02*
X388000000Y-337000000D01*
X456249998Y-338499998D02*
X456249998Y-338500000D01*
X454749998Y-337000000D02*
X456249998Y-338500000D01*
X388000000Y-337000000D02*
X454749998Y-337000000D01*
X406125000Y-339875000D02*
X408600000Y-337400000D01*
X454149998Y-337400000D02*
X455249998Y-338500000D01*
X408600000Y-337400000D02*
X454149998Y-337400000D01*
X455249998Y-338499998D02*
X455249998Y-338500000D01*
X471500000Y-354500000D02*
X474750000Y-357750000D01*
X454250000Y-354500000D02*
X471500000Y-354500000D01*
X451000000Y-357750000D02*
X454250000Y-354500000D01*
X468318750Y-364331250D02*
X469106250Y-364331250D01*
X451500000Y-418500000D02*
X452500000Y-417500000D01*
X181018750Y-421481250D02*
X185000000Y-417500000D01*
X488156250Y-421481250D02*
X488268750Y-421481250D01*
X471700000Y-384200000D02*
X467400000Y-379900000D01*
X417800000Y-417500000D02*
X419100000Y-418800000D01*
X300037500Y-421481250D02*
X300037500Y-421462500D01*
X503225000Y-417500000D02*
X507206250Y-421481250D01*
X208750000Y-417500000D02*
X232750000Y-417500000D01*
X473000000Y-417587500D02*
X473000000Y-417500000D01*
X471415686Y-361150000D02*
X510350000Y-361150000D01*
X467400000Y-379900000D02*
X467400000Y-365250000D01*
X446000000Y-418500000D02*
X451500000Y-418500000D01*
X232750000Y-417500000D02*
X234500000Y-415750000D01*
X232581250Y-417500000D02*
X232750000Y-417500000D01*
X305750000Y-415750000D02*
X371250000Y-415750000D01*
X234500000Y-415750000D02*
X306250000Y-415750000D01*
X487068750Y-402431250D02*
X488156250Y-402431250D01*
X399250000Y-417500000D02*
X417800000Y-417500000D01*
X479500000Y-417500000D02*
X485750000Y-411250000D01*
X483660000Y-384200000D02*
X471700000Y-384200000D01*
X180975000Y-421481250D02*
X181018750Y-421481250D01*
X371250000Y-415750000D02*
X373000000Y-417500000D01*
X185000000Y-417500000D02*
X208750000Y-417500000D01*
X479500000Y-417500000D02*
X492250000Y-417500000D01*
X492250000Y-417500000D02*
X503225000Y-417500000D01*
X507206250Y-364293750D02*
X510250000Y-361250000D01*
X507206250Y-364331250D02*
X507206250Y-364293750D01*
X208750000Y-417518750D02*
X208750000Y-417500000D01*
X488156250Y-364331250D02*
X491237500Y-361250000D01*
X300037500Y-421462500D02*
X304000000Y-417500000D01*
X510250000Y-361250000D02*
X510350000Y-361150000D01*
X304000000Y-417500000D02*
X305750000Y-415750000D01*
X473000000Y-417500000D02*
X479500000Y-417500000D01*
X443018750Y-421481250D02*
X446000000Y-418500000D01*
X204787500Y-421481250D02*
X208750000Y-417518750D01*
X419100000Y-421481250D02*
X419100000Y-418800000D01*
X467400000Y-365250000D02*
X468318750Y-364331250D01*
X395287500Y-421462500D02*
X399250000Y-417500000D01*
X373000000Y-417500000D02*
X375500000Y-417500000D01*
X485750000Y-411250000D02*
X485750000Y-403750000D01*
X375456250Y-417500000D02*
X375500000Y-417500000D01*
X442912500Y-421481250D02*
X443018750Y-421481250D01*
X371475000Y-421481250D02*
X375456250Y-417500000D01*
X469106250Y-363459436D02*
X471415686Y-361150000D01*
X228600000Y-421481250D02*
X232581250Y-417500000D01*
X395287500Y-421481250D02*
X395287500Y-421462500D01*
X469106250Y-421481250D02*
X473000000Y-417587500D01*
X469106250Y-364331250D02*
X469106250Y-363459436D01*
X452500000Y-417500000D02*
X473000000Y-417500000D01*
X488268750Y-421481250D02*
X492250000Y-417500000D01*
X486860000Y-381000000D02*
X483660000Y-384200000D01*
X375500000Y-417500000D02*
X399250000Y-417500000D01*
X485750000Y-403750000D02*
X487068750Y-402431250D01*
X418800000Y-418500000D02*
X446000000Y-418500000D01*
X354750000Y-402250000D02*
X359500000Y-397500000D01*
X278499998Y-402000000D02*
X278500000Y-402000000D01*
X520700000Y-384400000D02*
X502960000Y-384400000D01*
X207250000Y-397500000D02*
X207750000Y-397500000D01*
X207750000Y-397500000D02*
X226500000Y-397500000D01*
X471873750Y-318876250D02*
X490873750Y-318876250D01*
X490873750Y-318876250D02*
X521691936Y-318876250D01*
X321500000Y-397500000D02*
X322500000Y-397500000D01*
X245250000Y-397500000D02*
X246000000Y-397500000D01*
X316750000Y-402250000D02*
X321500000Y-397500000D01*
X278500000Y-402000000D02*
X283000000Y-397500000D01*
X226250000Y-397500000D02*
X226500000Y-397500000D01*
X240500000Y-402250000D02*
X245250000Y-397500000D01*
X303000000Y-397500000D02*
X322500000Y-397500000D01*
X488250000Y-321500000D02*
X490750000Y-319000000D01*
X341000000Y-397500000D02*
X359500000Y-397500000D01*
X283000000Y-397500000D02*
X303000000Y-397500000D01*
X502960000Y-384400000D02*
X499560000Y-381000000D01*
X226500000Y-397500000D02*
X246000000Y-397500000D01*
X181000000Y-402250000D02*
X185750000Y-397500000D01*
X397750000Y-397500000D02*
X433250000Y-397500000D01*
X322500000Y-397500000D02*
X341000000Y-397500000D01*
X378500000Y-397500000D02*
X397750000Y-397500000D01*
X428500000Y-402250000D02*
X433250000Y-397500000D01*
X392750000Y-402250000D02*
X397500000Y-397500000D01*
X494360000Y-386200000D02*
X499560000Y-381000000D01*
X523350000Y-381750000D02*
X520700000Y-384400000D01*
X340500000Y-397500000D02*
X341000000Y-397500000D01*
X302500000Y-397500000D02*
X303000000Y-397500000D01*
X185750000Y-397500000D02*
X207750000Y-397500000D01*
X202500000Y-402250000D02*
X207250000Y-397500000D01*
X246000000Y-397500000D02*
X264500000Y-397500000D01*
X433250000Y-397500000D02*
X459800000Y-397500000D01*
X523350000Y-320534314D02*
X523350000Y-381750000D01*
X264500000Y-397500000D02*
X283000000Y-397500000D01*
X471100000Y-386200000D02*
X494360000Y-386200000D01*
X373750000Y-402250000D02*
X378500000Y-397500000D01*
X335750000Y-402250000D02*
X340500000Y-397500000D01*
X459800000Y-397500000D02*
X470100000Y-387200000D01*
X264250000Y-397500000D02*
X264500000Y-397500000D01*
X297750000Y-402250000D02*
X302500000Y-397500000D01*
X521691936Y-318876250D02*
X523350000Y-320534314D01*
X359500000Y-397500000D02*
X378500000Y-397500000D01*
X259500000Y-402250000D02*
X264250000Y-397500000D01*
X470100000Y-387200000D02*
X471100000Y-386200000D01*
X490750000Y-319000000D02*
X490873750Y-318876250D01*
X397500000Y-397500000D02*
X397750000Y-397500000D01*
X221500000Y-402250000D02*
X226250000Y-397500000D01*
X469250000Y-321500000D02*
X471873750Y-318876250D01*
X471037256Y-385800000D02*
X492220000Y-385800000D01*
X330000000Y-379750000D02*
X348750000Y-379750000D01*
X272750000Y-379750000D02*
X291750000Y-379750000D01*
X425000000Y-379750000D02*
X421500000Y-383250000D01*
X250000000Y-383250000D02*
X253500000Y-379750000D01*
X431000000Y-373750000D02*
X433500000Y-373750000D01*
X402500000Y-383250000D02*
X406000000Y-379750000D01*
X310750000Y-379750000D02*
X311000000Y-379750000D01*
X269000000Y-383250000D02*
X272500000Y-379750000D01*
X307250000Y-383250000D02*
X310750000Y-379750000D01*
X288250000Y-383250000D02*
X291750000Y-379750000D01*
X348750000Y-379750000D02*
X367750000Y-379750000D01*
X291750000Y-379750000D02*
X311000000Y-379750000D01*
X231000000Y-383250000D02*
X234500000Y-379750000D01*
X383250000Y-383250000D02*
X386750000Y-379750000D01*
X406750000Y-379750000D02*
X425000000Y-379750000D01*
X215500000Y-379750000D02*
X234500000Y-379750000D01*
X311000000Y-379750000D02*
X330000000Y-379750000D01*
X345250000Y-383250000D02*
X348750000Y-379750000D01*
X326250000Y-383250000D02*
X329750000Y-379750000D01*
X455937256Y-370700000D02*
X471037256Y-385800000D01*
X446000000Y-370700000D02*
X455937256Y-370700000D01*
X387000000Y-379750000D02*
X406750000Y-379750000D01*
X234500000Y-379750000D02*
X253500000Y-379750000D01*
X443000000Y-373750000D02*
X443000000Y-373700000D01*
X189250000Y-379750000D02*
X215500000Y-379750000D01*
X185750000Y-383250000D02*
X189250000Y-379750000D01*
X364250000Y-383250000D02*
X367750000Y-379750000D01*
X443000000Y-373700000D02*
X446000000Y-370700000D01*
X492220000Y-385800000D02*
X497020000Y-381000000D01*
X212000000Y-383250000D02*
X215500000Y-379750000D01*
X386750000Y-379750000D02*
X387000000Y-379750000D01*
X329750000Y-379750000D02*
X330000000Y-379750000D01*
X406000000Y-379750000D02*
X406750000Y-379750000D01*
X253500000Y-379750000D02*
X272750000Y-379750000D01*
X272500000Y-379750000D02*
X272750000Y-379750000D01*
X367750000Y-379750000D02*
X387000000Y-379750000D01*
X433500000Y-373750000D02*
X443000000Y-373750000D01*
X425000000Y-379750000D02*
X431000000Y-373750000D01*
X446250000Y-361250000D02*
X449250000Y-358250000D01*
X183500000Y-364000000D02*
X186250000Y-361250000D01*
X473250000Y-341500000D02*
X491500000Y-341500000D01*
X416750000Y-363750000D02*
X419250000Y-361250000D01*
X449250000Y-358250000D02*
X450651471Y-358250000D01*
X454401471Y-362000000D02*
X458250000Y-362000000D01*
X207250000Y-363750000D02*
X209750000Y-361250000D01*
X466200000Y-369950000D02*
X466200000Y-380397058D01*
X248250000Y-361250000D02*
X228750000Y-361250000D01*
X283500000Y-363750000D02*
X286000000Y-361250000D01*
X450651471Y-358250000D02*
X454401471Y-362000000D01*
X248000000Y-361250000D02*
X248250000Y-361250000D01*
X491500000Y-341500000D02*
X488250000Y-344750000D01*
X458250000Y-362000000D02*
X466200000Y-369950000D01*
X228750000Y-361250000D02*
X209750000Y-361250000D01*
X419250000Y-361250000D02*
X421250000Y-361250000D01*
X305000000Y-361250000D02*
X286000000Y-361250000D01*
X469250000Y-344750000D02*
X472500000Y-341500000D01*
X397750000Y-363750000D02*
X400250000Y-361250000D01*
X340500000Y-363750000D02*
X343000000Y-361250000D01*
X378750000Y-363750000D02*
X381250000Y-361250000D01*
X490080000Y-385400000D02*
X494480000Y-381000000D01*
X400250000Y-361250000D02*
X381250000Y-361250000D01*
X209750000Y-361250000D02*
X186250000Y-361250000D01*
X381250000Y-361250000D02*
X362000000Y-361250000D01*
X362000000Y-361250000D02*
X343000000Y-361250000D01*
X471202942Y-385400000D02*
X490080000Y-385400000D01*
X466000000Y-341500000D02*
X472500000Y-341500000D01*
X419250000Y-361250000D02*
X400250000Y-361250000D01*
X286000000Y-361250000D02*
X267000000Y-361250000D01*
X267000000Y-361250000D02*
X248250000Y-361250000D01*
X472500000Y-341500000D02*
X473250000Y-341500000D01*
X321500000Y-363750000D02*
X324000000Y-361250000D01*
X302500000Y-363750000D02*
X305000000Y-361250000D01*
X324000000Y-361250000D02*
X305000000Y-361250000D01*
X466200000Y-380397058D02*
X471202942Y-385400000D01*
X421250000Y-361250000D02*
X446250000Y-361250000D01*
X264500000Y-363750000D02*
X267000000Y-361250000D01*
X359500000Y-363750000D02*
X362000000Y-361250000D01*
X245250000Y-364000000D02*
X248000000Y-361250000D01*
X226250000Y-363750000D02*
X228750000Y-361250000D01*
X343000000Y-361250000D02*
X324000000Y-361250000D01*
X449250000Y-358250000D02*
X466000000Y-341500000D01*
X507250000Y-345000000D02*
X491900000Y-360350000D01*
X372500000Y-341750000D02*
X373000000Y-341750000D01*
X466600000Y-364834314D02*
X466600000Y-380231372D01*
X353500000Y-341750000D02*
X353750000Y-341750000D01*
X410500000Y-341750000D02*
X411500000Y-340750000D01*
X388250000Y-345000000D02*
X391500000Y-341750000D01*
X274000000Y-345000000D02*
X277250000Y-341750000D01*
X315250000Y-341750000D02*
X315500000Y-341750000D01*
X391500000Y-341750000D02*
X392500000Y-341750000D01*
X331000000Y-345000000D02*
X334250000Y-341750000D01*
X181750000Y-341750000D02*
X201000000Y-341750000D01*
X258500000Y-341750000D02*
X277250000Y-341750000D01*
X435750000Y-345000000D02*
X439000000Y-341750000D01*
X277250000Y-341750000D02*
X296250000Y-341750000D01*
X353750000Y-341750000D02*
X373000000Y-341750000D01*
X392500000Y-341750000D02*
X410500000Y-341750000D01*
X471368628Y-385000000D02*
X487940000Y-385000000D01*
X296250000Y-341750000D02*
X315500000Y-341750000D01*
X235750000Y-345000000D02*
X239000000Y-341750000D01*
X293000000Y-345000000D02*
X296250000Y-341750000D01*
X315500000Y-341750000D02*
X335000000Y-341750000D01*
X216750000Y-345000000D02*
X220000000Y-341750000D01*
X350250000Y-345000000D02*
X353500000Y-341750000D01*
X254750000Y-345000000D02*
X258000000Y-341750000D01*
X334250000Y-341750000D02*
X335000000Y-341750000D01*
X411500000Y-340750000D02*
X440000000Y-340750000D01*
X197500000Y-345000000D02*
X200750000Y-341750000D01*
X369250000Y-345000000D02*
X372500000Y-341750000D01*
X373000000Y-341750000D02*
X392500000Y-341750000D01*
X491900000Y-360350000D02*
X471084314Y-360350000D01*
X312000000Y-345000000D02*
X315250000Y-341750000D01*
X439000000Y-341750000D02*
X440000000Y-340750000D01*
X466600000Y-380231372D02*
X471368628Y-385000000D01*
X471084314Y-360350000D02*
X466600000Y-364834314D01*
X407250000Y-345000000D02*
X410500000Y-341750000D01*
X258000000Y-341750000D02*
X258500000Y-341750000D01*
X239000000Y-341750000D02*
X239250000Y-341750000D01*
X440000000Y-340750000D02*
X503000000Y-340750000D01*
X200750000Y-341750000D02*
X201000000Y-341750000D01*
X487940000Y-385000000D02*
X491940000Y-381000000D01*
X335000000Y-341750000D02*
X353750000Y-341750000D01*
X220000000Y-341750000D02*
X239250000Y-341750000D01*
X178500000Y-345000000D02*
X181750000Y-341750000D01*
X201000000Y-341750000D02*
X220000000Y-341750000D01*
X503000000Y-340750000D02*
X507250000Y-345000000D01*
X239250000Y-341750000D02*
X258500000Y-341750000D01*
X423623750Y-318876250D02*
X423500000Y-319000000D01*
X243250000Y-318876250D02*
X224750000Y-318876250D01*
X340750000Y-321000000D02*
X342873750Y-318876250D01*
X471534314Y-384600000D02*
X485800000Y-384600000D01*
X286250000Y-318876250D02*
X262000000Y-318876250D01*
X385623750Y-318876250D02*
X386250000Y-318876250D01*
X509223750Y-319276250D02*
X521526250Y-319276250D01*
X507093662Y-321250000D02*
X507250000Y-321250000D01*
X521526250Y-319276250D02*
X522950000Y-320700000D01*
X467000000Y-365000000D02*
X467000000Y-380065686D01*
X386250000Y-318876250D02*
X366500000Y-318876250D01*
X366500000Y-318876250D02*
X343000000Y-318876250D01*
X507250000Y-321250000D02*
X509223750Y-319276250D01*
X522950000Y-358800000D02*
X521000000Y-360750000D01*
X404623750Y-318876250D02*
X404750000Y-318876250D01*
X447373750Y-318876250D02*
X459376250Y-318876250D01*
X522950000Y-320700000D02*
X522950000Y-358800000D01*
X423623750Y-318876250D02*
X404750000Y-318876250D01*
X404750000Y-318876250D02*
X386250000Y-318876250D01*
X180623750Y-318876250D02*
X178500000Y-321000000D01*
X467000000Y-380065686D02*
X471534314Y-384600000D01*
X383500000Y-321000000D02*
X385623750Y-318876250D01*
X471250000Y-360750000D02*
X467000000Y-365000000D01*
X423500000Y-319000000D02*
X421500000Y-321000000D01*
X324000000Y-318876250D02*
X304750000Y-318876250D01*
X302500000Y-321000000D02*
X304623750Y-318876250D01*
X259750000Y-321126250D02*
X262000000Y-318876250D01*
X221500000Y-321000000D02*
X223623750Y-318876250D01*
X447250000Y-319000000D02*
X447373750Y-318876250D01*
X469750000Y-329250000D02*
X499093662Y-329250000D01*
X402500000Y-321000000D02*
X404623750Y-318876250D01*
X202500000Y-321000000D02*
X204623750Y-318876250D01*
X204623750Y-318876250D02*
X204750000Y-318876250D01*
X499093662Y-329250000D02*
X507093662Y-321250000D01*
X485800000Y-384600000D02*
X489400000Y-381000000D01*
X242873750Y-318876250D02*
X243250000Y-318876250D01*
X283500000Y-321250000D02*
X285873750Y-318876250D01*
X285873750Y-318876250D02*
X286250000Y-318876250D01*
X304623750Y-318876250D02*
X304750000Y-318876250D01*
X204750000Y-318876250D02*
X180623750Y-318876250D01*
X262000000Y-318876250D02*
X243250000Y-318876250D01*
X321500000Y-321000000D02*
X323623750Y-318876250D01*
X224750000Y-318876250D02*
X204750000Y-318876250D01*
X521000000Y-360750000D02*
X471250000Y-360750000D01*
X259750000Y-321250000D02*
X259750000Y-321126250D01*
X459376250Y-318876250D02*
X469750000Y-329250000D01*
X445500000Y-320750000D02*
X447250000Y-319000000D01*
X342873750Y-318876250D02*
X343000000Y-318876250D01*
X223623750Y-318876250D02*
X224750000Y-318876250D01*
X323623750Y-318876250D02*
X324000000Y-318876250D01*
X364500000Y-320876250D02*
X366500000Y-318876250D01*
X304750000Y-318876250D02*
X286250000Y-318876250D01*
X240750000Y-321000000D02*
X242873750Y-318876250D01*
X447500000Y-318876250D02*
X423623750Y-318876250D01*
X343000000Y-318876250D02*
X324000000Y-318876250D01*
X364500000Y-321000000D02*
X364500000Y-320876250D01*
X474160000Y-396240000D02*
X479200000Y-391200000D01*
X356576250Y-318476250D02*
X354700000Y-316600000D01*
X521857622Y-318476250D02*
X356576250Y-318476250D01*
X523750000Y-320368628D02*
X521857622Y-318476250D01*
X518400000Y-391200000D02*
X523750000Y-385850000D01*
X479200000Y-391200000D02*
X518400000Y-391200000D01*
X523750000Y-385850000D02*
X523750000Y-320368628D01*
X522354680Y-317276250D02*
X524950000Y-319871570D01*
X362200000Y-316600000D02*
X362876250Y-317276250D01*
X524950000Y-319871570D02*
X524950000Y-386347058D01*
X505940000Y-392400000D02*
X502100000Y-396240000D01*
X362876250Y-317276250D02*
X522354680Y-317276250D01*
X518897058Y-392400000D02*
X505940000Y-392400000D01*
X524950000Y-386347058D02*
X518897058Y-392400000D01*
X524550000Y-320037256D02*
X524550000Y-386181372D01*
X503800000Y-392000000D02*
X499560000Y-396240000D01*
X360900000Y-316600000D02*
X361976250Y-317676250D01*
X522188994Y-317676250D02*
X524550000Y-320037256D01*
X524550000Y-386181372D02*
X518731372Y-392000000D01*
X518731372Y-392000000D02*
X503800000Y-392000000D01*
X361976250Y-317676250D02*
X522188994Y-317676250D01*
X524150000Y-386015686D02*
X524150000Y-320202942D01*
X476700000Y-396240000D02*
X481340000Y-391600000D01*
X481340000Y-391600000D02*
X518565686Y-391600000D01*
X518565686Y-391600000D02*
X524150000Y-386015686D01*
X522023308Y-318076250D02*
X357676250Y-318076250D01*
X357676250Y-318076250D02*
X356200000Y-316600000D01*
X524150000Y-320202942D02*
X522023308Y-318076250D01*
M02*
