%TF.GenerationSoftware,KiCad,Pcbnew,8.0.6*%
%TF.CreationDate,2024-12-17T01:07:59+01:00*%
%TF.ProjectId,wxKeyboard,77784b65-7962-46f6-9172-642e6b696361,rev?*%
%TF.SameCoordinates,Original*%
%TF.FileFunction,Drillmap*%
%TF.FilePolarity,Positive*%
%FSLAX45Y45*%
G04 Gerber Fmt 4.5, Leading zero omitted, Abs format (unit mm)*
G04 Created by KiCad (PCBNEW 8.0.6) date 2024-12-17 01:07:59*
%MOMM*%
%LPD*%
G01*
G04 APERTURE LIST*
%ADD10C,0.050000*%
%ADD11C,0.200000*%
%ADD12C,0.100000*%
G04 APERTURE END LIST*
D10*
X17300000Y-31350000D02*
X52710000Y-31350000D01*
X52710000Y-43900000D01*
X17300000Y-43900000D01*
X17300000Y-31350000D01*
D11*
D12*
X17835000Y-32085000D02*
X17865000Y-32115000D01*
X17865000Y-32085000D02*
X17835000Y-32115000D01*
X17835000Y-34485000D02*
X17865000Y-34515000D01*
X17865000Y-34485000D02*
X17835000Y-34515000D01*
X18082500Y-42133125D02*
X18112500Y-42163125D01*
X18112500Y-42133125D02*
X18082500Y-42163125D01*
X18085000Y-40210000D02*
X18115000Y-40240000D01*
X18115000Y-40210000D02*
X18085000Y-40240000D01*
X18335000Y-36385000D02*
X18365000Y-36415000D01*
X18365000Y-36385000D02*
X18335000Y-36415000D01*
X18560000Y-38310000D02*
X18590000Y-38340000D01*
X18590000Y-38310000D02*
X18560000Y-38340000D01*
X19435000Y-33810000D02*
X19465000Y-33840000D01*
X19465000Y-33810000D02*
X19435000Y-33840000D01*
X19735000Y-34485000D02*
X19765000Y-34515000D01*
X19765000Y-34485000D02*
X19735000Y-34515000D01*
X20235000Y-32085000D02*
X20265000Y-32115000D01*
X20265000Y-32085000D02*
X20235000Y-32115000D01*
X20235000Y-40210000D02*
X20265000Y-40240000D01*
X20265000Y-40210000D02*
X20235000Y-40240000D01*
X20463750Y-42133125D02*
X20493750Y-42163125D01*
X20493750Y-42133125D02*
X20463750Y-42163125D01*
X20710000Y-36360000D02*
X20740000Y-36390000D01*
X20740000Y-36360000D02*
X20710000Y-36390000D01*
X21185000Y-38310000D02*
X21215000Y-38340000D01*
X21215000Y-38310000D02*
X21185000Y-38340000D01*
X21335000Y-33829000D02*
X21365000Y-33859000D01*
X21365000Y-33829000D02*
X21335000Y-33859000D01*
X21660000Y-34485000D02*
X21690000Y-34515000D01*
X21690000Y-34485000D02*
X21660000Y-34515000D01*
X22135000Y-32085000D02*
X22165000Y-32115000D01*
X22165000Y-32085000D02*
X22135000Y-32115000D01*
X22135000Y-40210000D02*
X22165000Y-40240000D01*
X22165000Y-40210000D02*
X22135000Y-40240000D01*
X22610000Y-36360000D02*
X22640000Y-36390000D01*
X22640000Y-36360000D02*
X22610000Y-36390000D01*
X22845000Y-42133125D02*
X22875000Y-42163125D01*
X22875000Y-42133125D02*
X22845000Y-42163125D01*
X23085000Y-38310000D02*
X23115000Y-38340000D01*
X23115000Y-38310000D02*
X23085000Y-38340000D01*
X23285000Y-33810000D02*
X23315000Y-33840000D01*
X23315000Y-33810000D02*
X23285000Y-33840000D01*
X23560000Y-34485000D02*
X23590000Y-34515000D01*
X23590000Y-34485000D02*
X23560000Y-34515000D01*
X24035000Y-40210000D02*
X24065000Y-40240000D01*
X24065000Y-40210000D02*
X24035000Y-40240000D01*
X24060000Y-32085000D02*
X24090000Y-32115000D01*
X24090000Y-32085000D02*
X24060000Y-32115000D01*
X24510000Y-36385000D02*
X24540000Y-36415000D01*
X24540000Y-36385000D02*
X24510000Y-36415000D01*
X24985000Y-38310000D02*
X25015000Y-38340000D01*
X25015000Y-38310000D02*
X24985000Y-38340000D01*
X25185000Y-33885000D02*
X25215000Y-33915000D01*
X25215000Y-33885000D02*
X25185000Y-33915000D01*
X25460000Y-34485000D02*
X25490000Y-34515000D01*
X25490000Y-34485000D02*
X25460000Y-34515000D01*
X25935000Y-40210000D02*
X25965000Y-40240000D01*
X25965000Y-40210000D02*
X25935000Y-40240000D01*
X25960000Y-32110000D02*
X25990000Y-32140000D01*
X25990000Y-32110000D02*
X25960000Y-32140000D01*
X26435000Y-36360000D02*
X26465000Y-36390000D01*
X26465000Y-36360000D02*
X26435000Y-36390000D01*
X26885000Y-38310000D02*
X26915000Y-38340000D01*
X26915000Y-38310000D02*
X26885000Y-38340000D01*
X27060000Y-33885000D02*
X27090000Y-33915000D01*
X27090000Y-33885000D02*
X27060000Y-33915000D01*
X27385000Y-34485000D02*
X27415000Y-34515000D01*
X27415000Y-34485000D02*
X27385000Y-34515000D01*
X27835000Y-40185000D02*
X27865000Y-40215000D01*
X27865000Y-40185000D02*
X27835000Y-40215000D01*
X28335000Y-32110000D02*
X28365000Y-32140000D01*
X28365000Y-32110000D02*
X28335000Y-32140000D01*
X28335000Y-36360000D02*
X28365000Y-36390000D01*
X28365000Y-36360000D02*
X28335000Y-36390000D01*
X28810000Y-38310000D02*
X28840000Y-38340000D01*
X28840000Y-38310000D02*
X28810000Y-38340000D01*
X28985000Y-33885000D02*
X29015000Y-33915000D01*
X29015000Y-33885000D02*
X28985000Y-33915000D01*
X29285000Y-34485000D02*
X29315000Y-34515000D01*
X29315000Y-34485000D02*
X29285000Y-34515000D01*
X29760000Y-40210000D02*
X29790000Y-40240000D01*
X29790000Y-40210000D02*
X29760000Y-40240000D01*
X29988750Y-42133125D02*
X30018750Y-42163125D01*
X30018750Y-42133125D02*
X29988750Y-42163125D01*
X30235000Y-32085000D02*
X30265000Y-32115000D01*
X30265000Y-32085000D02*
X30235000Y-32115000D01*
X30235000Y-36360000D02*
X30265000Y-36390000D01*
X30265000Y-36360000D02*
X30235000Y-36390000D01*
X30710000Y-38310000D02*
X30740000Y-38340000D01*
X30740000Y-38310000D02*
X30710000Y-38340000D01*
X30885000Y-33935000D02*
X30915000Y-33965000D01*
X30915000Y-33935000D02*
X30885000Y-33965000D01*
X31185000Y-34485000D02*
X31215000Y-34515000D01*
X31215000Y-34485000D02*
X31185000Y-34515000D01*
X31660000Y-40210000D02*
X31690000Y-40240000D01*
X31690000Y-40210000D02*
X31660000Y-40240000D01*
X32135000Y-32085000D02*
X32165000Y-32115000D01*
X32165000Y-32085000D02*
X32135000Y-32115000D01*
X32135000Y-36360000D02*
X32165000Y-36390000D01*
X32165000Y-36360000D02*
X32135000Y-36390000D01*
X32610000Y-38310000D02*
X32640000Y-38340000D01*
X32640000Y-38310000D02*
X32610000Y-38340000D01*
X32835000Y-33935000D02*
X32865000Y-33965000D01*
X32865000Y-33935000D02*
X32835000Y-33965000D01*
X33085000Y-34485000D02*
X33115000Y-34515000D01*
X33115000Y-34485000D02*
X33085000Y-34515000D01*
X33560000Y-40210000D02*
X33590000Y-40240000D01*
X33590000Y-40210000D02*
X33560000Y-40240000D01*
X34035000Y-36360000D02*
X34065000Y-36390000D01*
X34065000Y-36360000D02*
X34035000Y-36390000D01*
X34060000Y-32085000D02*
X34090000Y-32115000D01*
X34090000Y-32085000D02*
X34060000Y-32115000D01*
X34510000Y-38310000D02*
X34540000Y-38340000D01*
X34540000Y-38310000D02*
X34510000Y-38340000D01*
X34900000Y-33885000D02*
X34930000Y-33915000D01*
X34930000Y-33885000D02*
X34900000Y-33915000D01*
X35010000Y-34485000D02*
X35040000Y-34515000D01*
X35040000Y-34485000D02*
X35010000Y-34515000D01*
X35455000Y-31645000D02*
X35485000Y-31675000D01*
X35485000Y-31645000D02*
X35455000Y-31675000D01*
X35460000Y-40210000D02*
X35490000Y-40240000D01*
X35490000Y-40210000D02*
X35460000Y-40240000D01*
X35605000Y-31645000D02*
X35635000Y-31675000D01*
X35635000Y-31645000D02*
X35605000Y-31675000D01*
X35935000Y-36360000D02*
X35965000Y-36390000D01*
X35965000Y-36360000D02*
X35935000Y-36390000D01*
X36075000Y-31645000D02*
X36105000Y-31675000D01*
X36105000Y-31645000D02*
X36075000Y-31675000D01*
X36205000Y-31645000D02*
X36235000Y-31675000D01*
X36235000Y-31645000D02*
X36205000Y-31675000D01*
X36410000Y-38310000D02*
X36440000Y-38340000D01*
X36440000Y-38310000D02*
X36410000Y-38340000D01*
X36435000Y-32085000D02*
X36465000Y-32115000D01*
X36465000Y-32085000D02*
X36435000Y-32115000D01*
X36822500Y-33947500D02*
X36852500Y-33977500D01*
X36852500Y-33947500D02*
X36822500Y-33977500D01*
X36910000Y-34485000D02*
X36940000Y-34515000D01*
X36940000Y-34485000D02*
X36910000Y-34515000D01*
X37132500Y-42133125D02*
X37162500Y-42163125D01*
X37162500Y-42133125D02*
X37132500Y-42163125D01*
X37360000Y-40210000D02*
X37390000Y-40240000D01*
X37390000Y-40210000D02*
X37360000Y-40240000D01*
X37860000Y-36360000D02*
X37890000Y-36390000D01*
X37890000Y-36360000D02*
X37860000Y-36390000D01*
X38310000Y-38310000D02*
X38340000Y-38340000D01*
X38340000Y-38310000D02*
X38310000Y-38340000D01*
X38335000Y-32085000D02*
X38365000Y-32115000D01*
X38365000Y-32085000D02*
X38335000Y-32115000D01*
X38510000Y-33960000D02*
X38540000Y-33990000D01*
X38540000Y-33960000D02*
X38510000Y-33990000D01*
X38810000Y-34485000D02*
X38840000Y-34515000D01*
X38840000Y-34485000D02*
X38810000Y-34515000D01*
X39260000Y-40210000D02*
X39290000Y-40240000D01*
X39290000Y-40210000D02*
X39260000Y-40240000D01*
X39513750Y-42133125D02*
X39543750Y-42163125D01*
X39543750Y-42133125D02*
X39513750Y-42163125D01*
X39760000Y-36360000D02*
X39790000Y-36390000D01*
X39790000Y-36360000D02*
X39760000Y-36390000D01*
X40235000Y-32085000D02*
X40265000Y-32115000D01*
X40265000Y-32085000D02*
X40235000Y-32115000D01*
X40235000Y-38310000D02*
X40265000Y-38340000D01*
X40265000Y-38310000D02*
X40235000Y-38340000D01*
X40597500Y-33972500D02*
X40627500Y-34002500D01*
X40627500Y-33972500D02*
X40597500Y-34002500D01*
X40710000Y-34485000D02*
X40740000Y-34515000D01*
X40740000Y-34485000D02*
X40710000Y-34515000D01*
X41660000Y-36360000D02*
X41690000Y-36390000D01*
X41690000Y-36360000D02*
X41660000Y-36390000D01*
X41895000Y-42133125D02*
X41925000Y-42163125D01*
X41925000Y-42133125D02*
X41895000Y-42163125D01*
X42135000Y-32085000D02*
X42165000Y-32115000D01*
X42165000Y-32085000D02*
X42135000Y-32115000D01*
X42135000Y-38310000D02*
X42165000Y-38340000D01*
X42165000Y-38310000D02*
X42135000Y-38340000D01*
X42835000Y-40210000D02*
X42865000Y-40240000D01*
X42865000Y-40210000D02*
X42835000Y-40240000D01*
X43560000Y-34485000D02*
X43590000Y-34515000D01*
X43590000Y-34485000D02*
X43560000Y-34515000D01*
X44276250Y-42133125D02*
X44306250Y-42163125D01*
X44306250Y-42133125D02*
X44276250Y-42163125D01*
X44285000Y-37360000D02*
X44315000Y-37390000D01*
X44315000Y-37360000D02*
X44285000Y-37390000D01*
X44535000Y-32060000D02*
X44565000Y-32090000D01*
X44565000Y-32060000D02*
X44535000Y-32090000D01*
X45085000Y-35760000D02*
X45115000Y-35790000D01*
X45115000Y-35760000D02*
X45085000Y-35790000D01*
X45510000Y-33835000D02*
X45540000Y-33865000D01*
X45540000Y-33835000D02*
X45510000Y-33865000D01*
X45610000Y-33835000D02*
X45640000Y-33865000D01*
X45640000Y-33835000D02*
X45610000Y-33865000D01*
X45710000Y-33835000D02*
X45740000Y-33865000D01*
X45740000Y-33835000D02*
X45710000Y-33865000D01*
X45810000Y-33835000D02*
X45840000Y-33865000D01*
X45840000Y-33835000D02*
X45810000Y-33865000D01*
X45910000Y-33835000D02*
X45940000Y-33865000D01*
X45940000Y-33835000D02*
X45910000Y-33865000D01*
X46010000Y-33835000D02*
X46040000Y-33865000D01*
X46040000Y-33835000D02*
X46010000Y-33865000D01*
X46110000Y-33835000D02*
X46140000Y-33865000D01*
X46140000Y-33835000D02*
X46110000Y-33865000D01*
X46210000Y-33835000D02*
X46240000Y-33865000D01*
X46240000Y-33835000D02*
X46210000Y-33865000D01*
X46310000Y-33836395D02*
X46340000Y-33866395D01*
X46340000Y-33836395D02*
X46310000Y-33866395D01*
X46410000Y-33835000D02*
X46440000Y-33865000D01*
X46440000Y-33835000D02*
X46410000Y-33865000D01*
X46510000Y-33835000D02*
X46540000Y-33865000D01*
X46540000Y-33835000D02*
X46510000Y-33865000D01*
X46610000Y-33835000D02*
X46640000Y-33865000D01*
X46640000Y-33835000D02*
X46610000Y-33865000D01*
X46895625Y-36418125D02*
X46925625Y-36448125D01*
X46925625Y-36418125D02*
X46895625Y-36448125D01*
X46895625Y-42133125D02*
X46925625Y-42163125D01*
X46925625Y-42133125D02*
X46895625Y-42163125D01*
X46910000Y-32135000D02*
X46940000Y-32165000D01*
X46940000Y-32135000D02*
X46910000Y-32165000D01*
X46910000Y-34460000D02*
X46940000Y-34490000D01*
X46940000Y-34460000D02*
X46910000Y-34490000D01*
X47460000Y-35760000D02*
X47490000Y-35790000D01*
X47490000Y-35760000D02*
X47460000Y-35790000D01*
X48800625Y-36418125D02*
X48830625Y-36448125D01*
X48830625Y-36418125D02*
X48800625Y-36448125D01*
X48800625Y-40228125D02*
X48830625Y-40258125D01*
X48830625Y-40228125D02*
X48800625Y-40258125D01*
X48800625Y-42133125D02*
X48830625Y-42163125D01*
X48830625Y-42133125D02*
X48800625Y-42163125D01*
X48810000Y-32135000D02*
X48840000Y-32165000D01*
X48840000Y-32135000D02*
X48810000Y-32165000D01*
X48810000Y-34460000D02*
X48840000Y-34490000D01*
X48840000Y-34460000D02*
X48810000Y-34490000D01*
X50705625Y-36418125D02*
X50735625Y-36448125D01*
X50735625Y-36418125D02*
X50705625Y-36448125D01*
X50705625Y-42133125D02*
X50735625Y-42163125D01*
X50735625Y-42133125D02*
X50705625Y-42163125D01*
X50710000Y-32110000D02*
X50740000Y-32140000D01*
X50740000Y-32110000D02*
X50710000Y-32140000D01*
X50710000Y-34485000D02*
X50740000Y-34515000D01*
X50740000Y-34485000D02*
X50710000Y-34515000D01*
X36000000Y-32150000D02*
G75*
G02*
X35900000Y-32150000I-50000J0D01*
G01*
X35900000Y-32150000D02*
G75*
G02*
X36000000Y-32150000I50000J0D01*
G01*
X36000000Y-32404000D02*
G75*
G02*
X35900000Y-32404000I-50000J0D01*
G01*
X35900000Y-32404000D02*
G75*
G02*
X36000000Y-32404000I50000J0D01*
G01*
X36000000Y-32658000D02*
G75*
G02*
X35900000Y-32658000I-50000J0D01*
G01*
X35900000Y-32658000D02*
G75*
G02*
X36000000Y-32658000I50000J0D01*
G01*
X36000000Y-32912000D02*
G75*
G02*
X35900000Y-32912000I-50000J0D01*
G01*
X35900000Y-32912000D02*
G75*
G02*
X36000000Y-32912000I50000J0D01*
G01*
X47212000Y-38100000D02*
G75*
G02*
X47112000Y-38100000I-50000J0D01*
G01*
X47112000Y-38100000D02*
G75*
G02*
X47212000Y-38100000I50000J0D01*
G01*
X47212000Y-39624000D02*
G75*
G02*
X47112000Y-39624000I-50000J0D01*
G01*
X47112000Y-39624000D02*
G75*
G02*
X47212000Y-39624000I50000J0D01*
G01*
X47466000Y-38100000D02*
G75*
G02*
X47366000Y-38100000I-50000J0D01*
G01*
X47366000Y-38100000D02*
G75*
G02*
X47466000Y-38100000I50000J0D01*
G01*
X47466000Y-39624000D02*
G75*
G02*
X47366000Y-39624000I-50000J0D01*
G01*
X47366000Y-39624000D02*
G75*
G02*
X47466000Y-39624000I50000J0D01*
G01*
X47720000Y-38100000D02*
G75*
G02*
X47620000Y-38100000I-50000J0D01*
G01*
X47620000Y-38100000D02*
G75*
G02*
X47720000Y-38100000I50000J0D01*
G01*
X47720000Y-39624000D02*
G75*
G02*
X47620000Y-39624000I-50000J0D01*
G01*
X47620000Y-39624000D02*
G75*
G02*
X47720000Y-39624000I50000J0D01*
G01*
X47974000Y-38100000D02*
G75*
G02*
X47874000Y-38100000I-50000J0D01*
G01*
X47874000Y-38100000D02*
G75*
G02*
X47974000Y-38100000I50000J0D01*
G01*
X47974000Y-39624000D02*
G75*
G02*
X47874000Y-39624000I-50000J0D01*
G01*
X47874000Y-39624000D02*
G75*
G02*
X47974000Y-39624000I50000J0D01*
G01*
X48228000Y-38100000D02*
G75*
G02*
X48128000Y-38100000I-50000J0D01*
G01*
X48128000Y-38100000D02*
G75*
G02*
X48228000Y-38100000I50000J0D01*
G01*
X48228000Y-39624000D02*
G75*
G02*
X48128000Y-39624000I-50000J0D01*
G01*
X48128000Y-39624000D02*
G75*
G02*
X48228000Y-39624000I50000J0D01*
G01*
X48482000Y-38100000D02*
G75*
G02*
X48382000Y-38100000I-50000J0D01*
G01*
X48382000Y-38100000D02*
G75*
G02*
X48482000Y-38100000I50000J0D01*
G01*
X48482000Y-39624000D02*
G75*
G02*
X48382000Y-39624000I-50000J0D01*
G01*
X48382000Y-39624000D02*
G75*
G02*
X48482000Y-39624000I50000J0D01*
G01*
X48736000Y-38100000D02*
G75*
G02*
X48636000Y-38100000I-50000J0D01*
G01*
X48636000Y-38100000D02*
G75*
G02*
X48736000Y-38100000I50000J0D01*
G01*
X48736000Y-39624000D02*
G75*
G02*
X48636000Y-39624000I-50000J0D01*
G01*
X48636000Y-39624000D02*
G75*
G02*
X48736000Y-39624000I50000J0D01*
G01*
X48990000Y-38100000D02*
G75*
G02*
X48890000Y-38100000I-50000J0D01*
G01*
X48890000Y-38100000D02*
G75*
G02*
X48990000Y-38100000I50000J0D01*
G01*
X48990000Y-39624000D02*
G75*
G02*
X48890000Y-39624000I-50000J0D01*
G01*
X48890000Y-39624000D02*
G75*
G02*
X48990000Y-39624000I50000J0D01*
G01*
X49244000Y-38100000D02*
G75*
G02*
X49144000Y-38100000I-50000J0D01*
G01*
X49144000Y-38100000D02*
G75*
G02*
X49244000Y-38100000I50000J0D01*
G01*
X49244000Y-39624000D02*
G75*
G02*
X49144000Y-39624000I-50000J0D01*
G01*
X49144000Y-39624000D02*
G75*
G02*
X49244000Y-39624000I50000J0D01*
G01*
X49498000Y-38100000D02*
G75*
G02*
X49398000Y-38100000I-50000J0D01*
G01*
X49398000Y-38100000D02*
G75*
G02*
X49498000Y-38100000I50000J0D01*
G01*
X49498000Y-39624000D02*
G75*
G02*
X49398000Y-39624000I-50000J0D01*
G01*
X49398000Y-39624000D02*
G75*
G02*
X49498000Y-39624000I50000J0D01*
G01*
X49752000Y-38100000D02*
G75*
G02*
X49652000Y-38100000I-50000J0D01*
G01*
X49652000Y-38100000D02*
G75*
G02*
X49752000Y-38100000I50000J0D01*
G01*
X49752000Y-39624000D02*
G75*
G02*
X49652000Y-39624000I-50000J0D01*
G01*
X49652000Y-39624000D02*
G75*
G02*
X49752000Y-39624000I50000J0D01*
G01*
X50006000Y-38100000D02*
G75*
G02*
X49906000Y-38100000I-50000J0D01*
G01*
X49906000Y-38100000D02*
G75*
G02*
X50006000Y-38100000I50000J0D01*
G01*
X50006000Y-39624000D02*
G75*
G02*
X49906000Y-39624000I-50000J0D01*
G01*
X49906000Y-39624000D02*
G75*
G02*
X50006000Y-39624000I50000J0D01*
G01*
X50260000Y-38100000D02*
G75*
G02*
X50160000Y-38100000I-50000J0D01*
G01*
X50160000Y-38100000D02*
G75*
G02*
X50260000Y-38100000I50000J0D01*
G01*
X50260000Y-39624000D02*
G75*
G02*
X50160000Y-39624000I-50000J0D01*
G01*
X50160000Y-39624000D02*
G75*
G02*
X50260000Y-39624000I50000J0D01*
G01*
X50514000Y-38100000D02*
G75*
G02*
X50414000Y-38100000I-50000J0D01*
G01*
X50414000Y-38100000D02*
G75*
G02*
X50514000Y-38100000I50000J0D01*
G01*
X50514000Y-39624000D02*
G75*
G02*
X50414000Y-39624000I-50000J0D01*
G01*
X50414000Y-39624000D02*
G75*
G02*
X50514000Y-39624000I50000J0D01*
G01*
X50768000Y-38100000D02*
G75*
G02*
X50668000Y-38100000I-50000J0D01*
G01*
X50668000Y-38100000D02*
G75*
G02*
X50768000Y-38100000I50000J0D01*
G01*
X50768000Y-39624000D02*
G75*
G02*
X50668000Y-39624000I-50000J0D01*
G01*
X50668000Y-39624000D02*
G75*
G02*
X50768000Y-39624000I50000J0D01*
G01*
X51022000Y-38100000D02*
G75*
G02*
X50922000Y-38100000I-50000J0D01*
G01*
X50922000Y-38100000D02*
G75*
G02*
X51022000Y-38100000I50000J0D01*
G01*
X51022000Y-39624000D02*
G75*
G02*
X50922000Y-39624000I-50000J0D01*
G01*
X50922000Y-39624000D02*
G75*
G02*
X51022000Y-39624000I50000J0D01*
G01*
X51276000Y-38100000D02*
G75*
G02*
X51176000Y-38100000I-50000J0D01*
G01*
X51176000Y-38100000D02*
G75*
G02*
X51276000Y-38100000I50000J0D01*
G01*
X51276000Y-39624000D02*
G75*
G02*
X51176000Y-39624000I-50000J0D01*
G01*
X51176000Y-39624000D02*
G75*
G02*
X51276000Y-39624000I50000J0D01*
G01*
X51530000Y-38100000D02*
G75*
G02*
X51430000Y-38100000I-50000J0D01*
G01*
X51430000Y-38100000D02*
G75*
G02*
X51530000Y-38100000I50000J0D01*
G01*
X51530000Y-39624000D02*
G75*
G02*
X51430000Y-39624000I-50000J0D01*
G01*
X51430000Y-39624000D02*
G75*
G02*
X51530000Y-39624000I50000J0D01*
G01*
X51784000Y-38100000D02*
G75*
G02*
X51684000Y-38100000I-50000J0D01*
G01*
X51684000Y-38100000D02*
G75*
G02*
X51784000Y-38100000I50000J0D01*
G01*
X51784000Y-39624000D02*
G75*
G02*
X51684000Y-39624000I-50000J0D01*
G01*
X51684000Y-39624000D02*
G75*
G02*
X51784000Y-39624000I50000J0D01*
G01*
X52038000Y-38100000D02*
G75*
G02*
X51938000Y-38100000I-50000J0D01*
G01*
X51938000Y-38100000D02*
G75*
G02*
X52038000Y-38100000I50000J0D01*
G01*
X52038000Y-39624000D02*
G75*
G02*
X51938000Y-39624000I-50000J0D01*
G01*
X51938000Y-39624000D02*
G75*
G02*
X52038000Y-39624000I50000J0D01*
G01*
D11*
X17558277Y-44213984D02*
X17558277Y-44013984D01*
X17558277Y-44013984D02*
X17605896Y-44013984D01*
X17605896Y-44013984D02*
X17634467Y-44023508D01*
X17634467Y-44023508D02*
X17653515Y-44042555D01*
X17653515Y-44042555D02*
X17663039Y-44061603D01*
X17663039Y-44061603D02*
X17672563Y-44099698D01*
X17672563Y-44099698D02*
X17672563Y-44128270D01*
X17672563Y-44128270D02*
X17663039Y-44166365D01*
X17663039Y-44166365D02*
X17653515Y-44185412D01*
X17653515Y-44185412D02*
X17634467Y-44204460D01*
X17634467Y-44204460D02*
X17605896Y-44213984D01*
X17605896Y-44213984D02*
X17558277Y-44213984D01*
X17758277Y-44213984D02*
X17758277Y-44080650D01*
X17758277Y-44118746D02*
X17767801Y-44099698D01*
X17767801Y-44099698D02*
X17777324Y-44090174D01*
X17777324Y-44090174D02*
X17796372Y-44080650D01*
X17796372Y-44080650D02*
X17815420Y-44080650D01*
X17882086Y-44213984D02*
X17882086Y-44080650D01*
X17882086Y-44013984D02*
X17872563Y-44023508D01*
X17872563Y-44023508D02*
X17882086Y-44033031D01*
X17882086Y-44033031D02*
X17891610Y-44023508D01*
X17891610Y-44023508D02*
X17882086Y-44013984D01*
X17882086Y-44013984D02*
X17882086Y-44033031D01*
X18005896Y-44213984D02*
X17986848Y-44204460D01*
X17986848Y-44204460D02*
X17977324Y-44185412D01*
X17977324Y-44185412D02*
X17977324Y-44013984D01*
X18110658Y-44213984D02*
X18091610Y-44204460D01*
X18091610Y-44204460D02*
X18082086Y-44185412D01*
X18082086Y-44185412D02*
X18082086Y-44013984D01*
X18339229Y-44213984D02*
X18339229Y-44013984D01*
X18339229Y-44013984D02*
X18405896Y-44156841D01*
X18405896Y-44156841D02*
X18472563Y-44013984D01*
X18472563Y-44013984D02*
X18472563Y-44213984D01*
X18653515Y-44213984D02*
X18653515Y-44109222D01*
X18653515Y-44109222D02*
X18643991Y-44090174D01*
X18643991Y-44090174D02*
X18624944Y-44080650D01*
X18624944Y-44080650D02*
X18586848Y-44080650D01*
X18586848Y-44080650D02*
X18567801Y-44090174D01*
X18653515Y-44204460D02*
X18634467Y-44213984D01*
X18634467Y-44213984D02*
X18586848Y-44213984D01*
X18586848Y-44213984D02*
X18567801Y-44204460D01*
X18567801Y-44204460D02*
X18558277Y-44185412D01*
X18558277Y-44185412D02*
X18558277Y-44166365D01*
X18558277Y-44166365D02*
X18567801Y-44147317D01*
X18567801Y-44147317D02*
X18586848Y-44137793D01*
X18586848Y-44137793D02*
X18634467Y-44137793D01*
X18634467Y-44137793D02*
X18653515Y-44128270D01*
X18748753Y-44080650D02*
X18748753Y-44280650D01*
X18748753Y-44090174D02*
X18767801Y-44080650D01*
X18767801Y-44080650D02*
X18805896Y-44080650D01*
X18805896Y-44080650D02*
X18824944Y-44090174D01*
X18824944Y-44090174D02*
X18834467Y-44099698D01*
X18834467Y-44099698D02*
X18843991Y-44118746D01*
X18843991Y-44118746D02*
X18843991Y-44175889D01*
X18843991Y-44175889D02*
X18834467Y-44194936D01*
X18834467Y-44194936D02*
X18824944Y-44204460D01*
X18824944Y-44204460D02*
X18805896Y-44213984D01*
X18805896Y-44213984D02*
X18767801Y-44213984D01*
X18767801Y-44213984D02*
X18748753Y-44204460D01*
X18929705Y-44194936D02*
X18939229Y-44204460D01*
X18939229Y-44204460D02*
X18929705Y-44213984D01*
X18929705Y-44213984D02*
X18920182Y-44204460D01*
X18920182Y-44204460D02*
X18929705Y-44194936D01*
X18929705Y-44194936D02*
X18929705Y-44213984D01*
X18929705Y-44090174D02*
X18939229Y-44099698D01*
X18939229Y-44099698D02*
X18929705Y-44109222D01*
X18929705Y-44109222D02*
X18920182Y-44099698D01*
X18920182Y-44099698D02*
X18929705Y-44090174D01*
X18929705Y-44090174D02*
X18929705Y-44109222D01*
D12*
X17267500Y-44527500D02*
X17297500Y-44557500D01*
X17297500Y-44527500D02*
X17267500Y-44557500D01*
D11*
X17596372Y-44433984D02*
X17615420Y-44433984D01*
X17615420Y-44433984D02*
X17634467Y-44443508D01*
X17634467Y-44443508D02*
X17643991Y-44453031D01*
X17643991Y-44453031D02*
X17653515Y-44472079D01*
X17653515Y-44472079D02*
X17663039Y-44510174D01*
X17663039Y-44510174D02*
X17663039Y-44557793D01*
X17663039Y-44557793D02*
X17653515Y-44595889D01*
X17653515Y-44595889D02*
X17643991Y-44614936D01*
X17643991Y-44614936D02*
X17634467Y-44624460D01*
X17634467Y-44624460D02*
X17615420Y-44633984D01*
X17615420Y-44633984D02*
X17596372Y-44633984D01*
X17596372Y-44633984D02*
X17577324Y-44624460D01*
X17577324Y-44624460D02*
X17567801Y-44614936D01*
X17567801Y-44614936D02*
X17558277Y-44595889D01*
X17558277Y-44595889D02*
X17548753Y-44557793D01*
X17548753Y-44557793D02*
X17548753Y-44510174D01*
X17548753Y-44510174D02*
X17558277Y-44472079D01*
X17558277Y-44472079D02*
X17567801Y-44453031D01*
X17567801Y-44453031D02*
X17577324Y-44443508D01*
X17577324Y-44443508D02*
X17596372Y-44433984D01*
X17748753Y-44614936D02*
X17758277Y-44624460D01*
X17758277Y-44624460D02*
X17748753Y-44633984D01*
X17748753Y-44633984D02*
X17739229Y-44624460D01*
X17739229Y-44624460D02*
X17748753Y-44614936D01*
X17748753Y-44614936D02*
X17748753Y-44633984D01*
X17824944Y-44433984D02*
X17948753Y-44433984D01*
X17948753Y-44433984D02*
X17882086Y-44510174D01*
X17882086Y-44510174D02*
X17910658Y-44510174D01*
X17910658Y-44510174D02*
X17929705Y-44519698D01*
X17929705Y-44519698D02*
X17939229Y-44529222D01*
X17939229Y-44529222D02*
X17948753Y-44548270D01*
X17948753Y-44548270D02*
X17948753Y-44595889D01*
X17948753Y-44595889D02*
X17939229Y-44614936D01*
X17939229Y-44614936D02*
X17929705Y-44624460D01*
X17929705Y-44624460D02*
X17910658Y-44633984D01*
X17910658Y-44633984D02*
X17853515Y-44633984D01*
X17853515Y-44633984D02*
X17834467Y-44624460D01*
X17834467Y-44624460D02*
X17824944Y-44614936D01*
X18072563Y-44433984D02*
X18091610Y-44433984D01*
X18091610Y-44433984D02*
X18110658Y-44443508D01*
X18110658Y-44443508D02*
X18120182Y-44453031D01*
X18120182Y-44453031D02*
X18129705Y-44472079D01*
X18129705Y-44472079D02*
X18139229Y-44510174D01*
X18139229Y-44510174D02*
X18139229Y-44557793D01*
X18139229Y-44557793D02*
X18129705Y-44595889D01*
X18129705Y-44595889D02*
X18120182Y-44614936D01*
X18120182Y-44614936D02*
X18110658Y-44624460D01*
X18110658Y-44624460D02*
X18091610Y-44633984D01*
X18091610Y-44633984D02*
X18072563Y-44633984D01*
X18072563Y-44633984D02*
X18053515Y-44624460D01*
X18053515Y-44624460D02*
X18043991Y-44614936D01*
X18043991Y-44614936D02*
X18034467Y-44595889D01*
X18034467Y-44595889D02*
X18024944Y-44557793D01*
X18024944Y-44557793D02*
X18024944Y-44510174D01*
X18024944Y-44510174D02*
X18034467Y-44472079D01*
X18034467Y-44472079D02*
X18043991Y-44453031D01*
X18043991Y-44453031D02*
X18053515Y-44443508D01*
X18053515Y-44443508D02*
X18072563Y-44433984D01*
X18263039Y-44433984D02*
X18282086Y-44433984D01*
X18282086Y-44433984D02*
X18301134Y-44443508D01*
X18301134Y-44443508D02*
X18310658Y-44453031D01*
X18310658Y-44453031D02*
X18320182Y-44472079D01*
X18320182Y-44472079D02*
X18329705Y-44510174D01*
X18329705Y-44510174D02*
X18329705Y-44557793D01*
X18329705Y-44557793D02*
X18320182Y-44595889D01*
X18320182Y-44595889D02*
X18310658Y-44614936D01*
X18310658Y-44614936D02*
X18301134Y-44624460D01*
X18301134Y-44624460D02*
X18282086Y-44633984D01*
X18282086Y-44633984D02*
X18263039Y-44633984D01*
X18263039Y-44633984D02*
X18243991Y-44624460D01*
X18243991Y-44624460D02*
X18234467Y-44614936D01*
X18234467Y-44614936D02*
X18224944Y-44595889D01*
X18224944Y-44595889D02*
X18215420Y-44557793D01*
X18215420Y-44557793D02*
X18215420Y-44510174D01*
X18215420Y-44510174D02*
X18224944Y-44472079D01*
X18224944Y-44472079D02*
X18234467Y-44453031D01*
X18234467Y-44453031D02*
X18243991Y-44443508D01*
X18243991Y-44443508D02*
X18263039Y-44433984D01*
X18415420Y-44633984D02*
X18415420Y-44500650D01*
X18415420Y-44519698D02*
X18424944Y-44510174D01*
X18424944Y-44510174D02*
X18443991Y-44500650D01*
X18443991Y-44500650D02*
X18472563Y-44500650D01*
X18472563Y-44500650D02*
X18491610Y-44510174D01*
X18491610Y-44510174D02*
X18501134Y-44529222D01*
X18501134Y-44529222D02*
X18501134Y-44633984D01*
X18501134Y-44529222D02*
X18510658Y-44510174D01*
X18510658Y-44510174D02*
X18529705Y-44500650D01*
X18529705Y-44500650D02*
X18558277Y-44500650D01*
X18558277Y-44500650D02*
X18577325Y-44510174D01*
X18577325Y-44510174D02*
X18586848Y-44529222D01*
X18586848Y-44529222D02*
X18586848Y-44633984D01*
X18682086Y-44633984D02*
X18682086Y-44500650D01*
X18682086Y-44519698D02*
X18691610Y-44510174D01*
X18691610Y-44510174D02*
X18710658Y-44500650D01*
X18710658Y-44500650D02*
X18739229Y-44500650D01*
X18739229Y-44500650D02*
X18758277Y-44510174D01*
X18758277Y-44510174D02*
X18767801Y-44529222D01*
X18767801Y-44529222D02*
X18767801Y-44633984D01*
X18767801Y-44529222D02*
X18777325Y-44510174D01*
X18777325Y-44510174D02*
X18796372Y-44500650D01*
X18796372Y-44500650D02*
X18824944Y-44500650D01*
X18824944Y-44500650D02*
X18843991Y-44510174D01*
X18843991Y-44510174D02*
X18853515Y-44529222D01*
X18853515Y-44529222D02*
X18853515Y-44633984D01*
X19243991Y-44424460D02*
X19072563Y-44681603D01*
X19501134Y-44433984D02*
X19520182Y-44433984D01*
X19520182Y-44433984D02*
X19539229Y-44443508D01*
X19539229Y-44443508D02*
X19548753Y-44453031D01*
X19548753Y-44453031D02*
X19558277Y-44472079D01*
X19558277Y-44472079D02*
X19567801Y-44510174D01*
X19567801Y-44510174D02*
X19567801Y-44557793D01*
X19567801Y-44557793D02*
X19558277Y-44595889D01*
X19558277Y-44595889D02*
X19548753Y-44614936D01*
X19548753Y-44614936D02*
X19539229Y-44624460D01*
X19539229Y-44624460D02*
X19520182Y-44633984D01*
X19520182Y-44633984D02*
X19501134Y-44633984D01*
X19501134Y-44633984D02*
X19482087Y-44624460D01*
X19482087Y-44624460D02*
X19472563Y-44614936D01*
X19472563Y-44614936D02*
X19463039Y-44595889D01*
X19463039Y-44595889D02*
X19453515Y-44557793D01*
X19453515Y-44557793D02*
X19453515Y-44510174D01*
X19453515Y-44510174D02*
X19463039Y-44472079D01*
X19463039Y-44472079D02*
X19472563Y-44453031D01*
X19472563Y-44453031D02*
X19482087Y-44443508D01*
X19482087Y-44443508D02*
X19501134Y-44433984D01*
X19653515Y-44614936D02*
X19663039Y-44624460D01*
X19663039Y-44624460D02*
X19653515Y-44633984D01*
X19653515Y-44633984D02*
X19643991Y-44624460D01*
X19643991Y-44624460D02*
X19653515Y-44614936D01*
X19653515Y-44614936D02*
X19653515Y-44633984D01*
X19786848Y-44433984D02*
X19805896Y-44433984D01*
X19805896Y-44433984D02*
X19824944Y-44443508D01*
X19824944Y-44443508D02*
X19834468Y-44453031D01*
X19834468Y-44453031D02*
X19843991Y-44472079D01*
X19843991Y-44472079D02*
X19853515Y-44510174D01*
X19853515Y-44510174D02*
X19853515Y-44557793D01*
X19853515Y-44557793D02*
X19843991Y-44595889D01*
X19843991Y-44595889D02*
X19834468Y-44614936D01*
X19834468Y-44614936D02*
X19824944Y-44624460D01*
X19824944Y-44624460D02*
X19805896Y-44633984D01*
X19805896Y-44633984D02*
X19786848Y-44633984D01*
X19786848Y-44633984D02*
X19767801Y-44624460D01*
X19767801Y-44624460D02*
X19758277Y-44614936D01*
X19758277Y-44614936D02*
X19748753Y-44595889D01*
X19748753Y-44595889D02*
X19739229Y-44557793D01*
X19739229Y-44557793D02*
X19739229Y-44510174D01*
X19739229Y-44510174D02*
X19748753Y-44472079D01*
X19748753Y-44472079D02*
X19758277Y-44453031D01*
X19758277Y-44453031D02*
X19767801Y-44443508D01*
X19767801Y-44443508D02*
X19786848Y-44433984D01*
X20043991Y-44633984D02*
X19929706Y-44633984D01*
X19986848Y-44633984D02*
X19986848Y-44433984D01*
X19986848Y-44433984D02*
X19967801Y-44462555D01*
X19967801Y-44462555D02*
X19948753Y-44481603D01*
X19948753Y-44481603D02*
X19929706Y-44491127D01*
X20234468Y-44633984D02*
X20120182Y-44633984D01*
X20177325Y-44633984D02*
X20177325Y-44433984D01*
X20177325Y-44433984D02*
X20158277Y-44462555D01*
X20158277Y-44462555D02*
X20139229Y-44481603D01*
X20139229Y-44481603D02*
X20120182Y-44491127D01*
X20348753Y-44519698D02*
X20329706Y-44510174D01*
X20329706Y-44510174D02*
X20320182Y-44500650D01*
X20320182Y-44500650D02*
X20310658Y-44481603D01*
X20310658Y-44481603D02*
X20310658Y-44472079D01*
X20310658Y-44472079D02*
X20320182Y-44453031D01*
X20320182Y-44453031D02*
X20329706Y-44443508D01*
X20329706Y-44443508D02*
X20348753Y-44433984D01*
X20348753Y-44433984D02*
X20386849Y-44433984D01*
X20386849Y-44433984D02*
X20405896Y-44443508D01*
X20405896Y-44443508D02*
X20415420Y-44453031D01*
X20415420Y-44453031D02*
X20424944Y-44472079D01*
X20424944Y-44472079D02*
X20424944Y-44481603D01*
X20424944Y-44481603D02*
X20415420Y-44500650D01*
X20415420Y-44500650D02*
X20405896Y-44510174D01*
X20405896Y-44510174D02*
X20386849Y-44519698D01*
X20386849Y-44519698D02*
X20348753Y-44519698D01*
X20348753Y-44519698D02*
X20329706Y-44529222D01*
X20329706Y-44529222D02*
X20320182Y-44538746D01*
X20320182Y-44538746D02*
X20310658Y-44557793D01*
X20310658Y-44557793D02*
X20310658Y-44595889D01*
X20310658Y-44595889D02*
X20320182Y-44614936D01*
X20320182Y-44614936D02*
X20329706Y-44624460D01*
X20329706Y-44624460D02*
X20348753Y-44633984D01*
X20348753Y-44633984D02*
X20386849Y-44633984D01*
X20386849Y-44633984D02*
X20405896Y-44624460D01*
X20405896Y-44624460D02*
X20415420Y-44614936D01*
X20415420Y-44614936D02*
X20424944Y-44595889D01*
X20424944Y-44595889D02*
X20424944Y-44557793D01*
X20424944Y-44557793D02*
X20415420Y-44538746D01*
X20415420Y-44538746D02*
X20405896Y-44529222D01*
X20405896Y-44529222D02*
X20386849Y-44519698D01*
X20501134Y-44433984D02*
X20501134Y-44472079D01*
X20577325Y-44433984D02*
X20577325Y-44472079D01*
X20872563Y-44710174D02*
X20863039Y-44700650D01*
X20863039Y-44700650D02*
X20843991Y-44672079D01*
X20843991Y-44672079D02*
X20834468Y-44653031D01*
X20834468Y-44653031D02*
X20824944Y-44624460D01*
X20824944Y-44624460D02*
X20815420Y-44576841D01*
X20815420Y-44576841D02*
X20815420Y-44538746D01*
X20815420Y-44538746D02*
X20824944Y-44491127D01*
X20824944Y-44491127D02*
X20834468Y-44462555D01*
X20834468Y-44462555D02*
X20843991Y-44443508D01*
X20843991Y-44443508D02*
X20863039Y-44414936D01*
X20863039Y-44414936D02*
X20872563Y-44405412D01*
X21053515Y-44633984D02*
X20939230Y-44633984D01*
X20996372Y-44633984D02*
X20996372Y-44433984D01*
X20996372Y-44433984D02*
X20977325Y-44462555D01*
X20977325Y-44462555D02*
X20958277Y-44481603D01*
X20958277Y-44481603D02*
X20939230Y-44491127D01*
X21243991Y-44633984D02*
X21129706Y-44633984D01*
X21186849Y-44633984D02*
X21186849Y-44433984D01*
X21186849Y-44433984D02*
X21167801Y-44462555D01*
X21167801Y-44462555D02*
X21148753Y-44481603D01*
X21148753Y-44481603D02*
X21129706Y-44491127D01*
X21339230Y-44633984D02*
X21377325Y-44633984D01*
X21377325Y-44633984D02*
X21396372Y-44624460D01*
X21396372Y-44624460D02*
X21405896Y-44614936D01*
X21405896Y-44614936D02*
X21424944Y-44586365D01*
X21424944Y-44586365D02*
X21434468Y-44548270D01*
X21434468Y-44548270D02*
X21434468Y-44472079D01*
X21434468Y-44472079D02*
X21424944Y-44453031D01*
X21424944Y-44453031D02*
X21415420Y-44443508D01*
X21415420Y-44443508D02*
X21396372Y-44433984D01*
X21396372Y-44433984D02*
X21358277Y-44433984D01*
X21358277Y-44433984D02*
X21339230Y-44443508D01*
X21339230Y-44443508D02*
X21329706Y-44453031D01*
X21329706Y-44453031D02*
X21320182Y-44472079D01*
X21320182Y-44472079D02*
X21320182Y-44519698D01*
X21320182Y-44519698D02*
X21329706Y-44538746D01*
X21329706Y-44538746D02*
X21339230Y-44548270D01*
X21339230Y-44548270D02*
X21358277Y-44557793D01*
X21358277Y-44557793D02*
X21396372Y-44557793D01*
X21396372Y-44557793D02*
X21415420Y-44548270D01*
X21415420Y-44548270D02*
X21424944Y-44538746D01*
X21424944Y-44538746D02*
X21434468Y-44519698D01*
X21672563Y-44633984D02*
X21672563Y-44433984D01*
X21758277Y-44633984D02*
X21758277Y-44529222D01*
X21758277Y-44529222D02*
X21748753Y-44510174D01*
X21748753Y-44510174D02*
X21729706Y-44500650D01*
X21729706Y-44500650D02*
X21701134Y-44500650D01*
X21701134Y-44500650D02*
X21682087Y-44510174D01*
X21682087Y-44510174D02*
X21672563Y-44519698D01*
X21882087Y-44633984D02*
X21863039Y-44624460D01*
X21863039Y-44624460D02*
X21853515Y-44614936D01*
X21853515Y-44614936D02*
X21843992Y-44595889D01*
X21843992Y-44595889D02*
X21843992Y-44538746D01*
X21843992Y-44538746D02*
X21853515Y-44519698D01*
X21853515Y-44519698D02*
X21863039Y-44510174D01*
X21863039Y-44510174D02*
X21882087Y-44500650D01*
X21882087Y-44500650D02*
X21910658Y-44500650D01*
X21910658Y-44500650D02*
X21929706Y-44510174D01*
X21929706Y-44510174D02*
X21939230Y-44519698D01*
X21939230Y-44519698D02*
X21948753Y-44538746D01*
X21948753Y-44538746D02*
X21948753Y-44595889D01*
X21948753Y-44595889D02*
X21939230Y-44614936D01*
X21939230Y-44614936D02*
X21929706Y-44624460D01*
X21929706Y-44624460D02*
X21910658Y-44633984D01*
X21910658Y-44633984D02*
X21882087Y-44633984D01*
X22063039Y-44633984D02*
X22043992Y-44624460D01*
X22043992Y-44624460D02*
X22034468Y-44605412D01*
X22034468Y-44605412D02*
X22034468Y-44433984D01*
X22215420Y-44624460D02*
X22196373Y-44633984D01*
X22196373Y-44633984D02*
X22158277Y-44633984D01*
X22158277Y-44633984D02*
X22139230Y-44624460D01*
X22139230Y-44624460D02*
X22129706Y-44605412D01*
X22129706Y-44605412D02*
X22129706Y-44529222D01*
X22129706Y-44529222D02*
X22139230Y-44510174D01*
X22139230Y-44510174D02*
X22158277Y-44500650D01*
X22158277Y-44500650D02*
X22196373Y-44500650D01*
X22196373Y-44500650D02*
X22215420Y-44510174D01*
X22215420Y-44510174D02*
X22224944Y-44529222D01*
X22224944Y-44529222D02*
X22224944Y-44548270D01*
X22224944Y-44548270D02*
X22129706Y-44567317D01*
X22301134Y-44624460D02*
X22320182Y-44633984D01*
X22320182Y-44633984D02*
X22358277Y-44633984D01*
X22358277Y-44633984D02*
X22377325Y-44624460D01*
X22377325Y-44624460D02*
X22386849Y-44605412D01*
X22386849Y-44605412D02*
X22386849Y-44595889D01*
X22386849Y-44595889D02*
X22377325Y-44576841D01*
X22377325Y-44576841D02*
X22358277Y-44567317D01*
X22358277Y-44567317D02*
X22329706Y-44567317D01*
X22329706Y-44567317D02*
X22310658Y-44557793D01*
X22310658Y-44557793D02*
X22301134Y-44538746D01*
X22301134Y-44538746D02*
X22301134Y-44529222D01*
X22301134Y-44529222D02*
X22310658Y-44510174D01*
X22310658Y-44510174D02*
X22329706Y-44500650D01*
X22329706Y-44500650D02*
X22358277Y-44500650D01*
X22358277Y-44500650D02*
X22377325Y-44510174D01*
X22453515Y-44710174D02*
X22463039Y-44700650D01*
X22463039Y-44700650D02*
X22482087Y-44672079D01*
X22482087Y-44672079D02*
X22491611Y-44653031D01*
X22491611Y-44653031D02*
X22501134Y-44624460D01*
X22501134Y-44624460D02*
X22510658Y-44576841D01*
X22510658Y-44576841D02*
X22510658Y-44538746D01*
X22510658Y-44538746D02*
X22501134Y-44491127D01*
X22501134Y-44491127D02*
X22491611Y-44462555D01*
X22491611Y-44462555D02*
X22482087Y-44443508D01*
X22482087Y-44443508D02*
X22463039Y-44414936D01*
X22463039Y-44414936D02*
X22453515Y-44405412D01*
D12*
X17297500Y-44806500D02*
G75*
G02*
X17197500Y-44806500I-50000J0D01*
G01*
X17197500Y-44806500D02*
G75*
G02*
X17297500Y-44806500I50000J0D01*
G01*
D11*
X17663039Y-44897984D02*
X17548753Y-44897984D01*
X17605896Y-44897984D02*
X17605896Y-44697984D01*
X17605896Y-44697984D02*
X17586848Y-44726555D01*
X17586848Y-44726555D02*
X17567801Y-44745603D01*
X17567801Y-44745603D02*
X17548753Y-44755127D01*
X17748753Y-44878936D02*
X17758277Y-44888460D01*
X17758277Y-44888460D02*
X17748753Y-44897984D01*
X17748753Y-44897984D02*
X17739229Y-44888460D01*
X17739229Y-44888460D02*
X17748753Y-44878936D01*
X17748753Y-44878936D02*
X17748753Y-44897984D01*
X17882086Y-44697984D02*
X17901134Y-44697984D01*
X17901134Y-44697984D02*
X17920182Y-44707508D01*
X17920182Y-44707508D02*
X17929705Y-44717031D01*
X17929705Y-44717031D02*
X17939229Y-44736079D01*
X17939229Y-44736079D02*
X17948753Y-44774174D01*
X17948753Y-44774174D02*
X17948753Y-44821793D01*
X17948753Y-44821793D02*
X17939229Y-44859888D01*
X17939229Y-44859888D02*
X17929705Y-44878936D01*
X17929705Y-44878936D02*
X17920182Y-44888460D01*
X17920182Y-44888460D02*
X17901134Y-44897984D01*
X17901134Y-44897984D02*
X17882086Y-44897984D01*
X17882086Y-44897984D02*
X17863039Y-44888460D01*
X17863039Y-44888460D02*
X17853515Y-44878936D01*
X17853515Y-44878936D02*
X17843991Y-44859888D01*
X17843991Y-44859888D02*
X17834467Y-44821793D01*
X17834467Y-44821793D02*
X17834467Y-44774174D01*
X17834467Y-44774174D02*
X17843991Y-44736079D01*
X17843991Y-44736079D02*
X17853515Y-44717031D01*
X17853515Y-44717031D02*
X17863039Y-44707508D01*
X17863039Y-44707508D02*
X17882086Y-44697984D01*
X18072563Y-44697984D02*
X18091610Y-44697984D01*
X18091610Y-44697984D02*
X18110658Y-44707508D01*
X18110658Y-44707508D02*
X18120182Y-44717031D01*
X18120182Y-44717031D02*
X18129705Y-44736079D01*
X18129705Y-44736079D02*
X18139229Y-44774174D01*
X18139229Y-44774174D02*
X18139229Y-44821793D01*
X18139229Y-44821793D02*
X18129705Y-44859888D01*
X18129705Y-44859888D02*
X18120182Y-44878936D01*
X18120182Y-44878936D02*
X18110658Y-44888460D01*
X18110658Y-44888460D02*
X18091610Y-44897984D01*
X18091610Y-44897984D02*
X18072563Y-44897984D01*
X18072563Y-44897984D02*
X18053515Y-44888460D01*
X18053515Y-44888460D02*
X18043991Y-44878936D01*
X18043991Y-44878936D02*
X18034467Y-44859888D01*
X18034467Y-44859888D02*
X18024944Y-44821793D01*
X18024944Y-44821793D02*
X18024944Y-44774174D01*
X18024944Y-44774174D02*
X18034467Y-44736079D01*
X18034467Y-44736079D02*
X18043991Y-44717031D01*
X18043991Y-44717031D02*
X18053515Y-44707508D01*
X18053515Y-44707508D02*
X18072563Y-44697984D01*
X18263039Y-44697984D02*
X18282086Y-44697984D01*
X18282086Y-44697984D02*
X18301134Y-44707508D01*
X18301134Y-44707508D02*
X18310658Y-44717031D01*
X18310658Y-44717031D02*
X18320182Y-44736079D01*
X18320182Y-44736079D02*
X18329705Y-44774174D01*
X18329705Y-44774174D02*
X18329705Y-44821793D01*
X18329705Y-44821793D02*
X18320182Y-44859888D01*
X18320182Y-44859888D02*
X18310658Y-44878936D01*
X18310658Y-44878936D02*
X18301134Y-44888460D01*
X18301134Y-44888460D02*
X18282086Y-44897984D01*
X18282086Y-44897984D02*
X18263039Y-44897984D01*
X18263039Y-44897984D02*
X18243991Y-44888460D01*
X18243991Y-44888460D02*
X18234467Y-44878936D01*
X18234467Y-44878936D02*
X18224944Y-44859888D01*
X18224944Y-44859888D02*
X18215420Y-44821793D01*
X18215420Y-44821793D02*
X18215420Y-44774174D01*
X18215420Y-44774174D02*
X18224944Y-44736079D01*
X18224944Y-44736079D02*
X18234467Y-44717031D01*
X18234467Y-44717031D02*
X18243991Y-44707508D01*
X18243991Y-44707508D02*
X18263039Y-44697984D01*
X18415420Y-44897984D02*
X18415420Y-44764650D01*
X18415420Y-44783698D02*
X18424944Y-44774174D01*
X18424944Y-44774174D02*
X18443991Y-44764650D01*
X18443991Y-44764650D02*
X18472563Y-44764650D01*
X18472563Y-44764650D02*
X18491610Y-44774174D01*
X18491610Y-44774174D02*
X18501134Y-44793222D01*
X18501134Y-44793222D02*
X18501134Y-44897984D01*
X18501134Y-44793222D02*
X18510658Y-44774174D01*
X18510658Y-44774174D02*
X18529705Y-44764650D01*
X18529705Y-44764650D02*
X18558277Y-44764650D01*
X18558277Y-44764650D02*
X18577325Y-44774174D01*
X18577325Y-44774174D02*
X18586848Y-44793222D01*
X18586848Y-44793222D02*
X18586848Y-44897984D01*
X18682086Y-44897984D02*
X18682086Y-44764650D01*
X18682086Y-44783698D02*
X18691610Y-44774174D01*
X18691610Y-44774174D02*
X18710658Y-44764650D01*
X18710658Y-44764650D02*
X18739229Y-44764650D01*
X18739229Y-44764650D02*
X18758277Y-44774174D01*
X18758277Y-44774174D02*
X18767801Y-44793222D01*
X18767801Y-44793222D02*
X18767801Y-44897984D01*
X18767801Y-44793222D02*
X18777325Y-44774174D01*
X18777325Y-44774174D02*
X18796372Y-44764650D01*
X18796372Y-44764650D02*
X18824944Y-44764650D01*
X18824944Y-44764650D02*
X18843991Y-44774174D01*
X18843991Y-44774174D02*
X18853515Y-44793222D01*
X18853515Y-44793222D02*
X18853515Y-44897984D01*
X19243991Y-44688460D02*
X19072563Y-44945603D01*
X19501134Y-44697984D02*
X19520182Y-44697984D01*
X19520182Y-44697984D02*
X19539229Y-44707508D01*
X19539229Y-44707508D02*
X19548753Y-44717031D01*
X19548753Y-44717031D02*
X19558277Y-44736079D01*
X19558277Y-44736079D02*
X19567801Y-44774174D01*
X19567801Y-44774174D02*
X19567801Y-44821793D01*
X19567801Y-44821793D02*
X19558277Y-44859888D01*
X19558277Y-44859888D02*
X19548753Y-44878936D01*
X19548753Y-44878936D02*
X19539229Y-44888460D01*
X19539229Y-44888460D02*
X19520182Y-44897984D01*
X19520182Y-44897984D02*
X19501134Y-44897984D01*
X19501134Y-44897984D02*
X19482087Y-44888460D01*
X19482087Y-44888460D02*
X19472563Y-44878936D01*
X19472563Y-44878936D02*
X19463039Y-44859888D01*
X19463039Y-44859888D02*
X19453515Y-44821793D01*
X19453515Y-44821793D02*
X19453515Y-44774174D01*
X19453515Y-44774174D02*
X19463039Y-44736079D01*
X19463039Y-44736079D02*
X19472563Y-44717031D01*
X19472563Y-44717031D02*
X19482087Y-44707508D01*
X19482087Y-44707508D02*
X19501134Y-44697984D01*
X19653515Y-44878936D02*
X19663039Y-44888460D01*
X19663039Y-44888460D02*
X19653515Y-44897984D01*
X19653515Y-44897984D02*
X19643991Y-44888460D01*
X19643991Y-44888460D02*
X19653515Y-44878936D01*
X19653515Y-44878936D02*
X19653515Y-44897984D01*
X19786848Y-44697984D02*
X19805896Y-44697984D01*
X19805896Y-44697984D02*
X19824944Y-44707508D01*
X19824944Y-44707508D02*
X19834468Y-44717031D01*
X19834468Y-44717031D02*
X19843991Y-44736079D01*
X19843991Y-44736079D02*
X19853515Y-44774174D01*
X19853515Y-44774174D02*
X19853515Y-44821793D01*
X19853515Y-44821793D02*
X19843991Y-44859888D01*
X19843991Y-44859888D02*
X19834468Y-44878936D01*
X19834468Y-44878936D02*
X19824944Y-44888460D01*
X19824944Y-44888460D02*
X19805896Y-44897984D01*
X19805896Y-44897984D02*
X19786848Y-44897984D01*
X19786848Y-44897984D02*
X19767801Y-44888460D01*
X19767801Y-44888460D02*
X19758277Y-44878936D01*
X19758277Y-44878936D02*
X19748753Y-44859888D01*
X19748753Y-44859888D02*
X19739229Y-44821793D01*
X19739229Y-44821793D02*
X19739229Y-44774174D01*
X19739229Y-44774174D02*
X19748753Y-44736079D01*
X19748753Y-44736079D02*
X19758277Y-44717031D01*
X19758277Y-44717031D02*
X19767801Y-44707508D01*
X19767801Y-44707508D02*
X19786848Y-44697984D01*
X19920182Y-44697984D02*
X20043991Y-44697984D01*
X20043991Y-44697984D02*
X19977325Y-44774174D01*
X19977325Y-44774174D02*
X20005896Y-44774174D01*
X20005896Y-44774174D02*
X20024944Y-44783698D01*
X20024944Y-44783698D02*
X20034468Y-44793222D01*
X20034468Y-44793222D02*
X20043991Y-44812269D01*
X20043991Y-44812269D02*
X20043991Y-44859888D01*
X20043991Y-44859888D02*
X20034468Y-44878936D01*
X20034468Y-44878936D02*
X20024944Y-44888460D01*
X20024944Y-44888460D02*
X20005896Y-44897984D01*
X20005896Y-44897984D02*
X19948753Y-44897984D01*
X19948753Y-44897984D02*
X19929706Y-44888460D01*
X19929706Y-44888460D02*
X19920182Y-44878936D01*
X20139229Y-44897984D02*
X20177325Y-44897984D01*
X20177325Y-44897984D02*
X20196372Y-44888460D01*
X20196372Y-44888460D02*
X20205896Y-44878936D01*
X20205896Y-44878936D02*
X20224944Y-44850365D01*
X20224944Y-44850365D02*
X20234468Y-44812269D01*
X20234468Y-44812269D02*
X20234468Y-44736079D01*
X20234468Y-44736079D02*
X20224944Y-44717031D01*
X20224944Y-44717031D02*
X20215420Y-44707508D01*
X20215420Y-44707508D02*
X20196372Y-44697984D01*
X20196372Y-44697984D02*
X20158277Y-44697984D01*
X20158277Y-44697984D02*
X20139229Y-44707508D01*
X20139229Y-44707508D02*
X20129706Y-44717031D01*
X20129706Y-44717031D02*
X20120182Y-44736079D01*
X20120182Y-44736079D02*
X20120182Y-44783698D01*
X20120182Y-44783698D02*
X20129706Y-44802746D01*
X20129706Y-44802746D02*
X20139229Y-44812269D01*
X20139229Y-44812269D02*
X20158277Y-44821793D01*
X20158277Y-44821793D02*
X20196372Y-44821793D01*
X20196372Y-44821793D02*
X20215420Y-44812269D01*
X20215420Y-44812269D02*
X20224944Y-44802746D01*
X20224944Y-44802746D02*
X20234468Y-44783698D01*
X20405896Y-44764650D02*
X20405896Y-44897984D01*
X20358277Y-44688460D02*
X20310658Y-44831317D01*
X20310658Y-44831317D02*
X20434468Y-44831317D01*
X20501134Y-44697984D02*
X20501134Y-44736079D01*
X20577325Y-44697984D02*
X20577325Y-44736079D01*
X20872563Y-44974174D02*
X20863039Y-44964650D01*
X20863039Y-44964650D02*
X20843991Y-44936079D01*
X20843991Y-44936079D02*
X20834468Y-44917031D01*
X20834468Y-44917031D02*
X20824944Y-44888460D01*
X20824944Y-44888460D02*
X20815420Y-44840841D01*
X20815420Y-44840841D02*
X20815420Y-44802746D01*
X20815420Y-44802746D02*
X20824944Y-44755127D01*
X20824944Y-44755127D02*
X20834468Y-44726555D01*
X20834468Y-44726555D02*
X20843991Y-44707508D01*
X20843991Y-44707508D02*
X20863039Y-44678936D01*
X20863039Y-44678936D02*
X20872563Y-44669412D01*
X21034468Y-44764650D02*
X21034468Y-44897984D01*
X20986849Y-44688460D02*
X20939230Y-44831317D01*
X20939230Y-44831317D02*
X21063039Y-44831317D01*
X21224944Y-44764650D02*
X21224944Y-44897984D01*
X21177325Y-44688460D02*
X21129706Y-44831317D01*
X21129706Y-44831317D02*
X21253515Y-44831317D01*
X21482087Y-44897984D02*
X21482087Y-44697984D01*
X21567801Y-44897984D02*
X21567801Y-44793222D01*
X21567801Y-44793222D02*
X21558277Y-44774174D01*
X21558277Y-44774174D02*
X21539230Y-44764650D01*
X21539230Y-44764650D02*
X21510658Y-44764650D01*
X21510658Y-44764650D02*
X21491611Y-44774174D01*
X21491611Y-44774174D02*
X21482087Y-44783698D01*
X21691611Y-44897984D02*
X21672563Y-44888460D01*
X21672563Y-44888460D02*
X21663039Y-44878936D01*
X21663039Y-44878936D02*
X21653515Y-44859888D01*
X21653515Y-44859888D02*
X21653515Y-44802746D01*
X21653515Y-44802746D02*
X21663039Y-44783698D01*
X21663039Y-44783698D02*
X21672563Y-44774174D01*
X21672563Y-44774174D02*
X21691611Y-44764650D01*
X21691611Y-44764650D02*
X21720182Y-44764650D01*
X21720182Y-44764650D02*
X21739230Y-44774174D01*
X21739230Y-44774174D02*
X21748753Y-44783698D01*
X21748753Y-44783698D02*
X21758277Y-44802746D01*
X21758277Y-44802746D02*
X21758277Y-44859888D01*
X21758277Y-44859888D02*
X21748753Y-44878936D01*
X21748753Y-44878936D02*
X21739230Y-44888460D01*
X21739230Y-44888460D02*
X21720182Y-44897984D01*
X21720182Y-44897984D02*
X21691611Y-44897984D01*
X21872563Y-44897984D02*
X21853515Y-44888460D01*
X21853515Y-44888460D02*
X21843992Y-44869412D01*
X21843992Y-44869412D02*
X21843992Y-44697984D01*
X22024944Y-44888460D02*
X22005896Y-44897984D01*
X22005896Y-44897984D02*
X21967801Y-44897984D01*
X21967801Y-44897984D02*
X21948753Y-44888460D01*
X21948753Y-44888460D02*
X21939230Y-44869412D01*
X21939230Y-44869412D02*
X21939230Y-44793222D01*
X21939230Y-44793222D02*
X21948753Y-44774174D01*
X21948753Y-44774174D02*
X21967801Y-44764650D01*
X21967801Y-44764650D02*
X22005896Y-44764650D01*
X22005896Y-44764650D02*
X22024944Y-44774174D01*
X22024944Y-44774174D02*
X22034468Y-44793222D01*
X22034468Y-44793222D02*
X22034468Y-44812269D01*
X22034468Y-44812269D02*
X21939230Y-44831317D01*
X22110658Y-44888460D02*
X22129706Y-44897984D01*
X22129706Y-44897984D02*
X22167801Y-44897984D01*
X22167801Y-44897984D02*
X22186849Y-44888460D01*
X22186849Y-44888460D02*
X22196373Y-44869412D01*
X22196373Y-44869412D02*
X22196373Y-44859888D01*
X22196373Y-44859888D02*
X22186849Y-44840841D01*
X22186849Y-44840841D02*
X22167801Y-44831317D01*
X22167801Y-44831317D02*
X22139230Y-44831317D01*
X22139230Y-44831317D02*
X22120182Y-44821793D01*
X22120182Y-44821793D02*
X22110658Y-44802746D01*
X22110658Y-44802746D02*
X22110658Y-44793222D01*
X22110658Y-44793222D02*
X22120182Y-44774174D01*
X22120182Y-44774174D02*
X22139230Y-44764650D01*
X22139230Y-44764650D02*
X22167801Y-44764650D01*
X22167801Y-44764650D02*
X22186849Y-44774174D01*
X22263039Y-44974174D02*
X22272563Y-44964650D01*
X22272563Y-44964650D02*
X22291611Y-44936079D01*
X22291611Y-44936079D02*
X22301134Y-44917031D01*
X22301134Y-44917031D02*
X22310658Y-44888460D01*
X22310658Y-44888460D02*
X22320182Y-44840841D01*
X22320182Y-44840841D02*
X22320182Y-44802746D01*
X22320182Y-44802746D02*
X22310658Y-44755127D01*
X22310658Y-44755127D02*
X22301134Y-44726555D01*
X22301134Y-44726555D02*
X22291611Y-44707508D01*
X22291611Y-44707508D02*
X22272563Y-44678936D01*
X22272563Y-44678936D02*
X22263039Y-44669412D01*
M02*
